<svg width="37" height="75" viewBox="0 0 37 75" fill="none" xmlns="http://www.w3.org/2000/svg">
<path d="M0.00351524 10.377H1.84922C1.9599 11.0996 2.25937 11.666 2.74766 12.0762C3.24245 12.4798 3.86745 12.6816 4.62266 12.6816C5.55365 12.6816 6.30234 12.3984 6.86875 11.832C7.44167 11.2656 7.72812 10.5202 7.72812 9.5957C7.72812 8.64518 7.45143 7.89323 6.89805 7.33984C6.34466 6.77995 5.59271 6.5 4.64219 6.5C4.10833 6.5 3.6168 6.60742 3.16758 6.82227C2.72487 7.03711 2.3375 7.35612 2.00547 7.7793H0.403906L1.50742 0.416016H8.90977V2.05664H2.82578L2.26914 5.79688C2.61419 5.50391 3.01133 5.28255 3.46055 5.13281C3.91628 4.97656 4.41107 4.89844 4.94492 4.89844C6.3707 4.89844 7.51328 5.31836 8.37266 6.1582C9.23203 6.99805 9.66172 8.11133 9.66172 9.49805C9.66172 10.9629 9.20599 12.1478 8.29453 13.0527C7.38307 13.9512 6.18841 14.4004 4.71055 14.4004C3.39544 14.4004 2.3082 14.0358 1.44883 13.3066C0.595963 12.571 0.114192 11.5944 0.00351524 10.377ZM12.6797 9.97656C12.6797 10.8294 12.9336 11.5 13.4414 11.9883C13.9492 12.4766 14.6426 12.7207 15.5215 12.7207C16.4069 12.7207 17.1035 12.4766 17.6113 11.9883C18.1257 11.4935 18.3828 10.8229 18.3828 9.97656C18.3828 9.1888 18.1257 8.56706 17.6113 8.11133C17.1035 7.64909 16.4069 7.41797 15.5215 7.41797C14.6361 7.41797 13.9395 7.64583 13.4316 8.10156C12.9303 8.55729 12.6797 9.18229 12.6797 9.97656ZM13.0996 3.75586C13.0996 4.41992 13.321 4.95378 13.7637 5.35742C14.2064 5.76107 14.7923 5.96289 15.5215 5.96289C16.2507 5.96289 16.8366 5.76107 17.2793 5.35742C17.722 4.95378 17.9434 4.41992 17.9434 3.75586C17.9434 3.08529 17.7285 2.5612 17.2988 2.18359C16.8757 1.80599 16.2832 1.61719 15.5215 1.61719C14.7663 1.61719 14.1738 1.80599 13.7441 2.18359C13.3145 2.5612 13.0996 3.08529 13.0996 3.75586ZM13.0605 6.51953C12.4421 6.23958 11.9798 5.85872 11.6738 5.37695C11.3743 4.89518 11.2246 4.30273 11.2246 3.59961C11.2246 2.5319 11.6185 1.66927 12.4062 1.01172C13.194 0.347656 14.2324 0.015625 15.5215 0.015625C16.8171 0.015625 17.862 0.347656 18.6562 1.01172C19.4505 1.67578 19.8477 2.53841 19.8477 3.59961C19.8477 4.30273 19.6947 4.89518 19.3887 5.37695C19.0827 5.85872 18.6204 6.23958 18.002 6.51953C18.7702 6.81901 19.3496 7.26497 19.7402 7.85742C20.1309 8.44336 20.3262 9.16276 20.3262 10.0156C20.3262 11.3503 19.89 12.4147 19.0176 13.209C18.1517 14.0033 16.9863 14.4004 15.5215 14.4004C14.0566 14.4004 12.8945 14.0033 12.0352 13.209C11.1758 12.4147 10.7461 11.3503 10.7461 10.0156C10.7461 9.16276 10.9414 8.44336 11.332 7.85742C11.7227 7.26497 12.2988 6.81901 13.0605 6.51953ZM31.3422 10.5234C31.3422 11.0898 31.5342 11.5684 31.9184 11.959C32.3025 12.3431 32.7777 12.5352 33.3441 12.5352C33.891 12.5352 34.3598 12.3398 34.7504 11.9492C35.141 11.5521 35.3363 11.0768 35.3363 10.5234C35.3363 9.96354 35.141 9.49154 34.7504 9.10742C34.3663 8.7168 33.8975 8.52148 33.3441 8.52148C32.7842 8.52148 32.309 8.7168 31.9184 9.10742C31.5342 9.49154 31.3422 9.96354 31.3422 10.5234ZM29.8773 10.5234C29.8773 9.55339 30.2126 8.73307 30.8832 8.0625C31.5538 7.39193 32.3741 7.05664 33.3441 7.05664C34.2947 7.05664 35.1117 7.39518 35.7953 8.07227C36.4789 8.74935 36.8207 9.56641 36.8207 10.5234C36.8207 11.4805 36.4789 12.3008 35.7953 12.9844C35.1182 13.6615 34.3012 14 33.3441 14C32.3741 14 31.5538 13.6647 30.8832 12.9941C30.2126 12.3171 29.8773 11.4935 29.8773 10.5234ZM22.7777 3.88281C22.7777 4.44922 22.9698 4.92448 23.3539 5.30859C23.738 5.69271 24.2133 5.88477 24.7797 5.88477C25.3331 5.88477 25.8051 5.68945 26.1957 5.29883C26.5863 4.9082 26.7816 4.4362 26.7816 3.88281C26.7816 3.32292 26.5863 2.85091 26.1957 2.4668C25.8051 2.07617 25.3331 1.88086 24.7797 1.88086C24.2198 1.88086 23.7445 2.07617 23.3539 2.4668C22.9698 2.85091 22.7777 3.32292 22.7777 3.88281ZM21.3227 3.88281C21.3227 2.91276 21.6547 2.09245 22.3188 1.42188C22.9893 0.751302 23.8096 0.416016 24.7797 0.416016C25.7367 0.416016 26.5505 0.754557 27.2211 1.43164C27.8982 2.10872 28.2367 2.92578 28.2367 3.88281C28.2367 4.83984 27.8982 5.66016 27.2211 6.34375C26.5505 7.02083 25.7367 7.35938 24.7797 7.35938C23.8096 7.35938 22.9893 7.02409 22.3188 6.35352C21.6547 5.67643 21.3227 4.85286 21.3227 3.88281ZM24.184 14.4004L32.7387 0.015625H33.9594L25.3949 14.4004H24.184Z" fill="black"/>
<rect x="14" y="36" width="5" height="39" fill="black"/>
</svg>
