<svg width="37" height="110" viewBox="0 0 37 110" fill="none" xmlns="http://www.w3.org/2000/svg">
<path d="M2.16172 14C2.45469 11.7799 3.06992 9.70312 4.00742 7.76953C4.94492 5.82943 6.23073 3.98698 7.86484 2.24219H0.267187V0.416016H9.78867V2.07617C8.21315 3.7819 6.9599 5.6276 6.02891 7.61328C5.10443 9.59245 4.4957 11.7214 4.20273 14H2.16172ZM10.5801 10.377H12.4258C12.5365 11.0996 12.8359 11.666 13.3242 12.0762C13.819 12.4798 14.444 12.6816 15.1992 12.6816C16.1302 12.6816 16.8789 12.3984 17.4453 11.832C18.0182 11.2656 18.3047 10.5202 18.3047 9.5957C18.3047 8.64518 18.028 7.89323 17.4746 7.33984C16.9212 6.77995 16.1693 6.5 15.2188 6.5C14.6849 6.5 14.1934 6.60742 13.7441 6.82227C13.3014 7.03711 12.9141 7.35612 12.582 7.7793H10.9805L12.084 0.416016H19.4863V2.05664H13.4023L12.8457 5.79688C13.1908 5.50391 13.5879 5.28255 14.0371 5.13281C14.4928 4.97656 14.9876 4.89844 15.5215 4.89844C16.9473 4.89844 18.0898 5.31836 18.9492 6.1582C19.8086 6.99805 20.2383 8.11133 20.2383 9.49805C20.2383 10.9629 19.7826 12.1478 18.8711 13.0527C17.9596 13.9512 16.765 14.4004 15.2871 14.4004C13.972 14.4004 12.8848 14.0358 12.0254 13.3066C11.1725 12.571 10.6908 11.5944 10.5801 10.377ZM31.3422 10.5234C31.3422 11.0898 31.5342 11.5684 31.9184 11.959C32.3025 12.3431 32.7777 12.5352 33.3441 12.5352C33.891 12.5352 34.3598 12.3398 34.7504 11.9492C35.141 11.5521 35.3363 11.0768 35.3363 10.5234C35.3363 9.96354 35.141 9.49154 34.7504 9.10742C34.3663 8.7168 33.8975 8.52148 33.3441 8.52148C32.7842 8.52148 32.309 8.7168 31.9184 9.10742C31.5342 9.49154 31.3422 9.96354 31.3422 10.5234ZM29.8773 10.5234C29.8773 9.55339 30.2126 8.73307 30.8832 8.0625C31.5538 7.39193 32.3741 7.05664 33.3441 7.05664C34.2947 7.05664 35.1117 7.39518 35.7953 8.07227C36.4789 8.74935 36.8207 9.56641 36.8207 10.5234C36.8207 11.4805 36.4789 12.3008 35.7953 12.9844C35.1182 13.6615 34.3012 14 33.3441 14C32.3741 14 31.5538 13.6647 30.8832 12.9941C30.2126 12.3171 29.8773 11.4935 29.8773 10.5234ZM22.7777 3.88281C22.7777 4.44922 22.9698 4.92448 23.3539 5.30859C23.738 5.69271 24.2133 5.88477 24.7797 5.88477C25.3331 5.88477 25.8051 5.68945 26.1957 5.29883C26.5863 4.9082 26.7816 4.4362 26.7816 3.88281C26.7816 3.32292 26.5863 2.85091 26.1957 2.4668C25.8051 2.07617 25.3331 1.88086 24.7797 1.88086C24.2198 1.88086 23.7445 2.07617 23.3539 2.4668C22.9698 2.85091 22.7777 3.32292 22.7777 3.88281ZM21.3227 3.88281C21.3227 2.91276 21.6547 2.09245 22.3188 1.42188C22.9893 0.751302 23.8096 0.416016 24.7797 0.416016C25.7367 0.416016 26.5505 0.754557 27.2211 1.43164C27.8982 2.10872 28.2367 2.92578 28.2367 3.88281C28.2367 4.83984 27.8982 5.66016 27.2211 6.34375C26.5505 7.02083 25.7367 7.35938 24.7797 7.35938C23.8096 7.35938 22.9893 7.02409 22.3188 6.35352C21.6547 5.67643 21.3227 4.85286 21.3227 3.88281ZM24.184 14.4004L32.7387 0.015625H33.9594L25.3949 14.4004H24.184Z" fill="black"/>
<rect x="14" y="29" width="5" height="81" fill="black"/>
</svg>
