<svg width="103" height="180" viewBox="0 0 103 180" fill="none" xmlns="http://www.w3.org/2000/svg">
<rect x="0.5" y="0.5" width="101.857" height="179" rx="19.5" fill="white" stroke="black"/>
<line x1="3.62712e-08" y1="27.1924" x2="102.857" y2="27.1924" stroke="black"/>
<path d="M0 144.9L102.857 144.9" stroke="black"/>
<circle cx="51.7502" cy="162.45" r="8.95" fill="white" stroke="black"/>
<rect x="35.4446" y="11.0496" width="31.967" height="5.59341" rx="2.7967" fill="white" stroke="black"/>
<path d="M78.812 87.5409C79.0073 87.7361 79.3239 87.7361 79.5191 87.5409L82.7011 84.3589C82.8964 84.1636 82.8964 83.847 82.7011 83.6518C82.5058 83.4565 82.1893 83.4565 81.994 83.6518L79.1656 86.4802L76.3371 83.6518C76.1419 83.4565 75.8253 83.4565 75.63 83.6518C75.4348 83.847 75.4348 84.1636 75.63 84.3589L78.812 87.5409ZM54.8909 63.4126C68.046 63.4126 78.6656 74.0847 78.6656 87.1873H79.6656C79.6656 73.5338 68.5997 62.4126 54.8909 62.4126V63.4126Z" fill="black"/>
<path d="M24.8199 92.9836C24.6246 92.7883 24.308 92.7883 24.1128 92.9836L20.9308 96.1656C20.7355 96.3608 20.7355 96.6774 20.9308 96.8727C21.126 97.068 21.4426 97.068 21.6379 96.8727L24.4663 94.0443L27.2947 96.8727C27.49 97.068 27.8066 97.068 28.0018 96.8727C28.1971 96.6774 28.1971 96.3608 28.0018 96.1656L24.8199 92.9836ZM48.741 117.112C35.5859 117.112 24.9663 106.44 24.9663 93.3372H23.9663C23.9663 106.991 35.0321 118.112 48.741 118.112V117.112Z" fill="black"/>
<path d="M54.5373 117.258C54.3421 117.454 54.3421 117.77 54.5373 117.965L57.7193 121.147C57.9146 121.343 58.2311 121.343 58.4264 121.147C58.6217 120.952 58.6217 120.636 58.4264 120.44L55.598 117.612L58.4264 114.783C58.6217 114.588 58.6217 114.272 58.4264 114.076C58.2311 113.881 57.9146 113.881 57.7193 114.076L54.5373 117.258ZM78.6656 93.3372C78.6656 106.492 67.9935 117.112 54.8909 117.112V118.112C68.5443 118.112 79.6656 107.046 79.6656 93.3372H78.6656Z" fill="black"/>
<path d="M49.0943 63.2662C49.2896 63.0709 49.2896 62.7543 49.0943 62.559L45.9123 59.3771C45.7171 59.1818 45.4005 59.1818 45.2052 59.3771C45.01 59.5723 45.01 59.8889 45.2052 60.0842L48.0337 62.9126L45.2052 65.741C45.01 65.9363 45.01 66.2529 45.2052 66.4481C45.4005 66.6434 45.7171 66.6434 45.9123 66.4481L49.0943 63.2662ZM24.9661 87.1873C24.9661 74.0322 35.6381 63.4126 48.7408 63.4126V62.4126C35.0873 62.4126 23.9661 73.4784 23.9661 87.1873H24.9661Z" fill="black"/>
</svg>
