<svg width="104" height="105" viewBox="0 0 104 105" fill="none" xmlns="http://www.w3.org/2000/svg">
<path fill-rule="evenodd" clip-rule="evenodd" d="M42.1073 0.247762L47.4394 5.63112C47.7666 5.96147 47.7666 6.49707 47.4394 6.82742L42.1073 12.2108C41.7801 12.5411 41.2496 12.5411 40.9224 12.2108C40.5952 11.8804 40.5952 11.3448 40.9224 11.0145L44.7709 7.12895C23.7745 8.21896 7.00744 25.7474 7.00744 47.2979H5.33174C5.33174 24.7764 22.904 6.47131 44.8704 5.4301L40.9224 1.44406C40.5952 1.11371 40.5952 0.578112 40.9224 0.247762C41.2496 -0.0825874 41.7801 -0.0825874 42.1073 0.247762ZM96.939 45.2019C95.8594 24.0035 78.4979 7.07517 57.1528 7.07517V5.38335C79.4596 5.38335 97.5903 23.1247 98.6216 45.3024L102.57 41.3163C102.897 40.986 103.427 40.986 103.755 41.3163C104.082 41.6467 104.082 42.1823 103.755 42.5126L98.4225 47.896C98.0953 48.2263 97.5648 48.2263 97.2376 47.896L91.9056 42.5126C91.5784 42.1823 91.5784 41.6467 91.9056 41.3163C92.2328 40.986 92.7633 40.986 93.0905 41.3163L96.939 45.2019ZM5.57747 57.104C5.90467 56.7736 6.43517 56.7736 6.76238 57.104L12.0944 62.4873C12.4216 62.8177 12.4216 63.3533 12.0944 63.6836C11.7672 64.014 11.2367 64.014 10.9095 63.6836L7.06103 59.7981C8.14065 80.9965 25.5021 97.9248 46.8472 97.9248V99.6166C24.5404 99.6166 6.40966 81.8753 5.37837 59.6976L1.43031 63.6836C1.1031 64.014 0.572604 64.014 0.245402 63.6836C-0.0818006 63.3533 -0.0818006 62.8177 0.245402 62.4873L5.57747 57.104ZM59.2288 97.871C80.2252 96.781 96.9922 79.2526 96.9922 57.7021H98.6679C98.6679 80.2236 81.0956 98.5287 59.1292 99.5699L63.0773 103.556C63.4045 103.886 63.4045 104.422 63.0773 104.752C62.7501 105.083 62.2196 105.083 61.8924 104.752L56.5603 99.3689C56.2331 99.0385 56.2331 98.5029 56.5603 98.1726L61.8924 92.7892C62.2196 92.4589 62.7501 92.4589 63.0773 92.7892C63.4045 93.1196 63.4045 93.6552 63.0773 93.9855L59.2288 97.871Z" fill="black"/>
</svg>
