<svg width="137" height="27" viewBox="0 0 137 27" fill="none" xmlns="http://www.w3.org/2000/svg">
<path d="M78.1074 12V1.93066H79.4746V12H78.1074ZM82.6536 3.4209V12H81.3958V1.93066H83.3509L85.846 9.63477C85.9189 9.85352 85.9713 10.0244 86.0032 10.1475C86.0397 10.266 86.067 10.3708 86.0852 10.4619C86.1217 10.2933 86.1582 10.1429 86.1946 10.0107C86.2311 9.87858 86.2698 9.75326 86.3108 9.63477L88.8948 1.93066H90.8567V12H89.5305V3.4209C89.4986 3.56673 89.4622 3.71484 89.4212 3.86523C89.3802 4.01107 89.3369 4.1569 89.2913 4.30273L86.7005 12H85.4085L82.8792 4.30273C82.8336 4.17513 82.7926 4.03841 82.7561 3.89258C82.7197 3.74674 82.6855 3.58952 82.6536 3.4209ZM94.1041 6.53809H96.4009C97.1985 6.53809 97.7545 6.41048 98.0689 6.15527C98.3879 5.90007 98.5474 5.46257 98.5474 4.84277C98.5474 4.24577 98.3902 3.81738 98.0757 3.55762C97.7613 3.29785 97.2372 3.16797 96.5035 3.16797H94.1041V6.53809ZM92.7369 12V1.93066H96.442C97.0435 1.93066 97.5015 1.96029 97.816 2.01953C98.1304 2.07878 98.4107 2.17676 98.6568 2.31348C99.067 2.53678 99.3814 2.86719 99.6002 3.30469C99.8189 3.74219 99.9283 4.25488 99.9283 4.84277C99.9283 5.40332 99.8189 5.89779 99.6002 6.32617C99.3814 6.75456 99.0624 7.09635 98.6431 7.35156C98.4016 7.4974 98.1168 7.60221 97.7886 7.66602C97.4651 7.72526 96.9296 7.75488 96.1822 7.75488H94.1041V12H92.7369ZM102.615 3.11328V6.52441H104.953C105.796 6.52441 106.391 6.3877 106.737 6.11426C107.088 5.84082 107.264 5.38509 107.264 4.74707C107.264 4.15007 107.099 3.72852 106.771 3.48242C106.443 3.23633 105.837 3.11328 104.953 3.11328H102.615ZM101.275 1.93066H105.179C105.812 1.93066 106.277 1.95801 106.573 2.0127C106.874 2.06738 107.143 2.15853 107.38 2.28613C107.804 2.51855 108.125 2.84212 108.344 3.25684C108.567 3.67155 108.679 4.15918 108.679 4.71973C108.679 5.26204 108.562 5.72689 108.33 6.11426C108.097 6.49707 107.751 6.79785 107.291 7.0166C107.683 7.12598 107.961 7.31055 108.125 7.57031C108.293 7.83008 108.398 8.26986 108.439 8.88965L108.556 10.5508C108.578 10.9062 108.624 11.1729 108.692 11.3506C108.765 11.5238 108.872 11.6468 109.014 11.7197V12H107.434C107.307 11.7904 107.218 11.3415 107.168 10.6533C107.168 10.6351 107.168 10.6214 107.168 10.6123L107.086 9.2998C107.04 8.62533 106.897 8.18783 106.655 7.9873C106.414 7.78678 105.81 7.68652 104.844 7.68652H102.629V12H101.275V1.93066ZM111.27 6.97559C111.27 8.2653 111.566 9.27474 112.158 10.0039C112.755 10.7285 113.58 11.0908 114.633 11.0908C115.681 11.0908 116.499 10.7285 117.087 10.0039C117.679 9.27474 117.976 8.2653 117.976 6.97559C117.976 5.68132 117.679 4.67188 117.087 3.94727C116.499 3.22266 115.681 2.86035 114.633 2.86035C113.58 2.86035 112.755 3.22266 112.158 3.94727C111.566 4.67188 111.27 5.68132 111.27 6.97559ZM109.855 6.97559C109.855 5.31217 110.276 4.01335 111.119 3.0791C111.967 2.1403 113.138 1.6709 114.633 1.6709C116.123 1.6709 117.288 2.13802 118.126 3.07227C118.969 4.00651 119.391 5.30762 119.391 6.97559C119.391 8.639 118.969 9.9401 118.126 10.8789C117.288 11.8132 116.123 12.2803 114.633 12.2803C113.138 12.2803 111.967 11.8132 111.119 10.8789C110.276 9.9401 109.855 8.639 109.855 6.97559ZM123.342 12L119.76 1.93066H121.175L124.074 10.3594L126.883 1.93066H128.312L124.771 12H123.342ZM129.119 12V1.93066H136.297V3.18164H130.472V6.18945H135.852V7.36523H130.472V10.7422H136.413V12H129.119Z" fill="black"/>
<path d="M0.777344 26V0.107422H11.2188C13.9023 0.107422 15.9121 0.634766 17.248 1.68945C18.5957 2.74414 19.2695 4.32031 19.2695 6.41797C19.2695 7.76563 18.959 8.91406 18.3379 9.86328C17.7168 10.8008 16.791 11.5215 15.5605 12.0254C17.1191 12.3184 18.332 13.0156 19.1992 14.1172C20.0664 15.207 20.5 16.5898 20.5 18.2656C20.5 20.6328 19.7148 22.5137 18.1445 23.9082C16.5742 25.3027 14.4414 26 11.7461 26H0.777344ZM4.29297 10.9883H10.4629C12.2793 10.9883 13.6152 10.6602 14.4707 10.0039C15.3262 9.34766 15.7539 8.32227 15.7539 6.92773C15.7539 5.61523 15.3438 4.64258 14.5234 4.00977C13.7031 3.37695 12.4434 3.06055 10.7441 3.06055H4.29297V10.9883ZM4.29297 22.8711H11.4297C13.2227 22.8711 14.582 22.4785 15.5078 21.6934C16.4336 20.8965 16.8965 19.7422 16.8965 18.2305C16.8965 16.7305 16.4219 15.6289 15.4727 14.9258C14.5352 14.2227 13.0527 13.8711 11.0254 13.8711H4.29297V22.8711ZM34.0809 23.4863C33.0965 24.5176 32.0477 25.291 30.9344 25.8066C29.8328 26.3223 28.6609 26.5801 27.4188 26.5801C25.4969 26.5801 23.9969 26.082 22.9188 25.0859C21.8406 24.0781 21.3016 22.6895 21.3016 20.9199C21.3016 19.209 21.8289 17.8672 22.8836 16.8945C23.95 15.9219 25.5672 15.2949 27.7352 15.0137C28.2859 14.9551 29.0301 14.873 29.9676 14.7676C31.573 14.6035 32.5574 14.4453 32.9207 14.293C33.284 14.1523 33.5242 13.9707 33.6414 13.748C33.7586 13.5137 33.8172 13.0156 33.8172 12.2539C33.8172 11.293 33.4656 10.5723 32.7625 10.0918C32.0594 9.61133 30.9988 9.37109 29.5809 9.37109C28.116 9.37109 27.0086 9.66406 26.2586 10.25C25.5203 10.8359 25.1512 11.7031 25.1512 12.8516H22.1629V12.7109C22.1629 10.8125 22.8309 9.3125 24.1668 8.21094C25.5027 7.10937 27.3426 6.55859 29.6863 6.55859C32.2059 6.55859 34.0574 7.0332 35.241 7.98242C36.4363 8.91992 37.034 10.3906 37.034 12.3945V21.8164C37.034 22.625 37.1219 23.1465 37.2977 23.3809C37.4734 23.6152 37.7898 23.7324 38.2469 23.7324C38.3406 23.7324 38.452 23.7266 38.5809 23.7148C38.7215 23.6914 38.8855 23.6621 39.073 23.627V26.0703C38.6863 26.1758 38.3465 26.2461 38.0535 26.2812C37.7723 26.3281 37.5027 26.3516 37.2449 26.3516C36.1902 26.3516 35.3992 26.123 34.8719 25.666C34.3445 25.209 34.0809 24.5176 34.0809 23.5918V23.4863ZM33.782 16.4199C32.9383 16.877 31.491 17.2344 29.4402 17.4922C28.7137 17.5859 28.1688 17.6621 27.8055 17.7207C26.657 17.9082 25.8309 18.248 25.327 18.7402C24.823 19.2324 24.5711 19.9473 24.5711 20.8848C24.5711 21.8223 24.8641 22.543 25.45 23.0469C26.0359 23.5508 26.8738 23.8027 27.9637 23.8027C29.6629 23.8027 31.0574 23.375 32.1473 22.5195C33.2371 21.6641 33.782 20.5684 33.782 19.2324V16.4199ZM38.9078 19.8828H41.9488C42.066 21.1602 42.523 22.127 43.3199 22.7832C44.1285 23.4395 45.2711 23.7676 46.7477 23.7676C48.107 23.7676 49.1793 23.5039 49.9645 22.9766C50.7496 22.4375 51.1422 21.7051 51.1422 20.7793C51.1422 20.0879 50.943 19.5605 50.5445 19.1973C50.1578 18.8223 49.3961 18.5 48.2594 18.2305L44.7262 17.3164C42.734 16.8359 41.3453 16.2031 40.5602 15.418C39.7867 14.6211 39.4 13.4902 39.4 12.0254C39.4 10.3613 40.027 9.04297 41.2809 8.07031C42.5465 7.08594 44.275 6.59375 46.4664 6.59375C48.7047 6.59375 50.4859 7.11523 51.8102 8.1582C53.1344 9.20117 53.7965 10.6016 53.7965 12.3594V12.4297H50.7203C50.65 11.4336 50.2398 10.666 49.4898 10.127C48.7516 9.57617 47.7438 9.30078 46.4664 9.30078C45.1891 9.30078 44.2164 9.52344 43.5484 9.96875C42.8922 10.4141 42.5641 11.0645 42.5641 11.9199C42.5641 12.5293 42.7691 13.0098 43.1793 13.3613C43.6012 13.7012 44.3805 14 45.5172 14.2578L48.5758 14.9785C50.7555 15.4941 52.2555 16.1562 53.0758 16.9648C53.8961 17.7617 54.3063 18.9043 54.3063 20.3926C54.3063 22.3496 53.6148 23.873 52.232 24.9629C50.8609 26.041 48.9391 26.5801 46.4664 26.5801C44.0523 26.5801 42.1949 26.0059 40.8941 24.8574C39.6051 23.709 38.943 22.0508 38.9078 19.8828ZM58.6586 14.873H68.9945C68.9828 13.1152 68.5375 11.7617 67.6586 10.8125C66.7797 9.85156 65.5316 9.37109 63.9145 9.37109C62.3559 9.37109 61.1254 9.83984 60.223 10.7773C59.3324 11.7148 58.8109 13.0801 58.6586 14.873ZM68.9242 19.918H72.0531C71.7133 21.9922 70.8109 23.627 69.3461 24.8223C67.8812 26.0176 66.0355 26.6152 63.809 26.6152C61.1957 26.6152 59.1332 25.7363 57.6215 23.9785C56.1098 22.2207 55.3539 19.8242 55.3539 16.7891C55.3539 13.5781 56.1039 11.0703 57.6039 9.26562C59.1039 7.46094 61.1723 6.55859 63.809 6.55859C66.516 6.55859 68.6078 7.39062 70.0844 9.05469C71.5727 10.7188 72.3168 13.0684 72.3168 16.1035C72.3168 16.4902 72.3109 16.7773 72.2992 16.9648C72.2992 17.1523 72.2875 17.334 72.2641 17.5098H58.6762C58.7113 19.4902 59.2035 21.0254 60.1527 22.1152C61.102 23.1934 62.4203 23.7324 64.1078 23.7324C65.3969 23.7324 66.4574 23.4043 67.2895 22.748C68.1332 22.0801 68.6781 21.1367 68.9242 19.918Z" fill="black"/>
</svg>
