<svg width="104" height="180" viewBox="0 0 104 180" fill="none" xmlns="http://www.w3.org/2000/svg">
<rect x="1.5" y="0.5" width="101.857" height="179" rx="19.5" stroke="black"/>
<line x1="1" y1="27.1924" x2="103.857" y2="27.1924" stroke="black"/>
<path d="M1 144.9L103.857 144.9" stroke="black"/>
<circle cx="52.7501" cy="162.45" r="8.95" stroke="black"/>
<rect x="36.4446" y="11.0496" width="31.967" height="5.59341" rx="2.7967" stroke="black"/>
<path d="M1 106.587H102.523" stroke="black" stroke-width="0.5"/>
<path d="M1 101.335C18.8159 100.927 48.0341 101.947 55.2701 83.1299C60.6423 69.2084 66.6723 59.4175 82.5148 59.4175C100.111 59.4175 103.401 70.0243 103.401 70.0243" stroke="black" stroke-width="0.5"/>
<path d="M4.34412 101.131V106.842" stroke="black" stroke-width="0.5"/>
<path d="M16.6786 101.131V106.842" stroke="black" stroke-width="0.5"/>
<path d="M28.9578 99.499V106.842" stroke="black" stroke-width="0.5"/>
<path d="M41.2914 96.6433V106.842" stroke="black" stroke-width="0.5"/>
<path d="M53.5706 86.8013V106.842" stroke="black" stroke-width="0.5"/>
<path d="M65.9051 65.1292V106.842" stroke="black" stroke-width="0.5"/>
<path d="M78.1842 59.4175V106.842" stroke="black" stroke-width="0.5"/>
<path d="M90.5187 60.2329V106.842" stroke="black" stroke-width="0.5"/>
<path d="M10.4836 101.131V106.842" stroke="black" stroke-width="0.5"/>
<path d="M22.8182 100.315V106.842" stroke="black" stroke-width="0.5"/>
<path d="M35.0964 98.6829V106.842" stroke="black" stroke-width="0.5"/>
<path d="M47.431 92.9202V106.842" stroke="black" stroke-width="0.5"/>
<path d="M59.7101 73.7468V106.842" stroke="black" stroke-width="0.5"/>
<path d="M72.0446 61.457V106.842" stroke="black" stroke-width="0.5"/>
<path d="M84.3237 59.4175V106.842" stroke="black" stroke-width="0.5"/>
<path d="M96.6583 62.6812V106.842" stroke="black" stroke-width="0.5"/>
<path d="M7.41345 101.131V106.842" stroke="black" stroke-width="0.5"/>
<path d="M19.7471 100.723V106.842" stroke="black" stroke-width="0.5"/>
<path d="M32.0262 99.0911V106.842" stroke="black" stroke-width="0.5"/>
<path d="M44.3608 95.0112V106.842" stroke="black" stroke-width="0.5"/>
<path d="M56.6399 79.866V106.842" stroke="black" stroke-width="0.5"/>
<path d="M68.9744 63.0891V106.842" stroke="black" stroke-width="0.5"/>
<path d="M81.2535 59.4175V106.842" stroke="black" stroke-width="0.5"/>
<path d="M93.5881 61.457V106.842" stroke="black" stroke-width="0.5"/>
<path d="M13.6085 101.131V106.842" stroke="black" stroke-width="0.5"/>
<path d="M25.8876 100.315V106.842" stroke="black" stroke-width="0.5"/>
<path d="M38.2213 97.459V106.842" stroke="black" stroke-width="0.5"/>
<path d="M50.5012 90.4727V106.842" stroke="black" stroke-width="0.5"/>
<path d="M62.8349 68.8005V106.842" stroke="black" stroke-width="0.5"/>
<path d="M75.114 60.2329V106.842" stroke="black" stroke-width="0.5"/>
<path d="M87.3939 59.4175V106.842" stroke="black" stroke-width="0.5"/>
<path d="M99.7276 65.1292V106.842" stroke="black" stroke-width="0.5"/>
</svg>
