<svg width="140" height="27" viewBox="0 0 140 27" fill="none" xmlns="http://www.w3.org/2000/svg">
<path d="M79.3379 3.4209V12H78.0801V1.93066H80.0352L82.5303 9.63477C82.6032 9.85352 82.6556 10.0244 82.6875 10.1475C82.724 10.266 82.7513 10.3708 82.7695 10.4619C82.806 10.2933 82.8424 10.1429 82.8789 10.0107C82.9154 9.87858 82.9541 9.75326 82.9951 9.63477L85.5791 1.93066H87.541V12H86.2148V3.4209C86.1829 3.56673 86.1465 3.71484 86.1055 3.86523C86.0645 4.01107 86.0212 4.1569 85.9756 4.30273L83.3848 12H82.0928L79.5635 4.30273C79.5179 4.17513 79.4769 4.03841 79.4404 3.89258C79.404 3.74674 79.3698 3.58952 79.3379 3.4209ZM90.3987 6.97559C90.3987 8.2653 90.6949 9.27474 91.2874 10.0039C91.8844 10.7285 92.7093 11.0908 93.762 11.0908C94.8102 11.0908 95.6282 10.7285 96.2161 10.0039C96.8085 9.27474 97.1048 8.2653 97.1048 6.97559C97.1048 5.68132 96.8085 4.67188 96.2161 3.94727C95.6282 3.22266 94.8102 2.86035 93.762 2.86035C92.7093 2.86035 91.8844 3.22266 91.2874 3.94727C90.6949 4.67188 90.3987 5.68132 90.3987 6.97559ZM88.9837 6.97559C88.9837 5.31217 89.4052 4.01335 90.2483 3.0791C91.096 2.1403 92.2672 1.6709 93.762 1.6709C95.2522 1.6709 96.4166 2.13802 97.2552 3.07227C98.0983 4.00651 98.5198 5.30762 98.5198 6.97559C98.5198 8.639 98.0983 9.9401 97.2552 10.8789C96.4166 11.8132 95.2522 12.2803 93.762 12.2803C92.2672 12.2803 91.096 11.8132 90.2483 10.8789C89.4052 9.9401 88.9837 8.639 88.9837 6.97559ZM99.9556 12V1.93066H101.453L106.156 9.24512C106.261 9.40462 106.352 9.55501 106.429 9.69629C106.507 9.83757 106.568 9.96973 106.614 10.0928V1.93066H107.919V12H106.436L101.63 4.58301C101.558 4.46908 101.489 4.35059 101.425 4.22754C101.366 4.10449 101.309 3.97461 101.254 3.83789V12H99.9556ZM109.82 12V1.93066H111.187V12H109.82ZM115.33 12V3.1543H112.151V1.93066H119.883V3.1543H116.704V12H115.33ZM121.804 6.97559C121.804 8.2653 122.1 9.27474 122.693 10.0039C123.29 10.7285 124.115 11.0908 125.167 11.0908C126.216 11.0908 127.034 10.7285 127.621 10.0039C128.214 9.27474 128.51 8.2653 128.51 6.97559C128.51 5.68132 128.214 4.67188 127.621 3.94727C127.034 3.22266 126.216 2.86035 125.167 2.86035C124.115 2.86035 123.29 3.22266 122.693 3.94727C122.1 4.67188 121.804 5.68132 121.804 6.97559ZM120.389 6.97559C120.389 5.31217 120.811 4.01335 121.654 3.0791C122.501 2.1403 123.673 1.6709 125.167 1.6709C126.658 1.6709 127.822 2.13802 128.661 3.07227C129.504 4.00651 129.925 5.30762 129.925 6.97559C129.925 8.639 129.504 9.9401 128.661 10.8789C127.822 11.8132 126.658 12.2803 125.167 12.2803C123.673 12.2803 122.501 11.8132 121.654 10.8789C120.811 9.9401 120.389 8.639 120.389 6.97559ZM132.715 3.11328V6.52441H135.052C135.896 6.52441 136.49 6.3877 136.837 6.11426C137.188 5.84082 137.363 5.38509 137.363 4.74707C137.363 4.15007 137.199 3.72852 136.871 3.48242C136.543 3.23633 135.937 3.11328 135.052 3.11328H132.715ZM131.375 1.93066H135.278C135.911 1.93066 136.376 1.95801 136.673 2.0127C136.973 2.06738 137.242 2.15853 137.479 2.28613C137.903 2.51855 138.224 2.84212 138.443 3.25684C138.666 3.67155 138.778 4.15918 138.778 4.71973C138.778 5.26204 138.662 5.72689 138.429 6.11426C138.197 6.49707 137.851 6.79785 137.39 7.0166C137.782 7.12598 138.06 7.31055 138.224 7.57031C138.393 7.83008 138.498 8.26986 138.539 8.88965L138.655 10.5508C138.678 10.9062 138.723 11.1729 138.792 11.3506C138.865 11.5238 138.972 11.6468 139.113 11.7197V12H137.534C137.406 11.7904 137.317 11.3415 137.267 10.6533C137.267 10.6351 137.267 10.6214 137.267 10.6123L137.185 9.2998C137.14 8.62533 136.996 8.18783 136.755 7.9873C136.513 7.78678 135.909 7.68652 134.943 7.68652H132.728V12H131.375V1.93066Z" fill="black"/>
<path d="M0.777344 26V0.107422H11.2188C13.9023 0.107422 15.9121 0.634766 17.248 1.68945C18.5957 2.74414 19.2695 4.32031 19.2695 6.41797C19.2695 7.76563 18.959 8.91406 18.3379 9.86328C17.7168 10.8008 16.791 11.5215 15.5605 12.0254C17.1191 12.3184 18.332 13.0156 19.1992 14.1172C20.0664 15.207 20.5 16.5898 20.5 18.2656C20.5 20.6328 19.7148 22.5137 18.1445 23.9082C16.5742 25.3027 14.4414 26 11.7461 26H0.777344ZM4.29297 10.9883H10.4629C12.2793 10.9883 13.6152 10.6602 14.4707 10.0039C15.3262 9.34766 15.7539 8.32227 15.7539 6.92773C15.7539 5.61523 15.3438 4.64258 14.5234 4.00977C13.7031 3.37695 12.4434 3.06055 10.7441 3.06055H4.29297V10.9883ZM4.29297 22.8711H11.4297C13.2227 22.8711 14.582 22.4785 15.5078 21.6934C16.4336 20.8965 16.8965 19.7422 16.8965 18.2305C16.8965 16.7305 16.4219 15.6289 15.4727 14.9258C14.5352 14.2227 13.0527 13.8711 11.0254 13.8711H4.29297V22.8711ZM34.0809 23.4863C33.0965 24.5176 32.0477 25.291 30.9344 25.8066C29.8328 26.3223 28.6609 26.5801 27.4188 26.5801C25.4969 26.5801 23.9969 26.082 22.9188 25.0859C21.8406 24.0781 21.3016 22.6895 21.3016 20.9199C21.3016 19.209 21.8289 17.8672 22.8836 16.8945C23.95 15.9219 25.5672 15.2949 27.7352 15.0137C28.2859 14.9551 29.0301 14.873 29.9676 14.7676C31.573 14.6035 32.5574 14.4453 32.9207 14.293C33.284 14.1523 33.5242 13.9707 33.6414 13.748C33.7586 13.5137 33.8172 13.0156 33.8172 12.2539C33.8172 11.293 33.4656 10.5723 32.7625 10.0918C32.0594 9.61133 30.9988 9.37109 29.5809 9.37109C28.116 9.37109 27.0086 9.66406 26.2586 10.25C25.5203 10.8359 25.1512 11.7031 25.1512 12.8516H22.1629V12.7109C22.1629 10.8125 22.8309 9.3125 24.1668 8.21094C25.5027 7.10937 27.3426 6.55859 29.6863 6.55859C32.2059 6.55859 34.0574 7.0332 35.241 7.98242C36.4363 8.91992 37.034 10.3906 37.034 12.3945V21.8164C37.034 22.625 37.1219 23.1465 37.2977 23.3809C37.4734 23.6152 37.7898 23.7324 38.2469 23.7324C38.3406 23.7324 38.452 23.7266 38.5809 23.7148C38.7215 23.6914 38.8855 23.6621 39.073 23.627V26.0703C38.6863 26.1758 38.3465 26.2461 38.0535 26.2812C37.7723 26.3281 37.5027 26.3516 37.2449 26.3516C36.1902 26.3516 35.3992 26.123 34.8719 25.666C34.3445 25.209 34.0809 24.5176 34.0809 23.5918V23.4863ZM33.782 16.4199C32.9383 16.877 31.491 17.2344 29.4402 17.4922C28.7137 17.5859 28.1688 17.6621 27.8055 17.7207C26.657 17.9082 25.8309 18.248 25.327 18.7402C24.823 19.2324 24.5711 19.9473 24.5711 20.8848C24.5711 21.8223 24.8641 22.543 25.45 23.0469C26.0359 23.5508 26.8738 23.8027 27.9637 23.8027C29.6629 23.8027 31.0574 23.375 32.1473 22.5195C33.2371 21.6641 33.782 20.5684 33.782 19.2324V16.4199ZM38.9078 19.8828H41.9488C42.066 21.1602 42.523 22.127 43.3199 22.7832C44.1285 23.4395 45.2711 23.7676 46.7477 23.7676C48.107 23.7676 49.1793 23.5039 49.9645 22.9766C50.7496 22.4375 51.1422 21.7051 51.1422 20.7793C51.1422 20.0879 50.943 19.5605 50.5445 19.1973C50.1578 18.8223 49.3961 18.5 48.2594 18.2305L44.7262 17.3164C42.734 16.8359 41.3453 16.2031 40.5602 15.418C39.7867 14.6211 39.4 13.4902 39.4 12.0254C39.4 10.3613 40.027 9.04297 41.2809 8.07031C42.5465 7.08594 44.275 6.59375 46.4664 6.59375C48.7047 6.59375 50.4859 7.11523 51.8102 8.1582C53.1344 9.20117 53.7965 10.6016 53.7965 12.3594V12.4297H50.7203C50.65 11.4336 50.2398 10.666 49.4898 10.127C48.7516 9.57617 47.7438 9.30078 46.4664 9.30078C45.1891 9.30078 44.2164 9.52344 43.5484 9.96875C42.8922 10.4141 42.5641 11.0645 42.5641 11.9199C42.5641 12.5293 42.7691 13.0098 43.1793 13.3613C43.6012 13.7012 44.3805 14 45.5172 14.2578L48.5758 14.9785C50.7555 15.4941 52.2555 16.1562 53.0758 16.9648C53.8961 17.7617 54.3063 18.9043 54.3063 20.3926C54.3063 22.3496 53.6148 23.873 52.232 24.9629C50.8609 26.041 48.9391 26.5801 46.4664 26.5801C44.0523 26.5801 42.1949 26.0059 40.8941 24.8574C39.6051 23.709 38.943 22.0508 38.9078 19.8828ZM58.6586 14.873H68.9945C68.9828 13.1152 68.5375 11.7617 67.6586 10.8125C66.7797 9.85156 65.5316 9.37109 63.9145 9.37109C62.3559 9.37109 61.1254 9.83984 60.223 10.7773C59.3324 11.7148 58.8109 13.0801 58.6586 14.873ZM68.9242 19.918H72.0531C71.7133 21.9922 70.8109 23.627 69.3461 24.8223C67.8812 26.0176 66.0355 26.6152 63.809 26.6152C61.1957 26.6152 59.1332 25.7363 57.6215 23.9785C56.1098 22.2207 55.3539 19.8242 55.3539 16.7891C55.3539 13.5781 56.1039 11.0703 57.6039 9.26562C59.1039 7.46094 61.1723 6.55859 63.809 6.55859C66.516 6.55859 68.6078 7.39062 70.0844 9.05469C71.5727 10.7188 72.3168 13.0684 72.3168 16.1035C72.3168 16.4902 72.3109 16.7773 72.2992 16.9648C72.2992 17.1523 72.2875 17.334 72.2641 17.5098H58.6762C58.7113 19.4902 59.2035 21.0254 60.1527 22.1152C61.102 23.1934 62.4203 23.7324 64.1078 23.7324C65.3969 23.7324 66.4574 23.4043 67.2895 22.748C68.1332 22.0801 68.6781 21.1367 68.9242 19.918Z" fill="black"/>
</svg>
