<svg width="383" height="50" viewBox="0 0 383 50" fill="none" xmlns="http://www.w3.org/2000/svg">
<rect y="1" width="375" height="49" fill="white"/>
<path d="M280 1H374.5L382.5 25L374.5 49H280L286.5 25L280 1Z" fill="black"/>
<line x1="375" y1="49.5" y2="49.5" stroke="black"/>
<path d="M187 1L195 25L187 49" stroke="black"/>
<path d="M281 1L289 25L281 49" stroke="black"/>
<path d="M92 1L100 25L92 49" stroke="black"/>
<path d="M234.213 17.8223H235.121C235.135 18.3138 235.27 18.693 235.527 18.96C235.784 19.2269 236.147 19.3604 236.616 19.3604C237.071 19.3604 237.429 19.2383 237.69 18.9941C237.954 18.75 238.085 18.4147 238.085 17.9883C238.085 17.5977 237.957 17.2949 237.7 17.0801C237.442 16.8652 237.081 16.7578 236.616 16.7578C236.521 16.7578 236.365 16.7643 236.147 16.7773L236.113 16.7822L236.118 15.9912C236.16 15.9945 236.202 15.9977 236.245 16.001C236.29 16.001 236.347 16.001 236.415 16.001C236.917 16.001 237.278 15.9163 237.499 15.7471C237.721 15.5745 237.831 15.2995 237.831 14.9219C237.831 14.5703 237.726 14.3001 237.514 14.1113C237.302 13.9225 237 13.8281 236.606 13.8281C236.163 13.8281 235.828 13.9535 235.6 14.2041C235.375 14.4515 235.263 14.8193 235.263 15.3076H234.374V15.2588C234.374 14.5719 234.571 14.0251 234.965 13.6182C235.359 13.2113 235.888 13.0078 236.552 13.0078C237.262 13.0078 237.812 13.1722 238.203 13.501C238.596 13.8298 238.793 14.2887 238.793 14.8779C238.793 15.2165 238.72 15.5046 238.574 15.7422C238.427 15.9766 238.211 16.1556 237.924 16.2793C238.295 16.416 238.575 16.6292 238.764 16.9189C238.956 17.2054 239.052 17.5618 239.052 17.9883C239.052 18.6589 238.826 19.196 238.373 19.5996C237.921 20 237.314 20.2002 236.552 20.2002C235.839 20.2002 235.271 19.9902 234.848 19.5703C234.425 19.1471 234.213 18.5807 234.213 17.8711V17.8223ZM240.141 20V18.9111H241.142V20H240.141ZM221.254 31.0117H223.495L222.382 27.8379L221.254 31.0117ZM219.174 34L221.845 26.8076H222.924L225.604 34H224.545L223.783 31.8516H220.951L220.185 34H219.174ZM228.808 27.6377H227.128V33.1211H228.808C229.527 33.1211 230.071 32.8883 230.439 32.4229C230.807 31.9541 230.99 31.2624 230.99 30.3477C230.99 29.472 230.803 28.8014 230.429 28.3359C230.055 27.8704 229.514 27.6377 228.808 27.6377ZM226.152 34V26.8076H228.891C229.893 26.8076 230.66 27.1071 231.191 27.7061C231.724 28.305 231.991 29.1693 231.991 30.2988C231.991 31.4674 231.715 32.3773 231.161 33.0283C230.611 33.6761 229.841 34 228.852 34H226.152ZM235.678 27.6377H233.998V33.1211H235.678C236.398 33.1211 236.941 32.8883 237.309 32.4229C237.677 31.9541 237.861 31.2624 237.861 30.3477C237.861 29.472 237.674 28.8014 237.299 28.3359C236.925 27.8704 236.385 27.6377 235.678 27.6377ZM233.022 34V26.8076H235.761C236.764 26.8076 237.53 27.1071 238.061 27.7061C238.595 28.305 238.862 29.1693 238.862 30.2988C238.862 31.4674 238.585 32.3773 238.032 33.0283C237.482 33.6761 236.712 34 235.722 34H233.022ZM239.472 31.749V30.958H241.889V31.749H239.472ZM243.515 30.4111C243.515 31.3324 243.727 32.0534 244.15 32.5742C244.577 33.0918 245.166 33.3506 245.918 33.3506C246.666 33.3506 247.251 33.0918 247.671 32.5742C248.094 32.0534 248.305 31.3324 248.305 30.4111C248.305 29.4867 248.094 28.7656 247.671 28.248C247.251 27.7305 246.666 27.4717 245.918 27.4717C245.166 27.4717 244.577 27.7305 244.15 28.248C243.727 28.7656 243.515 29.4867 243.515 30.4111ZM242.505 30.4111C242.505 29.223 242.806 28.2952 243.408 27.6279C244.013 26.9574 244.85 26.6221 245.918 26.6221C246.982 26.6221 247.814 26.9557 248.413 27.623C249.015 28.2904 249.316 29.2197 249.316 30.4111C249.316 31.5993 249.015 32.5286 248.413 33.1992C247.814 33.8665 246.982 34.2002 245.918 34.2002C244.85 34.2002 244.013 33.8665 243.408 33.1992C242.806 32.5286 242.505 31.5993 242.505 30.4111ZM250.342 34V26.8076H251.411L254.771 32.0322C254.845 32.1462 254.91 32.2536 254.966 32.3545C255.021 32.4554 255.065 32.5498 255.098 32.6377V26.8076H256.03V34H254.971L251.538 28.7021C251.486 28.6208 251.437 28.5361 251.392 28.4482C251.349 28.3604 251.309 28.2676 251.27 28.1699V34H250.342Z" fill="black"/>
<path d="M330.573 17.4805H332.775V14.3701L330.573 17.4805ZM332.775 20V18.2812H329.733V17.4023L332.765 13.208H333.673V17.4805H334.664V18.2812H333.673V20H332.775ZM335.641 20V18.9111H336.642V20H335.641ZM316.209 34V26.8076H319.11C319.855 26.8076 320.413 26.9541 320.785 27.2471C321.159 27.54 321.346 27.9779 321.346 28.5605C321.346 28.9349 321.26 29.2539 321.087 29.5176C320.915 29.778 320.658 29.9782 320.316 30.1182C320.749 30.1995 321.086 30.3932 321.327 30.6992C321.567 31.002 321.688 31.3861 321.688 31.8516C321.688 32.5091 321.47 33.0316 321.034 33.4189C320.597 33.8063 320.005 34 319.256 34H316.209ZM317.186 29.8301H318.9C319.404 29.8301 319.775 29.7389 320.013 29.5566C320.251 29.3743 320.37 29.0895 320.37 28.7021C320.37 28.3376 320.256 28.0674 320.028 27.8916C319.8 27.7158 319.45 27.6279 318.978 27.6279H317.186V29.8301ZM317.186 33.1309H319.168C319.666 33.1309 320.044 33.0218 320.301 32.8037C320.558 32.5824 320.687 32.2617 320.687 31.8418C320.687 31.4251 320.555 31.1191 320.291 30.9238C320.031 30.7285 319.619 30.6309 319.056 30.6309H317.186V33.1309ZM322.65 34V26.8076H323.627V34H322.65ZM324.999 34V26.8076H325.985V33.0918H329.569V34H324.999ZM330.15 34V26.8076H331.137V33.0918H334.721V34H330.15ZM335.321 34V26.8076H336.298V34H335.321ZM337.661 34V26.8076H338.73L342.089 32.0322C342.164 32.1462 342.229 32.2536 342.285 32.3545C342.34 32.4554 342.384 32.5498 342.416 32.6377V26.8076H343.349V34H342.289L338.857 28.7021C338.805 28.6208 338.756 28.5361 338.71 28.4482C338.668 28.3604 338.627 28.2676 338.588 28.1699V34H337.661ZM350.068 33.0381C349.775 33.4255 349.427 33.7168 349.023 33.9121C348.619 34.1042 348.16 34.2002 347.646 34.2002C346.673 34.2002 345.883 33.8535 345.278 33.1602C344.676 32.4635 344.375 31.5505 344.375 30.4209C344.375 29.2458 344.687 28.3197 345.312 27.6426C345.937 26.9622 346.785 26.6221 347.856 26.6221C348.676 26.6221 349.345 26.8304 349.863 27.2471C350.38 27.6605 350.691 28.2383 350.796 28.9805H349.843C349.755 28.4954 349.537 28.1211 349.189 27.8574C348.844 27.5938 348.4 27.4619 347.856 27.4619C347.072 27.4619 346.463 27.7174 346.03 28.2285C345.6 28.7363 345.385 29.4541 345.385 30.3818C345.385 31.2998 345.599 32.0176 346.025 32.5352C346.451 33.0527 347.039 33.3115 347.788 33.3115C348.465 33.3115 349.005 33.1048 349.409 32.6914C349.812 32.278 350.014 31.7214 350.014 31.0215V30.9287H347.763V30.1182H350.918V34H350.278L350.068 33.0381Z" fill="white"/>
<path d="M141.291 20V19.9414C141.291 19.2676 141.454 18.7012 141.78 18.2422C142.108 17.7799 142.68 17.3258 143.494 16.8799L144.084 16.5576C144.436 16.3656 144.693 16.1491 144.856 15.9082C145.022 15.6673 145.105 15.3874 145.105 15.0684C145.105 14.6973 144.98 14.3994 144.729 14.1748C144.478 13.9502 144.143 13.8379 143.723 13.8379C143.297 13.8379 142.961 13.9811 142.717 14.2676C142.476 14.554 142.356 14.9479 142.356 15.4492V15.5322H141.443V15.4102C141.443 14.668 141.651 14.082 142.068 13.6523C142.484 13.2227 143.049 13.0078 143.762 13.0078C144.452 13.0078 145.006 13.1982 145.422 13.5791C145.842 13.96 146.052 14.4596 146.052 15.0781C146.052 15.5599 145.93 15.9798 145.686 16.3379C145.442 16.6927 145.064 17.0036 144.553 17.2705L143.962 17.5684C143.428 17.8483 143.036 18.1087 142.786 18.3496C142.538 18.5872 142.374 18.8509 142.292 19.1406H146.052V20H141.291ZM147.141 20V18.9111H148.142V20H147.141ZM114.958 27.8721V34H114.059V26.8076H115.456L117.238 32.3105C117.29 32.4668 117.327 32.5889 117.35 32.6768C117.376 32.7614 117.396 32.8363 117.409 32.9014C117.435 32.7809 117.461 32.6735 117.487 32.5791C117.513 32.4847 117.541 32.3952 117.57 32.3105L119.416 26.8076H120.817V34H119.87V27.8721C119.847 27.9762 119.821 28.082 119.792 28.1895C119.762 28.2936 119.731 28.3978 119.699 28.502L117.848 34H116.925L115.119 28.502C115.086 28.4108 115.057 28.3132 115.031 28.209C115.005 28.1048 114.98 27.9925 114.958 27.8721ZM122.16 34V26.8076H127.287V27.7012H123.127V29.8496H126.97V30.6895H123.127V33.1016H127.37V34H122.16ZM129.255 27.8721V34H128.356V26.8076H129.753L131.535 32.3105C131.587 32.4668 131.625 32.5889 131.647 32.6768C131.674 32.7614 131.693 32.8363 131.706 32.9014C131.732 32.7809 131.758 32.6735 131.784 32.5791C131.81 32.4847 131.838 32.3952 131.867 32.3105L133.713 26.8076H135.114V34H134.167V27.8721C134.144 27.9762 134.118 28.082 134.089 28.1895C134.06 28.2936 134.029 28.3978 133.996 28.502L132.146 34H131.223L129.416 28.502C129.383 28.4108 129.354 28.3132 129.328 28.209C129.302 28.1048 129.278 27.9925 129.255 27.8721ZM136.457 34V26.8076H139.358C140.103 26.8076 140.661 26.9541 141.032 27.2471C141.407 27.54 141.594 27.9779 141.594 28.5605C141.594 28.9349 141.508 29.2539 141.335 29.5176C141.163 29.778 140.905 29.9782 140.564 30.1182C140.997 30.1995 141.334 30.3932 141.574 30.6992C141.815 31.002 141.936 31.3861 141.936 31.8516C141.936 32.5091 141.718 33.0316 141.281 33.4189C140.845 33.8063 140.253 34 139.504 34H136.457ZM137.434 29.8301H139.148C139.652 29.8301 140.023 29.7389 140.261 29.5566C140.499 29.3743 140.617 29.0895 140.617 28.7021C140.617 28.3376 140.503 28.0674 140.276 27.8916C140.048 27.7158 139.698 27.6279 139.226 27.6279H137.434V29.8301ZM137.434 33.1309H139.416C139.914 33.1309 140.292 33.0218 140.549 32.8037C140.806 32.5824 140.935 32.2617 140.935 31.8418C140.935 31.4251 140.803 31.1191 140.539 30.9238C140.279 30.7285 139.867 30.6309 139.304 30.6309H137.434V33.1309ZM142.878 34V26.8076H148.005V27.7012H143.845V29.8496H147.688V30.6895H143.845V33.1016H148.088V34H142.878ZM150.032 27.6523V30.0889H151.702C152.304 30.0889 152.729 29.9912 152.976 29.7959C153.227 29.6006 153.352 29.2751 153.352 28.8193C153.352 28.3929 153.235 28.0918 153.001 27.916C152.766 27.7402 152.333 27.6523 151.702 27.6523H150.032ZM149.075 26.8076H151.863C152.315 26.8076 152.647 26.8271 152.859 26.8662C153.074 26.9053 153.266 26.9704 153.435 27.0615C153.738 27.2275 153.967 27.4587 154.124 27.7549C154.283 28.0511 154.363 28.3994 154.363 28.7998C154.363 29.1872 154.28 29.5192 154.114 29.7959C153.948 30.0693 153.7 30.2842 153.372 30.4404C153.652 30.5186 153.85 30.6504 153.967 30.8359C154.088 31.0215 154.163 31.3356 154.192 31.7783L154.275 32.9648C154.291 33.2188 154.324 33.4092 154.373 33.5361C154.425 33.6598 154.501 33.7477 154.602 33.7998V34H153.474C153.383 33.8503 153.32 33.5296 153.284 33.0381C153.284 33.0251 153.284 33.0153 153.284 33.0088L153.225 32.0713C153.193 31.5895 153.09 31.277 152.918 31.1338C152.745 30.9906 152.314 30.9189 151.624 30.9189H150.042V34H149.075V26.8076ZM155.183 31.6318H156.126C156.136 32.1527 156.308 32.5677 156.643 32.877C156.982 33.1862 157.433 33.3408 157.996 33.3408C158.553 33.3408 158.99 33.2236 159.309 32.9893C159.632 32.7549 159.793 32.4359 159.793 32.0322C159.793 31.4821 159.191 31.0638 157.986 30.7773C157.915 30.7611 157.859 30.748 157.82 30.7383C156.844 30.5072 156.197 30.25 155.882 29.9668C155.569 29.6803 155.413 29.2751 155.413 28.751C155.413 28.1097 155.647 27.5954 156.116 27.208C156.585 26.8174 157.208 26.6221 157.986 26.6221C158.78 26.6221 159.405 26.8271 159.861 27.2373C160.317 27.6442 160.548 28.2041 160.554 28.917L159.622 28.9219C159.589 28.4401 159.425 28.0706 159.129 27.8135C158.836 27.5563 158.434 27.4277 157.923 27.4277C157.444 27.4277 157.062 27.5335 156.775 27.7451C156.489 27.9535 156.346 28.2318 156.346 28.5801C156.346 29.1367 156.938 29.5518 158.123 29.8252C158.299 29.8675 158.434 29.9001 158.528 29.9229C158.548 29.9261 158.582 29.9342 158.631 29.9473C159.405 30.1328 159.92 30.333 160.174 30.5479C160.366 30.7106 160.512 30.9092 160.613 31.1436C160.714 31.3747 160.764 31.6335 160.764 31.9199C160.764 32.6133 160.515 33.165 160.017 33.5752C159.523 33.9854 158.852 34.1904 158.006 34.1904C157.133 34.1904 156.453 33.9707 155.965 33.5312C155.48 33.0885 155.219 32.4554 155.183 31.6318ZM161.78 34V26.8076H162.757V29.7617H166.487V26.8076H167.469V34H166.487V30.6309H162.757V34H161.78ZM168.836 34V26.8076H169.813V34H168.836ZM172.162 30.0986H173.802C174.372 30.0986 174.769 30.0075 174.994 29.8252C175.221 29.6429 175.335 29.3304 175.335 28.8877C175.335 28.4613 175.223 28.1553 174.998 27.9697C174.774 27.7842 174.399 27.6914 173.875 27.6914H172.162V30.0986ZM171.185 34V26.8076H173.831C174.261 26.8076 174.588 26.8288 174.813 26.8711C175.037 26.9134 175.238 26.9834 175.413 27.0811C175.706 27.2406 175.931 27.4766 176.087 27.7891C176.244 28.1016 176.322 28.4678 176.322 28.8877C176.322 29.2881 176.244 29.6413 176.087 29.9473C175.931 30.2533 175.703 30.4974 175.404 30.6797C175.231 30.7839 175.028 30.8587 174.793 30.9043C174.562 30.9466 174.18 30.9678 173.646 30.9678H172.162V34H171.185Z" fill="black"/>
<path d="M47.5473 20V15.0586H45.9262V14.3506C46.5154 14.3441 46.9564 14.2334 47.2494 14.0186C47.5456 13.8037 47.7214 13.4668 47.7768 13.0078H48.4555V20H47.5473ZM50.4088 20V18.9111H51.4098V20H50.4088ZM19.7607 31.6318H20.7031C20.7129 32.1527 20.8854 32.5677 21.2207 32.877C21.5592 33.1862 22.0101 33.3408 22.5732 33.3408C23.1299 33.3408 23.5677 33.2236 23.8867 32.9893C24.209 32.7549 24.3701 32.4359 24.3701 32.0322C24.3701 31.4821 23.7679 31.0638 22.5635 30.7773C22.4919 30.7611 22.4365 30.748 22.3975 30.7383C21.4209 30.5072 20.7747 30.25 20.459 29.9668C20.1465 29.6803 19.9902 29.2751 19.9902 28.751C19.9902 28.1097 20.2246 27.5954 20.6934 27.208C21.1621 26.8174 21.7855 26.6221 22.5635 26.6221C23.3577 26.6221 23.9827 26.8271 24.4385 27.2373C24.8942 27.6442 25.1253 28.2041 25.1318 28.917L24.1992 28.9219C24.1667 28.4401 24.0023 28.0706 23.7061 27.8135C23.4131 27.5563 23.0111 27.4277 22.5 27.4277C22.0215 27.4277 21.639 27.5335 21.3525 27.7451C21.0661 27.9535 20.9229 28.2318 20.9229 28.5801C20.9229 29.1367 21.5153 29.5518 22.7002 29.8252C22.876 29.8675 23.0111 29.9001 23.1055 29.9229C23.125 29.9261 23.1592 29.9342 23.208 29.9473C23.9827 30.1328 24.4971 30.333 24.751 30.5479C24.943 30.7106 25.0895 30.9092 25.1904 31.1436C25.2913 31.3747 25.3418 31.6335 25.3418 31.9199C25.3418 32.6133 25.0928 33.165 24.5947 33.5752C24.0999 33.9854 23.4294 34.1904 22.583 34.1904C21.7106 34.1904 21.0303 33.9707 20.542 33.5312C20.057 33.0885 19.7965 32.4554 19.7607 31.6318ZM27.9445 34V27.6816H25.674V26.8076H31.1965V27.6816H28.926V34H27.9445ZM33.1498 31.0117H35.391L34.2777 27.8379L33.1498 31.0117ZM31.0697 34L33.7406 26.8076H34.8197L37.5004 34H36.4408L35.6791 31.8516H32.8471L32.0805 34H31.0697ZM39.0045 27.6523V30.0889H40.6744C41.2766 30.0889 41.7014 29.9912 41.9488 29.7959C42.1995 29.6006 42.3248 29.2751 42.3248 28.8193C42.3248 28.3929 42.2076 28.0918 41.9732 27.916C41.7389 27.7402 41.3059 27.6523 40.6744 27.6523H39.0045ZM38.0475 26.8076H40.8355C41.288 26.8076 41.6201 26.8271 41.8316 26.8662C42.0465 26.9053 42.2385 26.9704 42.4078 27.0615C42.7105 27.2275 42.94 27.4587 43.0963 27.7549C43.2558 28.0511 43.3355 28.3994 43.3355 28.7998C43.3355 29.1872 43.2525 29.5192 43.0865 29.7959C42.9205 30.0693 42.6731 30.2842 42.3443 30.4404C42.6243 30.5186 42.8229 30.6504 42.94 30.8359C43.0605 31.0215 43.1354 31.3356 43.1646 31.7783L43.2477 32.9648C43.2639 33.2188 43.2965 33.4092 43.3453 33.5361C43.3974 33.6598 43.4739 33.7477 43.5748 33.7998V34H42.4469C42.3557 33.8503 42.2923 33.5296 42.2564 33.0381C42.2564 33.0251 42.2564 33.0153 42.2564 33.0088L42.1979 32.0713C42.1653 31.5895 42.0628 31.277 41.8902 31.1338C41.7177 30.9906 41.2864 30.9189 40.5963 30.9189H39.0143V34H38.0475V26.8076ZM46.075 34V27.6816H43.8045V26.8076H49.327V27.6816H47.0564V34H46.075ZM50.001 34V26.8076H55.1279V27.7012H50.9678V29.8496H54.8105V30.6895H50.9678V33.1016H55.2109V34H50.001ZM57.1545 27.6523V30.0889H58.8244C59.4266 30.0889 59.8514 29.9912 60.0988 29.7959C60.3495 29.6006 60.4748 29.2751 60.4748 28.8193C60.4748 28.3929 60.3576 28.0918 60.1232 27.916C59.8889 27.7402 59.4559 27.6523 58.8244 27.6523H57.1545ZM56.1975 26.8076H58.9855C59.438 26.8076 59.7701 26.8271 59.9816 26.8662C60.1965 26.9053 60.3885 26.9704 60.5578 27.0615C60.8605 27.2275 61.09 27.4587 61.2463 27.7549C61.4058 28.0511 61.4855 28.3994 61.4855 28.7998C61.4855 29.1872 61.4025 29.5192 61.2365 29.7959C61.0705 30.0693 60.8231 30.2842 60.4943 30.4404C60.7743 30.5186 60.9729 30.6504 61.09 30.8359C61.2105 31.0215 61.2854 31.3356 61.3146 31.7783L61.3977 32.9648C61.4139 33.2188 61.4465 33.4092 61.4953 33.5361C61.5474 33.6598 61.6239 33.7477 61.7248 33.7998V34H60.5969C60.5057 33.8503 60.4423 33.5296 60.4064 33.0381C60.4064 33.0251 60.4064 33.0153 60.4064 33.0088L60.3479 32.0713C60.3153 31.5895 60.2128 31.277 60.0402 31.1338C59.8677 30.9906 59.4364 30.9189 58.7463 30.9189H57.1643V34H56.1975V26.8076ZM65.1822 34V26.8076H66.149V30.2793L69.6109 26.8076H70.9098L67.9703 29.6885L70.9928 34H69.7818L67.2623 30.3916L66.149 31.4805V34H65.1822ZM71.3885 34V26.8076H72.365V34H71.3885ZM75.3242 34V27.6816H73.0537V26.8076H78.5762V27.6816H76.3057V34H75.3242Z" fill="black"/>
</svg>
