<svg width="631" height="50" viewBox="0 0 631 50" fill="none" xmlns="http://www.w3.org/2000/svg">
<path d="M361.742 25.9512H363.014C363.032 26.6393 363.221 27.1702 363.581 27.5439C363.941 27.9176 364.449 28.1045 365.105 28.1045C365.743 28.1045 366.245 27.9336 366.609 27.5918C366.978 27.25 367.163 26.7806 367.163 26.1836C367.163 25.6367 366.983 25.2129 366.623 24.9121C366.263 24.6113 365.757 24.4609 365.105 24.4609C364.973 24.4609 364.754 24.4701 364.449 24.4883L364.401 24.4951L364.408 23.3877C364.467 23.3923 364.527 23.3968 364.586 23.4014C364.65 23.4014 364.729 23.4014 364.825 23.4014C365.527 23.4014 366.033 23.2829 366.343 23.0459C366.653 22.8044 366.807 22.4193 366.807 21.8906C366.807 21.3984 366.659 21.0202 366.363 20.7559C366.067 20.4915 365.643 20.3594 365.092 20.3594C364.472 20.3594 364.002 20.5348 363.683 20.8857C363.369 21.2321 363.212 21.7471 363.212 22.4307H361.968V22.3623C361.968 21.4007 362.243 20.6351 362.795 20.0654C363.346 19.4958 364.087 19.2109 365.016 19.2109C366.01 19.2109 366.78 19.4411 367.327 19.9014C367.878 20.3617 368.154 21.0042 368.154 21.8291C368.154 22.3031 368.052 22.7064 367.847 23.0391C367.641 23.3672 367.338 23.6178 366.937 23.791C367.457 23.9824 367.849 24.2809 368.113 24.6865C368.382 25.0876 368.516 25.5866 368.516 26.1836C368.516 27.1224 368.2 27.8743 367.566 28.4395C366.933 29 366.083 29.2803 365.016 29.2803C364.018 29.2803 363.223 28.9863 362.631 28.3984C362.038 27.806 361.742 27.013 361.742 26.0195V25.9512ZM370.041 29V27.4756H371.443V29H370.041ZM378.819 24.8164H381.957L380.398 20.373L378.819 24.8164ZM375.907 29L379.646 18.9307H381.157L384.91 29H383.426L382.36 25.9922H378.395L377.322 29H375.907ZM389.395 20.0928H387.043V27.7695H389.395C390.402 27.7695 391.163 27.4437 391.678 26.792C392.193 26.1357 392.45 25.1673 392.45 23.8867C392.45 22.6608 392.188 21.722 391.664 21.0703C391.14 20.4186 390.383 20.0928 389.395 20.0928ZM385.676 29V18.9307H389.511C390.914 18.9307 391.988 19.3499 392.73 20.1885C393.478 21.027 393.852 22.237 393.852 23.8184C393.852 25.4544 393.464 26.7282 392.689 27.6396C391.919 28.5465 390.841 29 389.456 29H385.676ZM399.013 20.0928H396.661V27.7695H399.013C400.02 27.7695 400.781 27.4437 401.296 26.792C401.811 26.1357 402.069 25.1673 402.069 23.8867C402.069 22.6608 401.807 21.722 401.282 21.0703C400.758 20.4186 400.002 20.0928 399.013 20.0928ZM395.294 29V18.9307H399.129C400.533 18.9307 401.606 19.3499 402.349 20.1885C403.096 21.027 403.47 22.237 403.47 23.8184C403.47 25.4544 403.083 26.7282 402.308 27.6396C401.538 28.5465 400.46 29 399.074 29H395.294ZM404.325 25.8486V24.7412H407.709V25.8486H404.325ZM409.985 23.9756C409.985 25.2653 410.281 26.2747 410.874 27.0039C411.471 27.7285 412.296 28.0908 413.348 28.0908C414.397 28.0908 415.215 27.7285 415.803 27.0039C416.395 26.2747 416.691 25.2653 416.691 23.9756C416.691 22.6813 416.395 21.6719 415.803 20.9473C415.215 20.2227 414.397 19.8604 413.348 19.8604C412.296 19.8604 411.471 20.2227 410.874 20.9473C410.281 21.6719 409.985 22.6813 409.985 23.9756ZM408.57 23.9756C408.57 22.3122 408.992 21.0133 409.835 20.0791C410.682 19.1403 411.854 18.6709 413.348 18.6709C414.839 18.6709 416.003 19.138 416.842 20.0723C417.685 21.0065 418.106 22.3076 418.106 23.9756C418.106 25.639 417.685 26.9401 416.842 27.8789C416.003 28.8132 414.839 29.2803 413.348 29.2803C411.854 29.2803 410.682 28.8132 409.835 27.8789C408.992 26.9401 408.57 25.639 408.57 23.9756ZM419.542 29V18.9307H421.039L425.742 26.2451C425.847 26.4046 425.938 26.555 426.016 26.6963C426.093 26.8376 426.155 26.9697 426.2 27.0928V18.9307H427.506V29H426.023L421.217 21.583C421.144 21.4691 421.076 21.3506 421.012 21.2275C420.953 21.1045 420.896 20.9746 420.841 20.8379V29H419.542Z" fill="black"/>
<rect x="0.5" y="1.5" width="629" height="47" rx="3.5" stroke="black"/>
<path d="M472 1H626.5C628.709 1 630.5 2.79086 630.5 5V25V45C630.5 47.2091 628.709 49 626.5 49H472L478.5 25L472 1Z" fill="black"/>
<path d="M315 1L323 25L315 49" stroke="black"/>
<path d="M472 1L480 25L472 49" stroke="black"/>
<path d="M25.6817 29V22.082H23.4121V21.0908C24.237 21.0817 24.8545 20.9268 25.2647 20.626C25.6794 20.3252 25.9255 19.8535 26.003 19.2109H26.9532V29H25.6817ZM29.6878 29V27.4756H31.0892V29H29.6878ZM36.2098 25.6846H37.5292C37.5429 26.4137 37.7844 26.9948 38.2538 27.4277C38.7277 27.8607 39.3589 28.0771 40.1473 28.0771C40.9266 28.0771 41.5396 27.9131 41.9862 27.585C42.4374 27.2568 42.663 26.8102 42.663 26.2451C42.663 25.4749 41.8199 24.8893 40.1337 24.4883C40.0334 24.4655 39.9559 24.4473 39.9012 24.4336C38.5341 24.11 37.6294 23.75 37.1874 23.3535C36.7499 22.9525 36.5311 22.3851 36.5311 21.6514C36.5311 20.7536 36.8593 20.0335 37.5155 19.4912C38.1718 18.9443 39.0445 18.6709 40.1337 18.6709C41.2456 18.6709 42.1206 18.958 42.7587 19.5322C43.3967 20.1019 43.7203 20.8857 43.7294 21.8838L42.4237 21.8906C42.3781 21.2161 42.148 20.6989 41.7333 20.3389C41.3231 19.9788 40.7603 19.7988 40.0448 19.7988C39.3749 19.7988 38.8394 19.9469 38.4384 20.2432C38.0373 20.5348 37.8368 20.9245 37.8368 21.4121C37.8368 22.1914 38.6662 22.7725 40.3251 23.1553C40.5712 23.2145 40.7603 23.2601 40.8925 23.292C40.9198 23.2965 40.9677 23.3079 41.036 23.3262C42.1206 23.5859 42.8407 23.8662 43.1962 24.167C43.4651 24.3949 43.6701 24.6729 43.8114 25.001C43.9527 25.3245 44.0233 25.6868 44.0233 26.0879C44.0233 27.0586 43.6747 27.8311 42.9774 28.4053C42.2847 28.9795 41.3459 29.2666 40.161 29.2666C38.9397 29.2666 37.9872 28.959 37.3036 28.3438C36.6246 27.724 36.26 26.8376 36.2098 25.6846ZM47.6671 29V20.1543H44.4884V18.9307H52.2199V20.1543H49.0412V29H47.6671ZM54.9545 24.8164H58.0922L56.5336 20.373L54.9545 24.8164ZM52.0424 29L55.7817 18.9307H57.2924L61.0454 29H59.562L58.4955 25.9922H54.5307L53.4575 29H52.0424ZM63.1511 20.1133V23.5244H65.489C66.3321 23.5244 66.9268 23.3877 67.2732 23.1143C67.6241 22.8408 67.7995 22.3851 67.7995 21.7471C67.7995 21.1501 67.6355 20.7285 67.3073 20.4824C66.9792 20.2363 66.3731 20.1133 65.489 20.1133H63.1511ZM61.8112 18.9307H65.7146C66.348 18.9307 66.8129 18.958 67.1091 19.0127C67.4099 19.0674 67.6788 19.1585 67.9157 19.2861C68.3396 19.5186 68.6609 19.8421 68.8796 20.2568C69.1029 20.6715 69.2146 21.1592 69.2146 21.7197C69.2146 22.262 69.0984 22.7269 68.8659 23.1143C68.6335 23.4971 68.2872 23.7979 67.8269 24.0166C68.2188 24.126 68.4968 24.3105 68.6609 24.5703C68.8295 24.8301 68.9343 25.2699 68.9753 25.8896L69.0915 27.5508C69.1143 27.9062 69.1599 28.1729 69.2282 28.3506C69.3012 28.5238 69.4083 28.6468 69.5495 28.7197V29H67.9704C67.8428 28.7904 67.754 28.3415 67.7038 27.6533C67.7038 27.6351 67.7038 27.6214 67.7038 27.6123L67.6218 26.2998C67.5762 25.6253 67.4327 25.1878 67.1911 24.9873C66.9496 24.7868 66.3458 24.6865 65.3796 24.6865H63.1648V29H61.8112V18.9307ZM73.0498 29V20.1543H69.8711V18.9307H77.6025V20.1543H74.4238V29H73.0498ZM78.5462 29V18.9307H85.7239V20.1816H79.8997V23.1895H85.2796V24.3652H79.8997V27.7422H85.8401V29H78.5462ZM88.5611 20.1133V23.5244H90.899C91.7421 23.5244 92.3368 23.3877 92.6832 23.1143C93.0341 22.8408 93.2095 22.3851 93.2095 21.7471C93.2095 21.1501 93.0455 20.7285 92.7173 20.4824C92.3892 20.2363 91.7831 20.1133 90.899 20.1133H88.5611ZM87.2212 18.9307H91.1246C91.758 18.9307 92.2229 18.958 92.5191 19.0127C92.8199 19.0674 93.0888 19.1585 93.3257 19.2861C93.7496 19.5186 94.0709 19.8421 94.2896 20.2568C94.5129 20.6715 94.6246 21.1592 94.6246 21.7197C94.6246 22.262 94.5084 22.7269 94.2759 23.1143C94.0435 23.4971 93.6972 23.7979 93.2369 24.0166C93.6288 24.126 93.9068 24.3105 94.0709 24.5703C94.2395 24.8301 94.3443 25.2699 94.3853 25.8896L94.5015 27.5508C94.5243 27.9062 94.5699 28.1729 94.6382 28.3506C94.7112 28.5238 94.8183 28.6468 94.9595 28.7197V29H93.3804C93.2528 28.7904 93.164 28.3415 93.1138 27.6533C93.1138 27.6351 93.1138 27.6214 93.1138 27.6123L93.0318 26.2998C92.9862 25.6253 92.8427 25.1878 92.6011 24.9873C92.3596 24.7868 91.7558 24.6865 90.7896 24.6865H88.5748V29H87.2212V18.9307ZM102.022 29V20.1543H98.8429V18.9307H106.574V20.1543H103.396V29H102.022ZM107.518 29V18.9307H114.696V20.1816H108.871V23.1895H114.251V24.3652H108.871V27.7422H114.812V29H107.518ZM115.728 25.6846H117.048C117.061 26.4137 117.303 26.9948 117.772 27.4277C118.246 27.8607 118.877 28.0771 119.666 28.0771C120.445 28.0771 121.058 27.9131 121.505 27.585C121.956 27.2568 122.181 26.8102 122.181 26.2451C122.181 25.4749 121.338 24.8893 119.652 24.4883C119.552 24.4655 119.474 24.4473 119.42 24.4336C118.052 24.11 117.148 23.75 116.706 23.3535C116.268 22.9525 116.049 22.3851 116.049 21.6514C116.049 20.7536 116.378 20.0335 117.034 19.4912C117.69 18.9443 118.563 18.6709 119.652 18.6709C120.764 18.6709 121.639 18.958 122.277 19.5322C122.915 20.1019 123.239 20.8857 123.248 21.8838L121.942 21.8906C121.896 21.2161 121.666 20.6989 121.252 20.3389C120.841 19.9788 120.279 19.7988 119.563 19.7988C118.893 19.7988 118.358 19.9469 117.957 20.2432C117.556 20.5348 117.355 20.9245 117.355 21.4121C117.355 22.1914 118.185 22.7725 119.843 23.1553C120.09 23.2145 120.279 23.2601 120.411 23.292C120.438 23.2965 120.486 23.3079 120.554 23.3262C121.639 23.5859 122.359 23.8662 122.715 24.167C122.983 24.3949 123.188 24.6729 123.33 25.001C123.471 25.3245 123.542 25.6868 123.542 26.0879C123.542 27.0586 123.193 27.8311 122.496 28.4053C121.803 28.9795 120.864 29.2666 119.679 29.2666C118.458 29.2666 117.506 28.959 116.822 28.3438C116.143 27.724 115.778 26.8376 115.728 25.6846ZM127.186 29V20.1543H124.007V18.9307H131.738V20.1543H128.56V29H127.186Z" fill="black"/>
<path d="M315 1L323 25L315 49" stroke="black"/>
<path d="M156 1L164 25L156 49" stroke="black"/>
<path d="M188.77 29V28.918C188.77 27.9746 188.998 27.1816 189.453 26.5391C189.914 25.8919 190.714 25.2562 191.853 24.6318L192.68 24.1807C193.172 23.9118 193.532 23.6087 193.76 23.2715C193.993 22.9342 194.109 22.5423 194.109 22.0957C194.109 21.5762 193.933 21.1592 193.582 20.8447C193.231 20.5303 192.762 20.373 192.174 20.373C191.577 20.373 191.108 20.5736 190.766 20.9746C190.429 21.3757 190.26 21.9271 190.26 22.6289V22.7451H188.982V22.5742C188.982 21.5352 189.273 20.7148 189.857 20.1133C190.44 19.5117 191.231 19.2109 192.229 19.2109C193.195 19.2109 193.97 19.4775 194.553 20.0107C195.141 20.5439 195.435 21.2435 195.435 22.1094C195.435 22.7839 195.264 23.3717 194.922 23.873C194.58 24.3698 194.052 24.805 193.336 25.1787L192.509 25.5957C191.762 25.9876 191.213 26.3522 190.862 26.6895C190.515 27.0221 190.285 27.3913 190.171 27.7969H195.435V29H188.77ZM196.96 29V27.4756H198.361V29H196.96ZM205.204 20.4209V29H203.946V18.9307H205.902L208.397 26.6348C208.47 26.8535 208.522 27.0244 208.554 27.1475C208.59 27.266 208.618 27.3708 208.636 27.4619C208.672 27.2933 208.709 27.1429 208.745 27.0107C208.782 26.8786 208.82 26.7533 208.861 26.6348L211.445 18.9307H213.407V29H212.081V20.4209C212.049 20.5667 212.013 20.7148 211.972 20.8652C211.931 21.0111 211.888 21.1569 211.842 21.3027L209.251 29H207.959L205.43 21.3027C205.384 21.1751 205.343 21.0384 205.307 20.8926C205.27 20.7467 205.236 20.5895 205.204 20.4209ZM215.288 29V18.9307H222.465V20.1816H216.641V23.1895H222.021V24.3652H216.641V27.7422H222.581V29H215.288ZM225.22 20.4209V29H223.963V18.9307H225.918L228.413 26.6348C228.486 26.8535 228.538 27.0244 228.57 27.1475C228.606 27.266 228.634 27.3708 228.652 27.4619C228.689 27.2933 228.725 27.1429 228.761 27.0107C228.798 26.8786 228.837 26.7533 228.878 26.6348L231.462 18.9307H233.424V29H232.097V20.4209C232.065 20.5667 232.029 20.7148 231.988 20.8652C231.947 21.0111 231.904 21.1569 231.858 21.3027L229.267 29H227.975L225.446 21.3027C225.4 21.1751 225.359 21.0384 225.323 20.8926C225.287 20.7467 225.252 20.5895 225.22 20.4209ZM235.304 29V18.9307H239.364C240.408 18.9307 241.189 19.1357 241.709 19.5459C242.233 19.9561 242.495 20.569 242.495 21.3848C242.495 21.9089 242.374 22.3555 242.133 22.7246C241.891 23.0892 241.531 23.3695 241.053 23.5654C241.659 23.6794 242.131 23.9505 242.468 24.3789C242.805 24.8027 242.974 25.3405 242.974 25.9922C242.974 26.9128 242.668 27.6442 242.058 28.1865C241.447 28.7288 240.618 29 239.569 29H235.304ZM236.671 23.1621H239.07C239.777 23.1621 240.296 23.0345 240.629 22.7793C240.962 22.5241 241.128 22.1253 241.128 21.583C241.128 21.0726 240.968 20.6943 240.649 20.4482C240.33 20.2021 239.84 20.0791 239.18 20.0791H236.671V23.1621ZM236.671 27.7832H239.446C240.144 27.7832 240.672 27.6305 241.032 27.3252C241.392 27.0153 241.572 26.5664 241.572 25.9785C241.572 25.3952 241.388 24.9668 241.019 24.6934C240.654 24.4199 240.077 24.2832 239.289 24.2832H236.671V27.7832ZM244.293 29V18.9307H251.471V20.1816H245.647V23.1895H251.027V24.3652H245.647V27.7422H251.587V29H244.293ZM254.308 20.1133V23.5244H256.646C257.489 23.5244 258.084 23.3877 258.43 23.1143C258.781 22.8408 258.957 22.3851 258.957 21.7471C258.957 21.1501 258.793 20.7285 258.464 20.4824C258.136 20.2363 257.53 20.1133 256.646 20.1133H254.308ZM252.968 18.9307H256.872C257.505 18.9307 257.97 18.958 258.266 19.0127C258.567 19.0674 258.836 19.1585 259.073 19.2861C259.497 19.5186 259.818 19.8421 260.037 20.2568C260.26 20.6715 260.372 21.1592 260.372 21.7197C260.372 22.262 260.255 22.7269 260.023 23.1143C259.791 23.4971 259.444 23.7979 258.984 24.0166C259.376 24.126 259.654 24.3105 259.818 24.5703C259.987 24.8301 260.091 25.2699 260.132 25.8896L260.249 27.5508C260.271 27.9062 260.317 28.1729 260.385 28.3506C260.458 28.5238 260.565 28.6468 260.707 28.7197V29H259.127C259 28.7904 258.911 28.3415 258.861 27.6533C258.861 27.6351 258.861 27.6214 258.861 27.6123L258.779 26.2998C258.733 25.6253 258.59 25.1878 258.348 24.9873C258.107 24.7868 257.503 24.6865 256.537 24.6865H254.322V29H252.968V18.9307ZM261.52 25.6846H262.84C262.853 26.4137 263.095 26.9948 263.564 27.4277C264.038 27.8607 264.669 28.0771 265.458 28.0771C266.237 28.0771 266.85 27.9131 267.297 27.585C267.748 27.2568 267.973 26.8102 267.973 26.2451C267.973 25.4749 267.13 24.8893 265.444 24.4883C265.344 24.4655 265.266 24.4473 265.212 24.4336C263.845 24.11 262.94 23.75 262.498 23.3535C262.06 22.9525 261.842 22.3851 261.842 21.6514C261.842 20.7536 262.17 20.0335 262.826 19.4912C263.482 18.9443 264.355 18.6709 265.444 18.6709C266.556 18.6709 267.431 18.958 268.069 19.5322C268.707 20.1019 269.031 20.8857 269.04 21.8838L267.734 21.8906C267.689 21.2161 267.459 20.6989 267.044 20.3389C266.634 19.9788 266.071 19.7988 265.355 19.7988C264.685 19.7988 264.15 19.9469 263.749 20.2432C263.348 20.5348 263.147 20.9245 263.147 21.4121C263.147 22.1914 263.977 22.7725 265.636 23.1553C265.882 23.2145 266.071 23.2601 266.203 23.292C266.23 23.2965 266.278 23.3079 266.347 23.3262C267.431 23.5859 268.151 23.8662 268.507 24.167C268.776 24.3949 268.981 24.6729 269.122 25.001C269.263 25.3245 269.334 25.6868 269.334 26.0879C269.334 27.0586 268.985 27.8311 268.288 28.4053C267.595 28.9795 266.656 29.2666 265.472 29.2666C264.25 29.2666 263.298 28.959 262.614 28.3438C261.935 27.724 261.57 26.8376 261.52 25.6846ZM270.756 29V18.9307H272.123V23.0664H277.346V18.9307H278.72V29H277.346V24.2832H272.123V29H270.756ZM280.634 29V18.9307H282.001V29H280.634ZM285.29 23.5381H287.587C288.384 23.5381 288.94 23.4105 289.255 23.1553C289.574 22.9001 289.733 22.4626 289.733 21.8428C289.733 21.2458 289.576 20.8174 289.261 20.5576C288.947 20.2979 288.423 20.168 287.689 20.168H285.29V23.5381ZM283.923 29V18.9307H287.628C288.229 18.9307 288.687 18.9603 289.002 19.0195C289.316 19.0788 289.596 19.1768 289.842 19.3135C290.253 19.5368 290.567 19.8672 290.786 20.3047C291.005 20.7422 291.114 21.2549 291.114 21.8428C291.114 22.4033 291.005 22.8978 290.786 23.3262C290.567 23.7546 290.248 24.0964 289.829 24.3516C289.587 24.4974 289.302 24.6022 288.974 24.666C288.651 24.7253 288.115 24.7549 287.368 24.7549H285.29V29H283.923Z" fill="black"/>
<path d="M519.974 25.4727H523.057V21.1182L519.974 25.4727ZM523.057 29V26.5938H518.798V25.3633L523.043 19.4912H524.315V25.4727H525.702V26.5938H524.315V29H523.057ZM527.07 29V27.4756H528.471V29H527.07ZM534.057 29V18.9307H538.117C539.161 18.9307 539.942 19.1357 540.462 19.5459C540.986 19.9561 541.248 20.569 541.248 21.3848C541.248 21.9089 541.127 22.3555 540.886 22.7246C540.644 23.0892 540.284 23.3695 539.806 23.5654C540.412 23.6794 540.884 23.9505 541.221 24.3789C541.558 24.8027 541.727 25.3405 541.727 25.9922C541.727 26.9128 541.421 27.6442 540.811 28.1865C540.2 28.7288 539.371 29 538.322 29H534.057ZM535.424 23.1621H537.823C538.53 23.1621 539.049 23.0345 539.382 22.7793C539.715 22.5241 539.881 22.1253 539.881 21.583C539.881 21.0726 539.721 20.6943 539.402 20.4482C539.083 20.2021 538.594 20.0791 537.933 20.0791H535.424V23.1621ZM535.424 27.7832H538.199C538.897 27.7832 539.425 27.6305 539.785 27.3252C540.145 27.0153 540.325 26.5664 540.325 25.9785C540.325 25.3952 540.141 24.9668 539.772 24.6934C539.407 24.4199 538.83 24.2832 538.042 24.2832H535.424V27.7832ZM543.074 29V18.9307H544.441V29H543.074ZM546.362 29V18.9307H547.743V27.7285H552.76V29H546.362ZM553.574 29V18.9307H554.955V27.7285H559.973V29H553.574ZM560.814 29V18.9307H562.181V29H560.814ZM564.088 29V18.9307H565.585L570.289 26.2451C570.393 26.4046 570.485 26.555 570.562 26.6963C570.639 26.8376 570.701 26.9697 570.747 27.0928V18.9307H572.052V29H570.569L565.763 21.583C565.69 21.4691 565.622 21.3506 565.558 21.2275C565.499 21.1045 565.442 20.9746 565.387 20.8379V29H564.088ZM581.459 27.6533C581.049 28.1956 580.561 28.6035 579.996 28.877C579.431 29.1458 578.788 29.2803 578.068 29.2803C576.705 29.2803 575.6 28.7949 574.753 27.8242C573.91 26.849 573.488 25.5706 573.488 23.9893C573.488 22.3441 573.926 21.0475 574.801 20.0996C575.676 19.1471 576.863 18.6709 578.362 18.6709C579.511 18.6709 580.447 18.9626 581.172 19.5459C581.896 20.1247 582.331 20.9336 582.477 21.9727H581.144C581.021 21.2936 580.716 20.7695 580.228 20.4004C579.745 20.0312 579.123 19.8467 578.362 19.8467C577.264 19.8467 576.412 20.2044 575.805 20.9199C575.204 21.6309 574.903 22.6357 574.903 23.9346C574.903 25.2197 575.202 26.2246 575.799 26.9492C576.396 27.6738 577.218 28.0361 578.266 28.0361C579.214 28.0361 579.971 27.7467 580.536 27.168C581.101 26.5892 581.384 25.8099 581.384 24.8301V24.7002H578.232V23.5654H582.648V29H581.753L581.459 27.6533Z" fill="white"/>
</svg>
