<svg width="181" height="124" viewBox="0 0 181 124" fill="none" xmlns="http://www.w3.org/2000/svg">
<path d="M85 69V51H92.4578C94.3746 51 95.81 51.3666 96.7642 52.0998C97.7268 52.833 98.2081 53.9287 98.2081 55.387C98.2081 56.3238 97.9863 57.1222 97.5427 57.7821C97.099 58.4338 96.4378 58.9348 95.5589 59.2851C96.6722 59.4888 97.5385 59.9735 98.1579 60.7393C98.7773 61.4969 99.087 62.4582 99.087 63.6232C99.087 65.2688 98.5262 66.5764 97.4046 67.5458C96.283 68.5153 94.7596 69 92.8345 69H85ZM87.511 58.5642H91.9179C93.2153 58.5642 94.1695 58.336 94.7805 57.8798C95.3915 57.4236 95.697 56.7108 95.697 55.7413C95.697 54.8289 95.4041 54.1527 94.8182 53.7128C94.2323 53.2729 93.3325 53.053 92.1188 53.053H87.511V58.5642ZM87.511 66.8248H92.6085C93.8891 66.8248 94.86 66.5519 95.5213 66.0061C96.1825 65.4521 96.5131 64.6497 96.5131 63.5988C96.5131 62.556 96.1741 61.7902 95.4962 61.3014C94.8266 60.8126 93.7677 60.5682 92.3197 60.5682H87.511V66.8248Z" fill="white"/>
<circle cx="91" cy="62" r="30.5" stroke="white"/>
<circle cx="21" cy="38" r="6.5" stroke="white"/>
<circle cx="48" cy="13" r="6.5" stroke="white"/>
<circle cx="94" cy="7" r="6.5" stroke="white"/>
<circle cx="152" cy="14" r="6.5" stroke="white"/>
<circle cx="174" cy="53" r="6.5" stroke="white"/>
<circle cx="7" cy="86" r="6.5" stroke="white"/>
<circle cx="143" cy="94" r="6.5" stroke="white"/>
<circle cx="55" cy="100" r="6.5" stroke="white"/>
<circle cx="99" cy="117" r="6.5" stroke="white"/>
<line x1="93.4966" y1="14.0584" x2="91.4966" y2="31.0584" stroke="white"/>
<line x1="51.3708" y1="18.6645" x2="70.3708" y2="39.6645" stroke="white"/>
<line x1="147.286" y1="19.4102" x2="114.286" y2="42.4102" stroke="white"/>
<line x1="167.075" y1="53.4943" x2="121.075" y2="60.4943" stroke="white"/>
<line x1="137.776" y1="90.4472" x2="115.776" y2="79.4472" stroke="white"/>
<line x1="97.5068" y1="110.082" x2="94.5068" y2="92.0822" stroke="white"/>
<line x1="59.63" y1="94.6637" x2="69.63" y2="83.6637" stroke="white"/>
<line x1="12.8626" y1="83.5192" x2="61.8626" y2="69.5192" stroke="white"/>
<line x1="27.1085" y1="40.5119" x2="63.1085" y2="48.5119" stroke="white"/>
</svg>
