<?xml version="1.0" encoding="UTF-8"?>
<svg width="797px" height="376px" viewBox="0 0 797 376" version="1.1" xmlns="http://www.w3.org/2000/svg" xmlns:xlink="http://www.w3.org/1999/xlink">
    <!-- Generator: Sketch 55.2 (78181) - https://sketchapp.com -->
    <title>biomarker_large</title>
    <desc>Created with Sketch.</desc>
    <defs>
        <polygon id="path-1" points="0.14196 0.4458 14.93736 0.4458 14.93736 20.54076 0.14196 20.54076"></polygon>
    </defs>
    <g id="Page-1" stroke="none" stroke-width="1" fill="none" fill-rule="evenodd">
        <g id="Crystal_the-science" transform="translate(-637.000000, -1175.000000)">
            <g id="Our-Philosophy" transform="translate(7.000000, 1062.000000)">
                <g id="philosophy-background">
                    <g id="biomarker_large" transform="translate(630.000000, 112.000000)">
                        <path d="M28.7813757,267.971004 L110.925613,255.840512 C112.252204,255.645114 113.169166,254.407595 112.973758,253.076942 C112.778956,251.748115 111.543394,250.831388 110.218624,251.023134 L28.0743867,263.153626 C26.7477961,263.349024 25.8308343,264.586543 26.0262425,265.917196 C26.2040517,267.126715 27.2405644,267.997788 28.4251503,267.997788 C28.5422738,267.997788 28.6618248,267.988657 28.7813757,267.971004" id="Fill-1" fill="#9AA28D"></path>
                        <path d="M113.224201,268.02407 L31.0702278,280.161178 C29.7462968,280.356271 28.8311735,281.591861 29.0261898,282.92044 C29.2036426,284.128073 30.2380772,284.997788 31.4196826,284.997788 C31.5371769,284.997788 31.6558825,284.988671 31.7757994,284.971046 L113.929772,272.833938 C115.253703,272.638845 116.168827,271.403255 115.97381,270.074676 C115.778794,268.746705 114.547526,267.828369 113.224201,268.02407" id="Fill-3" fill="#9AA28D"></path>
                        <path d="M631.312043,106.604516 C631.734515,107.483481 632.617026,107.997788 633.537719,107.997788 C633.892448,107.997788 634.253335,107.921436 634.595747,107.76018 C635.823749,107.179294 636.344756,105.721887 635.760316,104.50392 L599.687609,29.3924916 C599.102553,28.1739138 597.633139,27.6541094 596.404521,28.2368278 C595.176519,28.817103 594.654896,30.2751207 595.239952,31.4930878 L631.312043,106.604516 Z" id="Fill-5" fill="#9AA28D"></path>
                        <path d="M735.833523,92.5506545 C735.346097,91.2959147 733.936692,90.6767716 732.685915,91.1642859 L655.549139,121.287791 C654.298361,121.776524 653.67905,123.189706 654.166477,124.444445 C654.540859,125.407895 655.45919,125.997788 656.43222,125.997788 C656.72577,125.997788 657.024182,125.944161 657.314085,125.830814 L734.450861,95.7073092 C735.701639,95.2185761 736.32095,93.8053942 735.833523,92.5506545" id="Fill-7" fill="#9AA28D"></path>
                        <path d="M615.339276,113.613136 C615.759294,114.486662 616.636678,114.997788 617.552023,114.997788 C617.904691,114.997788 618.263482,114.921908 618.603904,114.76165 C619.824772,114.184358 620.342754,112.735967 619.761709,111.525535 L583.660991,36.3828431 C583.079333,35.1718041 581.618455,34.6570367 580.396362,35.234936 C579.175494,35.8116212 578.6569,37.2606187 579.238558,38.4710507 L615.339276,113.613136 Z" id="Fill-9" fill="#9AA28D"></path>
                        <path d="M243.973877,294.086585 C243.779357,292.751777 242.551222,291.826457 241.231264,292.024478 L180.06496,301.134052 C178.744398,301.33085 177.831603,302.572759 178.026123,303.908789 C178.20252,305.123806 179.234323,305.997788 180.413525,305.997788 C180.530721,305.997788 180.649124,305.989231 180.768736,305.970896 L241.93504,296.861323 C243.255602,296.665135 244.168397,295.423226 243.973877,294.086585" id="Fill-11" fill="#9AA28D"></path>
                        <path d="M553.942437,325.546941 L494.754305,276.511578 L505.696179,248.895008 L523.074413,205.036726 L599.765409,209.898108 L618.842862,284.37726 L553.942437,325.546941 Z M381.566282,360.692205 L305.118466,371.952704 L257.148825,311.341144 L285.625176,239.470301 L361.671745,228.268805 L409.894293,289.197888 L381.566282,360.692205 Z M128.20944,260.197479 L156.686398,188.326028 L233.134214,177.065529 L281.104464,237.677089 L252.627505,309.547932 L176.179689,320.809039 L128.20944,260.197479 Z M518.631519,203.044605 L490.153952,274.916665 L414.107991,286.118161 L365.88605,225.18847 L394.213454,153.694153 L470.66127,142.433653 L518.631519,203.044605 Z M664.913877,187.492075 L605.88138,203.973451 L627.929274,148.326072 C628.424753,147.077271 627.813764,145.662409 626.565036,145.167269 C625.317523,144.672736 623.903433,145.282842 623.408562,146.532251 L600.222587,205.050716 L522.524827,200.126073 L473.602529,138.310724 C473.063278,137.629449 472.202422,137.284554 471.341565,137.414726 L393.372052,148.899681 L349.988173,102.763386 C349.068345,101.78527 347.529625,101.737824 346.550827,102.658762 C345.572636,103.579699 345.525824,105.119259 346.44626,106.097983 L389.63985,152.032329 L361.36473,223.395257 L287.695243,234.246992 L309.99726,177.959702 C310.492739,176.710292 309.88175,175.296039 308.633021,174.800898 C307.384293,174.306366 305.971419,174.917688 305.476548,176.165881 L283.173923,232.453779 L236.075474,172.943208 C235.536223,172.261933 234.676582,171.917646 233.815118,172.046601 L154.589581,183.716474 C153.72994,183.842996 153.002833,184.41843 152.683051,185.226228 L123.171363,259.710246 C122.850973,260.518652 122.985938,261.436548 123.525189,262.117823 L173.238429,324.93136 C173.703511,325.51896 174.408124,325.854123 175.144351,325.854123 C175.262293,325.854123 175.380235,325.845607 175.498785,325.827966 L253.335158,314.362476 L302.177207,376.075025 C302.642288,376.662625 303.346901,376.997788 304.083736,376.997788 C304.20107,376.997788 304.31962,376.989272 304.43817,376.971632 L383.663707,365.301759 C384.523348,365.175237 385.249847,364.599803 385.569629,363.792005 L414.415005,290.991101 L490.99049,279.711745 L552.20127,330.422922 C552.648721,330.793365 553.199523,330.981932 553.752757,330.981932 C554.203248,330.981932 554.654954,330.856626 555.054377,330.603581 L622.939225,287.54093 C623.829263,286.976445 624.25422,285.902829 623.992802,284.881525 L604.650283,209.368904 L666.221576,192.17888 C667.514685,191.817561 668.270974,190.475693 667.909852,189.181271 C667.54873,187.886241 666.210025,187.128323 664.913877,187.492075 L664.913877,187.492075 Z" id="Fill-13" fill="#9AA28D"></path>
                        <path d="M3.69418873,279.415678 C3.69418873,282.135731 4.95336388,283.757014 7.50030415,283.757014 C10.1305811,283.757014 11.3058113,282.025854 11.3058113,279.415678 L11.3058113,274.579897 C11.3058113,271.914783 9.82278276,270.240353 7.50030415,270.240353 C5.09327223,270.240353 3.69418873,272.025854 3.69418873,274.579897 L3.69418873,279.415678 Z M7.50030415,266.997788 C11.9773713,266.997788 15,269.855186 15,274.745907 L15,279.25146 C15,284.305801 11.9773713,286.997788 7.50030415,286.997788 C3.02262865,286.997788 0,284.305801 0,279.25146 L0,274.745907 C0,269.855186 3.02262865,266.997788 7.50030415,266.997788 L7.50030415,266.997788 Z" id="Fill-15" fill="#FFFFFF"></path>
                        <g id="Group-19" transform="translate(571.000000, 0.997788)">
                            <mask id="mask-2" fill="white">
                                <use xlink:href="#path-1"></use>
                            </mask>
                            <g id="Clip-18"></g>
                            <path d="M3.78576,12.92196 C3.78576,15.65496 5.02776,17.28396 7.53996,17.28396 C10.13436,17.28396 11.29356,15.54456 11.29356,12.92196 L11.29356,8.06376 C11.29356,5.38596 9.83076,3.70296 7.53996,3.70296 C5.16576,3.70296 3.78576,5.49696 3.78576,8.06376 L3.78576,12.92196 Z M7.53996,0.44556 C11.95596,0.44556 14.93736,3.31596 14.93736,8.22996 L14.93736,12.75696 C14.93736,17.83536 11.95596,20.54076 7.53996,20.54076 C3.12336,20.54076 0.14196,17.83536 0.14196,12.75696 L0.14196,8.22996 C0.14196,3.31596 3.12336,0.44556 7.53996,0.44556 L7.53996,0.44556 Z" id="Fill-17" fill="#FFFFFF" mask="url(#mask-2)"></path>
                        </g>
                        <path d="M633.198164,116.997788 C638.201736,116.997788 641,119.690371 641,123.976171 L641,124.634835 L637.268981,124.634835 L637.268981,123.920635 C637.268981,121.723095 635.911633,120.239756 633.198164,120.239756 C630.399286,120.239756 628.731633,122.217542 628.731633,124.634835 L628.731633,129.360143 C628.731633,131.997788 630.286839,133.755819 633.198164,133.755819 C636.16602,133.755819 637.268981,132.245011 637.268981,130.074343 L637.268981,129.360143 L641,129.360143 L641,130.020002 C641,134.277735 638.427858,136.997788 633.198164,136.997788 C628.335919,136.997788 625,134.305204 625,129.195327 L625,124.799651 C625,120.020002 628.194593,116.997788 633.198164,116.997788" id="Fill-20" fill="#FFFFFF"></path>
                        <path d="M754.198164,78.9977876 C759.201736,78.9977876 762,81.6897738 762,85.9761705 L762,86.6348353 L758.268981,86.6348353 L758.268981,85.9200377 C758.268981,83.722498 756.911633,82.2391587 754.198164,82.2391587 C751.399286,82.2391587 749.731633,84.2169444 749.731633,86.6348353 L749.731633,91.3595456 C749.731633,93.9977876 751.286839,95.7552222 754.198164,95.7552222 C757.16602,95.7552222 758.268981,94.2450108 758.268981,92.0743432 L758.268981,91.3595456 L762,91.3595456 L762,92.0200019 C762,96.2777351 759.427858,98.9977876 754.198164,98.9977876 C749.335919,98.9977876 746,96.3046071 746,91.1953273 L746,86.7990536 C746,82.0200019 749.194593,78.9977876 754.198164,78.9977876" id="Fill-22" fill="#FFFFFF"></path>
                        <polygon id="Fill-24" fill="#FFFFFF" points="767.750154 78.9977876 767.750154 87.2555116 775.250463 87.2555116 775.250463 78.9977876 779 78.9977876 779 98.9977876 775.250463 98.9977876 775.250463 90.6829297 767.750154 90.6829297 767.750154 98.9977876 764 98.9977876 764 78.9977876"></polygon>
                        <path d="M786.077445,95.9977876 C788.185811,95.9977876 790,97.4769565 790,99.8977563 C790,102.216436 788.713481,103.292139 786.434041,103.913628 C784.914608,104.334636 784.108944,104.68673 784.108944,105.779348 L784.108944,105.981707 L789.938159,105.981707 L789.938159,107.997788 L782.062419,107.997788 L782.062419,105.981707 C782.062419,103.845966 783.473198,102.804721 785.472909,102.216436 C787.023552,101.762223 787.953475,101.20777 787.953475,99.8300942 C787.953475,98.6704408 787.224679,97.9812898 786.108655,97.9812898 C784.992631,97.9812898 784.046525,98.6704408 784.046525,100.19973 L784.046525,100.569365 L782,100.569365 L782,100.166525 C782,97.4099208 783.876029,95.9977876 786.077445,95.9977876" id="Fill-26" fill="#FFFFFF"></path>
                        <path d="M794.666855,91.1953273 C794.666855,93.9697212 796.055587,95.7558194 799.000302,95.7558194 C802.027737,95.7558194 803.333748,93.8604414 803.333748,91.1953273 L803.333748,86.7996507 C803.333748,84.0795982 801.72282,82.2391587 799.000302,82.2391587 C796.19446,82.2391587 794.666855,84.1906695 794.666855,86.7996507 L794.666855,91.1953273 Z M799.000302,78.9977876 C803.971961,78.9977876 807,82.046874 807,86.9650634 L807,91.031109 C807,96.0854503 803.971961,98.9977876 799.000302,98.9977876 C794.027435,98.9977876 791,96.0854503 791,91.031109 L791,86.9650634 C791,82.046874 794.027435,78.9977876 799.000302,78.9977876 L799.000302,78.9977876 Z" id="Fill-28" fill="#FFFFFF"></path>
                        <polygon id="Fill-33" fill="#FFFFFF" points="298.750154 135.997788 298.750154 144.255512 306.250463 144.255512 306.250463 135.997788 310 135.997788 310 155.997788 306.250463 155.997788 306.250463 147.68293 298.750154 147.68293 298.750154 155.997788 295 155.997788 295 135.997788"></polygon>
                        <path d="M319.72884,153.997788 L319.72884,155.947036 L316.447169,158.603051 L316.447169,158.804805 L316.887332,158.804805 C318.528167,158.804805 320,159.930745 320,162.06483 C320,164.451422 318.172506,165.997788 315.534053,165.997788 C312.708941,165.997788 311,164.333627 311,161.997788 L311,161.527863 L313.232974,161.527863 L313.232974,161.930118 C313.232974,163.072976 314.028167,164.014078 315.534053,164.014078 C316.93778,164.014078 317.767026,163.19077 317.767026,162.06483 C317.767026,160.93889 316.971833,160.384379 315.838004,160.384379 L313.774664,160.384379 L313.774664,158.40067 L316.700673,156.014705 L311.338635,156.014705 L311.338635,153.997788 L319.72884,153.997788 Z" id="Fill-35" fill="#FFFFFF"></path>
                        <path d="M329.198164,135.997788 C334.201736,135.997788 337,138.689774 337,142.976171 L337,143.634835 L333.268981,143.634835 L333.268981,142.920038 C333.268981,140.722498 331.912247,139.239159 329.198164,139.239159 C326.399286,139.239159 324.731633,141.216944 324.731633,143.634835 L324.731633,148.359546 C324.731633,150.997788 326.286839,152.755222 329.198164,152.755222 C332.16602,152.755222 333.268981,151.245011 333.268981,149.074343 L333.268981,148.359546 L337,148.359546 L337,149.020002 C337,153.277735 334.427858,155.997788 329.198164,155.997788 C324.335919,155.997788 321,153.304607 321,148.195327 L321,143.799054 C321,139.020002 324.194593,135.997788 329.198164,135.997788" id="Fill-37" fill="#FFFFFF"></path>
                        <polygon id="Fill-39" fill="#FFFFFF" points="322.750154 71.9977876 322.750154 80.2551469 330.250463 80.2551469 330.250463 71.9977876 334 71.9977876 334 91.9977876 330.250463 91.9977876 330.250463 83.6832925 322.750154 83.6832925 322.750154 91.9977876 319 91.9977876 319 71.9977876"></polygon>
                        <path d="M339.666855,84.1953273 C339.666855,86.9703184 341.055587,88.7564165 344.000302,88.7564165 C347.027737,88.7564165 348.333748,86.8604414 348.333748,84.1953273 L348.333748,79.8002479 C348.333748,77.0801953 346.72282,75.2397558 344.000302,75.2397558 C341.19446,75.2397558 339.666855,77.1906695 339.666855,79.8002479 L339.666855,84.1953273 Z M344.000302,71.9977876 C348.971961,71.9977876 352,75.0474711 352,79.9650634 L352,84.031109 C352,89.0854503 348.971961,91.9977876 344.000302,91.9977876 C339.027435,91.9977876 336,89.0854503 336,84.031109 L336,79.9650634 C336,75.0474711 339.027435,71.9977876 344.000302,71.9977876 L344.000302,71.9977876 Z" id="Fill-41" fill="#FFFFFF"></path>
                        <path d="M680.666855,190.195327 C680.666855,192.970318 682.055587,194.756417 685.000302,194.756417 C688.027737,194.756417 689.333748,192.860441 689.333748,190.195327 L689.333748,185.800248 C689.333748,183.080195 687.722216,181.239756 685.000302,181.239756 C682.19446,181.239756 680.666855,183.190669 680.666855,185.800248 L680.666855,190.195327 Z M685.000302,177.997788 C689.971961,177.997788 693,181.047471 693,185.965063 L693,190.031109 C693,195.08545 689.971961,197.997788 685.000302,197.997788 C680.027435,197.997788 677,195.08545 677,190.031109 L677,185.965063 C677,181.047471 680.027435,177.997788 685.000302,177.997788 L685.000302,177.997788 Z" id="Fill-43" fill="#FFFFFF"></path>
                        <polygon id="Fill-45" fill="#FFFFFF" points="699.750154 177.997788 699.750154 186.255147 707.250463 186.255147 707.250463 177.997788 711 177.997788 711 197.997788 707.250463 197.997788 707.250463 189.683293 699.750154 189.683293 699.750154 197.997788 696 197.997788 696 177.997788"></polygon>
                        <text id="Cortisol" font-family="SpaceMono-Bold, Space Mono" font-size="14" font-weight="bold" line-spacing="19.5" letter-spacing="0.233333333" fill="#A1A994">
                            <tspan x="583" y="373">Cortisol</tspan>
                        </text>
                    </g>
                </g>
            </g>
        </g>
    </g>
</svg>