<svg xmlns="http://www.w3.org/2000/svg" xmlns:xlink="http://www.w3.org/1999/xlink" width="1427" height="600" viewBox="0 0 1427 600">
    <defs>
        <path id="a" d="M0 0h1427v600H0z"/>
        <path id="c" d="M.142.446h14.795V20.54H.142z"/>
    </defs>
    <g fill="none" fill-rule="evenodd">
        <mask id="b" fill="#fff">
            <use xlink:href="#a"/>
        </mask>
        <use fill="#51554B" xlink:href="#a"/>
        <g mask="url(#b)">
            <path fill="#9AA28D" d="M658.781 379.971l82.145-12.13a2.433 2.433 0 0 0 2.048-2.764 2.433 2.433 0 0 0-2.755-2.054l-82.145 12.13a2.433 2.433 0 0 0-2.048 2.764 2.431 2.431 0 0 0 2.755 2.054M743.224 380.024l-82.154 12.137a2.43 2.43 0 0 0-2.044 2.76 2.427 2.427 0 0 0 2.75 2.05l82.154-12.137a2.43 2.43 0 0 0 2.044-2.76 2.424 2.424 0 0 0-2.75-2.05M1261.312 218.605a2.466 2.466 0 0 0 2.226 1.393c.354 0 .715-.077 1.058-.238a2.435 2.435 0 0 0 1.164-3.256l-36.072-75.112a2.47 2.47 0 0 0-3.283-1.155 2.435 2.435 0 0 0-1.165 3.256l36.072 75.112zM1365.834 204.55a2.43 2.43 0 0 0-3.148-1.386l-77.137 30.124a2.44 2.44 0 0 0 .883 4.71c.294 0 .592-.054.882-.167l77.137-30.124a2.44 2.44 0 0 0 1.383-3.156M1245.34 225.613a2.452 2.452 0 0 0 2.212 1.385c.353 0 .711-.076 1.052-.236a2.42 2.42 0 0 0 1.158-3.236l-36.101-75.143a2.457 2.457 0 0 0-3.265-1.148 2.42 2.42 0 0 0-1.157 3.236l36.1 75.142zM873.974 406.087c-.195-1.335-1.423-2.26-2.743-2.063l-61.166 9.11c-1.32.197-2.233 1.439-2.039 2.775a2.425 2.425 0 0 0 2.388 2.089c.117 0 .235-.009.355-.027l61.166-9.11c1.32-.196 2.233-1.438 2.039-2.774"/>
            <path fill="#9AA28D" d="M1183.942 437.547l-59.188-49.035 10.942-27.617 17.378-43.858 76.691 4.861 19.078 74.48-64.9 41.169zm-172.376 35.145l-76.448 11.26-47.97-60.61 28.477-71.872 76.047-11.201 48.222 60.929-28.328 71.494zM758.21 372.197l28.477-71.871 76.448-11.26 47.97 60.611-28.476 71.87-76.448 11.262-47.97-60.612zm390.423-57.152l-28.478 71.872-76.046 11.201-48.222-60.93 28.327-71.494 76.448-11.26 47.97 60.61zm146.282-15.553l-59.033 16.481 22.048-55.647a2.432 2.432 0 1 0-4.52-1.794l-23.186 58.519-77.698-4.925-48.922-61.815a2.422 2.422 0 0 0-2.261-.896l-77.97 11.485-43.384-46.137a2.431 2.431 0 0 0-3.437-.104 2.434 2.434 0 0 0-.105 3.439l43.194 45.934-28.275 71.363-73.67 10.852 22.302-56.287a2.433 2.433 0 0 0-4.52-1.794l-22.303 56.288-47.099-59.51a2.424 2.424 0 0 0-2.26-.897l-79.225 11.67a2.43 2.43 0 0 0-1.907 1.51l-29.512 74.483a2.434 2.434 0 0 0 .354 2.408l49.713 62.813a2.431 2.431 0 0 0 2.26.897l77.837-11.466 48.842 61.713a2.432 2.432 0 0 0 2.261.897l79.226-11.67a2.43 2.43 0 0 0 1.906-1.51l28.845-72.8 76.575-11.28 61.211 50.71a2.43 2.43 0 0 0 2.853.182l67.885-43.063a2.434 2.434 0 0 0 1.054-2.66l-19.343-75.512 61.572-17.19a2.433 2.433 0 0 0-1.308-4.687z"/>
            <path fill="#FFF" d="M633.694 391.416c0 2.72 1.26 4.341 3.806 4.341 2.63 0 3.806-1.731 3.806-4.341v-4.836c0-2.665-1.483-4.34-3.806-4.34-2.407 0-3.806 1.786-3.806 4.34v4.836zm3.806-12.418c4.477 0 7.5 2.857 7.5 7.748v4.505c0 5.055-3.023 7.747-7.5 7.747s-7.5-2.692-7.5-7.747v-4.505c0-4.89 3.023-7.748 7.5-7.748z"/>
            <g transform="translate(1201 112.998)">
                <mask id="d" fill="#fff">
                    <use xlink:href="#c"/>
                </mask>
                <path fill="#FFF" d="M3.786 12.922c0 2.733 1.242 4.362 3.754 4.362 2.594 0 3.754-1.74 3.754-4.362V8.064c0-2.678-1.463-4.361-3.754-4.361-2.374 0-3.754 1.794-3.754 4.36v4.859zM7.54.446c4.416 0 7.397 2.87 7.397 7.784v4.527c0 5.078-2.981 7.784-7.397 7.784-4.417 0-7.398-2.706-7.398-7.784V8.23C.142 3.316 3.123.446 7.54.446z" mask="url(#d)"/>
            </g>
            <path fill="#FFF" d="M1263.198 228.998c5.004 0 7.802 2.692 7.802 6.978v.659h-3.731v-.714c0-2.198-1.357-3.681-4.07-3.681-2.8 0-4.467 1.978-4.467 4.395v4.725c0 2.638 1.555 4.396 4.466 4.396 2.968 0 4.071-1.511 4.071-3.682v-.714H1271v.66c0 4.258-2.572 6.978-7.802 6.978-4.862 0-8.198-2.693-8.198-7.803V236.8c0-4.78 3.195-7.802 8.198-7.802M1384.198 190.998c5.004 0 7.802 2.692 7.802 6.978v.659h-3.731v-.715c0-2.198-1.357-3.68-4.07-3.68-2.8 0-4.467 1.977-4.467 4.395v4.725c0 2.638 1.555 4.395 4.466 4.395 2.968 0 4.071-1.51 4.071-3.68v-.715H1392v.66c0 4.258-2.572 6.978-7.802 6.978-4.862 0-8.198-2.693-8.198-7.803V198.8c0-4.779 3.195-7.801 8.198-7.801M1397.75 190.998v8.258h7.5v-8.258h3.75v20h-3.75v-8.315h-7.5v8.315H1394v-20zM1416.077 207.998c2.109 0 3.923 1.479 3.923 3.9 0 2.318-1.287 3.394-3.566 4.016-1.52.42-2.325.773-2.325 1.865v.203h5.83v2.016h-7.877v-2.016c0-2.136 1.411-3.177 3.41-3.766 1.552-.454 2.481-1.008 2.481-2.386 0-1.16-.728-1.849-1.844-1.849s-2.062.69-2.062 2.219v.37H1412v-.403c0-2.757 1.876-4.17 4.077-4.17M1424.667 203.195c0 2.775 1.389 4.56 4.333 4.56 3.028 0 4.334-1.895 4.334-4.56V198.8c0-2.72-1.611-4.56-4.334-4.56-2.806 0-4.333 1.95-4.333 4.56v4.395zm4.333-12.197c4.972 0 8 3.049 8 7.967v4.066c0 5.054-3.028 7.967-8 7.967-4.973 0-8-2.913-8-7.967v-4.066c0-4.918 3.027-7.967 8-7.967zM928.75 247.998v8.258h7.5v-8.258H940v20h-3.75v-8.315h-7.5v8.315H925v-20zM949.729 265.998v1.949l-3.282 2.656v.202h.44c1.641 0 3.113 1.126 3.113 3.26 0 2.386-1.827 3.933-4.466 3.933-2.825 0-4.534-1.664-4.534-4v-.47h2.233v.402c0 1.143.795 2.084 2.301 2.084 1.404 0 2.233-.823 2.233-1.95 0-1.125-.795-1.68-1.929-1.68h-2.063v-1.983l2.926-2.386h-5.362v-2.017h8.39zM959.198 247.998c5.004 0 7.802 2.692 7.802 6.978v.659h-3.731v-.715c0-2.198-1.357-3.68-4.07-3.68-2.8 0-4.467 1.977-4.467 4.395v4.725c0 2.638 1.555 4.395 4.466 4.395 2.968 0 4.071-1.51 4.071-3.68v-.715H967v.66c0 4.258-2.572 6.978-7.802 6.978-4.862 0-8.198-2.693-8.198-7.803V255.8c0-4.779 3.195-7.801 8.198-7.801M952.75 183.998v8.257h7.5v-8.257H964v20h-3.75v-8.315h-7.5v8.315H949v-20zM969.667 196.195c0 2.775 1.389 4.561 4.333 4.561 3.028 0 4.334-1.896 4.334-4.56V191.8c0-2.72-1.611-4.56-4.334-4.56-2.806 0-4.333 1.95-4.333 4.56v4.395zM974 183.998c4.972 0 8 3.05 8 7.967v4.066c0 5.054-3.028 7.967-8 7.967-4.973 0-8-2.913-8-7.967v-4.066c0-4.918 3.027-7.967 8-7.967zM1310.667 302.195c0 2.775 1.389 4.561 4.333 4.561 3.028 0 4.334-1.896 4.334-4.56V297.8c0-2.72-1.612-4.56-4.334-4.56-2.806 0-4.333 1.95-4.333 4.56v4.395zm4.333-12.197c4.972 0 8 3.05 8 7.967v4.066c0 5.054-3.028 7.967-8 7.967-4.973 0-8-2.913-8-7.967v-4.066c0-4.918 3.027-7.967 8-7.967zM1329.75 289.998v8.257h7.5v-8.257h3.75v20h-3.75v-8.315h-7.5v8.315H1326v-20z"/>
            <text font-family="SpaceMono-Bold, Space Mono" font-size="14" font-weight="bold" letter-spacing=".233" transform="translate(630 112)">
                <tspan x="583" y="373" fill="#A1A994">Cortisol</tspan>
            </text>
        </g>
    </g>
</svg>
