<svg width="523" height="375" viewBox="0 0 523 375" fill="none" xmlns="http://www.w3.org/2000/svg">
<circle cx="253" cy="196" r="125.5" stroke="black"/>
<line x1="257.646" y1="197.354" x2="166.646" y2="106.354" stroke="black"/>
<line x1="257.498" y1="195.952" x2="269.498" y2="320.952" stroke="black"/>
<line x1="257.534" y1="194.819" x2="301.534" y2="81.8186" stroke="black"/>
<line x1="257.534" y1="194.819" x2="301.534" y2="81.8186" stroke="black"/>
<line x1="257.197" y1="196.54" x2="369.197" y2="244.54" stroke="black"/>
<line x1="257.197" y1="196.54" x2="369.197" y2="244.54" stroke="black"/>
<line x1="258.302" y1="195.398" x2="154.302" y2="274.398" stroke="black"/>
<line x1="258.302" y1="195.398" x2="154.302" y2="274.398" stroke="black"/>
<line x1="243.509" y1="117.092" x2="227.509" y2="32.0925" stroke="#4A4A4A"/>
<line x1="368.73" y1="294.421" x2="304.73" y2="253.421" stroke="#4A4A4A"/>
<line x1="170.598" y1="348.703" x2="227.598" y2="271.703" stroke="#4A4A4A"/>
<line x1="87.161" y1="150.527" x2="184.161" y2="183.527" stroke="#4A4A4A"/>
<line x1="315.792" y1="168.335" x2="435.792" y2="113.545" stroke="#4A4A4A"/>
<path d="M388.434 308V295.773H390.095V300.795H396.436V295.773H398.105V308H396.436V302.272H390.095V308H388.434ZM400.783 303.542C400.783 304.644 401.018 305.488 401.488 306.074C401.964 306.655 402.642 306.946 403.522 306.946C404.396 306.946 405.066 306.655 405.531 306.074C405.996 305.488 406.228 304.644 406.228 303.542C406.228 302.447 405.996 301.608 405.531 301.027C405.066 300.441 404.396 300.147 403.522 300.147C402.637 300.147 401.959 300.438 401.488 301.019C401.018 301.6 400.783 302.441 400.783 303.542ZM399.255 303.542C399.255 302.054 399.626 300.895 400.368 300.064C401.115 299.234 402.161 298.819 403.505 298.819C404.856 298.819 405.904 299.234 406.651 300.064C407.398 300.889 407.772 302.048 407.772 303.542C407.772 305.037 407.398 306.199 406.651 307.029C405.91 307.859 404.867 308.274 403.522 308.274C402.172 308.274 401.123 307.862 400.376 307.037C399.629 306.207 399.255 305.042 399.255 303.542ZM408.74 308V299.11H410.184V300.704C410.422 300.106 410.743 299.66 411.147 299.367C411.557 299.068 412.057 298.919 412.65 298.919C412.76 298.919 412.84 298.922 412.89 298.927C412.94 298.927 412.99 298.933 413.04 298.944V300.521C413.001 300.515 412.957 300.513 412.907 300.513C412.857 300.507 412.782 300.504 412.683 300.504C411.886 300.504 411.277 300.723 410.857 301.16C410.442 301.592 410.234 302.223 410.234 303.053V308H408.74ZM424.367 308V302.53C424.367 301.633 424.245 301.022 424.002 300.695C423.758 300.363 423.335 300.197 422.732 300.197C422.012 300.197 421.453 300.421 421.055 300.87C420.656 301.312 420.457 301.938 420.457 302.746V308H418.938V302.53C418.938 301.633 418.816 301.022 418.573 300.695C418.329 300.363 417.909 300.197 417.311 300.197C416.597 300.197 416.038 300.424 415.634 300.878C415.231 301.326 415.029 301.949 415.029 302.746V308H413.534V299.11H414.962V300.363C415.294 299.865 415.687 299.494 416.141 299.251C416.595 299.007 417.126 298.886 417.735 298.886C418.288 298.886 418.761 298.999 419.154 299.226C419.547 299.447 419.884 299.799 420.167 300.28C420.554 299.799 420.977 299.447 421.437 299.226C421.896 298.999 422.425 298.886 423.022 298.886C423.598 298.886 424.099 298.991 424.525 299.201C424.951 299.406 425.277 299.705 425.504 300.098C425.631 300.325 425.723 300.596 425.778 300.911C425.833 301.227 425.861 301.725 425.861 302.405V302.663V308H424.367ZM428.348 303.542C428.348 304.644 428.583 305.488 429.054 306.074C429.529 306.655 430.207 306.946 431.087 306.946C431.962 306.946 432.631 306.655 433.096 306.074C433.561 305.488 433.793 304.644 433.793 303.542C433.793 302.447 433.561 301.608 433.096 301.027C432.631 300.441 431.962 300.147 431.087 300.147C430.202 300.147 429.524 300.438 429.054 301.019C428.583 301.6 428.348 302.441 428.348 303.542ZM426.821 303.542C426.821 302.054 427.191 300.895 427.933 300.064C428.68 299.234 429.726 298.819 431.071 298.819C432.421 298.819 433.47 299.234 434.217 300.064C434.964 300.889 435.337 302.048 435.337 303.542C435.337 305.037 434.964 306.199 434.217 307.029C433.475 307.859 432.432 308.274 431.087 308.274C429.737 308.274 428.688 307.862 427.941 307.037C427.194 306.207 426.821 305.042 426.821 303.542ZM442.224 308V302.53C442.224 301.655 442.088 301.052 441.817 300.72C441.551 300.383 441.092 300.214 440.439 300.214C439.603 300.214 438.953 300.452 438.488 300.928C438.029 301.398 437.799 302.068 437.799 302.937V308H436.305V299.11H437.733V300.405C438.076 299.89 438.483 299.508 438.953 299.259C439.423 299.01 439.968 298.886 440.588 298.886C441.258 298.886 441.822 298.988 442.282 299.193C442.741 299.392 443.095 299.694 443.344 300.098C443.482 300.313 443.582 300.568 443.643 300.861C443.704 301.149 443.734 301.608 443.734 302.239V302.663V308H442.224ZM446.271 302.746H451.152C451.146 301.916 450.936 301.276 450.521 300.828C450.106 300.374 449.517 300.147 448.753 300.147C448.017 300.147 447.436 300.369 447.01 300.812C446.589 301.254 446.343 301.899 446.271 302.746ZM451.119 305.128H452.596C452.436 306.107 452.01 306.879 451.318 307.444C450.626 308.008 449.755 308.291 448.703 308.291C447.469 308.291 446.495 307.875 445.781 307.045C445.067 306.215 444.71 305.084 444.71 303.65C444.71 302.134 445.065 300.95 445.773 300.098C446.481 299.245 447.458 298.819 448.703 298.819C449.981 298.819 450.969 299.212 451.667 299.998C452.369 300.784 452.721 301.893 452.721 303.327C452.721 303.509 452.718 303.645 452.712 303.733C452.712 303.822 452.707 303.908 452.696 303.991H446.279C446.296 304.926 446.528 305.651 446.977 306.166C447.425 306.675 448.047 306.929 448.844 306.929C449.453 306.929 449.954 306.774 450.347 306.464C450.745 306.149 451.002 305.703 451.119 305.128ZM452.975 305.111H454.411C454.466 305.715 454.682 306.171 455.058 306.481C455.44 306.791 455.98 306.946 456.677 306.946C457.319 306.946 457.825 306.821 458.196 306.572C458.567 306.318 458.752 305.972 458.752 305.535C458.752 305.208 458.658 304.959 458.47 304.788C458.287 304.611 457.928 304.458 457.391 304.331L455.722 303.899C454.782 303.673 454.126 303.374 453.755 303.003C453.39 302.627 453.207 302.093 453.207 301.401C453.207 300.615 453.503 299.993 454.095 299.533C454.693 299.068 455.509 298.836 456.544 298.836C457.601 298.836 458.442 299.082 459.067 299.575C459.693 300.067 460.005 300.729 460.005 301.559V301.592H458.553C458.52 301.121 458.326 300.759 457.972 300.504C457.623 300.244 457.147 300.114 456.544 300.114C455.941 300.114 455.482 300.219 455.166 300.43C454.856 300.64 454.701 300.947 454.701 301.351C454.701 301.639 454.798 301.866 454.992 302.032C455.191 302.192 455.559 302.333 456.096 302.455L457.54 302.795C458.569 303.039 459.278 303.352 459.665 303.733C460.053 304.11 460.246 304.649 460.246 305.352C460.246 306.276 459.92 306.996 459.267 307.51C458.619 308.019 457.712 308.274 456.544 308.274C455.404 308.274 454.527 308.003 453.913 307.46C453.304 306.918 452.991 306.135 452.975 305.111Z" fill="black"/>
<path d="M144.485 374L140.135 361.773H141.853L145.373 372.008L148.785 361.773H150.519L146.22 374H144.485ZM150.815 363.475V361.773H152.309V363.475H150.815ZM150.815 374V365.11H152.309V374H150.815ZM155.502 371.759C155.502 372.157 155.557 372.423 155.668 372.556C155.784 372.688 155.994 372.755 156.298 372.755C156.387 372.755 156.492 372.752 156.614 372.747C156.741 372.741 156.904 372.73 157.104 372.713V373.983C156.855 374.028 156.63 374.061 156.431 374.083C156.238 374.105 156.063 374.116 155.908 374.116C155.206 374.116 154.713 373.981 154.431 373.709C154.149 373.438 154.007 372.957 154.007 372.265V366.297H152.679V365.11H154.007V362.628H155.502V365.11H157.104V366.297H155.502V371.759ZM163.176 372.813C162.712 373.3 162.216 373.665 161.691 373.909C161.17 374.152 160.617 374.274 160.03 374.274C159.123 374.274 158.415 374.039 157.905 373.568C157.396 373.092 157.142 372.437 157.142 371.601C157.142 370.793 157.391 370.16 157.889 369.7C158.392 369.241 159.156 368.945 160.18 368.812C160.44 368.784 160.791 368.746 161.234 368.696C161.992 368.618 162.457 368.544 162.629 368.472C162.8 368.405 162.914 368.319 162.969 368.214C163.024 368.104 163.052 367.868 163.052 367.509C163.052 367.055 162.886 366.715 162.554 366.488C162.222 366.261 161.721 366.147 161.051 366.147C160.36 366.147 159.837 366.286 159.483 366.562C159.134 366.839 158.96 367.249 158.96 367.791H157.549V367.725C157.549 366.828 157.864 366.12 158.495 365.6C159.126 365.079 159.994 364.819 161.101 364.819C162.291 364.819 163.165 365.043 163.724 365.492C164.289 365.934 164.571 366.629 164.571 367.575V372.024C164.571 372.406 164.613 372.653 164.696 372.763C164.779 372.874 164.928 372.929 165.144 372.929C165.188 372.929 165.241 372.926 165.301 372.921C165.368 372.91 165.445 372.896 165.534 372.879V374.033C165.351 374.083 165.191 374.116 165.052 374.133C164.92 374.155 164.792 374.166 164.671 374.166C164.173 374.166 163.799 374.058 163.55 373.842C163.301 373.626 163.176 373.3 163.176 372.863V372.813ZM163.035 369.476C162.637 369.692 161.953 369.861 160.985 369.982C160.642 370.027 160.385 370.063 160.213 370.09C159.671 370.179 159.281 370.339 159.043 370.572C158.805 370.804 158.686 371.142 158.686 371.584C158.686 372.027 158.824 372.368 159.101 372.605C159.377 372.843 159.773 372.962 160.288 372.962C161.09 372.962 161.749 372.76 162.263 372.356C162.778 371.952 163.035 371.435 163.035 370.804V369.476ZM176.894 374V368.53C176.894 367.633 176.773 367.022 176.529 366.695C176.286 366.363 175.862 366.197 175.259 366.197C174.54 366.197 173.981 366.421 173.582 366.87C173.184 367.312 172.985 367.938 172.985 368.746V374H171.466V368.53C171.466 367.633 171.344 367.022 171.1 366.695C170.857 366.363 170.436 366.197 169.839 366.197C169.125 366.197 168.566 366.424 168.162 366.878C167.758 367.326 167.556 367.949 167.556 368.746V374H166.062V365.11H167.49V366.363C167.822 365.865 168.214 365.494 168.668 365.251C169.122 365.007 169.653 364.886 170.262 364.886C170.815 364.886 171.289 364.999 171.681 365.226C172.074 365.447 172.412 365.799 172.694 366.28C173.082 365.799 173.505 365.447 173.964 365.226C174.423 364.999 174.952 364.886 175.55 364.886C176.125 364.886 176.626 364.991 177.052 365.201C177.478 365.406 177.805 365.705 178.032 366.098C178.159 366.325 178.25 366.596 178.305 366.911C178.361 367.227 178.388 367.725 178.388 368.405V368.663V374H176.894ZM179.805 363.475V361.773H181.299V363.475H179.805ZM179.805 374V365.11H181.299V374H179.805ZM188.658 374V368.53C188.658 367.655 188.523 367.052 188.251 366.72C187.986 366.383 187.527 366.214 186.874 366.214C186.038 366.214 185.388 366.452 184.923 366.928C184.464 367.398 184.234 368.068 184.234 368.937V374H182.74V365.11H184.167V366.405C184.511 365.89 184.917 365.508 185.388 365.259C185.858 365.01 186.403 364.886 187.023 364.886C187.693 364.886 188.257 364.988 188.716 365.193C189.176 365.392 189.53 365.694 189.779 366.098C189.917 366.313 190.017 366.568 190.078 366.861C190.139 367.149 190.169 367.608 190.169 368.239V368.663V374H188.658ZM190.963 371.111H192.399C192.454 371.715 192.67 372.171 193.046 372.481C193.428 372.791 193.967 372.946 194.665 372.946C195.307 372.946 195.813 372.821 196.184 372.572C196.554 372.318 196.74 371.972 196.74 371.535C196.74 371.208 196.646 370.959 196.458 370.788C196.275 370.611 195.915 370.458 195.379 370.331L193.71 369.899C192.769 369.673 192.114 369.374 191.743 369.003C191.378 368.627 191.195 368.093 191.195 367.401C191.195 366.615 191.491 365.993 192.083 365.533C192.681 365.068 193.497 364.836 194.532 364.836C195.589 364.836 196.43 365.082 197.055 365.575C197.681 366.067 197.993 366.729 197.993 367.559V367.592H196.541C196.507 367.121 196.314 366.759 195.96 366.504C195.611 366.244 195.135 366.114 194.532 366.114C193.929 366.114 193.469 366.219 193.154 366.43C192.844 366.64 192.689 366.947 192.689 367.351C192.689 367.639 192.786 367.866 192.98 368.032C193.179 368.192 193.547 368.333 194.084 368.455L195.528 368.795C196.557 369.039 197.266 369.352 197.653 369.733C198.04 370.11 198.234 370.649 198.234 371.352C198.234 372.276 197.907 372.996 197.254 373.51C196.607 374.019 195.699 374.274 194.532 374.274C193.392 374.274 192.515 374.003 191.9 373.46C191.292 372.918 190.979 372.135 190.963 371.111Z" fill="black"/>
<path d="M398.704 90V77.7729H400.522L406.233 86.6548C406.36 86.8485 406.471 87.0311 406.565 87.2026C406.659 87.3742 406.734 87.5347 406.789 87.6841V77.7729H408.374V90H406.573L400.738 80.9937C400.649 80.8553 400.566 80.7114 400.489 80.562C400.417 80.4126 400.348 80.2549 400.281 80.0889V90H398.704ZM411.102 84.7456H415.983C415.977 83.9155 415.767 83.2764 415.352 82.8281C414.937 82.3743 414.348 82.1475 413.584 82.1475C412.848 82.1475 412.267 82.3688 411.841 82.8115C411.42 83.2542 411.174 83.8989 411.102 84.7456ZM415.95 87.1279H417.427C417.267 88.1074 416.841 88.8794 416.149 89.4438C415.457 90.0083 414.586 90.2905 413.534 90.2905C412.3 90.2905 411.326 89.8755 410.612 89.0454C409.898 88.2153 409.542 87.0837 409.542 85.6504C409.542 84.1341 409.896 82.9499 410.604 82.0977C411.312 81.2454 412.289 80.8193 413.534 80.8193C414.812 80.8193 415.8 81.2122 416.498 81.998C417.2 82.7839 417.552 83.8934 417.552 85.3267C417.552 85.5093 417.549 85.6449 417.543 85.7334C417.543 85.8219 417.538 85.9077 417.527 85.9907H411.11C411.127 86.9259 411.359 87.6509 411.808 88.1655C412.256 88.6746 412.878 88.9292 413.675 88.9292C414.284 88.9292 414.785 88.7743 415.178 88.4644C415.576 88.1489 415.833 87.7035 415.95 87.1279ZM419.889 81.1099V86.5635C419.889 87.4378 420.025 88.0465 420.296 88.3896C420.573 88.7272 421.038 88.896 421.691 88.896C422.554 88.896 423.207 88.6442 423.65 88.1406C424.092 87.6315 424.314 86.8844 424.314 85.8994V81.1099H425.808V90H424.38V88.6719C424.07 89.1865 423.669 89.5739 423.176 89.834C422.684 90.0941 422.106 90.2241 421.442 90.2241C420.822 90.2241 420.282 90.119 419.823 89.9087C419.364 89.6984 419.012 89.3996 418.769 89.0122C418.63 88.7964 418.531 88.5446 418.47 88.2568C418.409 87.9635 418.379 87.5015 418.379 86.8706V86.4473V81.1099H419.889ZM428.992 87.7588C428.992 88.1572 429.047 88.4229 429.158 88.5557C429.274 88.6885 429.484 88.7549 429.789 88.7549C429.877 88.7549 429.982 88.7521 430.104 88.7466C430.231 88.741 430.395 88.73 430.594 88.7134V89.9834C430.345 90.0277 430.121 90.0609 429.922 90.083C429.728 90.1051 429.554 90.1162 429.399 90.1162C428.696 90.1162 428.203 89.9806 427.921 89.7095C427.639 89.4383 427.498 88.9569 427.498 88.2651V82.2969H426.17V81.1099H427.498V78.6279H428.992V81.1099H430.594V82.2969H428.992V87.7588ZM431.172 90V81.1099H432.616V82.7036C432.854 82.106 433.175 81.6605 433.579 81.3672C433.988 81.0684 434.489 80.9189 435.081 80.9189C435.192 80.9189 435.272 80.9217 435.322 80.9272C435.372 80.9272 435.422 80.9328 435.471 80.9438V82.521C435.433 82.5155 435.388 82.5127 435.339 82.5127C435.289 82.5072 435.214 82.5044 435.115 82.5044C434.318 82.5044 433.709 82.723 433.288 83.1602C432.873 83.5918 432.666 84.2227 432.666 85.0527V90H431.172ZM437.037 85.5425C437.037 86.6437 437.272 87.4876 437.743 88.0742C438.218 88.6553 438.896 88.9458 439.776 88.9458C440.651 88.9458 441.32 88.6553 441.785 88.0742C442.25 87.4876 442.482 86.6437 442.482 85.5425C442.482 84.4468 442.25 83.6084 441.785 83.0273C441.32 82.4408 440.651 82.1475 439.776 82.1475C438.891 82.1475 438.213 82.438 437.743 83.019C437.272 83.6001 437.037 84.4412 437.037 85.5425ZM435.51 85.5425C435.51 84.0539 435.88 82.8945 436.622 82.0645C437.369 81.2344 438.415 80.8193 439.76 80.8193C441.11 80.8193 442.159 81.2344 442.906 82.0645C443.653 82.889 444.026 84.0483 444.026 85.5425C444.026 87.0366 443.653 88.1987 442.906 89.0288C442.164 89.8589 441.121 90.2739 439.776 90.2739C438.426 90.2739 437.377 89.8617 436.63 89.0371C435.883 88.207 435.51 87.0422 435.51 85.5425ZM446.746 87.7588C446.746 88.1572 446.801 88.4229 446.912 88.5557C447.028 88.6885 447.238 88.7549 447.542 88.7549C447.631 88.7549 447.736 88.7521 447.858 88.7466C447.985 88.741 448.148 88.73 448.348 88.7134V89.9834C448.099 90.0277 447.875 90.0609 447.675 90.083C447.482 90.1051 447.307 90.1162 447.152 90.1162C446.45 90.1162 445.957 89.9806 445.675 89.7095C445.393 89.4383 445.251 88.9569 445.251 88.2651V82.2969H443.923V81.1099H445.251V78.6279H446.746V81.1099H448.348V82.2969H446.746V87.7588ZM448.925 90V81.1099H450.37V82.7036C450.608 82.106 450.929 81.6605 451.333 81.3672C451.742 81.0684 452.243 80.9189 452.835 80.9189C452.946 80.9189 453.026 80.9217 453.076 80.9272C453.126 80.9272 453.175 80.9328 453.225 80.9438V82.521C453.186 82.5155 453.142 82.5127 453.092 82.5127C453.043 82.5072 452.968 82.5044 452.868 82.5044C452.071 82.5044 451.463 82.723 451.042 83.1602C450.627 83.5918 450.42 84.2227 450.42 85.0527V90H448.925ZM459.215 88.813C458.75 89.3 458.255 89.6652 457.729 89.9087C457.209 90.1522 456.656 90.2739 456.069 90.2739C455.161 90.2739 454.453 90.0387 453.944 89.5684C453.435 89.0924 453.18 88.4367 453.18 87.6011C453.18 86.7931 453.429 86.1595 453.927 85.7002C454.431 85.2409 455.195 84.9448 456.218 84.812C456.479 84.7843 456.83 84.7456 457.273 84.6958C458.031 84.6183 458.496 84.5436 458.667 84.4717C458.839 84.4053 458.952 84.3195 459.008 84.2144C459.063 84.1037 459.091 83.8685 459.091 83.5088C459.091 83.055 458.925 82.7147 458.592 82.4878C458.26 82.2609 457.76 82.1475 457.09 82.1475C456.398 82.1475 455.875 82.2858 455.521 82.5625C455.173 82.8392 454.998 83.2487 454.998 83.791H453.587V83.7246C453.587 82.8281 453.903 82.1198 454.533 81.5996C455.164 81.0794 456.033 80.8193 457.14 80.8193C458.33 80.8193 459.204 81.0435 459.763 81.4917C460.327 81.9344 460.61 82.6289 460.61 83.5752V88.0244C460.61 88.4062 460.651 88.6525 460.734 88.7632C460.817 88.8739 460.967 88.9292 461.182 88.9292C461.227 88.9292 461.279 88.9264 461.34 88.9209C461.406 88.9098 461.484 88.896 461.572 88.8794V90.0332C461.39 90.083 461.229 90.1162 461.091 90.1328C460.958 90.1549 460.831 90.166 460.709 90.166C460.211 90.166 459.838 90.0581 459.589 89.8423C459.34 89.6265 459.215 89.3 459.215 88.8628V88.813ZM459.074 85.4761C458.675 85.6919 457.992 85.8607 457.024 85.9824C456.681 86.0267 456.423 86.0627 456.252 86.0903C455.709 86.1789 455.319 86.3394 455.081 86.5718C454.843 86.8042 454.724 87.1418 454.724 87.5845C454.724 88.0272 454.863 88.3675 455.139 88.6055C455.416 88.8434 455.812 88.9624 456.326 88.9624C457.129 88.9624 457.787 88.7604 458.302 88.3564C458.817 87.9525 459.074 87.4351 459.074 86.8042V85.4761ZM468.019 90V84.5298C468.019 83.6554 467.883 83.0522 467.612 82.7202C467.346 82.3826 466.887 82.2139 466.234 82.2139C465.399 82.2139 464.748 82.4518 464.283 82.9277C463.824 83.3981 463.595 84.0677 463.595 84.9365V90H462.1V81.1099H463.528V82.4048C463.871 81.8901 464.278 81.5083 464.748 81.2593C465.219 81.0103 465.764 80.8857 466.384 80.8857C467.053 80.8857 467.618 80.9881 468.077 81.1929C468.536 81.3921 468.89 81.6937 469.139 82.0977C469.278 82.3135 469.377 82.568 469.438 82.8613C469.499 83.1491 469.53 83.6084 469.53 84.2393V84.6626V90H468.019ZM470.323 87.1113H471.759C471.815 87.7145 472.03 88.1711 472.407 88.481C472.788 88.7909 473.328 88.9458 474.025 88.9458C474.667 88.9458 475.174 88.8213 475.544 88.5723C475.915 88.3177 476.1 87.9718 476.1 87.5347C476.1 87.2082 476.006 86.9591 475.818 86.7876C475.636 86.6105 475.276 86.4583 474.739 86.3311L473.071 85.8994C472.13 85.6725 471.474 85.3737 471.103 85.0029C470.738 84.6266 470.556 84.0926 470.556 83.4009C470.556 82.6151 470.852 81.9925 471.444 81.5332C472.041 81.0684 472.858 80.8359 473.892 80.8359C474.949 80.8359 475.791 81.0822 476.416 81.5747C477.041 82.0672 477.354 82.7285 477.354 83.5586V83.5918H475.901C475.868 83.1214 475.674 82.759 475.32 82.5044C474.972 82.2443 474.496 82.1143 473.892 82.1143C473.289 82.1143 472.83 82.2194 472.515 82.4297C472.205 82.64 472.05 82.9471 472.05 83.3511C472.05 83.6388 472.147 83.8657 472.34 84.0317C472.539 84.1922 472.907 84.3333 473.444 84.4551L474.889 84.7954C475.918 85.0389 476.626 85.3516 477.014 85.7334C477.401 86.1097 477.595 86.6493 477.595 87.3521C477.595 88.2762 477.268 88.9956 476.615 89.5103C475.968 90.0194 475.06 90.2739 473.892 90.2739C472.753 90.2739 471.875 90.0028 471.261 89.4604C470.652 88.9181 470.34 88.1351 470.323 87.1113ZM489.345 90V84.5298C489.345 83.6333 489.223 83.0218 488.98 82.6953C488.736 82.3633 488.313 82.1973 487.71 82.1973C486.991 82.1973 486.432 82.4214 486.033 82.8696C485.635 83.3123 485.436 83.9377 485.436 84.7456V90H483.917V84.5298C483.917 83.6333 483.795 83.0218 483.551 82.6953C483.308 82.3633 482.887 82.1973 482.29 82.1973C481.576 82.1973 481.017 82.4242 480.613 82.8779C480.209 83.3262 480.007 83.9487 480.007 84.7456V90H478.513V81.1099H479.94V82.3633C480.272 81.8652 480.665 81.4945 481.119 81.251C481.573 81.0075 482.104 80.8857 482.713 80.8857C483.266 80.8857 483.739 80.9992 484.132 81.2261C484.525 81.4474 484.863 81.7988 485.145 82.2803C485.532 81.7988 485.956 81.4474 486.415 81.2261C486.874 80.9992 487.403 80.8857 488 80.8857C488.576 80.8857 489.077 80.9909 489.503 81.2012C489.929 81.4059 490.256 81.7048 490.482 82.0977C490.61 82.3245 490.701 82.5957 490.756 82.9111C490.812 83.2266 490.839 83.7246 490.839 84.4053V84.6626V90H489.345ZM492.255 79.4746V77.7729H493.75V79.4746H492.255ZM492.255 90V81.1099H493.75V90H492.255ZM496.942 87.7588C496.942 88.1572 496.997 88.4229 497.108 88.5557C497.224 88.6885 497.435 88.7549 497.739 88.7549C497.828 88.7549 497.933 88.7521 498.054 88.7466C498.182 88.741 498.345 88.73 498.544 88.7134V89.9834C498.295 90.0277 498.071 90.0609 497.872 90.083C497.678 90.1051 497.504 90.1162 497.349 90.1162C496.646 90.1162 496.154 89.9806 495.871 89.7095C495.589 89.4383 495.448 88.9569 495.448 88.2651V82.2969H494.12V81.1099H495.448V78.6279H496.942V81.1099H498.544V82.2969H496.942V87.7588ZM500.873 87.7588C500.873 88.1572 500.929 88.4229 501.039 88.5557C501.156 88.6885 501.366 88.7549 501.67 88.7549C501.759 88.7549 501.864 88.7521 501.986 88.7466C502.113 88.741 502.276 88.73 502.475 88.7134V89.9834C502.226 90.0277 502.002 90.0609 501.803 90.083C501.609 90.1051 501.435 90.1162 501.28 90.1162C500.577 90.1162 500.085 89.9806 499.803 89.7095C499.52 89.4383 499.379 88.9569 499.379 88.2651V82.2969H498.051V81.1099H499.379V78.6279H500.873V81.1099H502.475V82.2969H500.873V87.7588ZM504.19 84.7456H509.071C509.066 83.9155 508.855 83.2764 508.44 82.8281C508.025 82.3743 507.436 82.1475 506.672 82.1475C505.936 82.1475 505.355 82.3688 504.929 82.8115C504.509 83.2542 504.262 83.8989 504.19 84.7456ZM509.038 87.1279H510.516C510.355 88.1074 509.929 88.8794 509.237 89.4438C508.545 90.0083 507.674 90.2905 506.622 90.2905C505.388 90.2905 504.414 89.8755 503.701 89.0454C502.987 88.2153 502.63 87.0837 502.63 85.6504C502.63 84.1341 502.984 82.9499 503.692 82.0977C504.401 81.2454 505.377 80.8193 506.622 80.8193C507.901 80.8193 508.889 81.2122 509.586 81.998C510.289 82.7839 510.64 83.8934 510.64 85.3267C510.64 85.5093 510.637 85.6449 510.632 85.7334C510.632 85.8219 510.626 85.9077 510.615 85.9907H504.199C504.215 86.9259 504.448 87.6509 504.896 88.1655C505.344 88.6746 505.967 88.9292 506.764 88.9292C507.372 88.9292 507.873 88.7743 508.266 88.4644C508.664 88.1489 508.922 87.7035 509.038 87.1279ZM511.5 90V81.1099H512.944V82.7036C513.182 82.106 513.503 81.6605 513.907 81.3672C514.317 81.0684 514.818 80.9189 515.41 80.9189C515.52 80.9189 515.601 80.9217 515.65 80.9272C515.7 80.9272 515.75 80.9328 515.8 80.9438V82.521C515.761 82.5155 515.717 82.5127 515.667 82.5127C515.617 82.5072 515.542 82.5044 515.443 82.5044C514.646 82.5044 514.037 82.723 513.617 83.1602C513.202 83.5918 512.994 84.2227 512.994 85.0527V90H511.5ZM515.689 87.1113H517.125C517.18 87.7145 517.396 88.1711 517.772 88.481C518.154 88.7909 518.693 88.9458 519.391 88.9458C520.033 88.9458 520.539 88.8213 520.91 88.5723C521.281 88.3177 521.466 87.9718 521.466 87.5347C521.466 87.2082 521.372 86.9591 521.184 86.7876C521.001 86.6105 520.641 86.4583 520.105 86.3311L518.436 85.8994C517.495 85.6725 516.84 85.3737 516.469 85.0029C516.104 84.6266 515.921 84.0926 515.921 83.4009C515.921 82.6151 516.217 81.9925 516.809 81.5332C517.407 81.0684 518.223 80.8359 519.258 80.8359C520.315 80.8359 521.156 81.0822 521.781 81.5747C522.407 82.0672 522.719 82.7285 522.719 83.5586V83.5918H521.267C521.233 83.1214 521.04 82.759 520.686 82.5044C520.337 82.2443 519.861 82.1143 519.258 82.1143C518.655 82.1143 518.195 82.2194 517.88 82.4297C517.57 82.64 517.415 82.9471 517.415 83.3511C517.415 83.6388 517.512 83.8657 517.706 84.0317C517.905 84.1922 518.273 84.3333 518.81 84.4551L520.254 84.7954C521.283 85.0389 521.992 85.3516 522.379 85.7334C522.766 86.1097 522.96 86.6493 522.96 87.3521C522.96 88.2762 522.634 88.9956 521.981 89.5103C521.333 90.0194 520.426 90.2739 519.258 90.2739C518.118 90.2739 517.241 90.0028 516.627 89.4604C516.018 88.9181 515.705 88.1351 515.689 87.1113Z" fill="black"/>
<path d="M0.351368 134V121.773H5.28203C6.54928 121.773 7.49834 122.022 8.1292 122.52C8.76559 123.018 9.08379 123.762 9.08379 124.753C9.08379 125.389 8.93714 125.932 8.64385 126.38C8.35055 126.823 7.91338 127.163 7.33232 127.401C8.06833 127.539 8.64108 127.868 9.05059 128.389C9.46009 128.903 9.66484 129.556 9.66484 130.348C9.66484 131.465 9.29408 132.354 8.55254 133.012C7.811 133.671 6.80384 134 5.53106 134H0.351368ZM2.01152 126.911H4.9251C5.78285 126.911 6.41371 126.756 6.81768 126.446C7.22165 126.136 7.42363 125.652 7.42363 124.994C7.42363 124.374 7.22995 123.915 6.84258 123.616C6.45521 123.317 5.86032 123.167 5.05791 123.167H2.01152V126.911ZM2.01152 132.522H5.38164C6.22832 132.522 6.87025 132.337 7.30742 131.966C7.7446 131.59 7.96318 131.045 7.96318 130.331C7.96318 129.623 7.73906 129.103 7.29082 128.771C6.84811 128.438 6.14808 128.272 5.19072 128.272H2.01152V132.522ZM10.5995 134V121.773H12.1186V134H10.5995ZM14.6553 129.542C14.6553 130.644 14.8905 131.488 15.3608 132.074C15.8368 132.655 16.5146 132.946 17.3945 132.946C18.2689 132.946 18.9385 132.655 19.4033 132.074C19.8682 131.488 20.1006 130.644 20.1006 129.542C20.1006 128.447 19.8682 127.608 19.4033 127.027C18.9385 126.441 18.2689 126.147 17.3945 126.147C16.5091 126.147 15.8312 126.438 15.3608 127.019C14.8905 127.6 14.6553 128.441 14.6553 129.542ZM13.1279 129.542C13.1279 128.054 13.4987 126.895 14.2402 126.064C14.9873 125.234 16.0332 124.819 17.3779 124.819C18.7282 124.819 19.7769 125.234 20.5239 126.064C21.271 126.889 21.6445 128.048 21.6445 129.542C21.6445 131.037 21.271 132.199 20.5239 133.029C19.7824 133.859 18.7393 134.274 17.3945 134.274C16.0443 134.274 14.9956 133.862 14.2485 133.037C13.5015 132.207 13.1279 131.042 13.1279 129.542ZM23.6832 129.542C23.6832 130.644 23.9184 131.488 24.3888 132.074C24.8647 132.655 25.5426 132.946 26.4225 132.946C27.2968 132.946 27.9664 132.655 28.4313 132.074C28.8961 131.488 29.1285 130.644 29.1285 129.542C29.1285 128.447 28.8961 127.608 28.4313 127.027C27.9664 126.441 27.2968 126.147 26.4225 126.147C25.537 126.147 24.8591 126.438 24.3888 127.019C23.9184 127.6 23.6832 128.441 23.6832 129.542ZM22.1559 129.542C22.1559 128.054 22.5266 126.895 23.2682 126.064C24.0152 125.234 25.0611 124.819 26.4059 124.819C27.7561 124.819 28.8048 125.234 29.5519 126.064C30.2989 126.889 30.6725 128.048 30.6725 129.542C30.6725 131.037 30.2989 132.199 29.5519 133.029C28.8103 133.859 27.7672 134.274 26.4225 134.274C25.0722 134.274 24.0235 133.862 23.2765 133.037C22.5294 132.207 22.1559 131.042 22.1559 129.542ZM38.0153 129.493C38.0153 128.391 37.7912 127.561 37.343 127.002C36.9003 126.444 36.2417 126.164 35.3674 126.164C34.5262 126.164 33.876 126.471 33.4167 127.085C32.9574 127.694 32.7277 128.56 32.7277 129.684C32.7277 130.696 32.9629 131.493 33.4333 132.074C33.9092 132.655 34.5594 132.946 35.384 132.946C36.2196 132.946 36.8671 132.647 37.3264 132.049C37.7857 131.452 38.0153 130.599 38.0153 129.493ZM39.4099 121.773V134H37.9655V132.879C37.5837 133.344 37.1521 133.693 36.6706 133.925C36.1892 134.158 35.6579 134.274 35.0769 134.274C33.8926 134.274 32.9463 133.851 32.238 133.004C31.5352 132.152 31.1838 131.012 31.1838 129.584C31.1838 128.129 31.538 126.972 32.2463 126.114C32.9546 125.251 33.8981 124.819 35.0769 124.819C35.6966 124.819 36.2445 124.936 36.7204 125.168C37.2019 125.395 37.6169 125.738 37.9655 126.197V121.773H39.4099ZM50.6176 128.065C50.5733 127.456 50.352 126.989 49.9535 126.662C49.5606 126.33 49.0211 126.164 48.3349 126.164C47.5269 126.164 46.9016 126.455 46.4589 127.036C46.0217 127.617 45.8031 128.447 45.8031 129.526C45.8031 130.611 46.0134 131.446 46.434 132.033C46.8601 132.619 47.4605 132.913 48.2353 132.913C48.9325 132.913 49.4887 132.733 49.9037 132.373C50.3243 132.013 50.5844 131.49 50.684 130.804H52.1117C52.0342 131.894 51.6496 132.747 50.9579 133.361C50.2662 133.97 49.3365 134.274 48.1688 134.274C46.9514 134.274 45.994 133.856 45.2968 133.021C44.605 132.185 44.2592 131.039 44.2592 129.584C44.2592 128.095 44.6216 126.931 45.3466 126.089C46.0715 125.243 47.0676 124.819 48.3349 124.819C49.4527 124.819 50.3464 125.113 51.016 125.699C51.6911 126.28 52.0508 127.069 52.0951 128.065H50.6176ZM53.9346 128.746H58.8154C58.8099 127.916 58.5996 127.276 58.1846 126.828C57.7695 126.374 57.1802 126.147 56.4165 126.147C55.6805 126.147 55.0994 126.369 54.6733 126.812C54.2528 127.254 54.0065 127.899 53.9346 128.746ZM58.7822 131.128H60.2598C60.0993 132.107 59.6732 132.879 58.9814 133.444C58.2897 134.008 57.4181 134.291 56.3667 134.291C55.1326 134.291 54.1587 133.875 53.4448 133.045C52.731 132.215 52.374 131.084 52.374 129.65C52.374 128.134 52.7282 126.95 53.4365 126.098C54.1449 125.245 55.1216 124.819 56.3667 124.819C57.645 124.819 58.6328 125.212 59.3301 125.998C60.0329 126.784 60.3843 127.893 60.3843 129.327C60.3843 129.509 60.3815 129.645 60.376 129.733C60.376 129.822 60.3704 129.908 60.3594 129.991H53.9429C53.9595 130.926 54.1919 131.651 54.6401 132.166C55.0884 132.675 55.7109 132.929 56.5078 132.929C57.1165 132.929 57.6174 132.774 58.0103 132.464C58.4087 132.149 58.666 131.703 58.7822 131.128ZM61.2608 134V121.773H62.7799V134H61.2608ZM64.2624 134V121.773H65.7814V134H64.2624ZM16.6989 154V148.53C16.6989 147.633 16.5772 147.022 16.3337 146.695C16.0902 146.363 15.6669 146.197 15.0637 146.197C14.3443 146.197 13.7854 146.421 13.3869 146.87C12.9885 147.312 12.7893 147.938 12.7893 148.746V154H11.2702V148.53C11.2702 147.633 11.1485 147.022 10.905 146.695C10.6615 146.363 10.2409 146.197 9.64326 146.197C8.92939 146.197 8.37047 146.424 7.9665 146.878C7.56253 147.326 7.36055 147.949 7.36055 148.746V154H5.86641V145.11H7.29414V146.363C7.62617 145.865 8.01907 145.494 8.47285 145.251C8.92663 145.007 9.45788 144.886 10.0666 144.886C10.62 144.886 11.0931 144.999 11.486 145.226C11.8789 145.447 12.2165 145.799 12.4987 146.28C12.8861 145.799 13.3094 145.447 13.7687 145.226C14.2281 144.999 14.7565 144.886 15.3542 144.886C15.9297 144.886 16.4305 144.991 16.8566 145.201C17.2827 145.406 17.6092 145.705 17.8361 146.098C17.9634 146.325 18.0547 146.596 18.1101 146.911C18.1654 147.227 18.1931 147.725 18.1931 148.405V148.663V154H16.6989ZM25.1043 152.813C24.6395 153.3 24.1442 153.665 23.6185 153.909C23.0983 154.152 22.5449 154.274 21.9583 154.274C21.0507 154.274 20.3424 154.039 19.8333 153.568C19.3242 153.092 19.0696 152.437 19.0696 151.601C19.0696 150.793 19.3187 150.16 19.8167 149.7C20.3203 149.241 21.084 148.945 22.1077 148.812C22.3678 148.784 22.7192 148.746 23.1619 148.696C23.9201 148.618 24.3849 148.544 24.5564 148.472C24.728 148.405 24.8414 148.319 24.8968 148.214C24.9521 148.104 24.9798 147.868 24.9798 147.509C24.9798 147.055 24.8138 146.715 24.4817 146.488C24.1497 146.261 23.6489 146.147 22.9793 146.147C22.2876 146.147 21.7646 146.286 21.4104 146.562C21.0618 146.839 20.8875 147.249 20.8875 147.791H19.4764V147.725C19.4764 146.828 19.7918 146.12 20.4227 145.6C21.0535 145.079 21.9223 144.819 23.0291 144.819C24.2189 144.819 25.0932 145.043 25.6521 145.492C26.2166 145.934 26.4988 146.629 26.4988 147.575V152.024C26.4988 152.406 26.5403 152.653 26.6233 152.763C26.7063 152.874 26.8558 152.929 27.0716 152.929C27.1159 152.929 27.1684 152.926 27.2293 152.921C27.2957 152.91 27.3732 152.896 27.4617 152.879V154.033C27.2791 154.083 27.1186 154.116 26.9803 154.133C26.8475 154.155 26.7202 154.166 26.5984 154.166C26.1004 154.166 25.7269 154.058 25.4778 153.842C25.2288 153.626 25.1043 153.3 25.1043 152.863V152.813ZM24.9632 149.476C24.5647 149.692 23.8813 149.861 22.9129 149.982C22.5698 150.027 22.3125 150.063 22.1409 150.09C21.5986 150.179 21.2085 150.339 20.9705 150.572C20.7326 150.804 20.6136 151.142 20.6136 151.584C20.6136 152.027 20.7519 152.368 21.0286 152.605C21.3053 152.843 21.701 152.962 22.2156 152.962C23.018 152.962 23.6766 152.76 24.1912 152.356C24.7059 151.952 24.9632 151.435 24.9632 150.804V149.476ZM27.9896 154V145.11H29.434V146.704C29.6719 146.106 29.9929 145.66 30.3969 145.367C30.8064 145.068 31.3072 144.919 31.8993 144.919C32.01 144.919 32.0902 144.922 32.14 144.927C32.1898 144.927 32.2396 144.933 32.2895 144.944V146.521C32.2507 146.515 32.2064 146.513 32.1566 146.513C32.1068 146.507 32.0321 146.504 31.9325 146.504C31.1356 146.504 30.5269 146.723 30.1063 147.16C29.6913 147.592 29.4838 148.223 29.4838 149.053V154H27.9896ZM32.7842 154V141.773H34.2783V149.103L38.2959 145.11H40.1802L36.8516 148.355L40.1304 154H38.4453L35.8472 149.393L34.2783 150.904V154H32.7842ZM41.8702 148.746H46.7511C46.7455 147.916 46.5353 147.276 46.1202 146.828C45.7052 146.374 45.1158 146.147 44.3521 146.147C43.6161 146.147 43.0351 146.369 42.609 146.812C42.1884 147.254 41.9422 147.899 41.8702 148.746ZM46.7179 151.128H48.1954C48.0349 152.107 47.6088 152.879 46.9171 153.444C46.2254 154.008 45.3538 154.291 44.3023 154.291C43.0683 154.291 42.0943 153.875 41.3805 153.045C40.6666 152.215 40.3097 151.084 40.3097 149.65C40.3097 148.134 40.6638 146.95 41.3722 146.098C42.0805 145.245 43.0572 144.819 44.3023 144.819C45.5807 144.819 46.5685 145.212 47.2657 145.998C47.9685 146.784 48.3199 147.893 48.3199 149.327C48.3199 149.509 48.3172 149.645 48.3116 149.733C48.3116 149.822 48.3061 149.908 48.295 149.991H41.8785C41.8951 150.926 42.1275 151.651 42.5758 152.166C43.024 152.675 43.6466 152.929 44.4435 152.929C45.0522 152.929 45.553 152.774 45.9459 152.464C46.3443 152.149 46.6017 151.703 46.7179 151.128ZM49.1799 154V145.11H50.6242V146.704C50.8622 146.106 51.1831 145.66 51.5871 145.367C51.9966 145.068 52.4974 144.919 53.0896 144.919C53.2002 144.919 53.2805 144.922 53.3303 144.927C53.3801 144.927 53.4299 144.933 53.4797 144.944V146.521C53.4409 146.515 53.3967 146.513 53.3469 146.513C53.2971 146.507 53.2224 146.504 53.1228 146.504C52.3259 146.504 51.7172 146.723 51.2966 147.16C50.8815 147.592 50.674 148.223 50.674 149.053V154H49.1799ZM53.3685 151.111H54.8045C54.8598 151.715 55.0757 152.171 55.452 152.481C55.8338 152.791 56.3733 152.946 57.0706 152.946C57.7125 152.946 58.2189 152.821 58.5896 152.572C58.9604 152.318 59.1458 151.972 59.1458 151.535C59.1458 151.208 59.0517 150.959 58.8636 150.788C58.681 150.611 58.3213 150.458 57.7845 150.331L56.116 149.899C55.1753 149.673 54.5195 149.374 54.1487 149.003C53.7835 148.627 53.6009 148.093 53.6009 147.401C53.6009 146.615 53.8969 145.993 54.4891 145.533C55.0867 145.068 55.903 144.836 56.9378 144.836C57.9948 144.836 58.8359 145.082 59.4612 145.575C60.0866 146.067 60.3992 146.729 60.3992 147.559V147.592H58.9466C58.9134 147.121 58.7197 146.759 58.3655 146.504C58.0169 146.244 57.541 146.114 56.9378 146.114C56.3346 146.114 55.8753 146.219 55.5599 146.43C55.25 146.64 55.095 146.947 55.095 147.351C55.095 147.639 55.1919 147.866 55.3855 148.032C55.5848 148.192 55.9528 148.333 56.4896 148.455L57.9339 148.795C58.9632 149.039 59.6715 149.352 60.0589 149.733C60.4463 150.11 60.6399 150.649 60.6399 151.352C60.6399 152.276 60.3134 152.996 59.6604 153.51C59.013 154.019 58.1054 154.274 56.9378 154.274C55.7978 154.274 54.9207 154.003 54.3064 153.46C53.6977 152.918 53.3851 152.135 53.3685 151.111Z" fill="black"/>
<path d="M198.135 6.36768H200.925C201.893 6.36768 202.568 6.21273 202.95 5.90283C203.337 5.59294 203.531 5.06169 203.531 4.30908C203.531 3.58415 203.34 3.06396 202.958 2.74854C202.576 2.43311 201.94 2.27539 201.049 2.27539H198.135V6.36768ZM196.475 13V0.772949H200.974C201.705 0.772949 202.261 0.808919 202.643 0.880859C203.025 0.952799 203.365 1.07178 203.664 1.23779C204.162 1.50895 204.544 1.91016 204.809 2.44141C205.075 2.97266 205.208 3.59521 205.208 4.30908C205.208 4.98975 205.075 5.59017 204.809 6.11035C204.544 6.63053 204.156 7.04557 203.647 7.35547C203.354 7.53255 203.008 7.65983 202.61 7.7373C202.217 7.80924 201.566 7.84521 200.659 7.84521H198.135V13H196.475ZM206.159 13V4.10986H207.603V5.70361C207.841 5.10596 208.162 4.66048 208.566 4.36719C208.976 4.06836 209.477 3.91895 210.069 3.91895C210.179 3.91895 210.26 3.92171 210.309 3.92725C210.359 3.92725 210.409 3.93278 210.459 3.94385V5.521C210.42 5.51546 210.376 5.5127 210.326 5.5127C210.276 5.50716 210.201 5.50439 210.102 5.50439C209.305 5.50439 208.696 5.72298 208.276 6.16016C207.861 6.5918 207.653 7.22266 207.653 8.05273V13H206.159ZM212.024 8.54248C212.024 9.64372 212.26 10.4876 212.73 11.0742C213.206 11.6553 213.884 11.9458 214.764 11.9458C215.638 11.9458 216.308 11.6553 216.772 11.0742C217.237 10.4876 217.47 9.64372 217.47 8.54248C217.47 7.44678 217.237 6.6084 216.772 6.02734C216.308 5.44076 215.638 5.14746 214.764 5.14746C213.878 5.14746 213.2 5.43799 212.73 6.01904C212.26 6.6001 212.024 7.44124 212.024 8.54248ZM210.497 8.54248C210.497 7.05387 210.868 5.89453 211.609 5.06445C212.356 4.23438 213.402 3.81934 214.747 3.81934C216.097 3.81934 217.146 4.23438 217.893 5.06445C218.64 5.889 219.014 7.04834 219.014 8.54248C219.014 10.0366 218.64 11.1987 217.893 12.0288C217.151 12.8589 216.108 13.2739 214.764 13.2739C213.413 13.2739 212.365 12.8617 211.618 12.0371C210.871 11.207 210.497 10.0422 210.497 8.54248ZM221.733 10.7588C221.733 11.1572 221.788 11.4229 221.899 11.5557C222.015 11.6885 222.225 11.7549 222.53 11.7549C222.618 11.7549 222.723 11.7521 222.845 11.7466C222.972 11.741 223.136 11.73 223.335 11.7134V12.9834C223.086 13.0277 222.862 13.0609 222.663 13.083C222.469 13.1051 222.295 13.1162 222.14 13.1162C221.437 13.1162 220.944 12.9806 220.662 12.7095C220.38 12.4383 220.239 11.9569 220.239 11.2651V5.29688H218.911V4.10986H220.239V1.62793H221.733V4.10986H223.335V5.29688H221.733V10.7588ZM225.05 7.74561H229.931C229.925 6.91553 229.715 6.27637 229.3 5.82812C228.885 5.37435 228.296 5.14746 227.532 5.14746C226.796 5.14746 226.215 5.36882 225.789 5.81152C225.368 6.25423 225.122 6.89893 225.05 7.74561ZM229.898 10.1279H231.375C231.215 11.1074 230.789 11.8794 230.097 12.4438C229.405 13.0083 228.533 13.2905 227.482 13.2905C226.248 13.2905 225.274 12.8755 224.56 12.0454C223.846 11.2153 223.489 10.0837 223.489 8.65039C223.489 7.13411 223.844 5.94987 224.552 5.09766C225.26 4.24544 226.237 3.81934 227.482 3.81934C228.76 3.81934 229.748 4.21224 230.445 4.99805C231.148 5.78385 231.5 6.89339 231.5 8.32666C231.5 8.50928 231.497 8.64486 231.491 8.7334C231.491 8.82194 231.486 8.90771 231.475 8.99072H225.058C225.075 9.92594 225.307 10.6509 225.755 11.1655C226.204 11.6746 226.826 11.9292 227.623 11.9292C228.232 11.9292 228.733 11.7743 229.126 11.4644C229.524 11.1489 229.781 10.7035 229.898 10.1279ZM232.36 2.47461V0.772949H233.854V2.47461H232.36ZM232.36 13V4.10986H233.854V13H232.36ZM241.213 13V7.52979C241.213 6.65544 241.078 6.05225 240.806 5.72021C240.541 5.38265 240.082 5.21387 239.429 5.21387C238.593 5.21387 237.943 5.45182 237.478 5.92773C237.019 6.39811 236.789 7.06771 236.789 7.93652V13H235.295V4.10986H236.722V5.40479C237.066 4.89014 237.472 4.5083 237.943 4.25928C238.413 4.01025 238.958 3.88574 239.578 3.88574C240.248 3.88574 240.812 3.98812 241.271 4.19287C241.731 4.39209 242.085 4.69368 242.334 5.09766C242.472 5.31348 242.572 5.56803 242.633 5.86133C242.693 6.14909 242.724 6.6084 242.724 7.23926V7.6626V13H241.213Z" fill="black"/>
</svg>
