<?xml version="1.0" encoding="UTF-8"?>
<svg width="169px" height="50px" viewBox="0 0 169 50" version="1.1" xmlns="http://www.w3.org/2000/svg" xmlns:xlink="http://www.w3.org/1999/xlink">
    <!-- Generator: Sketch 55.2 (78181) - https://sketchapp.com -->
    <title>Button</title>
    <desc>Created with Sketch.</desc>
    <g id="Page-1" stroke="none" stroke-width="1" fill="none" fill-rule="evenodd">
        <g id="Crystal_how-it-works" transform="translate(-1122.000000, -3150.000000)">
            <g id="Footer" transform="translate(6.000000, 3026.000000)">
                <g id="Download-the-app" transform="translate(143.000000, 106.000000)">
                    <g id="Intro-Text">
                        <g id="Button" transform="translate(973.000000, 18.000000)">
                            <polygon id="Fill-1" fill="#5E5554" points="0 50 168.75 50 168.75 0 0 0"></polygon>
                            <g id="Group-32" transform="translate(15.000000, 7.500000)" fill="#FFFFFF">
                                <path d="M22.66025,17.2295 C22.624,13.20075 25.959,11.24075 26.1115,11.15075 C24.22275,8.397 21.29525,8.02075 20.2665,7.9895 C17.80775,7.73075 15.42275,9.46075 14.17025,9.46075 C12.89275,9.46075 10.964,8.0145 8.88525,8.057 C6.21025,8.09825 3.70775,9.64825 2.33525,12.052 C-0.49725,16.95575 1.61525,24.162 4.329,28.127 C5.6865,30.06825 7.27275,32.2345 9.349,32.15825 C11.38025,32.0745 12.139,30.86325 14.59025,30.86325 C17.019,30.86325 17.7315,32.15825 19.849,32.1095 C22.029,32.0745 23.4015,30.16075 24.7115,28.20075 C26.28025,25.97575 26.91025,23.7845 26.93525,23.672 C26.884,23.65575 22.7015,22.05825 22.66025,17.2295" id="Fill-2"></path>
                                <path d="M18.66,5.382625 C19.7525,4.016375 20.5,2.157625 20.2925,0.271375 C18.71125,0.341375 16.73375,1.365125 15.595,2.700125 C14.5875,3.878875 13.6875,5.808875 13.92,7.623875 C15.69625,7.755125 17.52,6.727625 18.66,5.382625" id="Fill-4"></path>
                                <path d="M42.818875,10.5865 L44.216375,10.5865 C44.973875,10.5865 45.573875,10.46275 46.015125,10.21525 C46.457625,9.969 46.776375,9.61525 46.971375,9.15275 C47.166375,8.69025 47.263875,8.1365 47.263875,7.49025 C47.263875,6.8465 47.166375,6.289 46.971375,5.819 C46.776375,5.349 46.457625,4.98775 46.015125,4.7365 C45.573875,4.48525 44.973875,4.36025 44.216375,4.36025 L42.818875,4.36025 L42.818875,10.5865 Z M41.551375,11.6615 L41.551375,3.2965 L44.265125,3.2965 C45.243875,3.2965 46.051375,3.469 46.685125,3.81025 C47.317625,4.154 47.787625,4.6365 48.095125,5.26275 C48.401375,5.88775 48.555125,6.63025 48.555125,7.49025 C48.555125,8.344 48.401375,9.08275 48.095125,9.70775 C47.787625,10.334 47.317625,10.8165 46.685125,11.154 C46.051375,11.49275 45.243875,11.6615 44.265125,11.6615 L41.551375,11.6615 Z" id="Fill-6"></path>
                                <path d="M52.762125,10.71825 C53.064625,10.71825 53.345875,10.642 53.604625,10.49075 C53.863375,10.3395 54.072125,10.1145 54.232125,9.8145 C54.392125,9.517 54.470875,9.1445 54.470875,8.69825 C54.470875,8.252 54.393375,7.8795 54.238375,7.58075 C54.083375,7.282 53.875875,7.057 53.617125,6.90575 C53.358375,6.7545 53.077125,6.6795 52.774625,6.6795 C52.472125,6.6795 52.190875,6.7545 51.932125,6.90575 C51.672125,7.057 51.463375,7.282 51.304625,7.58075 C51.144625,7.8795 51.065875,8.252 51.065875,8.69825 C51.065875,9.1445 51.144625,9.517 51.304625,9.8145 C51.463375,10.1145 51.670875,10.3395 51.925875,10.49075 C52.180875,10.642 52.459625,10.71825 52.762125,10.71825 M52.762125,11.8045 C52.195875,11.8045 51.688375,11.67575 51.238375,11.417 C50.788375,11.15825 50.432125,10.79575 50.169625,10.32825 C49.905875,9.86325 49.774625,9.3195 49.774625,8.69825 C49.774625,8.077 49.908375,7.53325 50.174625,7.067 C50.442125,6.60075 50.802125,6.23825 51.255875,5.9795 C51.710875,5.72075 52.215875,5.59075 52.774625,5.59075 C53.339625,5.59075 53.848375,5.72075 54.298375,5.9795 C54.748375,6.23825 55.105875,6.60075 55.373375,7.067 C55.640875,7.53325 55.773375,8.077 55.773375,8.69825 C55.773375,9.3195 55.640875,9.86325 55.373375,10.32825 C55.105875,10.79575 54.745875,11.15825 54.292125,11.417 C53.838375,11.67575 53.328375,11.8045 52.762125,11.8045" id="Fill-8"></path>
                                <polygon id="Fill-10" points="58.27175 11.661875 56.52675 5.734375 57.79425 5.734375 58.94175 10.204375 60.23175 5.734375 61.64175 5.734375 62.933 10.204375 64.07925 5.734375 65.34675 5.734375 63.60175 11.661875 62.29925 11.661875 60.93675 7.000625 59.57425 11.661875"></polygon>
                                <path d="M66.515125,11.661875 L66.515125,5.734375 L67.637625,5.734375 L67.733875,6.774375 C67.917625,6.408125 68.186375,6.118125 68.541375,5.906875 C68.895125,5.696875 69.302625,5.591875 69.766375,5.591875 C70.482625,5.591875 71.046375,5.814375 71.456375,6.260625 C71.866375,6.706875 72.071375,7.370625 72.071375,8.255625 L72.071375,11.661875 L70.817625,11.661875 L70.817625,8.388125 C70.817625,7.240625 70.346375,6.666875 69.406375,6.666875 C68.936375,6.666875 68.547625,6.834375 68.241375,7.168125 C67.935125,7.503125 67.781375,7.981875 67.781375,8.603125 L67.781375,11.661875 L66.515125,11.661875 Z" id="Fill-12"></path>
                                <polygon id="Fill-14" points="73.74625 11.6625 75.0125 11.6625 75.0125 3.0575 73.74625 3.0575"></polygon>
                                <path d="M79.498,10.71825 C79.8005,10.71825 80.08175,10.642 80.3405,10.49075 C80.59925,10.3395 80.808,10.1145 80.968,9.8145 C81.128,9.517 81.20675,9.1445 81.20675,8.69825 C81.20675,8.252 81.12925,7.8795 80.97425,7.58075 C80.81925,7.282 80.61175,7.057 80.353,6.90575 C80.09425,6.7545 79.813,6.6795 79.5105,6.6795 C79.208,6.6795 78.92675,6.7545 78.668,6.90575 C78.408,7.057 78.19925,7.282 78.0405,7.58075 C77.8805,7.8795 77.80175,8.252 77.80175,8.69825 C77.80175,9.1445 77.8805,9.517 78.0405,9.8145 C78.19925,10.1145 78.40675,10.3395 78.66175,10.49075 C78.91675,10.642 79.1955,10.71825 79.498,10.71825 M79.498,11.8045 C78.93175,11.8045 78.42425,11.67575 77.97425,11.417 C77.52425,11.15825 77.168,10.79575 76.9055,10.32825 C76.64175,9.86325 76.5105,9.3195 76.5105,8.69825 C76.5105,8.077 76.64425,7.53325 76.9105,7.067 C77.178,6.60075 77.538,6.23825 77.99175,5.9795 C78.44675,5.72075 78.95175,5.59075 79.5105,5.59075 C80.0755,5.59075 80.58425,5.72075 81.03425,5.9795 C81.48425,6.23825 81.84175,6.60075 82.10925,7.067 C82.37675,7.53325 82.50925,8.077 82.50925,8.69825 C82.50925,9.3195 82.37675,9.86325 82.10925,10.32825 C81.84175,10.79575 81.48175,11.15825 81.028,11.417 C80.57425,11.67575 80.06425,11.8045 79.498,11.8045" id="Fill-16"></path>
                                <path d="M86.181875,10.778125 C86.524375,10.778125 86.813125,10.696875 87.048125,10.533125 C87.283125,10.369375 87.466875,10.151875 87.598125,9.880625 C87.729375,9.610625 87.811875,9.311875 87.843125,8.984375 L86.433125,8.984375 C85.930625,8.984375 85.574375,9.073125 85.363125,9.246875 C85.151875,9.423125 85.046875,9.643125 85.046875,9.905625 C85.046875,10.176875 85.148125,10.388125 85.351875,10.544375 C85.554375,10.700625 85.831875,10.778125 86.181875,10.778125 M85.930625,11.804375 C85.429375,11.804375 85.014375,11.721875 84.688125,11.554375 C84.361875,11.386875 84.119375,11.166875 83.959375,10.891875 C83.799375,10.615625 83.720625,10.315625 83.720625,9.988125 C83.720625,9.415625 83.943125,8.960625 84.389375,8.625625 C84.835625,8.291875 85.473125,8.124375 86.301875,8.124375 L87.855625,8.124375 L87.855625,8.016875 C87.855625,7.555625 87.729375,7.209375 87.479375,6.976875 C87.228125,6.745625 86.903125,6.630625 86.504375,6.630625 C86.154375,6.630625 85.849375,6.716875 85.590625,6.888125 C85.331875,7.058125 85.174375,7.311875 85.118125,7.646875 L83.851875,7.646875 C83.891875,7.215625 84.036875,6.846875 84.288125,6.540625 C84.539375,6.234375 84.856875,5.999375 85.244375,5.835625 C85.630625,5.673125 86.054375,5.591875 86.516875,5.591875 C87.345625,5.591875 87.986875,5.808125 88.440625,6.241875 C88.894375,6.676875 89.121875,7.268125 89.121875,8.016875 L89.121875,11.661875 L88.023125,11.661875 L87.914375,10.646875 C87.746875,10.973125 87.504375,11.248125 87.185625,11.470625 C86.866875,11.693125 86.449375,11.804375 85.930625,11.804375" id="Fill-17"></path>
                                <path d="M93.670375,10.706125 C94.211625,10.706125 94.656625,10.519875 95.002875,10.144875 C95.349125,9.769875 95.522875,9.287375 95.522875,8.698625 C95.522875,8.101125 95.349125,7.616125 95.002875,7.246125 C94.656625,6.876125 94.211625,6.689875 93.670375,6.689875 C93.127875,6.689875 92.681625,6.876125 92.331625,7.246125 C91.980375,7.616125 91.805375,8.101125 91.805375,8.698625 C91.805375,9.088625 91.885375,9.434875 92.045375,9.738625 C92.204125,10.041125 92.425375,10.277375 92.707875,10.448625 C92.991625,10.621125 93.311625,10.706125 93.670375,10.706125 M93.442875,11.804875 C92.869125,11.804875 92.364125,11.669875 91.925375,11.399875 C91.486625,11.128625 91.144125,10.757375 90.897875,10.287375 C90.650375,9.817375 90.526625,9.283625 90.526625,8.686125 C90.526625,8.088625 90.650375,7.556125 90.897875,7.089875 C91.144125,6.624875 91.489125,6.257375 91.931625,5.992375 C92.372875,5.724875 92.881625,5.591125 93.455375,5.591125 C93.925375,5.591125 94.337875,5.682375 94.691625,5.866125 C95.046625,6.048625 95.322875,6.307375 95.522875,6.642375 L95.522875,3.057375 L96.789125,3.057375 L96.789125,11.662375 L95.654125,11.662375 L95.522875,10.741125 C95.331625,11.021125 95.069125,11.267375 94.734125,11.482375 C94.399125,11.697375 93.969125,11.804875 93.442875,11.804875" id="Fill-18"></path>
                                <path d="M104.054875,10.71825 C104.357375,10.71825 104.638625,10.642 104.897375,10.49075 C105.156125,10.3395 105.364875,10.1145 105.524875,9.8145 C105.684875,9.517 105.763625,9.1445 105.763625,8.69825 C105.763625,8.252 105.686125,7.8795 105.531125,7.58075 C105.376125,7.282 105.168625,7.057 104.909875,6.90575 C104.651125,6.7545 104.369875,6.6795 104.067375,6.6795 C103.764875,6.6795 103.483625,6.7545 103.224875,6.90575 C102.964875,7.057 102.756125,7.282 102.597375,7.58075 C102.437375,7.8795 102.358625,8.252 102.358625,8.69825 C102.358625,9.1445 102.437375,9.517 102.597375,9.8145 C102.756125,10.1145 102.963625,10.3395 103.218625,10.49075 C103.473625,10.642 103.752375,10.71825 104.054875,10.71825 M104.054875,11.8045 C103.488625,11.8045 102.981125,11.67575 102.531125,11.417 C102.081125,11.15825 101.724875,10.79575 101.462375,10.32825 C101.198625,9.86325 101.067375,9.3195 101.067375,8.69825 C101.067375,8.077 101.201125,7.53325 101.467375,7.067 C101.734875,6.60075 102.094875,6.23825 102.548625,5.9795 C103.003625,5.72075 103.508625,5.59075 104.067375,5.59075 C104.632375,5.59075 105.141125,5.72075 105.591125,5.9795 C106.041125,6.23825 106.398625,6.60075 106.666125,7.067 C106.933625,7.53325 107.066125,8.077 107.066125,8.69825 C107.066125,9.3195 106.933625,9.86325 106.666125,10.32825 C106.398625,10.79575 106.038625,11.15825 105.584875,11.417 C105.131125,11.67575 104.621125,11.8045 104.054875,11.8045" id="Fill-19"></path>
                                <path d="M108.540375,11.661875 L108.540375,5.734375 L109.662875,5.734375 L109.759125,6.774375 C109.942875,6.408125 110.211625,6.118125 110.566625,5.906875 C110.920375,5.696875 111.327875,5.591875 111.791625,5.591875 C112.507875,5.591875 113.071625,5.814375 113.481625,6.260625 C113.891625,6.706875 114.096625,7.370625 114.096625,8.255625 L114.096625,11.661875 L112.842875,11.661875 L112.842875,8.388125 C112.842875,7.240625 112.371625,6.666875 111.431625,6.666875 C110.961625,6.666875 110.572875,6.834375 110.266625,7.168125 C109.960375,7.503125 109.806625,7.981875 109.806625,8.603125 L109.806625,11.661875 L108.540375,11.661875 Z" id="Fill-20"></path>
                                <path d="M120.96825,11.661875 C120.387,11.661875 119.9245,11.520625 119.582,11.236875 C119.2395,10.955625 119.06825,10.450625 119.06825,9.725625 L119.06825,6.798125 L118.052,6.798125 L118.052,5.734375 L119.06825,5.734375 L119.22325,4.229375 L120.33575,4.229375 L120.33575,5.734375 L122.00825,5.734375 L122.00825,6.798125 L120.33575,6.798125 L120.33575,9.725625 C120.33575,10.053125 120.4045,10.278125 120.5445,10.400625 C120.68325,10.524375 120.9245,10.586875 121.267,10.586875 L121.94825,10.586875 L121.94825,11.661875 L120.96825,11.661875 Z" id="Fill-21"></path>
                                <path d="M123.319375,11.661875 L123.319375,3.056875 L124.585625,3.056875 L124.585625,6.689375 C124.784375,6.348125 125.061875,6.079375 125.416875,5.884375 C125.770625,5.689375 126.163125,5.591875 126.594375,5.591875 C127.303125,5.591875 127.860625,5.814375 128.266875,6.260625 C128.673125,6.706875 128.875625,7.370625 128.875625,8.255625 L128.875625,11.661875 L127.621875,11.661875 L127.621875,8.388125 C127.621875,7.240625 127.163125,6.666875 126.246875,6.666875 C125.769375,6.666875 125.373125,6.834375 125.058125,7.168125 C124.743125,7.503125 124.585625,7.981875 124.585625,8.603125 L124.585625,11.661875 L123.319375,11.661875 Z" id="Fill-22"></path>
                                <path d="M133.26875,6.630125 C132.84625,6.630125 132.4725,6.756375 132.14625,7.007625 C131.81875,7.257625 131.62,7.635125 131.54875,8.136375 L134.89375,8.136375 C134.87,7.675125 134.70625,7.307625 134.40375,7.036375 C134.10125,6.766375 133.7225,6.630125 133.26875,6.630125 M133.26875,11.805125 C132.6875,11.805125 132.17125,11.675125 131.72125,11.416375 C131.27125,11.157625 130.91875,10.797625 130.66375,10.335125 C130.40875,9.873875 130.28125,9.335125 130.28125,8.722625 C130.28125,8.101375 130.40625,7.555125 130.6575,7.083875 C130.90875,6.613875 131.26,6.247625 131.70875,5.985125 C132.15875,5.721375 132.68375,5.591375 133.28125,5.591375 C133.8625,5.591375 134.36875,5.720125 134.79875,5.978875 C135.22875,6.238875 135.56375,6.582625 135.8025,7.013875 C136.04125,7.442625 136.16125,7.917625 136.16125,8.435125 C136.16125,8.515125 136.15875,8.600125 136.155,8.691375 C136.15125,8.783875 136.145,8.886375 136.13625,8.997625 L131.52375,8.997625 C131.56375,9.571375 131.75375,10.006375 132.0925,10.305125 C132.43,10.605125 132.8225,10.753875 133.26875,10.753875 C133.6275,10.753875 133.9275,10.671375 134.17125,10.508875 C134.415,10.346375 134.59625,10.123875 134.715,9.845125 L135.98125,9.845125 C135.8225,10.403875 135.50625,10.870125 135.03125,11.242625 C134.5575,11.617625 133.97,11.805125 133.26875,11.805125" id="Fill-23"></path>
                                <path d="M44.509,25.17875 L48.62525,25.17875 L46.55775,19.2775 L44.509,25.17875 Z M39.92525,30.4925 L45.11775,16.2975 L48.03775,16.2975 L53.23025,30.4925 L50.4715,30.4925 L49.33525,27.2075 L43.799,27.2075 L42.644,30.4925 L39.92525,30.4925 Z" id="Fill-24"></path>
                                <path d="M60.4385,28.464875 C61.2635,28.464875 61.946,28.187375 62.48725,27.633625 C63.02725,27.079875 63.2985,26.362375 63.2985,25.483625 C63.2985,24.604875 63.02725,23.881125 62.48725,23.313625 C61.946,22.746125 61.2635,22.461125 60.4385,22.461125 C59.59975,22.461125 58.9135,22.742375 58.381,23.303625 C57.846,23.863625 57.5785,24.584875 57.5785,25.463625 C57.5785,26.342375 57.846,27.062375 58.381,27.622375 C58.9135,28.183625 59.59975,28.464875 60.4385,28.464875 L60.4385,28.464875 Z M55.0235,34.953625 L55.0235,20.433625 L57.336,20.433625 L57.61975,21.873625 C57.9435,21.427375 58.3735,21.036125 58.90725,20.697375 C59.441,20.359875 60.13475,20.191125 60.986,20.191125 C61.93225,20.191125 62.77725,20.419875 63.521,20.879875 C64.26475,21.339875 64.85225,21.968625 65.28475,22.764875 C65.7185,23.563625 65.9335,24.469875 65.9335,25.483625 C65.9335,26.497375 65.7185,27.398625 65.28475,28.189875 C64.85225,28.981125 64.26475,29.603625 63.521,30.056125 C62.77725,30.509875 61.93225,30.734875 60.986,30.734875 C60.2285,30.734875 59.566,30.593625 58.9985,30.309875 C58.431,30.026125 57.971,29.627375 57.61975,29.113625 L57.61975,34.953625 L55.0235,34.953625 Z" id="Fill-25"></path>
                                <path d="M73.746,28.464875 C74.571,28.464875 75.2535,28.187375 75.79475,27.633625 C76.33475,27.079875 76.606,26.362375 76.606,25.483625 C76.606,24.604875 76.33475,23.881125 75.79475,23.313625 C75.2535,22.746125 74.571,22.461125 73.746,22.461125 C72.90725,22.461125 72.221,22.742375 71.6885,23.303625 C71.1535,23.863625 70.886,24.584875 70.886,25.463625 C70.886,26.342375 71.1535,27.062375 71.6885,27.622375 C72.221,28.183625 72.90725,28.464875 73.746,28.464875 L73.746,28.464875 Z M68.331,34.953625 L68.331,20.433625 L70.6435,20.433625 L70.92725,21.873625 C71.251,21.427375 71.681,21.036125 72.21475,20.697375 C72.7485,20.359875 73.44225,20.191125 74.2935,20.191125 C75.23975,20.191125 76.08475,20.419875 76.8285,20.879875 C77.57225,21.339875 78.15975,21.968625 78.59225,22.764875 C79.026,23.563625 79.241,24.469875 79.241,25.483625 C79.241,26.497375 79.026,27.398625 78.59225,28.189875 C78.15975,28.981125 77.57225,29.603625 76.8285,30.056125 C76.08475,30.509875 75.23975,30.734875 74.2935,30.734875 C73.536,30.734875 72.8735,30.593625 72.306,30.309875 C71.7385,30.026125 71.2785,29.627375 70.92725,29.113625 L70.92725,34.953625 L68.331,34.953625 Z" id="Fill-26"></path>
                                <path d="M91.2875,30.735375 C90.24625,30.735375 89.3275,30.555375 88.53,30.197875 C87.73125,29.840375 87.1025,29.326625 86.64375,28.657875 C86.18375,27.987875 85.9475,27.172875 85.93375,26.214125 L88.67125,26.214125 C88.69875,26.875375 88.93875,27.432875 89.39125,27.886625 C89.845,28.339125 90.47,28.566625 91.2675,28.566625 C91.9575,28.566625 92.505,28.400375 92.91,28.069125 C93.31625,27.737875 93.51875,27.295375 93.51875,26.741625 C93.51875,26.159125 93.34,25.706625 92.98125,25.381625 C92.6225,25.057875 92.14625,24.794125 91.55125,24.591625 C90.95625,24.387875 90.32125,24.171625 89.645,23.941625 C88.55,23.564125 87.715,23.076625 87.14125,22.481625 C86.56625,21.887875 86.27875,21.096625 86.27875,20.109125 C86.265,19.270375 86.465,18.551625 86.8775,17.949125 C87.28875,17.347875 87.85375,16.881625 88.57,16.549125 C89.28625,16.219125 90.11125,16.052875 91.045,16.052875 C91.99,16.052875 92.825,16.222875 93.54875,16.560375 C94.2725,16.899125 94.84,17.371625 95.2525,17.980375 C95.665,18.587875 95.88375,19.311625 95.91125,20.149125 L93.13375,20.149125 C93.12,19.650375 92.9275,19.206625 92.555,18.821625 C92.18375,18.435375 91.66625,18.244125 91.00375,18.244125 C90.43625,18.230375 89.96,18.367875 89.57375,18.659125 C89.18875,18.950375 88.99625,19.372875 88.99625,19.927875 C88.99625,20.399125 89.145,20.775375 89.4425,21.052875 C89.74,21.330375 90.145,21.562875 90.65875,21.751625 C91.1725,21.941625 91.76125,22.144125 92.42375,22.360375 C93.12625,22.602875 93.76875,22.887875 94.35,23.211625 C94.93125,23.536625 95.3975,23.965375 95.74875,24.500375 C96.10125,25.032875 96.27625,25.719125 96.27625,26.557875 C96.27625,27.301625 96.0875,27.991625 95.70875,28.626625 C95.33,29.261625 94.76875,29.771625 94.025,30.157875 C93.2825,30.544125 92.36875,30.735375 91.2875,30.735375" id="Fill-27"></path>
                                <path d="M102.867125,30.4925 C101.812125,30.4925 100.967125,30.23625 100.332125,29.7225 C99.695875,29.20875 99.378375,28.295 99.378375,26.98375 L99.378375,22.6025 L97.655875,22.6025 L97.655875,20.43375 L99.378375,20.43375 L99.683375,17.73625 L101.974625,17.73625 L101.974625,20.43375 L104.692125,20.43375 L104.692125,22.6025 L101.974625,22.6025 L101.974625,27.005 C101.974625,27.49125 102.079625,27.825 102.289625,28.00875 C102.498375,28.19 102.859625,28.28125 103.373375,28.28125 L104.630875,28.28125 L104.630875,30.4925 L102.867125,30.4925 Z" id="Fill-28"></path>
                                <path d="M111.493875,28.484375 C112.170125,28.484375 112.757625,28.231875 113.257625,27.724375 C113.757625,27.216875 114.008875,26.464375 114.008875,25.463125 C114.008875,24.461875 113.757625,23.709375 113.257625,23.201875 C112.757625,22.694375 112.176375,22.441875 111.513875,22.441875 C110.823875,22.441875 110.232625,22.694375 109.738875,23.201875 C109.246375,23.709375 108.998875,24.461875 108.998875,25.463125 C108.998875,26.464375 109.246375,27.216875 109.738875,27.724375 C110.232625,28.231875 110.817625,28.484375 111.493875,28.484375 M111.493875,30.735625 C110.520125,30.735625 109.645125,30.513125 108.867625,30.066875 C108.090125,29.620625 107.475125,29.001875 107.021375,28.210625 C106.568875,27.419375 106.342625,26.504375 106.342625,25.463125 C106.342625,24.421875 106.571375,23.506875 107.032625,22.715625 C107.491375,21.924375 108.110125,21.305625 108.887625,20.859375 C109.665125,20.413125 110.540125,20.190625 111.513875,20.190625 C112.473875,20.190625 113.342625,20.413125 114.120125,20.859375 C114.897625,21.305625 115.512625,21.924375 115.965125,22.715625 C116.417625,23.506875 116.645125,24.421875 116.645125,25.463125 C116.645125,26.504375 116.417625,27.419375 115.965125,28.210625 C115.512625,29.001875 114.893875,29.620625 114.110125,30.066875 C113.325125,30.513125 112.453875,30.735625 111.493875,30.735625" id="Fill-29"></path>
                                <path d="M119.009625,30.4925 L119.009625,20.43375 L121.322125,20.43375 L121.564625,22.32 C121.929625,21.67 122.425875,21.15375 123.054625,20.76875 C123.683375,20.3825 124.424625,20.19125 125.275875,20.19125 L125.275875,22.9275 L124.545875,22.9275 C123.978375,22.9275 123.470875,23.01625 123.024625,23.19125 C122.578375,23.3675 122.230875,23.6725 121.979625,24.105 C121.729625,24.53625 121.605875,25.13875 121.605875,25.90875 L121.605875,30.4925 L119.009625,30.4925 Z" id="Fill-30"></path>
                                <path d="M131.957625,22.299125 C131.322625,22.299125 130.761375,22.479125 130.275125,22.837875 C129.787625,23.195375 129.476375,23.739125 129.341375,24.469125 L134.351375,24.469125 C134.310125,23.806625 134.066375,23.279125 133.621375,22.887875 C133.175125,22.495375 132.620125,22.299125 131.957625,22.299125 M131.937625,30.735375 C130.923875,30.735375 130.025125,30.519125 129.240125,30.086625 C128.456375,29.654125 127.841375,29.045375 127.395125,28.262875 C126.948875,27.477875 126.725125,26.571625 126.725125,25.544125 C126.725125,24.504125 126.945125,23.576625 127.385125,22.765375 C127.823875,21.955375 128.432625,21.322875 129.210125,20.869125 C129.987625,20.416625 130.903875,20.190375 131.957625,20.190375 C132.945125,20.190375 133.816375,20.406625 134.573875,20.839125 C135.331375,21.272875 135.922625,21.862875 136.348875,22.614125 C136.775125,23.364125 136.987625,24.199125 136.987625,25.119125 C136.987625,25.267875 136.983875,25.422875 136.977625,25.585375 C136.970125,25.747875 136.960125,25.916625 136.946375,26.091625 L129.301375,26.091625 C129.355125,26.875375 129.628875,27.490375 130.122625,27.937875 C130.616375,28.382875 131.213875,28.606625 131.917625,28.606625 C132.445125,28.606625 132.887625,28.487875 133.245125,28.251625 C133.603875,28.015375 133.871375,27.707875 134.046375,27.327875 L136.682625,27.327875 C136.493875,27.964125 136.178875,28.542875 135.740125,29.062875 C135.300125,29.582875 134.760125,29.991625 134.117625,30.290375 C133.475125,30.586625 132.748875,30.735375 131.937625,30.735375" id="Fill-31"></path>
                            </g>
                        </g>
                    </g>
                </g>
            </g>
        </g>
    </g>
</svg>