<svg width="211" height="94" viewBox="0 0 211 94" fill="none" xmlns="http://www.w3.org/2000/svg">
<path d="M149.765 46.9668H151.645C151.561 48.7045 150.967 50.0901 149.862 51.1237C148.764 52.1508 147.343 52.6643 145.598 52.6643C143.589 52.6643 142.013 51.9796 140.87 50.6101C139.733 49.2407 139.165 47.3447 139.165 44.9223C139.165 42.6872 139.762 40.914 140.957 39.6027C142.152 38.2849 143.764 37.626 145.792 37.626C147.407 37.626 148.728 38.0426 149.755 38.8759C150.789 39.7093 151.386 40.8462 151.548 42.2867H149.649C149.468 41.3436 149.038 40.6201 148.36 40.1162C147.682 39.6059 146.8 39.3507 145.715 39.3507C144.268 39.3507 143.144 39.8578 142.343 40.872C141.548 41.8862 141.151 43.317 141.151 45.1645C141.151 46.9087 141.564 48.3072 142.391 49.3602C143.225 50.4131 144.326 50.9396 145.695 50.9396C146.865 50.9396 147.821 50.5778 148.564 49.8543C149.313 49.1244 149.713 48.1619 149.765 46.9668Z" fill="white"/>
<path d="M156.908 52.2671V37.9942H158.866V50.4648H165.978V52.2671H156.908Z" fill="white"/>
<path d="M170.544 52.2671V37.9942H172.482V52.2671H170.544Z" fill="white"/>
<path d="M181.117 46.337H185.565L183.355 40.0387L181.117 46.337ZM176.989 52.2671L182.289 37.9942H184.431L189.75 52.2671H187.648L186.136 48.0036H180.516L178.995 52.2671H176.989Z" fill="white"/>
<circle cx="163.978" cy="47" r="46.5" stroke="white"/>
<circle cx="163.978" cy="47.0004" r="40.2333" stroke="white"/>
<path fill-rule="evenodd" clip-rule="evenodd" d="M93 47C93 72.4051 72.4051 93 47 93C21.5949 93 1 72.4051 1 47C1 21.5949 21.5949 1 47 1C72.4051 1 93 21.5949 93 47ZM94 47C94 72.9574 72.9574 94 47 94C21.0426 94 0 72.9574 0 47C0 21.0426 21.0426 0 47 0C72.9574 0 94 21.0426 94 47ZM35.6005 48.3408H37.4803C37.3963 50.0785 36.802 51.4641 35.6974 52.4977C34.5992 53.5248 33.1781 54.0384 31.4339 54.0384C29.4249 54.0384 27.8488 53.3536 26.7054 51.9842C25.5685 50.6147 25 48.7187 25 46.2963C25 44.0612 25.5975 42.288 26.7926 40.9767C27.9876 39.6589 29.5994 39 31.6277 39C33.2427 39 34.5637 39.4167 35.5908 40.25C36.6244 41.0833 37.2219 42.2202 37.3834 43.6607H35.4842C35.3033 42.7176 34.8738 41.9941 34.1955 41.4902C33.5172 40.9799 32.6355 40.7248 31.5502 40.7248C30.1032 40.7248 28.9792 41.2319 28.1782 42.246C27.3837 43.2602 26.9864 44.6911 26.9864 46.5386C26.9864 48.2827 27.3998 49.6812 28.2267 50.7342C29.06 51.7871 30.1614 52.3136 31.5308 52.3136C32.7001 52.3136 33.6561 51.9519 34.399 51.2284C35.1483 50.4984 35.5488 49.5359 35.6005 48.3408ZM49.5754 48.3428H45.1278L47.3661 42.0445L49.5754 48.3428ZM46.3002 40L41 54.2729H43.0058L44.527 50.0094H50.147L51.6586 54.2729H53.7613L48.4417 40H46.3002ZM64.1937 46.5308H60.9379V41.7538H64.339C65.379 41.7538 66.1219 41.9379 66.5676 42.3061C67.0134 42.6744 67.2362 43.2816 67.2362 44.1278C67.2362 45.0063 67.0101 45.6265 66.5579 45.9882C66.1122 46.35 65.3241 46.5308 64.1937 46.5308ZM59 40V54.2729H60.9379V48.2556H63.8836C64.943 48.2556 65.702 48.2136 66.1607 48.1296C66.6258 48.0392 67.0295 47.8906 67.3719 47.6839C67.9662 47.3222 68.4184 46.8377 68.7284 46.2305C69.0385 45.6232 69.1935 44.9224 69.1935 44.1278C69.1935 43.2945 69.0385 42.5678 68.7284 41.9476C68.4184 41.3275 67.9726 40.8591 67.3913 40.5426C67.0424 40.3488 66.6451 40.2099 66.1994 40.126C65.7537 40.042 65.1045 40 64.2518 40H59Z" fill="white"/>
</svg>
