<?xml version="1.0" encoding="UTF-8"?>
<svg width="170px" height="170px" viewBox="0 0 170 170" version="1.1" xmlns="http://www.w3.org/2000/svg" xmlns:xlink="http://www.w3.org/1999/xlink">
    <!-- Generator: Sketch 55.2 (78181) - https://sketchapp.com -->
    <title>claire_wellness-score</title>
    <desc>Created with Sketch.</desc>
    <defs>
        <circle id="path-1" cx="85" cy="85" r="65"></circle>
        <filter x="-23.1%" y="-23.1%" width="146.2%" height="146.2%" filterUnits="objectBoundingBox" id="filter-2">
            <feOffset dx="0" dy="0" in="SourceAlpha" result="shadowOffsetOuter1"></feOffset>
            <feGaussianBlur stdDeviation="10" in="shadowOffsetOuter1" result="shadowBlurOuter1"></feGaussianBlur>
            <feColorMatrix values="0 0 0 0 0.317647059   0 0 0 0 0.333333333   0 0 0 0 0.294117647  0 0 0 0.3 0" type="matrix" in="shadowBlurOuter1"></feColorMatrix>
        </filter>
        <polygon id="path-3" points="0 0.0891883385 169.910526 0.0891883385 169.910526 169.980586 0 169.980586"></polygon>
    </defs>
    <g id="Page-1" stroke="none" stroke-width="1" fill="none" fill-rule="evenodd">
        <g id="Crystal_the-science" transform="translate(-619.000000, -3080.000000)">
            <g id="App-stuff" transform="translate(149.000000, 2696.000000)">
                <g id="claire_wellness-score" transform="translate(470.000000, 384.000000)">
                    <g id="BG">
                        <use fill="black" fill-opacity="1" filter="url(#filter-2)" xlink:href="#path-1"></use>
                        <use fill="#A1A994" fill-rule="evenodd" xlink:href="#path-1"></use>
                    </g>
                    <g id="SCORE">
                        <path d="M85.2940243,103.319804 C84.004915,103.319804 82.9470607,102.915153 82.119085,102.105164 C81.2904211,101.29655 80.8760891,100.320709 80.8760891,99.1783271 C80.8760891,98.0008483 81.2904211,97.0071141 82.119085,96.1964361 C82.9470607,95.3878227 84.004915,94.9824837 85.2940243,94.9824837 C86.5824453,94.9824837 87.6409879,95.3878227 88.4689636,96.1964361 C89.2976275,97.0071141 89.7119595,98.0008483 89.7119595,99.1783271 C89.7119595,100.320709 89.2976275,101.29655 88.4689636,102.105164 C87.6409879,102.915153 86.5824453,103.319804 85.2940243,103.319804" id="Fill-2" fill="#FFFFFF"></path>
                        <path d="M95.8968623,102.93339 L95.8968623,97.7981788 C98.252085,95.8471839 100.543988,93.9154581 102.771883,92.0002486 C104.999777,90.0864156 106.986781,88.189787 108.736336,86.3131157 C110.484514,84.4350681 111.884433,82.6045049 112.93334,80.8186736 C113.982247,79.0335305 114.507389,77.2938073 114.507389,75.6001924 C114.507389,74.0180628 114.073785,72.6183014 113.209332,71.404349 C112.343502,70.1890202 110.917429,69.5813559 108.929737,69.5813559 C106.90419,69.5813559 105.376255,70.2440748 104.345931,71.5695126 C103.314919,72.8949504 102.799413,74.496349 102.799413,76.3730203 L95.9519231,76.3730203 C96.0255668,73.5390884 96.6511943,71.1744963 97.8294939,69.2778678 C99.0077935,67.3826156 100.571518,65.9642733 102.523421,65.0262817 C104.474636,64.087602 106.665364,63.6175739 109.095607,63.6175739 C113.033826,63.6175739 116.10002,64.6952663 118.290061,66.8478985 C120.480101,69.0012188 121.576498,71.7904189 121.576498,75.2141225 C121.576498,77.3488619 121.087834,79.4299231 120.113259,81.4531771 C119.137308,83.4784956 117.857146,85.4288023 116.27415,87.30685 C114.691154,89.1842094 112.978765,90.9425135 111.139049,92.5796976 C109.297267,94.218258 107.511923,95.7370749 105.78164,97.1354599 L122.515283,97.1354599 L122.515283,102.93339 L95.8968623,102.93339 Z" id="Fill-4" fill="#FFFFFF"></path>
                        <path d="M52.3304116,89.6491366 L64.3020438,89.6491366 L64.3020438,72.1709995 L52.3304116,89.6491366 Z M63.8585733,102.894737 L63.8585733,95.7496338 L44.7368421,95.7496338 L44.7368421,90.1436974 L62.9163711,64.4210526 L70.9534112,64.4210526 L70.9534112,89.6491366 L76.0526316,89.6491366 L76.0526316,95.7496338 L70.9534112,95.7496338 L70.9534112,102.894737 L63.8585733,102.894737 Z" id="Fill-1" fill="#FFFFFF"></path>
                        <g id="Group-8">
                            <mask id="mask-4" fill="white">
                                <use xlink:href="#path-3"></use>
                            </mask>
                            <g id="Clip-7"></g>
                            <path d="M84.9542996,0.0891883385 L84.9542996,0.0891883385 C84.6156761,0.0891883385 84.2791174,0.097446518 83.9411822,0.101575608 L83.9411822,20.4222026 C84.2798057,20.4166972 84.6142996,20.3974281 84.9542996,20.3974281 L84.9542996,20.3981163 C120.658429,20.3981163 149.599725,49.3354654 149.599725,85.034199 C149.599725,120.734997 120.658429,149.672346 84.9542996,149.672346 C67.5908988,149.672346 51.8283887,142.826315 40.2147045,131.688096 C27.9485506,119.924319 20.3109393,103.372175 20.3109393,85.034199 C20.3109393,83.5133176 20.4341377,82.0240925 20.5366883,80.5307384 L20.5366883,80.5300502 C21.3288745,69.0704498 25.104664,58.4339146 31.0877004,49.3891436 L14.2570121,38.0375877 C6.33721457,49.9568934 1.34320648,63.9916694 0.297740891,79.1144606 L0.297740891,79.1144606 C0.163530364,81.0799074 -0.000275303644,83.0357195 -0.000275303644,85.034199 C-0.000275303644,109.234106 10.1205749,131.070109 26.3607368,146.542496 C41.6042996,161.065193 62.2376194,169.980586 84.9542996,169.980586 C131.874988,169.980586 169.910939,131.94754 169.910939,85.034199 C169.910939,38.1187931 131.874988,0.0891883385 84.9542996,0.0891883385" id="Fill-6" fill="#FFFFFF" mask="url(#mask-4)"></path>
                        </g>
                        <path d="M83.9410445,20.4221338 L83.9410445,0.10150679 C54.8311255,0.442156694 29.2795061,15.4286879 14.2568745,38.0375188 L31.0875628,49.3890747 C42.4665506,32.1859105 61.8444858,20.7634719 83.9410445,20.4221338" id="Fill-9" fill="#FFFFFF" opacity="0.2"></path>
                    </g>
                </g>
            </g>
        </g>
    </g>
</svg>