<svg xmlns="http://www.w3.org/2000/svg" xmlns:xlink="http://www.w3.org/1999/xlink" width="170" height="170" viewBox="0 0 170 170">
    <defs>
        <circle id="b" cx="85" cy="85" r="65"/>
        <filter id="a" width="146.2%" height="146.2%" x="-23.1%" y="-23.1%" filterUnits="objectBoundingBox">
            <feOffset in="SourceAlpha" result="shadowOffsetOuter1"/>
            <feGaussianBlur in="shadowOffsetOuter1" result="shadowBlurOuter1" stdDeviation="10"/>
            <feColorMatrix in="shadowBlurOuter1" values="0 0 0 0 0.317647059 0 0 0 0 0.333333333 0 0 0 0 0.294117647 0 0 0 0.3 0"/>
        </filter>
        <path id="c" d="M0 .09h169.91v169.89H0z"/>
    </defs>
    <g fill="none" fill-rule="evenodd">
        <g>
            <use fill="#000" filter="url(#a)" xlink:href="#b"/>
            <use fill="#A1A994" xlink:href="#b"/>
        </g>
        <path fill="#FFF" d="M85.294 103.32c-1.29 0-2.347-.405-3.175-1.215-.829-.808-1.243-1.784-1.243-2.927 0-1.177.414-2.17 1.243-2.982.828-.808 1.886-1.214 3.175-1.214 1.288 0 2.347.406 3.175 1.214.829.811 1.243 1.805 1.243 2.982 0 1.143-.414 2.119-1.243 2.927-.828.81-1.887 1.215-3.175 1.215M95.897 102.933v-5.135A492.571 492.571 0 0 0 102.772 92c2.228-1.914 4.215-3.81 5.964-5.687 1.749-1.878 3.148-3.708 4.197-5.494 1.05-1.785 1.574-3.525 1.574-5.219 0-1.582-.433-2.982-1.298-4.196-.865-1.215-2.292-1.823-4.28-1.823-2.025 0-3.553.663-4.583 1.989-1.031 1.325-1.547 2.926-1.547 4.803h-6.847c.074-2.834.7-5.199 1.877-7.095 1.179-1.895 2.743-3.314 4.694-4.252 1.952-.938 4.142-1.408 6.573-1.408 3.938 0 7.004 1.077 9.194 3.23 2.19 2.153 3.286 4.942 3.286 8.366 0 2.135-.488 4.216-1.463 6.24-.976 2.024-2.256 3.975-3.839 5.853a51.44 51.44 0 0 1-5.135 5.273 148.796 148.796 0 0 1-5.357 4.555h16.733v5.798H95.897zM52.33 89.65h11.972V72.17L52.33 89.649zm11.529 13.245V95.75H44.737v-5.606l18.18-25.723h8.036V89.65h5.1v6.1h-5.1v7.146H63.86z"/>
        <g>
            <mask id="d" fill="#fff">
                <use xlink:href="#c"/>
            </mask>
            <path fill="#FFF" d="M84.954.09c-.338 0-.675.007-1.013.012v20.32c.339-.005.673-.025 1.013-.025v.001c35.704 0 64.646 28.937 64.646 64.636 0 35.701-28.942 64.638-64.646 64.638-17.363 0-33.126-6.846-44.74-17.984-12.265-11.764-19.903-28.316-19.903-46.654 0-1.52.123-3.01.226-4.503a64.373 64.373 0 0 1 10.55-31.142l-16.83-11.351A84.611 84.611 0 0 0 .297 79.114C.165 81.08 0 83.036 0 85.034c0 24.2 10.12 46.036 26.36 61.508 15.244 14.523 35.878 23.439 58.594 23.439 46.921 0 84.957-38.033 84.957-84.947C169.91 38.12 131.875.09 84.954.09" mask="url(#d)"/>
        </g>
        <path fill="#FFF" d="M83.941 20.422V.102c-29.11.34-54.661 15.327-69.684 37.936l16.83 11.351c11.38-17.203 30.757-28.626 52.854-28.967" opacity=".2"/>
    </g>
</svg>
