<?xml version="1.0" encoding="UTF-8"?>
<svg width="189px" height="189px" viewBox="0 0 189 189" version="1.1" xmlns="http://www.w3.org/2000/svg" xmlns:xlink="http://www.w3.org/1999/xlink">
    <!-- Generator: Sketch 55.2 (78181) - https://sketchapp.com -->
    <title>crystal-mark@3x</title>
    <desc>Created with Sketch.</desc>
    <defs>
        <polygon id="path-1" points="0 0 189 0 189 189 0 189"></polygon>
    </defs>
    <g id="Page-1" stroke="none" stroke-width="1" fill="none" fill-rule="evenodd">
        <g id="Crystal_homepage" transform="translate(-149.000000, -663.000000)">
            <g id="crystal-mark" transform="translate(149.000000, 663.000000)">
                <mask id="mask-2" fill="white">
                    <use xlink:href="#path-1"></use>
                </mask>
                <g id="Clip-2"></g>
                <path d="M159.715745,157.586996 L163.960629,128.928434 L175.917243,134.502521 C171.76847,142.94315 166.316482,150.747787 159.715745,157.586996 L159.715745,157.586996 Z M3.75343881,95.9037147 L21.0762274,119.239841 L8.63906016,123.766141 C5.52805209,114.659779 3.90675807,105.277743 3.75343881,95.9037147 L3.75343881,95.9037147 Z M11.5166568,57.8619739 L23.42636,63.4131832 L4.23742425,85.0357898 C5.21912521,75.7647097 7.64706163,66.6125923 11.5166568,57.8619739 L11.5166568,57.8619739 Z M29.344026,31.3447404 L25.0899884,60.071934 L13.1150674,54.4886963 C17.3530864,45.8581844 22.8279572,38.0775691 29.344026,31.3447404 L29.344026,31.3447404 Z M185.255988,93.0428916 L167.973246,69.7593834 L180.410413,65.2330831 C183.546593,74.425236 185.115255,83.794689 185.255988,93.0428916 L185.255988,93.0428916 Z M184.751408,104.032067 C183.743391,113.426685 181.275408,122.565076 177.495059,131.120092 L165.624257,125.586041 L184.751408,104.032067 Z M155.428526,161.054071 L122.588455,163.018098 L130.165173,133.384958 L160.259227,128.436569 L155.428526,161.054071 Z M122.812713,166.742545 L151.608131,165.021018 C144.460478,170.813584 136.315106,175.599543 127.305883,179.086064 L122.812713,166.742545 Z M119.271496,167.929883 L123.797847,180.362625 C114.690225,183.472812 105.305713,185.093678 95.9303539,185.246957 L119.271496,167.929883 Z M63.4312464,165.581515 L85.057272,184.761955 C75.784889,183.782801 66.6315,181.354362 57.8774277,177.485788 L63.4312464,165.581515 Z M60.0868269,163.917182 L54.5032597,175.887799 C45.8693255,171.650898 38.0866566,166.177472 31.3531948,159.663123 L60.0868269,163.917182 Z M23.9870051,151.609122 C18.1288362,144.364983 13.3862365,136.181725 9.93655304,127.265245 L22.2627354,122.77898 L23.9870051,151.609122 Z M41.8212393,92.1987143 L24.0407812,116.971544 L4.38616682,90.4932016 L26.2192878,65.8885216 L41.8212393,92.1987143 Z M33.6220911,27.9451537 L66.4621623,25.9822699 L58.8854446,55.6154099 L28.7913901,60.5637988 L33.6220911,27.9451537 Z M66.2379043,22.2566798 L37.4012966,23.9804944 C44.6473481,18.1238714 52.8327662,13.3836671 61.7504554,9.93375006 L66.2379043,22.2566798 Z M69.7779775,21.069341 L65.2573475,8.65261377 C74.3581045,5.54700213 83.7323189,3.92156045 93.1019567,3.7659939 L69.7779775,21.069341 Z M125.619371,23.4188534 L103.988769,4.23383743 C113.262296,5.21413546 122.416829,7.64600668 131.172046,11.5157246 L125.619371,23.4188534 Z M128.962646,25.0831867 L134.546214,13.1114256 C143.180148,17.3494702 150.962817,22.8217524 157.696278,29.3361017 L128.962646,25.0831867 Z M165.063612,37.3889584 C170.920637,44.6330978 175.663237,52.8174997 179.11292,61.7351234 L166.787882,66.2202443 L165.063612,37.3889584 Z M145.153847,100.621042 L159.481189,124.781899 L131.759007,129.340228 L145.153847,100.621042 Z M119.038084,161.829616 L96.2118206,145.45738 L125.995804,134.619196 L119.038084,161.829616 Z M92.2243755,147.190346 L117.002599,164.964968 L90.5172685,184.614396 L65.9072381,162.787036 L92.2243755,147.190346 Z M55.6302707,130.130643 L60.5788216,160.216757 L27.9527108,155.38733 L25.9893089,122.554781 L55.6302707,130.130643 Z M43.5558065,96.186251 L54.3945632,125.962375 L27.175817,119.005347 L43.5558065,96.186251 Z M43.895626,88.3781829 L29.5694282,64.2184689 L57.2904666,59.6601402 L43.895626,88.3781829 Z M70.0125331,27.1696087 L92.8376526,43.5429881 L77.9462329,48.9626521 L63.0548133,54.3800285 L70.0125331,27.1696087 Z M96.8262418,41.8100225 L72.0468738,24.0354003 L98.5333489,4.38597236 L123.143379,26.2121881 L96.8262418,41.8100225 Z M133.420347,58.868581 L128.469507,28.7836116 L161.096762,33.6118941 L163.060164,66.4444432 L133.420347,58.868581 Z M145.494811,92.8129734 L140.07486,77.9254834 L134.65491,63.0368494 L161.873656,69.993877 L145.494811,92.8129734 Z M100.647782,43.8838618 L124.813873,29.5603005 L129.373405,57.2751677 L115.010593,50.5800867 L100.647782,43.8838618 Z M61.8099524,58.805668 L79.2231307,52.4686189 L96.6374532,46.1327136 L113.432778,53.9625153 L130.229246,61.792317 L136.566824,79.2020442 L142.905546,96.6117713 L127.240665,130.193556 L92.41202,142.866511 L58.8213709,127.206907 L47.9105313,97.2397568 L46.1450714,92.3874531 L47.0935913,90.3525054 L61.8099524,58.805668 Z M59.6760686,131.725201 L88.4028356,145.116506 L64.2356005,159.438924 L59.6760686,131.725201 Z M147.228234,96.8005101 L165.008692,72.0276809 L184.664451,98.5071667 L162.830185,123.110703 L147.228234,96.8005101 Z M188.9162,98.3676143 C189.421924,86.3958532 187.6496,74.1358364 183.30174,62.1961037 C174.671238,38.4882191 157.322134,19.5605742 134.452391,8.89854618 C111.580361,-1.76233798 85.9256998,-2.88218836 62.2127015,5.74489193 C38.4997033,14.37426 19.5670624,31.7187864 8.90107592,54.5836376 C-1.76376638,77.4484889 -2.88276818,103.09638 5.74773342,126.803121 C14.3793792,150.511005 31.7273396,169.43865 54.5982261,180.101822 C67.2996974,186.021358 80.8581548,189 94.4681,189 C105.364065,189 116.293212,187.090878 126.837916,183.253189 C138.731601,178.925922 149.227105,172.437882 158.052116,164.402183 C158.235184,164.285508 158.397657,164.139093 158.530381,163.967512 C176.720453,147.172044 187.675915,123.729537 188.889884,99.0070386 C188.935651,98.7965662 188.94366,98.5803745 188.9162,98.3676143 L188.9162,98.3676143 Z" id="Fill-1" fill="#FFFFFF" mask="url(#mask-2)"></path>
            </g>
        </g>
    </g>
</svg>