
<svg width="152px" height="44px" viewBox="0 0 152 44" version="1.1" xmlns="http://www.w3.org/2000/svg" xmlns:xlink="http://www.w3.org/1999/xlink">
    <g id="Page-1" stroke="none" stroke-width="1" fill="none" fill-rule="evenodd">
        <g id="Crystal_homepage" transform="translate(-149.000000, -20.000000)" fill="#A49592">
            <g id="Nav" transform="translate(149.000000, 20.000000)">
                <g id="Logo">
                    <path d="M49.973,16.7257037 L40.5496667,16.7257037 L40.5496667,35.1291111 L33.6913704,35.1291111 L33.6913704,9.76881481 L40.5496667,9.76881481 L40.5496667,15.8375556 C42.0790741,12.2360741 44.9407037,9.76881481 48.8876667,9.76881481 C49.2331481,9.76881481 49.7261111,9.8177037 49.973,9.86740741 L49.973,16.7257037 Z" id="Fill-1"></path>
                    <polygon id="Fill-3" points="61.4981481 9.76873333 67.32 25.1133259 73.4865185 10.1142148 77.3902963 10.1142148 62.4897778 43.5167333 58.5868148 43.5167333 63.373037 33.5499185 53.8502963 9.76873333"></polygon>
                    <polygon id="Fill-6" points="101.830748 9.76873333 106.124007 9.76873333 106.124007 1.07547407 113.031193 1.07547407 113.031193 9.76873333 117.832081 9.76873333 117.832081 12.788437 113.031193 12.788437 113.031193 35.1290296 106.124007 35.1290296 106.124007 12.788437 101.830748 12.788437"></polygon>
                    <polygon id="Fill-8" points="144.701333 35.1288667 151.558815 35.1288667 151.558815 1.07531111 144.701333 1.07531111"></polygon>
                    <path d="M132.672711,29.5041185 C131.587378,30.3433778 130.057156,30.786637 128.823526,30.786637 C126.20797,30.786637 125.122637,29.158637 125.122637,27.1362667 C125.122637,25.902637 125.468119,24.9647852 126.20797,23.9291556 L132.672711,23.9291556 L132.672711,29.5041185 Z M129.514489,9.62100741 C126.898933,9.62100741 125.310859,10.4513037 123.583452,11.5863407 C122.459822,12.3538963 121.125156,13.7904148 120.487156,14.9727111 L120.487156,16.8207111 C122.258563,15.7231556 124.396637,15.1959704 126.504563,15.1959704 C129.810267,15.1959704 132.425007,16.3807111 132.622193,19.5870074 L132.622193,20.0310815 L125.665304,22.8935259 C120.9296,24.8173037 118.807822,27.4320444 118.807822,30.4411556 C118.807822,33.3524889 120.879896,35.6217481 124.57997,35.6217481 C127.984267,35.6217481 131.241081,33.5496741 132.672711,30.5397481 L132.672711,35.1287852 L139.184711,35.1287852 L139.184711,18.7982667 C139.184711,13.0253037 135.829304,9.62100741 129.514489,9.62100741 L129.514489,9.62100741 Z" id="Fill-10"></path>
                    <path d="M16.9228889,8.14814815e-05 C8.1897037,8.14814815e-05 0,6.61067407 0,18.3537852 C0,28.7638593 7.30237037,35.7207481 17.0214815,35.7207481 C21.6602222,35.7207481 26.092,33.789637 28.4712593,30.2908222 L28.4712593,26.8123778 C26.3062963,28.4403778 23.4666667,29.4059333 20.4746667,29.4059333 C12.6304444,29.4059333 7.40014815,23.5832667 7.40014815,14.8508963 C7.40014815,8.1408963 11.1507407,3.74985926 15.7878519,3.74985926 C19.1677037,3.74985926 21.5697778,5.90911852 21.8704444,9.86748889 L30.0462963,9.86748889 C29.7505185,3.20719259 23.3868148,8.14814815e-05 16.9228889,8.14814815e-05" id="Fill-11"></path>
                    <path d="M92.571763,20.130163 L89.2163556,19.0440148 C86.4044296,18.1566815 85.4176889,16.8733481 85.4176889,15.5411259 C85.4176889,13.9131259 86.8973926,12.7789037 88.6239852,12.7789037 C90.7775407,12.7789037 91.9410963,14.0337185 92.0551704,16.1832 L92.0608741,16.7258667 L98.9990222,16.7258667 L98.9362815,16.1832 C98.5410963,11.7424593 94.2494667,9.62068148 89.4135407,9.62068148 C83.1973185,9.62068148 79.2495407,13.0249778 79.2495407,17.5154222 C79.2495407,21.1160889 81.7176148,23.2875704 85.861763,24.7183852 L89.1674667,25.8534222 C91.6836148,26.7415704 92.7192444,27.9254963 92.7192444,29.5037926 C92.7192444,31.1317926 91.2387259,32.4648296 89.0191704,32.4648296 C86.4745037,32.4648296 85.1015407,30.7732741 84.9402074,28.8136444 L77.9670222,28.8136444 C78.4110963,33.6487556 83.1973185,35.622237 88.2785037,35.622237 C94.9893185,35.622237 99.4292444,32.168237 99.4292444,27.284237 C99.4292444,23.5344593 96.9130963,21.5609778 92.571763,20.130163" id="Fill-12"></path>
                </g>
            </g>
        </g>
    </g>
</svg>