<svg width="47" height="70" viewBox="0 0 47 70" fill="none" xmlns="http://www.w3.org/2000/svg">
<path d="M23.3209 2C26.4209 14.5 33.7209 24.1 41.2209 33.9C48.4209 43.2 46.7209 55.6 38.1209 63.3C30.1209 70.4 17.2209 70.7 9.0209 63.8C0.2209 56.5 -1.5791 44.1 4.8209 34.4C5.6209 33.2 6.5209 32 7.5209 30.8C14.7209 22.4 20.3209 13.1 23.3209 2Z" stroke="black" stroke-miterlimit="10"/>
<path d="M23.3211 12.3C25.9211 21.9 31.8211 29.4001 38.0211 36.9001C43.9211 44.1001 42.5211 53.6 35.4211 59.6C28.8211 65.1 18.3211 65.3 11.5211 60C4.32111 54.3 2.82111 44.8 8.02111 37.3C8.72111 36.3 9.42111 35.4 10.2211 34.6C16.2211 28.1 20.8211 20.9 23.3211 12.3Z" stroke="black" stroke-miterlimit="10"/>
</svg>
