<svg width="161" height="161" viewBox="0 0 161 161" fill="none" xmlns="http://www.w3.org/2000/svg">
<path d="M51.0911 88C51.6184 84.0039 52.7259 80.2656 54.4134 76.7852C56.1009 73.293 58.4153 69.9766 61.3567 66.8359H47.6809V63.5488H64.8196V66.5371C61.9837 69.6074 59.7278 72.9297 58.052 76.5039C56.388 80.0664 55.2923 83.8984 54.7649 88H51.0911ZM66.2441 81.4785H69.5664C69.7656 82.7793 70.3047 83.7988 71.1836 84.5371C72.0742 85.2637 73.1992 85.627 74.5586 85.627C76.2344 85.627 77.582 85.1172 78.6016 84.0977C79.6328 83.0781 80.1484 81.7363 80.1484 80.0723C80.1484 78.3613 79.6504 77.0078 78.6543 76.0117C77.6582 75.0039 76.3047 74.5 74.5938 74.5C73.6328 74.5 72.748 74.6934 71.9395 75.0801C71.1426 75.4668 70.4453 76.041 69.8477 76.8027H66.9648L68.9512 63.5488H82.2754V66.502H71.3242L70.3223 73.2344C70.9434 72.707 71.6582 72.3086 72.4668 72.0391C73.2871 71.7578 74.1777 71.6172 75.1387 71.6172C77.7051 71.6172 79.7617 72.373 81.3086 73.8848C82.8555 75.3965 83.6289 77.4004 83.6289 79.8965C83.6289 82.5332 82.8086 84.666 81.168 86.2949C79.5273 87.9121 77.377 88.7207 74.7168 88.7207C72.3496 88.7207 70.3926 88.0645 68.8457 86.752C67.3105 85.4277 66.4434 83.6699 66.2441 81.4785ZM103.616 81.7422C103.616 82.7617 103.962 83.623 104.653 84.3262C105.344 85.0176 106.2 85.3633 107.219 85.3633C108.204 85.3633 109.048 85.0117 109.751 84.3086C110.454 83.5938 110.805 82.7383 110.805 81.7422C110.805 80.7344 110.454 79.8848 109.751 79.1934C109.059 78.4902 108.216 78.1387 107.219 78.1387C106.212 78.1387 105.356 78.4902 104.653 79.1934C103.962 79.8848 103.616 80.7344 103.616 81.7422ZM100.979 81.7422C100.979 79.9961 101.583 78.5195 102.79 77.3125C103.997 76.1055 105.473 75.502 107.219 75.502C108.93 75.502 110.401 76.1113 111.632 77.3301C112.862 78.5488 113.477 80.0195 113.477 81.7422C113.477 83.4648 112.862 84.9414 111.632 86.1719C110.413 87.3906 108.942 88 107.219 88C105.473 88 103.997 87.3965 102.79 86.1895C101.583 84.9707 100.979 83.4883 100.979 81.7422ZM88.1999 69.7891C88.1999 70.8086 88.5456 71.6641 89.237 72.3555C89.9284 73.0469 90.7839 73.3926 91.8034 73.3926C92.7995 73.3926 93.6491 73.041 94.3523 72.3379C95.0554 71.6348 95.407 70.7852 95.407 69.7891C95.407 68.7812 95.0554 67.9316 94.3523 67.2402C93.6491 66.5371 92.7995 66.1855 91.8034 66.1855C90.7956 66.1855 89.9402 66.5371 89.237 67.2402C88.5456 67.9316 88.1999 68.7812 88.1999 69.7891ZM85.5808 69.7891C85.5808 68.043 86.1784 66.5664 87.3738 65.3594C88.5808 64.1523 90.0573 63.5488 91.8034 63.5488C93.5261 63.5488 94.9909 64.1582 96.198 65.377C97.4167 66.5957 98.0261 68.0664 98.0261 69.7891C98.0261 71.5117 97.4167 72.9883 96.198 74.2188C94.9909 75.4375 93.5261 76.0469 91.8034 76.0469C90.0573 76.0469 88.5808 75.4434 87.3738 74.2363C86.1784 73.0176 85.5808 71.5352 85.5808 69.7891ZM90.7312 88.7207L106.13 62.8281H108.327L92.9109 88.7207H90.7312Z" fill="black"/>
<path d="M57.3546 107.617C57.3546 108.999 57.672 110.08 58.3067 110.861C58.9464 111.638 59.8302 112.026 60.9581 112.026C62.0812 112.026 62.9576 111.638 63.5875 110.861C64.2223 110.08 64.5396 108.999 64.5396 107.617C64.5396 106.23 64.2223 105.148 63.5875 104.372C62.9576 103.596 62.0812 103.208 60.9581 103.208C59.8302 103.208 58.9464 103.596 58.3067 104.372C57.672 105.148 57.3546 106.23 57.3546 107.617ZM55.8385 107.617C55.8385 105.834 56.2901 104.443 57.1935 103.442C58.1017 102.436 59.3565 101.933 60.9581 101.933C62.5548 101.933 63.8023 102.434 64.7008 103.435C65.6041 104.436 66.0558 105.83 66.0558 107.617C66.0558 109.399 65.6041 110.793 64.7008 111.799C63.8023 112.8 62.5548 113.3 60.9581 113.3C59.3565 113.3 58.1017 112.8 57.1935 111.799C56.2901 110.793 55.8385 109.399 55.8385 107.617ZM68.7294 109.133C68.7294 110.109 68.9223 110.844 69.308 111.337C69.6986 111.826 70.2821 112.07 71.0585 112.07C71.8007 112.07 72.372 111.801 72.7724 111.264C73.1776 110.722 73.3803 109.956 73.3803 108.964C73.3803 108.071 73.1703 107.368 72.7504 106.855C72.3354 106.342 71.7665 106.086 71.0438 106.086C70.3017 106.086 69.7304 106.35 69.33 106.877C68.9296 107.404 68.7294 108.156 68.7294 109.133ZM67.4843 116.135V105.156H68.7733V106.262C69.1005 105.793 69.4667 105.449 69.872 105.229C70.2821 105.009 70.768 104.899 71.3295 104.899C72.3744 104.899 73.2069 105.275 73.8271 106.027C74.4521 106.779 74.7646 107.788 74.7646 109.052C74.7646 110.332 74.4496 111.35 73.8197 112.106C73.1898 112.863 72.3549 113.242 71.3148 113.242C70.7631 113.242 70.2772 113.144 69.8573 112.949C69.4423 112.749 69.081 112.446 68.7733 112.041V116.135H67.4843ZM77.6213 111.022C77.6213 111.374 77.6701 111.608 77.7678 111.726C77.8703 111.843 78.0559 111.901 78.3244 111.901C78.4025 111.901 78.4953 111.899 78.6027 111.894C78.715 111.889 78.8591 111.879 79.0349 111.865V112.985C78.8151 113.024 78.6174 113.054 78.4416 113.073C78.2707 113.093 78.1169 113.103 77.9802 113.103C77.3601 113.103 76.9255 112.983 76.6765 112.744C76.4274 112.504 76.3029 112.08 76.3029 111.469V106.203H75.1311V105.156H76.3029V102.966H77.6213V105.156H79.0349V106.203H77.6213V111.022ZM79.9946 103.713V102.211H81.313V103.713H79.9946ZM79.9946 113V105.156H81.313V113H79.9946ZM92.5926 113V108.173C92.5926 107.382 92.4852 106.843 92.2703 106.555C92.0555 106.262 91.6819 106.115 91.1497 106.115C90.5149 106.115 90.0218 106.313 89.6702 106.708C89.3187 107.099 89.1429 107.651 89.1429 108.364V113H87.8025V108.173C87.8025 107.382 87.6951 106.843 87.4803 106.555C87.2654 106.262 86.8943 106.115 86.367 106.115C85.7371 106.115 85.2439 106.315 84.8875 106.716C84.5311 107.111 84.3528 107.661 84.3528 108.364V113H83.0345V105.156H84.2942V106.262C84.5872 105.822 84.9339 105.495 85.3343 105.28C85.7347 105.065 86.2034 104.958 86.7405 104.958C87.2288 104.958 87.6463 105.058 87.993 105.258C88.3396 105.454 88.6375 105.764 88.8865 106.188C89.2283 105.764 89.6019 105.454 90.0071 105.258C90.4124 105.058 90.8787 104.958 91.4061 104.958C91.9139 104.958 92.3558 105.051 92.7317 105.236C93.1077 105.417 93.3958 105.681 93.596 106.027C93.7083 106.228 93.7889 106.467 93.8377 106.745C93.8865 107.023 93.9109 107.463 93.9109 108.063V108.291V113H92.5926ZM100.459 111.953C100.049 112.382 99.6119 112.705 99.148 112.919C98.6891 113.134 98.2008 113.242 97.6832 113.242C96.8824 113.242 96.2574 113.034 95.8082 112.619C95.359 112.199 95.1344 111.621 95.1344 110.883C95.1344 110.17 95.3541 109.611 95.7936 109.206C96.2379 108.801 96.9117 108.54 97.815 108.422C98.0445 108.398 98.3546 108.364 98.7452 108.32C99.4142 108.251 99.8243 108.186 99.9757 108.122C100.127 108.063 100.227 107.988 100.276 107.895C100.325 107.797 100.349 107.59 100.349 107.272C100.349 106.872 100.203 106.572 99.9098 106.372C99.6168 106.171 99.1749 106.071 98.5841 106.071C97.9737 106.071 97.5123 106.193 97.1998 106.438C96.8922 106.682 96.7384 107.043 96.7384 107.521H95.4933V107.463C95.4933 106.672 95.7716 106.047 96.3282 105.588C96.8849 105.129 97.6515 104.899 98.628 104.899C99.6778 104.899 100.449 105.097 100.942 105.493C101.441 105.883 101.69 106.496 101.69 107.331V111.257C101.69 111.594 101.726 111.811 101.799 111.909C101.873 112.006 102.004 112.055 102.195 112.055C102.234 112.055 102.28 112.053 102.334 112.048C102.393 112.038 102.461 112.026 102.539 112.011V113.029C102.378 113.073 102.236 113.103 102.114 113.117C101.997 113.137 101.885 113.146 101.777 113.146C101.338 113.146 101.008 113.051 100.789 112.861C100.569 112.67 100.459 112.382 100.459 111.997V111.953ZM100.335 109.008C99.983 109.199 99.38 109.348 98.5255 109.455C98.2228 109.494 97.9957 109.526 97.8443 109.55C97.3658 109.628 97.0216 109.77 96.8116 109.975C96.6017 110.18 96.4967 110.478 96.4967 110.869C96.4967 111.259 96.6188 111.56 96.8629 111.77C97.107 111.979 97.4562 112.084 97.9103 112.084C98.6183 112.084 99.1993 111.906 99.6534 111.55C100.108 111.193 100.335 110.737 100.335 110.18V109.008ZM103.47 113V102.211H104.81V113H103.47Z" fill="black"/>
<path d="M57.3266 46V37.3691H63.4789V38.4414H58.4867V41.0195H63.098V42.0273H58.4867V44.9219H63.5785V46H57.3266ZM64.7506 46V37.3691H66.0338L70.0651 43.6387C70.1549 43.7754 70.233 43.9043 70.2995 44.0254C70.3659 44.1465 70.4186 44.2598 70.4577 44.3652V37.3691H71.5768V46H70.3053L66.1862 39.6426C66.1237 39.5449 66.0651 39.4434 66.0104 39.3379C65.9596 39.2324 65.9108 39.1211 65.8639 39.0039V46H64.7506ZM73.1825 46V37.3691H79.3348V38.4414H74.3427V41.0195H78.954V42.0273H74.3427V44.9219H79.4345V46H73.1825ZM81.7667 38.3828V41.3066H83.7706C84.4933 41.3066 85.003 41.1895 85.2999 40.9551C85.6007 40.7207 85.7511 40.3301 85.7511 39.7832C85.7511 39.2715 85.6105 38.9102 85.3292 38.6992C85.048 38.4883 84.5284 38.3828 83.7706 38.3828H81.7667ZM80.6183 37.3691H83.964C84.507 37.3691 84.9054 37.3926 85.1593 37.4395C85.4171 37.4863 85.6476 37.5645 85.8507 37.6738C86.214 37.873 86.4894 38.1504 86.6769 38.5059C86.8683 38.8613 86.964 39.2793 86.964 39.7598C86.964 40.2246 86.8644 40.623 86.6652 40.9551C86.4659 41.2832 86.1691 41.541 85.7745 41.7285C86.1105 41.8223 86.3488 41.9805 86.4894 42.2031C86.6339 42.4258 86.7238 42.8027 86.7589 43.334L86.8585 44.7578C86.878 45.0625 86.9171 45.291 86.9757 45.4434C87.0382 45.5918 87.13 45.6973 87.2511 45.7598V46H85.8976C85.7882 45.8203 85.712 45.4355 85.6691 44.8457C85.6691 44.8301 85.6691 44.8184 85.6691 44.8105L85.5988 43.6855C85.5597 43.1074 85.4366 42.7324 85.2296 42.5605C85.0226 42.3887 84.505 42.3027 83.6769 42.3027H81.7784V46H80.6183V37.3691ZM94.8041 44.8457C94.4525 45.3105 94.0345 45.6602 93.5502 45.8945C93.0658 46.125 92.515 46.2402 91.8978 46.2402C90.7298 46.2402 89.7826 45.8242 89.056 44.9922C88.3334 44.1562 87.972 43.0605 87.972 41.7051C87.972 40.2949 88.347 39.1836 89.097 38.3711C89.847 37.5547 90.8646 37.1465 92.1498 37.1465C93.1341 37.1465 93.9369 37.3965 94.558 37.8965C95.1791 38.3926 95.5521 39.0859 95.6771 39.9766H94.5345C94.4291 39.3945 94.1673 38.9453 93.7494 38.6289C93.3353 38.3125 92.8021 38.1543 92.1498 38.1543C91.2084 38.1543 90.4779 38.4609 89.9584 39.0742C89.4427 39.6836 89.1849 40.5449 89.1849 41.6582C89.1849 42.7598 89.4408 43.6211 89.9525 44.2422C90.4642 44.8633 91.1693 45.1738 92.0677 45.1738C92.8802 45.1738 93.5287 44.9258 94.013 44.4297C94.4974 43.9336 94.7396 43.2656 94.7396 42.4258V42.3145H92.0384V41.3418H95.8236V46H95.056L94.8041 44.8457ZM100.629 46H99.4508V42.543L96.2516 37.3691H97.7223L100.031 41.4531L102.322 37.3691H103.699L100.629 42.4609V46Z" fill="black"/>
<circle cx="80.5" cy="80.5" r="79" stroke="#D7D7D7"/>
<path d="M1 80.5C1 124.407 36.5934 160 80.5 160C124.407 160 160 124.407 160 80.5C160 36.5934 124.407 1 80.5 1" stroke="black"/>
</svg>
