<svg width="237" height="44" viewBox="0 0 237 44" fill="none" xmlns="http://www.w3.org/2000/svg">
<path fill-rule="evenodd" clip-rule="evenodd" d="M20.9367 0C20.8184 2.59485 20.5819 5.1897 20.4636 7.89736C19.0441 7.89736 17.743 7.89736 16.3235 7.78454C16.2053 6.09225 16.087 4.51278 16.087 2.93331C13.9578 2.93331 11.8287 2.93331 9.6995 2.93331C9.6995 6.88199 9.6995 10.7179 9.6995 14.6665C10.6458 14.6665 11.4738 14.6665 12.4201 14.6665C12.6567 13.764 12.8932 12.9742 13.0115 12.0717C13.9578 12.0717 14.9041 12.0717 15.8504 12.0717C15.8504 14.7794 15.8504 17.487 15.8504 20.0819C14.9041 20.0819 14.0761 20.0819 13.0115 20.0819C12.7749 19.1793 12.5384 18.2768 12.3018 17.3742C11.3555 17.3742 10.5275 17.3742 9.58121 17.3742C9.58121 21.5485 9.58121 25.61 9.58121 29.7843C11.7104 29.7843 13.8395 29.7843 15.9687 29.7843C16.2053 27.9792 16.3235 26.2869 16.5601 24.369C17.9796 24.369 19.399 24.4818 20.9367 24.4818C21.055 27.3023 21.1733 30.01 21.2916 32.7177C14.1944 32.7177 7.21548 32.7177 0.236573 32.7177C0.236573 31.7023 0.236573 30.7997 0.236573 29.7843C1.30115 29.6715 2.24744 29.4459 3.19374 29.3331C3.19374 20.5331 3.19374 11.846 3.19374 3.04613C2.12916 3.04613 1.06458 2.93331 0 2.82049C0 1.91793 0 1.01538 0 0C6.97891 0 13.9578 0 20.9367 0Z" fill="white"/>
<path fill-rule="evenodd" clip-rule="evenodd" d="M95.5756 43.9998C95.5756 43.2101 95.6939 42.5332 95.6939 41.7434C96.5219 41.6306 97.2316 41.405 97.9413 41.2922C97.9413 31.9281 97.9413 22.6769 97.9413 13.2C97.1133 13.0872 96.167 12.9744 95.339 12.8616C95.339 12.0718 95.339 11.3949 95.339 10.4923C97.5864 10.1539 99.9522 9.92825 102.318 9.58979C102.554 10.4923 102.791 11.2821 103.028 12.0718C103.146 11.959 103.264 11.959 103.264 11.8462C104.92 9.92825 107.168 9.36415 109.652 9.58979C112.845 9.92825 114.501 11.7334 115.448 14.5539C115.803 15.7949 116.157 17.0359 116.157 18.2769C116.394 20.8718 116.394 23.4666 115.921 26.0615C115.684 26.964 115.448 27.9794 115.093 28.882C113.91 31.5897 111.663 33.0563 108.587 33.2819C107.049 33.3948 105.512 33.2819 104.092 32.605C103.974 32.605 103.856 32.605 103.737 32.4922C103.737 35.4255 103.737 38.3588 103.737 41.2922C104.447 41.405 105.275 41.6306 106.103 41.7434C106.103 42.5332 105.985 43.2101 105.985 43.9998C102.554 43.9998 99.1242 43.9998 95.5756 43.9998ZM103.737 29.3333C105.63 30.123 107.404 30.123 109.297 29.5589C109.652 29.4461 109.888 29.2204 110.007 28.882C110.243 27.9794 110.48 27.1897 110.598 26.2871C110.953 23.5794 110.953 20.8718 110.716 18.1641C110.598 17.2615 110.48 16.359 110.125 15.4564C109.533 13.5385 108.114 12.8616 106.103 13.0872C105.985 13.0872 105.866 13.0872 105.748 13.2C104.447 13.4257 103.737 14.3282 103.737 15.5692C103.737 19.9692 103.737 24.3692 103.737 28.7692C103.737 28.882 103.737 29.1076 103.737 29.3333Z" fill="white"/>
<path fill-rule="evenodd" clip-rule="evenodd" d="M173.645 30.0091C174.591 30.2347 175.301 30.3475 176.129 30.4603C176.129 31.2501 176.01 32.0398 176.01 32.8295C173.29 32.8295 170.688 32.8295 167.967 32.8295C167.967 32.6039 167.967 32.4911 167.967 32.3783C167.967 27.3014 167.967 22.2246 167.967 17.1477C167.967 16.4708 167.849 15.7939 167.612 15.117C167.376 14.3273 166.666 13.876 165.838 13.7632C165.01 13.5375 164.182 13.6504 163.472 13.9888C162.762 14.2144 162.289 14.7785 162.289 15.5683C162.289 20.4195 162.289 25.1579 162.289 30.0091C162.289 30.0091 162.289 30.1219 162.289 30.2347C162.999 30.3475 163.827 30.5732 164.655 30.686C164.655 31.4757 164.537 32.2654 164.537 33.0552C160.988 33.0552 157.558 33.0552 154.127 33.0552C154.127 32.2654 154.127 31.4757 154.127 30.686C154.955 30.5732 155.665 30.3475 156.493 30.2347C156.493 24.7066 156.493 19.2913 156.493 13.6504C155.665 13.5375 154.719 13.4247 153.891 13.3119C153.891 12.5222 153.891 11.7324 153.891 10.8299C156.138 10.4914 158.386 10.2658 160.751 9.92734C160.988 10.6043 161.106 11.394 161.343 12.0709C161.816 11.7324 162.407 11.2812 162.999 10.9427C165.246 9.58888 167.73 9.36325 170.214 10.153C172.344 10.8299 173.408 12.4094 173.763 14.5529C173.881 15.117 173.881 15.6811 173.881 16.2452C173.881 20.6451 173.881 24.9322 173.881 29.3321C173.645 29.445 173.645 29.7834 173.645 30.0091Z" fill="white"/>
<path fill-rule="evenodd" clip-rule="evenodd" d="M31.5825 30.0096C32.4105 30.1224 33.1202 30.3481 33.9482 30.4609C33.9482 31.2506 33.8299 32.0404 33.8299 32.8302C30.3996 32.8302 26.9693 32.8302 23.4207 32.8302C23.4207 32.0404 23.539 31.2506 23.539 30.4609C24.2487 30.3481 25.0767 30.1224 25.7864 30.0096C25.9047 29.4455 26.023 14.3272 25.7864 13.4246C24.9584 13.3117 24.0121 13.1989 23.1841 13.1989C23.1841 12.4092 23.1841 11.6194 23.1841 10.7168C25.4316 10.3783 27.679 10.1527 30.0448 9.81422C30.2813 10.4912 30.3996 11.1681 30.6362 11.9579C30.8728 11.845 30.9911 11.6194 31.2276 11.3937C33.3568 9.58858 35.9591 9.13728 38.6797 9.7014C41.0454 10.2655 42.4648 11.845 42.938 14.1015C43.0563 14.6656 43.0563 15.3426 43.0563 15.9067C43.0563 20.3068 43.0563 24.7069 43.0563 29.107C43.0563 29.4455 43.0563 29.6711 43.0563 30.0096C43.8843 30.1224 44.7123 30.3481 45.5403 30.4609C45.5403 30.9122 45.5403 31.2506 45.5403 31.5891C45.5403 31.9276 45.5403 32.3789 45.5403 32.8302C42.8197 32.8302 40.2174 32.8302 37.4968 32.8302C37.4968 32.4917 37.4968 32.266 37.4968 31.9276C37.4968 27.0762 37.4968 22.3376 37.4968 17.4862C37.4968 16.9221 37.4968 16.358 37.3785 15.7939C37.142 14.44 36.3139 13.6502 34.8945 13.5374C33.7116 13.5374 32.7654 13.5374 31.9373 14.44C31.7008 14.7784 31.4642 15.1169 31.4642 15.5682C31.4642 19.1786 31.4642 22.9017 31.4642 26.5121C31.4642 27.4146 31.4642 28.3172 31.4642 29.2198C31.5825 29.5583 31.5825 29.7839 31.5825 30.0096Z" fill="white"/>
<path fill-rule="evenodd" clip-rule="evenodd" d="M210.668 12.8611C209.84 12.7483 208.894 12.7483 208.066 12.6355C208.066 11.9586 208.066 11.2817 208.066 10.4919C210.668 10.2663 213.271 9.92781 215.873 9.58936C216.228 10.4919 216.583 11.3945 216.583 12.297C216.583 17.938 216.583 23.4662 216.583 29.1072C216.583 29.4456 216.583 29.6713 216.583 30.0097C217.411 30.1225 218.239 30.3482 219.067 30.461C218.948 31.2507 218.948 32.0405 218.83 32.8302C216.583 32.8302 214.335 32.8302 212.088 32.8302C211.851 32.2661 211.733 31.702 211.496 31.0251C211.26 31.1379 211.141 31.2507 211.023 31.4764C208.303 33.8456 204.636 33.6199 202.27 32.4918C200.496 31.702 199.431 30.2354 199.076 28.3174C198.958 27.7533 198.958 27.0764 198.958 26.3995C198.958 22.2252 198.958 17.938 198.958 13.7637C198.958 13.4252 198.958 13.1996 198.958 12.8611C198.012 12.7483 197.184 12.6355 196.237 12.6355C196.237 11.9586 196.237 11.2817 196.237 10.4919C198.84 10.1535 201.324 9.92781 204.044 9.58936C204.281 10.3791 204.636 11.1688 204.636 12.0714C204.636 16.4714 204.636 20.8713 204.636 25.2713C204.636 25.8354 204.636 26.5123 204.754 27.0764C204.991 28.6559 206.055 29.6713 207.829 29.6713C208.421 29.6713 209.012 29.5584 209.604 29.4456C210.195 29.3328 211.023 28.2046 211.023 27.6405C211.023 22.7893 211.023 17.938 211.023 13.0868C210.668 13.0868 210.668 12.9739 210.668 12.8611Z" fill="white"/>
<path fill-rule="evenodd" clip-rule="evenodd" d="M82.6823 22.7896C82.6823 24.7075 83.0372 26.287 83.9835 27.7537C84.9297 29.1076 86.2309 29.7845 87.8869 29.7845C89.4246 29.7845 90.9624 29.5589 92.3818 28.8819C92.6184 28.7691 92.7367 28.7691 92.9732 28.6563C93.3281 29.3332 93.5647 30.0102 93.9195 30.7999C93.4464 31.0256 93.0915 31.364 92.6184 31.5897C89.6612 33.0564 86.5858 33.6205 83.392 32.7179C80.6714 31.9281 78.8971 30.2358 77.7143 27.8666C76.4131 25.2716 76.1765 22.4511 76.4131 19.6306C76.5314 17.9382 77.0045 16.2459 77.7143 14.6664C79.0154 12.0715 80.908 10.2664 83.8652 9.70224C86.704 9.13814 89.4246 9.4766 91.5538 11.5074C92.8549 12.7484 93.5647 14.2151 94.0378 15.9074C94.511 17.5998 94.7475 19.2921 94.7475 20.9844C94.7475 21.5485 94.3927 22.1126 94.1561 22.6767C90.4892 22.7896 86.5858 22.7896 82.6823 22.7896ZM89.7795 19.8562C89.6612 19.1793 89.6612 18.6152 89.6612 18.0511C89.5429 16.6972 89.1881 15.3433 88.4783 14.2151C87.6503 12.8613 86.4675 12.5228 85.048 12.9741C84.4566 13.1997 84.1017 13.4254 83.8652 13.9895C83.0372 15.7946 82.6823 17.8254 82.564 19.7434C82.564 19.8562 82.564 19.969 82.6823 20.1947C84.9297 20.0818 87.2955 19.969 89.7795 19.8562Z" fill="white"/>
<path fill-rule="evenodd" clip-rule="evenodd" d="M194.936 22.6773C190.914 22.6773 187.011 22.7901 183.107 22.7901C182.989 23.5798 183.107 24.3695 183.344 25.1593C183.581 26.2875 184.054 27.4157 184.763 28.3182C185.71 29.3336 186.774 29.8977 188.194 29.8977C189.731 29.8977 191.151 29.672 192.57 29.1079C192.807 28.9951 193.162 28.8823 193.517 28.7695C193.872 29.4464 194.108 30.1233 194.463 30.9131C194.345 31.0259 194.226 31.0259 194.108 31.1387C191.624 32.831 188.785 33.5079 185.71 33.1694C182.043 32.831 179.441 30.6874 178.139 27.4157C176.365 23.2413 176.483 18.9542 178.258 14.7799C179.441 12.0722 181.451 10.2671 184.527 9.59022C186.893 9.13895 189.258 9.25177 191.269 10.6056C192.807 11.621 193.635 12.9748 194.345 14.5543C195.173 16.585 195.528 18.6158 195.409 20.7593C195.528 21.5491 195.173 22.1132 194.936 22.6773ZM190.205 19.8568C190.086 18.2773 189.968 16.8107 189.495 15.4568C189.258 14.7799 188.903 14.103 188.43 13.5389C187.484 12.4107 184.645 12.6363 184.172 14.2158C183.817 15.4568 183.344 16.6978 183.226 18.0517C183.107 18.7286 182.989 19.5183 183.107 20.308C185.473 20.0824 187.839 19.9696 190.205 19.8568Z" fill="white"/>
<path fill-rule="evenodd" clip-rule="evenodd" d="M152.708 22.6772C148.686 22.6772 144.783 22.79 140.879 22.79C140.879 24.8208 141.234 26.6259 142.535 28.2054C143.363 29.2208 144.546 29.672 145.847 29.7849C147.385 29.8977 148.923 29.5592 150.342 28.9951C150.579 28.8823 150.934 28.7695 151.288 28.6567C151.643 29.3336 151.88 30.0105 152.235 30.8002C151.998 31.0259 151.762 31.2515 151.407 31.3643C148.686 32.9438 145.729 33.5079 142.535 32.9438C139.578 32.3797 137.567 30.6874 136.266 28.0926C134.965 25.4977 134.492 22.79 134.728 19.9695C134.847 18.0515 135.201 16.2464 136.029 14.5541C136.976 12.5233 138.513 10.9438 140.643 10.0413C143.245 9.0259 145.847 8.91308 148.45 10.2669C150.106 11.1695 151.17 12.5233 151.88 14.1028C152.826 16.2464 153.181 18.39 153.181 20.7592C153.299 21.549 152.944 22.1131 152.708 22.6772ZM148.095 19.8567C147.976 19.0669 147.976 18.39 147.858 17.8259C147.74 16.5849 147.385 15.3438 146.794 14.2156C145.965 12.749 144.664 12.4105 143.008 12.9746C142.653 13.0874 142.299 13.4259 142.18 13.7644C141.471 15.231 141.116 16.8105 140.879 18.39C140.761 18.9541 140.761 19.5182 140.761 20.1951C143.245 20.0823 145.611 19.9695 148.095 19.8567Z" fill="white"/>
<path fill-rule="evenodd" clip-rule="evenodd" d="M66.9502 9.81532C67.1867 10.4922 67.305 11.1692 67.5416 11.8461C67.7782 11.7333 68.133 11.5076 68.3696 11.3948C70.0256 10.4922 71.7999 10.041 73.6925 9.81532C74.6388 9.70251 75.2302 10.041 75.8216 10.7179C75.5851 12.7486 75.3485 14.7794 75.1119 16.8101C73.8108 16.8101 72.5096 16.6973 71.2085 16.6973C71.0902 15.5691 70.9719 14.5537 70.7353 13.4255C69.789 13.5384 68.961 13.764 68.2513 14.2153C68.2513 19.5178 68.2513 24.7075 68.2513 30.01C69.0793 30.1228 69.789 30.3484 70.617 30.574C70.617 31.3638 70.4988 32.0407 70.4988 32.8304C67.0684 32.8304 63.6381 32.8304 60.2078 32.8304C60.2078 32.0407 60.2078 31.3638 60.2078 30.574C60.9175 30.3484 61.6273 30.2356 62.337 30.01C62.337 24.4818 62.337 18.9537 62.337 13.4255C61.509 13.3127 60.681 13.1999 59.853 13.1999C59.853 12.4102 59.853 11.6204 59.853 10.7179C62.337 10.4922 64.5844 10.1538 66.9502 9.81532Z" fill="white"/>
<path fill-rule="evenodd" clip-rule="evenodd" d="M220.368 32.9441C220.368 32.1544 220.486 31.3646 220.486 30.5749C221.196 30.3492 221.906 30.2364 222.615 30.1236C222.615 24.5953 222.615 19.1799 222.615 13.5388C221.787 13.426 220.959 13.3132 220.131 13.2003C220.131 12.7491 220.131 12.4106 220.131 11.9593C220.131 11.508 220.131 11.1696 220.131 10.7183C222.497 10.3798 224.863 10.1542 227.228 9.81569C227.465 10.4926 227.583 11.1696 227.702 11.7337C228.648 11.2824 229.712 10.8311 230.659 10.4926C231.723 10.1542 232.788 10.0413 233.852 9.81569C234.799 9.59005 235.508 9.92852 236.1 10.7183C235.863 12.6362 235.627 14.667 235.39 16.8106C234.089 16.8106 232.906 16.6978 231.487 16.6978C231.368 15.5696 231.25 14.4414 231.014 13.3132C230.186 13.6516 229.358 13.8773 228.53 14.1029C228.53 19.4055 228.53 24.7081 228.53 30.0108C229.239 30.1236 230.067 30.3492 230.895 30.5749C230.895 31.3646 230.777 32.1544 230.777 32.9441C227.228 32.9441 223.798 32.9441 220.368 32.9441Z" fill="white"/>
<path fill-rule="evenodd" clip-rule="evenodd" d="M129.051 13.3123C128.104 13.6508 127.395 13.8764 126.567 14.2149C126.567 19.6303 126.567 24.8201 126.567 30.1228C127.395 30.3484 128.223 30.4612 129.051 30.6869C128.932 31.4766 128.932 32.2664 128.814 32.9433C125.384 32.9433 121.953 32.9433 118.523 32.9433C118.523 32.1536 118.523 31.4766 118.523 30.6869C119.233 30.4612 119.943 30.3484 120.771 30.1228C120.771 24.5945 120.771 19.0662 120.771 13.5379C119.943 13.4251 119.115 13.3123 118.286 13.3123C118.286 12.5225 118.286 11.7328 118.286 10.8302C120.534 10.4917 122.9 10.2661 125.265 9.92763C125.502 10.6046 125.62 11.2815 125.857 11.9584C126.567 11.62 127.158 11.2815 127.868 10.943C129.169 10.3789 130.47 10.1533 131.889 9.92763C132.836 9.81481 133.545 10.0405 134.137 10.8302C133.9 12.7482 133.664 14.779 133.427 16.9226C132.126 16.9226 130.825 16.8098 129.524 16.8098C129.405 15.5687 129.287 14.5533 129.051 13.3123Z" fill="white"/>
<path fill-rule="evenodd" clip-rule="evenodd" d="M53.8204 5.41455C53.8204 6.99409 53.8204 8.4608 53.8204 10.0403C55.2398 10.0403 56.6593 10.0403 58.0787 10.0403C57.9604 11.0557 57.8421 11.9583 57.8421 12.9738C56.541 13.0866 55.2398 13.1994 53.9387 13.425C53.9387 13.6507 53.8204 13.8763 53.8204 13.9892C53.8204 18.5021 53.8204 23.0151 53.8204 27.4152C53.8204 27.7537 53.8204 27.9793 53.8204 28.3178C53.9387 29.2204 54.6484 29.8973 55.5947 29.8973C56.4227 29.8973 57.1324 29.8973 58.0787 29.8973C58.197 30.6871 58.197 31.4769 58.3153 32.2666C57.7239 32.7179 57.0141 32.7179 56.4227 32.9436C55.0033 33.1692 53.4655 33.2821 52.0461 33.0564C49.7987 32.7179 48.3792 31.2512 48.0244 29.1076C48.0244 28.6563 48.0244 28.205 48.0244 27.7537C48.0244 23.2407 48.0244 18.7278 48.0244 14.2148C48.0244 13.9892 48.0244 13.6507 48.0244 13.425C47.0781 13.3122 46.2501 13.1994 45.3038 12.9738C45.3038 12.0712 45.4221 11.1686 45.4221 10.1532C46.4866 10.1532 47.4329 10.0403 48.4975 10.0403C48.9707 8.57362 49.4438 7.10691 49.9169 5.6402C51.0998 5.52737 52.401 5.52737 53.8204 5.41455Z" fill="white"/>
</svg>
