<svg width="128" height="34" viewBox="0 0 128 34" fill="none" xmlns="http://www.w3.org/2000/svg">
<path fill-rule="evenodd" clip-rule="evenodd" d="M77.4153 10.0129C78.4526 9.97828 78.9366 10.0129 79.4899 10.1166C83.0166 10.8427 85.6444 13.7471 86.5433 17.9307C86.7854 19.0372 86.8891 21.7687 86.7162 23.1171C86.5779 24.2581 86.1976 25.8486 85.7827 26.8513C84.2613 30.6892 81.0112 33.1787 76.6892 33.8356C75.6865 33.9739 72.5747 34.0085 71.2262 33.8702C70.3273 33.7665 67.5266 33.2824 66.5585 33.075L65.9016 32.9367L65.9707 29.3408C66.109 20.6968 66.109 15.9599 66.0398 11.3613C65.9707 6.86645 65.9361 6.38239 65.7632 5.72545C65.5212 4.89562 65.21 4.30783 64.8297 4.03123C64.6914 3.9275 64.2765 3.75462 63.9307 3.68547C63.2151 3.53367 62.9755 3.49068 62.8878 3.35178C62.8357 3.2692 62.8372 3.15274 62.8243 2.95937C62.8243 2.68277 62.8589 2.47531 62.928 2.40616C63.0317 2.33701 72.4018 0.539062 72.713 0.539062C72.8167 0.539062 72.8167 1.71464 72.7821 5.86375C72.7476 8.8027 72.7476 11.1884 72.7821 11.1884C72.8035 11.1884 72.9437 11.1224 73.1375 11.0311C73.2573 10.9747 73.3975 10.9087 73.5428 10.8427C74.753 10.2895 75.8248 10.082 77.4153 10.0129ZM72.713 16.4094C72.6784 20.6968 72.8167 31.4845 72.9204 31.7957C73.0242 32.0031 73.0933 32.0377 73.4391 32.1068C74.3381 32.176 74.4764 32.176 74.9604 32.0723C75.6174 31.934 76.136 31.6574 76.6892 31.1733C78.1068 29.9286 79.1441 27.3354 79.559 24.1198C79.7319 22.8059 79.6973 19.8324 79.5244 18.726C79.0058 15.787 77.9339 13.8508 76.3435 13.0555L76.334 13.0511C75.6858 12.744 75.6135 12.7098 74.8221 12.7098C74.2689 12.7098 73.7848 12.7789 73.3699 12.8827L72.7476 13.0555L72.713 16.4094ZM12.1708 3.6158H15.0752C18.3944 3.6158 18.9477 3.68495 20.1232 4.27274C21.8174 5.10256 23.0622 6.7622 24.1686 9.66658L24.1686 9.66659C24.4096 10.2968 24.5214 10.5892 24.7224 10.6769C24.8964 10.7527 25.1371 10.6753 25.5862 10.531L26.2432 10.3235L26.174 6.07069C26.1394 3.71953 26.1049 1.64497 26.0703 1.47209L26.0011 1.09176H13.3118H13.3117C6.32744 1.09176 0.484133 1.09176 0.311254 1.12634L7.14379e-05 1.16091L0.0346473 1.92158L0.0692232 2.68225L1.03735 2.78598C2.28208 2.92428 3.00817 3.27004 3.45766 3.92698C4.46036 5.37917 4.63324 7.38457 4.63324 16.8238C4.63324 26.8854 4.42578 29.3403 3.45766 30.585C2.9736 31.2419 2.55869 31.4494 1.41768 31.6568L1.27258 31.6879C0.491119 31.8548 0.189269 31.9193 0.0728461 32.1019C-0.000426822 32.2169 -0.000251399 32.3787 3.44276e-05 32.6423L7.14379e-05 32.6941C7.14379e-05 33.109 0.0346473 33.3511 0.103799 33.3856C0.276678 33.4548 16.4928 33.4548 16.6656 33.3856C16.8731 33.3165 16.8731 32.1063 16.6656 32.0026C16.5619 31.968 16.0433 31.8643 15.4555 31.7606C14.8677 31.6568 14.2453 31.5185 14.0379 31.4494C12.966 30.9999 12.3782 29.7206 12.1708 27.404C11.9979 25.7444 11.8942 22.6671 11.8942 20.4197V18.3451L12.8969 18.3797C15.006 18.4489 16.0779 18.5526 16.5273 18.76C17.4955 19.1749 18.2561 20.3505 18.6365 22.0102L18.8439 22.8746L19.6046 22.9091L20.3653 22.9437V11.8794L19.6046 11.914L18.8439 11.9486L18.6365 12.813C18.2216 14.5072 17.53 15.5445 16.4928 16.0285C16.0779 16.236 15.7667 16.2706 14.7985 16.3397C14.1416 16.3743 13.2081 16.4089 12.7586 16.4089H11.8942V13.6774C11.8942 10.9459 12.0325 5.10256 12.1362 4.20359L12.1708 3.6158ZM59.4361 10.1164C60.3005 9.7015 60.8882 9.59777 61.9601 9.59777C63.2048 9.59777 64.4841 10.0127 64.4841 10.3584C64.4841 10.635 62.2713 16.5475 62.133 16.5821C62.0638 16.5821 61.6489 16.4438 61.1649 16.2018C60.1967 15.7523 59.2632 15.5102 58.3642 15.5102C57.2232 15.5102 55.9785 15.9252 55.4944 16.4438C55.4731 16.4686 55.454 16.4909 55.4368 16.5145C55.2862 16.7215 55.2799 17.0334 55.2178 20.0741V20.0743C55.1487 23.3936 55.287 27.5081 55.4598 29.1332C55.6327 30.5508 56.013 31.2423 56.7737 31.5535C57.0503 31.6918 58.6754 31.8992 59.194 31.8992C59.2286 31.8992 59.2286 32.245 59.2286 32.6253L59.194 33.3514L52.3826 33.386C48.6484 33.386 45.5366 33.3514 45.4674 33.3168C45.3637 33.2477 45.3291 33.0402 45.3637 32.5907L45.3983 31.9684L45.7094 31.8992C45.7464 31.8918 45.7929 31.8829 45.8458 31.8726L45.8468 31.8724L45.8469 31.8724C46.0414 31.8349 46.3222 31.7806 46.5393 31.7263C47.4382 31.5535 47.9569 31.0694 48.2335 30.1358C48.4755 29.3752 48.5792 26.8857 48.5792 21.9414C48.5792 15.8906 48.4755 14.4384 47.8531 13.6431C47.5074 13.1937 47.2653 13.0554 46.4701 12.9171C46.0552 12.8479 45.6403 12.7788 45.5366 12.7442C45.3637 12.7096 45.3291 12.6404 45.3291 12.191C45.3291 11.7415 45.3637 11.6723 45.5366 11.6032C45.8132 11.4994 54.9412 9.66692 55.2178 9.66692H55.4598L55.4253 11.0154C55.4117 11.313 55.3982 11.6583 55.3847 12.0036C55.3636 12.5408 55.3426 13.0779 55.3215 13.4357L55.287 14.5075L55.6327 13.9198C56.67 12.0181 57.8456 10.8425 59.4361 10.1164ZM40.2809 11.1194C43.1507 12.8136 44.8795 15.7871 45.3636 19.8671C45.5019 21.1118 45.3981 23.7396 45.1561 24.846C44.2226 29.2717 41.4565 32.3835 37.4111 33.5591C36.9962 33.6629 36.3047 33.8012 35.9244 33.8703C35.0945 33.974 32.5705 33.974 31.7752 33.8703C29.5278 33.5591 27.5916 32.6256 26.1048 31.1388C24.8601 29.9287 24.0648 28.5802 23.477 26.7131C22.5435 23.8433 22.5435 20.1091 23.477 17.2739C24.376 14.5078 26.3814 12.1221 28.8709 10.8773C32.2939 9.14855 37.0999 9.25228 40.2809 11.1194ZM30.1156 25.4338C30.8071 30.4473 32.6051 32.8676 35.1291 32.1069C35.786 31.8995 36.5813 31.1388 37.0308 30.3436C37.8952 28.6493 38.3101 26.1599 38.3101 22.1837C38.3101 17.2047 37.5494 14.0237 35.8898 12.3641C35.1983 11.6726 34.7142 11.4651 33.8152 11.4651C31.8444 11.4651 30.5997 13.5051 30.1156 17.5505C29.9081 19.383 29.8736 23.8087 30.1156 25.4338ZM122.157 19.2789C125.13 20.5236 126.582 21.5609 127.343 23.1168C127.827 24.1195 127.965 24.9148 128 26.5053C127.965 27.6808 127.931 27.8883 127.654 28.6836C126.79 31.2076 124.854 32.8672 121.846 33.6625C120.854 33.9359 120.674 33.9391 118.732 33.9725L118.665 33.9737C117.489 34.0082 116.383 34.0082 116.175 33.9737C114.55 33.8008 111.922 33.2476 111.058 32.8672L110.643 32.6944L110.574 30.5852C110.539 29.4442 110.505 27.8883 110.505 27.1622L110.47 25.8138L110.712 25.6754C110.85 25.6063 111.127 25.5371 111.334 25.5371L111.715 25.5026L112.026 26.2978C113.271 29.3405 114.723 31.0001 116.625 31.4842C117.351 31.6571 118.699 31.6571 119.252 31.4842C120.739 30.9656 121.569 29.8246 121.569 28.2686C121.603 26.4361 120.566 25.5371 116.763 24.0504C114.377 23.1168 113.547 22.6328 112.579 21.6301C111.507 20.5236 111.023 19.3135 110.92 17.5847C110.781 15.5101 111.438 13.7468 112.89 12.26C114.343 10.7387 116.244 9.94342 118.803 9.70138C121.05 9.49393 124.508 9.97799 126.34 10.7387L126.686 10.877L126.755 12.7441C126.79 13.7813 126.824 15.1644 126.824 15.8213V17.0315L126.375 17.2044C125.683 17.481 125.614 17.4464 125.234 16.4091C124.128 13.5047 122.848 12.1217 120.877 11.7068C119.667 11.4302 118.63 11.7068 117.904 12.502C117.316 13.1244 117.109 13.6776 117.039 14.5766C116.97 15.5447 117.143 16.0979 117.766 16.7549C118.492 17.5501 119.736 18.2762 122.157 19.2789ZM104.142 10.532C101.618 9.2527 97.7113 9.35643 94.8761 10.7395C92.1792 12.0533 90.3121 14.2662 89.2748 17.378C88.7216 19.0031 88.5487 20.2824 88.6179 22.3915C88.6524 23.7054 88.7216 24.3969 88.8599 25.0193C89.9317 29.7908 93.1819 33.0063 97.7459 33.8361C98.7486 34.009 101.031 34.009 102.033 33.8361C103.485 33.5941 105.145 32.9372 106.217 32.2111C107.496 31.3467 108.81 30.0328 108.81 29.6179C108.81 29.3759 108.361 28.7881 108.188 28.7881C108.119 28.7881 107.738 28.9609 107.393 29.203C106.148 30.0328 104.938 30.344 103.243 30.344C100.927 30.344 99.4747 29.7562 97.9879 28.2694C97.331 27.6125 97.0544 27.2667 96.7432 26.6098C96.0171 25.1922 95.6022 23.5325 95.533 21.6654L95.4985 20.8702L102.31 20.8356L109.121 20.801L109.156 20.3516C109.156 20.1095 109.156 19.4526 109.087 18.8648C108.672 14.8194 106.978 11.9842 104.142 10.532ZM97.2964 18.9339L95.5676 18.9685V18.5882C95.5676 18.3807 95.6368 17.8275 95.7059 17.378C96.2937 13.6784 97.6768 11.4656 99.4055 11.4656C100.996 11.4656 101.964 13.6438 102.172 17.6546L102.241 18.7956L100.616 18.8302C100.159 18.8485 99.5202 18.8667 98.881 18.885C98.3091 18.9013 97.7372 18.9176 97.2964 18.9339Z" fill="white"/>
</svg>
