<svg width="14" height="13" viewBox="0 0 14 13" fill="none" xmlns="http://www.w3.org/2000/svg">
<path d="M3.99973 4.73216H1V1.73242" stroke="black" stroke-linejoin="round"/>
<path d="M10.8986 2.61077C10.3879 2.10009 9.78168 1.695 9.11444 1.41863C8.44721 1.14225 7.73208 1 7.00987 1C6.28767 1 5.57253 1.14225 4.9053 1.41863C4.23807 1.695 3.63181 2.10009 3.12113 2.61077L1 4.7319" stroke="black" stroke-linejoin="round"/>
<path d="M10.0191 8.26758H13.0189V11.2673" stroke="black" stroke-linejoin="round"/>
<path d="M3.12105 10.3887C3.63172 10.8994 4.23799 11.3045 4.90522 11.5809C5.57245 11.8572 6.28758 11.9995 7.00979 11.9995C7.732 11.9995 8.44713 11.8572 9.11436 11.5809C9.78159 11.3045 10.3879 10.8994 10.8985 10.3887L13.0197 8.26758" stroke="black" stroke-linejoin="round"/>
</svg>
