<svg width="189" height="94" viewBox="0 0 189 94" fill="none" xmlns="http://www.w3.org/2000/svg">
<line x1="1" y1="93.5" x2="186.197" y2="93.5" stroke="white"/>
<path d="M1 83.1768C33.4696 82.3751 86.7838 84.3782 100.012 47.4992C109.817 20.1651 120.846 1.00009 149.719 1C181.787 0.999904 187.8 21.8443 187.8 21.8443" stroke="white"/>
<line x1="7.11203" y1="82.7759" x2="7.11203" y2="94" stroke="white"/>
<line x1="29.5601" y1="82.7759" x2="29.5601" y2="94" stroke="white"/>
<line x1="52.0082" y1="79.5691" x2="52.0082" y2="94" stroke="white"/>
<line x1="74.4563" y1="73.957" x2="74.4563" y2="94" stroke="white"/>
<line x1="96.9044" y1="54.7158" x2="96.9044" y2="94" stroke="white"/>
<line x1="119.352" y1="12.2249" x2="119.352" y2="94" stroke="white"/>
<line x1="141.801" y1="1.00079" x2="141.801" y2="94" stroke="white"/>
<line x1="164.249" y1="2.60425" x2="164.249" y2="94" stroke="white"/>
<line x1="18.3361" y1="82.7759" x2="18.3361" y2="94" stroke="white"/>
<line x1="40.7841" y1="81.1725" x2="40.7841" y2="94" stroke="white"/>
<line x1="63.2322" y1="77.9656" x2="63.2322" y2="94" stroke="white"/>
<line x1="85.6803" y1="66.7416" x2="85.6803" y2="94" stroke="white"/>
<line x1="108.128" y1="29.0609" x2="108.128" y2="94" stroke="white"/>
<line x1="130.576" y1="5.0094" x2="130.576" y2="94" stroke="white"/>
<line x1="153.025" y1="1.00079" x2="153.025" y2="94" stroke="white"/>
<line x1="175.473" y1="7.41455" x2="175.473" y2="94" stroke="white"/>
<line x1="12.724" y1="82.7759" x2="12.724" y2="94" stroke="white"/>
<line x1="35.1721" y1="81.9742" x2="35.1721" y2="94" stroke="white"/>
<line x1="57.6202" y1="78.7674" x2="57.6202" y2="94" stroke="white"/>
<line x1="80.0683" y1="70.7502" x2="80.0683" y2="94" stroke="white"/>
<line x1="102.516" y1="41.0867" x2="102.516" y2="94" stroke="white"/>
<line x1="124.964" y1="8.21625" x2="124.964" y2="94" stroke="white"/>
<line x1="147.413" y1="1.00079" x2="147.413" y2="94" stroke="white"/>
<line x1="169.861" y1="5.0094" x2="169.861" y2="94" stroke="white"/>
<line x1="23.9481" y1="82.7759" x2="23.9481" y2="94" stroke="white"/>
<line x1="46.3962" y1="81.1725" x2="46.3962" y2="94" stroke="white"/>
<line x1="68.8443" y1="75.5605" x2="68.8443" y2="94" stroke="white"/>
<line x1="91.2924" y1="61.9313" x2="91.2924" y2="94" stroke="white"/>
<line x1="113.74" y1="19.4403" x2="113.74" y2="94" stroke="white"/>
<line x1="136.189" y1="2.60425" x2="136.189" y2="94" stroke="white"/>
<line x1="158.637" y1="1.00079" x2="158.637" y2="94" stroke="white"/>
<line x1="181.085" y1="12.2249" x2="181.085" y2="94" stroke="white"/>
</svg>
