<svg xmlns="http://www.w3.org/2000/svg" xmlns:xlink="http://www.w3.org/1999/xlink" width="1428" height="300" viewBox="0 0 1428 300">
    <defs>
        <path id="a" d="M0 0h1428v300H0z"/>
    </defs>
    <g fill="none" fill-rule="evenodd">
        <mask id="b" fill="#fff">
            <use xlink:href="#a"/>
        </mask>
        <use fill="#5E5554" xlink:href="#a"/>
        <g fill="#574E4D" mask="url(#b)">
            <path d="M1.956 205.015a5.033 5.033 0 1 0 0 10.065 5.033 5.033 0 0 0 0-10.065M32.128 205.095a4.953 4.953 0 1 0 0 9.906 4.953 4.953 0 0 0 0-9.906M62.3 205.095a4.952 4.952 0 1 0 0 9.905 4.952 4.952 0 0 0 0-9.905M92.474 205.496a4.552 4.552 0 1 0 0 9.104 4.552 4.552 0 0 0 0-9.104M1.956 184.648a4.773 4.773 0 1 0 0-9.547 4.773 4.773 0 0 0 0 9.547M32.476 174.888a4.987 4.987 0 1 0 0 9.973 4.987 4.987 0 0 0 0-9.973M62.3 184.687a4.812 4.812 0 1 0 0-9.624 4.812 4.812 0 0 0 0 9.624M92.474 175.062a4.813 4.813 0 1 0 0 9.626 4.813 4.813 0 0 0 0-9.626M122.646 205.496a4.552 4.552 0 1 0 .002 9.104 4.552 4.552 0 0 0-.002-9.104M152.82 205.335a4.712 4.712 0 1 0-.001 9.424 4.712 4.712 0 0 0 0-9.424M182.992 205.214a4.833 4.833 0 1 0 0 9.666 4.833 4.833 0 0 0 0-9.666M213.165 205.119a4.929 4.929 0 1 0 0 9.857 4.929 4.929 0 0 0 0-9.857M122.646 174.922a4.952 4.952 0 1 0 0 9.905 4.952 4.952 0 0 0 0-9.905M152.82 175.163a4.712 4.712 0 1 0-.001 9.424 4.712 4.712 0 0 0 0-9.424M182.992 174.922a4.953 4.953 0 1 0 0 9.906 4.953 4.953 0 0 0 0-9.906M213.165 174.946a4.929 4.929 0 1 0 0 9.857 4.929 4.929 0 0 0 0-9.857M243.337 205.214a4.833 4.833 0 1 0 0 9.666 4.833 4.833 0 0 0 0-9.666M273.51 205.453a4.595 4.595 0 1 0 0 9.19 4.595 4.595 0 0 0 0-9.19M303.683 205.653a4.395 4.395 0 1 0 0 8.79 4.395 4.395 0 0 0 0-8.79M333.856 205.642a4.406 4.406 0 1 0 0 8.811 4.406 4.406 0 0 0 0-8.811M243.337 184.35a4.476 4.476 0 1 0 0-8.95 4.476 4.476 0 0 0 0 8.95M273.51 174.946a4.929 4.929 0 1 0 0 9.858 4.929 4.929 0 0 0 0-9.858M303.683 174.907a4.969 4.969 0 1 0 0 9.937 4.969 4.969 0 0 0 0-9.937M333.856 175.066a4.809 4.809 0 1 0 0 9.617 4.809 4.809 0 0 0 0-9.617M1.956 154.318a4.616 4.616 0 1 0 0-9.233 4.616 4.616 0 0 0 0 9.233M32.128 144.75a4.953 4.953 0 1 0 0 9.905 4.953 4.953 0 0 0 0-9.906M62.3 144.75a4.952 4.952 0 1 0 0 9.904 4.952 4.952 0 0 0 0-9.905M92.474 144.89a4.813 4.813 0 1 0 0 9.625 4.813 4.813 0 0 0 0-9.625M1.956 114.338a5.191 5.191 0 1 0 0 10.382 5.191 5.191 0 0 0 0-10.382M32.128 114.247a5.283 5.283 0 1 0 0 10.565 5.283 5.283 0 0 0 0-10.565M62.3 114.312a5.216 5.216 0 1 0 0 10.433 5.216 5.216 0 0 0 0-10.433M92.474 114.377a5.152 5.152 0 1 0 0 10.304 5.152 5.152 0 0 0 0-10.304M1.956 83.57a5.787 5.787 0 1 0 0 11.573 5.787 5.787 0 0 0 0-11.573M32.128 83.57a5.787 5.787 0 1 0 0 11.573 5.787 5.787 0 0 0 0-11.573M62.3 83.57a5.787 5.787 0 1 0 0 11.573 5.787 5.787 0 0 0 0-11.573M92.474 83.57a5.787 5.787 0 1 0 0 11.573 5.787 5.787 0 0 0 0-11.573M1.956 53.397a5.787 5.787 0 1 0 0 11.573 5.787 5.787 0 0 0 0-11.573M32.128 53.397a5.787 5.787 0 1 0 0 11.573 5.787 5.787 0 0 0 0-11.573M62.3 53.397a5.787 5.787 0 1 0 0 11.573 5.787 5.787 0 0 0 0-11.573M92.474 53.397a5.787 5.787 0 1 0 0 11.573 5.787 5.787 0 0 0 0-11.573M122.646 144.75a4.952 4.952 0 1 0 0 9.904 4.952 4.952 0 0 0 0-9.905M152.82 144.99a4.712 4.712 0 1 0-.001 9.424 4.712 4.712 0 0 0 0-9.424M182.992 154.535a4.833 4.833 0 1 0 0-9.666 4.833 4.833 0 0 0 0 9.666M213.165 154.248a4.546 4.546 0 1 0 0-9.093 4.546 4.546 0 0 0 0 9.093M122.646 114.06a5.469 5.469 0 1 0 0 10.938 5.469 5.469 0 0 0 0-10.937M152.82 114.107a5.422 5.422 0 1 0 0 10.844 5.422 5.422 0 0 0 0-10.844M182.992 114.237a5.292 5.292 0 1 0 0 10.585 5.292 5.292 0 0 0 0-10.585M213.165 114.182a5.347 5.347 0 1 0 0 10.695 5.347 5.347 0 0 0 0-10.695M122.646 83.57a5.787 5.787 0 1 0 0 11.573 5.787 5.787 0 0 0 0-11.573M152.82 83.57a5.787 5.787 0 1 0-.001 11.573 5.787 5.787 0 0 0 0-11.573M182.992 83.57a5.787 5.787 0 1 0 0 11.573 5.787 5.787 0 0 0 0-11.573M213.165 83.57a5.787 5.787 0 1 0 0 11.575 5.787 5.787 0 0 0 0-11.575M122.646 53.397a5.787 5.787 0 1 0 0 11.573 5.787 5.787 0 0 0 0-11.573M152.82 53.397a5.787 5.787 0 1 0-.001 11.573 5.787 5.787 0 0 0 0-11.573M182.992 53.397a5.787 5.787 0 1 0 0 11.573 5.787 5.787 0 0 0 0-11.573M213.165 53.397a5.787 5.787 0 1 0 0 11.575 5.787 5.787 0 0 0 0-11.575M243.337 154.095a4.393 4.393 0 1 0 0-8.787 4.393 4.393 0 0 0 0 8.787M273.51 145.107a4.595 4.595 0 1 0 0 9.19 4.595 4.595 0 0 0 0-9.19M303.683 154.636a4.933 4.933 0 1 0 0-9.867 4.933 4.933 0 0 0 0 9.867M333.856 144.893a4.809 4.809 0 1 0 0 9.617 4.809 4.809 0 0 0 0-9.617M243.337 114.182a5.347 5.347 0 1 0 0 10.693 5.347 5.347 0 0 0 0-10.693M273.51 114.644a4.885 4.885 0 1 0 0 9.77 4.885 4.885 0 0 0 0-9.77M303.683 114.644a4.885 4.885 0 1 0 0 9.77 4.885 4.885 0 0 0 0-9.77M333.856 114.72a4.809 4.809 0 1 0 0 9.618 4.809 4.809 0 0 0 0-9.618M243.337 83.57a5.787 5.787 0 1 0 0 11.573 5.787 5.787 0 0 0 0-11.573M273.51 84.384a4.973 4.973 0 1 0 0 9.945 4.973 4.973 0 0 0 0-9.945M303.683 94.29a4.933 4.933 0 1 0 0-9.866 4.933 4.933 0 0 0 0 9.866M333.856 84.384a4.974 4.974 0 1 0 0 9.947 4.974 4.974 0 0 0 0-9.947M243.337 53.397a5.787 5.787 0 1 0 0 11.573 5.787 5.787 0 0 0 0-11.573M273.51 54.563a4.62 4.62 0 1 0 0 9.24 4.62 4.62 0 0 0 0-9.24M303.683 64.07a4.885 4.885 0 1 0 0-9.77 4.885 4.885 0 0 0 0 9.77M333.856 54.211a4.973 4.973 0 1 0 0 9.946 4.973 4.973 0 0 0 0-9.946M1.956 22.453a6.558 6.558 0 1 0 0 13.116 6.558 6.558 0 0 0 0-13.116M32.128 22.453a6.558 6.558 0 1 0 0 13.116 6.558 6.558 0 0 0 0-13.116M62.3 22.084a6.927 6.927 0 1 0 0 13.854 6.927 6.927 0 0 0 0-13.854M92.474 22.453a6.558 6.558 0 1 0 0 13.116 6.558 6.558 0 0 0 0-13.116M1.956-7.944a6.783 6.783 0 1 0 0 13.565 6.783 6.783 0 0 0 0-13.565M32.128-7.74a6.579 6.579 0 1 0 0 13.157 6.579 6.579 0 0 0 0-13.157M62.3 5.417a6.579 6.579 0 1 0 .001-13.158 6.579 6.579 0 0 0 0 13.158M92.474-7.944a6.783 6.783 0 1 0 0 13.565 6.783 6.783 0 0 0 0-13.565M122.646 22.287a6.725 6.725 0 1 0 .001 13.45 6.725 6.725 0 0 0 0-13.45M152.82 22.453a6.558 6.558 0 1 0 0 13.116 6.558 6.558 0 0 0 0-13.116M182.992 23.224a5.787 5.787 0 1 0 0 11.573 5.787 5.787 0 0 0 0-11.573M213.165 23.224a5.787 5.787 0 1 0 0 11.575 5.787 5.787 0 0 0 0-11.575M122.646-7.944a6.783 6.783 0 1 0 0 13.565 6.783 6.783 0 0 0 0-13.565M152.82-7.881a6.72 6.72 0 1 0-.002 13.438 6.72 6.72 0 0 0 .001-13.438M182.992-6.949a5.787 5.787 0 1 0 0 11.574 5.787 5.787 0 0 0 0-11.574M213.165-6.949a5.787 5.787 0 1 0 0 11.575 5.787 5.787 0 0 0 0-11.575M243.337 23.224a5.787 5.787 0 1 0 0 11.573 5.787 5.787 0 0 0 0-11.573M273.51 24.138a4.873 4.873 0 1 0 0 9.746 4.873 4.873 0 0 0 0-9.746M303.683 33.884a4.873 4.873 0 1 0 0-9.746 4.873 4.873 0 0 0 0 9.746M333.856 33.82a4.809 4.809 0 1 0 0-9.617 4.809 4.809 0 0 0 0 9.617M243.337-6.949a5.787 5.787 0 1 0 0 11.574 5.787 5.787 0 0 0 0-11.574M273.51-6.034a4.873 4.873 0 1 0 0 9.745 4.873 4.873 0 0 0 0-9.745M303.683-6.483a5.321 5.321 0 1 0 0 10.642 5.321 5.321 0 0 0 0-10.642M333.856 3.647a4.809 4.809 0 1 0 0-9.617 4.809 4.809 0 0 0 0 9.617M1.956 236.206a4.014 4.014 0 1 0-.001 8.028 4.014 4.014 0 0 0 0-8.028M32.128 236.206a4.014 4.014 0 1 0 0 8.028 4.014 4.014 0 0 0 0-8.028M62.3 236.206a4.014 4.014 0 1 0 .001 8.028 4.014 4.014 0 0 0 0-8.028M92.474 236.206a4.014 4.014 0 1 0 0 8.028 4.014 4.014 0 0 0 0-8.028M122.646 236.206a4.015 4.015 0 1 0 0 8.029 4.015 4.015 0 0 0 0-8.029M152.82 236.206a4.014 4.014 0 1 0-.001 8.028 4.014 4.014 0 0 0 0-8.028M182.992 236.206a4.014 4.014 0 1 0 0 8.028 4.014 4.014 0 0 0 0-8.028M213.165 236.206a4.014 4.014 0 1 0 0 8.028 4.014 4.014 0 0 0 0-8.028M243.337 236.206a4.014 4.014 0 1 0 0 8.028 4.014 4.014 0 0 0 0-8.028M273.51 236.206a4.014 4.014 0 1 0 0 8.028 4.014 4.014 0 0 0 0-8.028M303.683 236.206a4.015 4.015 0 1 0 0 8.029 4.015 4.015 0 0 0 0-8.029M333.856 236.206a4.014 4.014 0 1 0 0 8.028 4.014 4.014 0 0 0 0-8.028M364.028 236.206a4.014 4.014 0 1 0 0 8.028 4.014 4.014 0 0 0 0-8.028M394.2 236.206a4.014 4.014 0 1 0 .001 8.028 4.014 4.014 0 0 0 0-8.028M424.374 236.206a4.014 4.014 0 1 0 0 8.028 4.014 4.014 0 0 0 0-8.028M1.956 266.379a4.014 4.014 0 1 0-.001 8.028 4.014 4.014 0 0 0 0-8.028M32.128 266.379a4.014 4.014 0 1 0 0 8.028 4.014 4.014 0 0 0 0-8.028M62.3 266.379a4.014 4.014 0 1 0 .001 8.028 4.014 4.014 0 0 0 0-8.028M92.474 266.379a4.014 4.014 0 1 0 0 8.028 4.014 4.014 0 0 0 0-8.028M122.646 266.379a4.015 4.015 0 1 0 0 8.029 4.015 4.015 0 0 0 0-8.03M152.82 266.379a4.014 4.014 0 1 0-.001 8.028 4.014 4.014 0 0 0 0-8.028M182.992 266.379a4.014 4.014 0 1 0 0 8.028 4.014 4.014 0 0 0 0-8.028M213.165 266.379a4.014 4.014 0 1 0 0 8.028 4.014 4.014 0 0 0 0-8.028M243.337 266.379a4.014 4.014 0 1 0 0 8.028 4.014 4.014 0 0 0 0-8.028M273.51 266.379a4.014 4.014 0 1 0 0 8.028 4.014 4.014 0 0 0 0-8.028M303.683 266.379a4.015 4.015 0 1 0 0 8.029 4.015 4.015 0 0 0 0-8.03M333.856 266.379a4.014 4.014 0 1 0 0 8.028 4.014 4.014 0 0 0 0-8.028M364.028 266.379a4.014 4.014 0 1 0 0 8.028 4.014 4.014 0 0 0 0-8.028M394.2 266.379a4.014 4.014 0 1 0 .001 8.028 4.014 4.014 0 0 0 0-8.028M424.374 266.379a4.014 4.014 0 1 0 0 8.028 4.014 4.014 0 0 0 0-8.028M1.956 296.552a4.014 4.014 0 1 0-.001 8.027 4.014 4.014 0 0 0 0-8.027M852.175 297.965a2.676 2.676 0 1 0 0 5.352 2.676 2.676 0 0 0 0-5.352M852.175 267.83a2.676 2.676 0 1 0 .002 5.353 2.676 2.676 0 0 0-.002-5.353M852.175 237.696a2.676 2.676 0 1 0 0 5.351 2.676 2.676 0 0 0 0-5.351M852.175 207.56a2.676 2.676 0 1 0 0 5.352 2.676 2.676 0 0 0 0-5.351M852.175 177.426a2.676 2.676 0 1 0 0 5.351 2.676 2.676 0 0 0 0-5.351M852.175 147.29a2.676 2.676 0 1 0 0 5.353 2.676 2.676 0 0 0 0-5.352M852.175 117.156a2.676 2.676 0 1 0 .002 5.353 2.676 2.676 0 0 0-.002-5.353M852.175 87.021a2.676 2.676 0 1 0 0 5.352 2.676 2.676 0 0 0 0-5.352M852.175 56.886a2.676 2.676 0 1 0 0 5.352 2.676 2.676 0 0 0 0-5.352M852.175 26.751a2.676 2.676 0 1 0 0 5.352 2.676 2.676 0 0 0 0-5.352M852.175-3.384a2.676 2.676 0 1 0 0 5.352 2.676 2.676 0 0 0 0-5.352M454.546 236.875a3.345 3.345 0 1 0 .001 6.69 3.345 3.345 0 0 0 0-6.69M454.546 267.048a3.345 3.345 0 1 0 .001 6.69 3.345 3.345 0 0 0 0-6.69M454.546 297.22a3.345 3.345 0 1 0 0 6.69 3.345 3.345 0 0 0 0-6.69M484.72 236.875a3.346 3.346 0 1 0 0 6.691 3.346 3.346 0 0 0 0-6.691M484.72 267.048a3.346 3.346 0 1 0 0 6.69 3.346 3.346 0 0 0 0-6.69M484.72 297.22a3.345 3.345 0 1 0 0 6.691 3.345 3.345 0 0 0 0-6.69M514.892 236.875a3.345 3.345 0 1 0 0 6.69 3.345 3.345 0 0 0 0-6.69M514.892 267.048a3.345 3.345 0 1 0 0 6.69 3.345 3.345 0 0 0 0-6.69M514.892 297.22a3.345 3.345 0 1 0 0 6.69 3.345 3.345 0 0 0 0-6.69M454.546 146.357a3.345 3.345 0 1 0 0 6.69 3.345 3.345 0 0 0 0-6.69M454.546 176.53a3.345 3.345 0 1 0 0 6.69 3.345 3.345 0 0 0 0-6.69M454.546 206.702a3.345 3.345 0 1 0 0 6.69 3.345 3.345 0 0 0 0-6.69M484.72 146.357a3.345 3.345 0 1 0 0 6.69 3.345 3.345 0 0 0 0-6.69M484.72 176.53a3.345 3.345 0 1 0 0 6.69 3.345 3.345 0 0 0 0-6.69M484.72 206.702a3.345 3.345 0 1 0 0 6.691 3.345 3.345 0 0 0 0-6.69M514.892 146.357a3.345 3.345 0 1 0 0 6.69 3.345 3.345 0 0 0 0-6.69M514.892 176.53a3.345 3.345 0 1 0 0 6.69 3.345 3.345 0 0 0 0-6.69M514.892 206.702a3.345 3.345 0 1 0 0 6.69 3.345 3.345 0 0 0 0-6.69M454.546 55.839a3.345 3.345 0 1 0 .001 6.69 3.345 3.345 0 0 0 0-6.69M454.546 86.011a3.345 3.345 0 1 0 .001 6.69 3.345 3.345 0 0 0 0-6.69M454.546 116.184a3.345 3.345 0 1 0 0 6.69 3.345 3.345 0 0 0 0-6.69M484.72 55.839a3.346 3.346 0 1 0 0 6.69 3.346 3.346 0 0 0 0-6.69M484.72 86.011a3.346 3.346 0 1 0 0 6.691 3.346 3.346 0 0 0 0-6.69M484.72 116.184a3.345 3.345 0 1 0 0 6.691 3.345 3.345 0 0 0 0-6.69M514.892 55.839a3.345 3.345 0 1 0 0 6.69 3.345 3.345 0 0 0 0-6.69M514.892 86.011a3.345 3.345 0 1 0 0 6.69 3.345 3.345 0 0 0 0-6.69M514.892 116.184a3.345 3.345 0 1 0 0 6.69 3.345 3.345 0 0 0 0-6.69M454.546-4.507a3.345 3.345 0 1 0 0 6.69 3.345 3.345 0 0 0 0-6.69M454.546 25.666a3.345 3.345 0 1 0 0 6.69 3.345 3.345 0 0 0 0-6.69M484.72-4.507a3.345 3.345 0 1 0 0 6.691 3.345 3.345 0 0 0 0-6.69M484.72 25.666a3.345 3.345 0 1 0 0 6.69 3.345 3.345 0 0 0 0-6.69M514.892-4.507a3.345 3.345 0 1 0 0 6.69 3.345 3.345 0 0 0 0-6.69M514.892 25.666a3.345 3.345 0 1 0 0 6.69 3.345 3.345 0 0 0 0-6.69M32.128 296.552a4.014 4.014 0 1 0 0 8.027 4.014 4.014 0 0 0 0-8.027M62.3 296.552a4.014 4.014 0 1 0 .001 8.027 4.014 4.014 0 0 0 0-8.027M92.474 296.552a4.014 4.014 0 1 0 0 8.027 4.014 4.014 0 0 0 0-8.027M122.646 296.552a4.014 4.014 0 1 0 0 8.028 4.014 4.014 0 0 0 0-8.028M152.82 296.552a4.014 4.014 0 1 0-.002 8.027 4.014 4.014 0 0 0 .001-8.027M182.992 296.552a4.014 4.014 0 1 0 0 8.027 4.014 4.014 0 0 0 0-8.027M213.165 296.552a4.014 4.014 0 1 0-.001 8.027 4.014 4.014 0 0 0 0-8.027M243.337 296.552a4.014 4.014 0 1 0 0 8.027 4.014 4.014 0 0 0 0-8.027M273.51 296.552a4.014 4.014 0 1 0 0 8.027 4.014 4.014 0 0 0 0-8.027M303.683 296.552a4.014 4.014 0 1 0 0 8.028 4.014 4.014 0 0 0 0-8.028M333.856 296.552a4.014 4.014 0 1 0-.001 8.027 4.014 4.014 0 0 0 0-8.027M364.028 296.552a4.014 4.014 0 1 0 0 8.027 4.014 4.014 0 0 0 0-8.027M394.2 296.552a4.014 4.014 0 1 0 .001 8.027 4.014 4.014 0 0 0 0-8.027M424.374 296.552a4.014 4.014 0 1 0 0 8.027 4.014 4.014 0 0 0 0-8.027M364.028 145.688a4.014 4.014 0 1 0 0 8.028 4.014 4.014 0 0 0 0-8.028M394.2 145.688a4.014 4.014 0 1 0 .001 8.028 4.014 4.014 0 0 0 0-8.028M424.374 145.688a4.014 4.014 0 1 0 0 8.028 4.014 4.014 0 0 0 0-8.028M364.028 175.86a4.014 4.014 0 1 0 0 8.029 4.014 4.014 0 0 0 0-8.028M394.2 175.86a4.014 4.014 0 1 0 .001 8.028 4.014 4.014 0 0 0 0-8.027M424.374 175.86a4.014 4.014 0 1 0 0 8.028 4.014 4.014 0 0 0 0-8.027M364.028 206.033a4.014 4.014 0 1 0 0 8.028 4.014 4.014 0 0 0 0-8.028M394.2 206.033a4.014 4.014 0 1 0 .001 8.028 4.014 4.014 0 0 0 0-8.028M424.374 206.033a4.014 4.014 0 1 0 0 8.028 4.014 4.014 0 0 0 0-8.028M364.028 55.17a4.014 4.014 0 1 0 0 8.028 4.014 4.014 0 0 0 0-8.028M394.2 55.17a4.014 4.014 0 1 0 .001 8.027 4.014 4.014 0 0 0 0-8.027M424.374 55.17a4.014 4.014 0 1 0 0 8.027 4.014 4.014 0 0 0 0-8.027M364.028 85.342a4.014 4.014 0 1 0 0 8.029 4.014 4.014 0 0 0 0-8.029M394.2 85.342a4.014 4.014 0 1 0 .001 8.028 4.014 4.014 0 0 0 0-8.028M424.374 85.342a4.014 4.014 0 1 0 0 8.028 4.014 4.014 0 0 0 0-8.028M364.028 115.515a4.014 4.014 0 1 0 0 8.028 4.014 4.014 0 0 0 0-8.028M394.2 115.515a4.014 4.014 0 1 0 .001 8.028 4.014 4.014 0 0 0 0-8.028M424.374 115.515a4.014 4.014 0 1 0 0 8.028 4.014 4.014 0 0 0 0-8.028M364.028-5.176a4.014 4.014 0 1 0 0 8.028 4.014 4.014 0 0 0 0-8.028M394.2-5.176a4.014 4.014 0 1 0 .001 8.028 4.014 4.014 0 0 0 0-8.028M424.374-5.176a4.014 4.014 0 1 0 0 8.028 4.014 4.014 0 0 0 0-8.028M364.028 24.997a4.014 4.014 0 1 0 0 8.028 4.014 4.014 0 0 0 0-8.028M394.2 24.997a4.014 4.014 0 1 0 .001 8.028 4.014 4.014 0 0 0 0-8.028M424.374 24.997a4.014 4.014 0 1 0 0 8.028 4.014 4.014 0 0 0 0-8.028M1425.848 94.223a5.032 5.032 0 1 0 0-10.065 5.032 5.032 0 0 0 0 10.065M1395.675 94.143a4.952 4.952 0 1 0 0-9.905 4.952 4.952 0 0 0 0 9.905M1365.503 94.143a4.953 4.953 0 1 0 0-9.905 4.953 4.953 0 0 0 0 9.905M1335.33 93.742a4.552 4.552 0 1 0 0-9.104 4.552 4.552 0 0 0 0 9.104M1425.848 114.59a4.773 4.773 0 1 0 0 9.547 4.773 4.773 0 0 0 0-9.547M1395.328 124.35a4.987 4.987 0 1 0-.001-9.973 4.987 4.987 0 0 0 0 9.973M1365.503 114.55a4.812 4.812 0 1 0 0 9.625 4.812 4.812 0 0 0 0-9.624M1335.33 124.176a4.812 4.812 0 1 0 0-9.625 4.812 4.812 0 0 0 0 9.625M1305.157 93.742a4.551 4.551 0 1 0 0-9.103 4.551 4.551 0 0 0 0 9.103M1274.985 93.903a4.712 4.712 0 1 0 0-9.424 4.712 4.712 0 0 0 0 9.424M1244.811 94.024a4.833 4.833 0 1 0 0-9.666 4.833 4.833 0 0 0 0 9.666M1214.639 94.119a4.928 4.928 0 1 0 0-9.856 4.928 4.928 0 0 0 0 9.856M1305.157 124.316a4.953 4.953 0 1 0 0-9.906 4.953 4.953 0 0 0 0 9.906M1274.985 124.075a4.712 4.712 0 1 0 0-9.424 4.712 4.712 0 0 0 0 9.424M1244.811 124.316a4.953 4.953 0 1 0 0-9.906 4.953 4.953 0 0 0 0 9.906M1214.639 124.292a4.928 4.928 0 1 0 0-9.856 4.928 4.928 0 0 0 0 9.856M1184.466 94.024a4.833 4.833 0 1 0 .001-9.667 4.833 4.833 0 0 0-.001 9.667M1154.293 93.785a4.595 4.595 0 1 0 0-9.19 4.595 4.595 0 0 0 0 9.19M1124.12 93.585a4.394 4.394 0 1 0 0-8.789 4.394 4.394 0 0 0 0 8.79M1093.948 93.596a4.406 4.406 0 1 0 0-8.811 4.406 4.406 0 0 0 0 8.811M1184.466 114.887a4.476 4.476 0 1 0 0 8.952 4.476 4.476 0 0 0 0-8.952M1154.293 124.292a4.928 4.928 0 0 0 4.928-4.929 4.928 4.928 0 1 0-4.928 4.929M1124.12 124.331a4.968 4.968 0 1 0 .001-9.936 4.968 4.968 0 0 0 0 9.936M1093.948 124.172a4.81 4.81 0 1 0 0-9.62 4.81 4.81 0 0 0 0 9.62M1425.848 144.92a4.616 4.616 0 1 0 0 9.232 4.616 4.616 0 0 0 0-9.232M1395.675 154.489a4.952 4.952 0 1 0 0-9.905 4.952 4.952 0 0 0 0 9.905M1365.503 154.489a4.953 4.953 0 1 0 0-9.906 4.953 4.953 0 0 0 0 9.906M1335.33 154.348a4.812 4.812 0 1 0 0-9.624 4.812 4.812 0 0 0 0 9.624M1425.848 184.9a5.19 5.19 0 0 0 0-10.382 5.19 5.19 0 1 0 0 10.382M1395.675 184.991a5.283 5.283 0 1 0 0-10.566 5.283 5.283 0 0 0 0 10.566M1365.503 184.925a5.217 5.217 0 1 0-.001-10.433 5.217 5.217 0 0 0 0 10.433M1335.33 184.861a5.153 5.153 0 1 0 0-10.306 5.153 5.153 0 0 0 0 10.306M1425.848 215.668a5.787 5.787 0 1 0-.001-11.575 5.787 5.787 0 0 0 .001 11.575M1395.675 215.668a5.787 5.787 0 1 0 0-11.573 5.787 5.787 0 0 0 0 11.573M1365.503 215.668a5.787 5.787 0 1 0 0-11.573 5.787 5.787 0 0 0 0 11.573M1335.33 215.668a5.787 5.787 0 1 0 0-11.573 5.787 5.787 0 0 0 0 11.573M1425.848 245.841a5.787 5.787 0 1 0-.001-11.575 5.787 5.787 0 0 0 .001 11.575M1395.675 245.841a5.787 5.787 0 1 0 0-11.573 5.787 5.787 0 0 0 0 11.573M1365.503 245.841a5.787 5.787 0 1 0 0-11.573 5.787 5.787 0 0 0 0 11.573M1335.33 245.841a5.787 5.787 0 1 0 0-11.573 5.787 5.787 0 0 0 0 11.573M1305.157 154.489a4.953 4.953 0 1 0 0-9.907 4.953 4.953 0 0 0 0 9.907M1274.985 154.248a4.712 4.712 0 1 0 0-9.424 4.712 4.712 0 0 0 0 9.424M1244.811 144.702a4.834 4.834 0 1 0 0 9.667 4.834 4.834 0 0 0 0-9.667M1214.639 144.99a4.547 4.547 0 1 0 0 9.093 4.547 4.547 0 0 0 0-9.094M1305.157 185.177a5.469 5.469 0 1 0 0-10.938 5.469 5.469 0 0 0 0 10.938M1274.985 185.13a5.422 5.422 0 1 0 0-10.844 5.422 5.422 0 0 0 0 10.845M1244.811 185a5.292 5.292 0 1 0 .001-10.583 5.292 5.292 0 0 0 0 10.584M1214.639 185.056a5.347 5.347 0 1 0 0-10.694 5.347 5.347 0 0 0 0 10.694M1305.157 215.668a5.787 5.787 0 1 0 0-11.573 5.787 5.787 0 0 0 0 11.573M1274.985 215.668a5.787 5.787 0 1 0-.001-11.575 5.787 5.787 0 0 0 0 11.575M1244.811 204.095a5.787 5.787 0 1 0 0 11.573 5.787 5.787 0 0 0 0-11.573M1214.639 204.095a5.787 5.787 0 1 0 0 11.573 5.787 5.787 0 0 0 0-11.573M1305.157 245.841a5.787 5.787 0 1 0 0-11.573 5.787 5.787 0 0 0 0 11.573M1274.985 245.841a5.787 5.787 0 1 0-.001-11.575 5.787 5.787 0 0 0 0 11.575M1244.811 234.267a5.787 5.787 0 1 0 0 11.574 5.787 5.787 0 0 0 0-11.574M1214.639 234.267a5.787 5.787 0 1 0 0 11.574 5.787 5.787 0 0 0 0-11.574M1184.466 145.143a4.393 4.393 0 1 0 0 8.785 4.393 4.393 0 0 0 0-8.785M1154.293 154.13a4.595 4.595 0 1 0 0-9.19 4.595 4.595 0 0 0 0 9.19M1124.12 144.602a4.933 4.933 0 1 0 0 9.867 4.933 4.933 0 0 0 0-9.867M1093.948 154.345a4.81 4.81 0 1 0 0-9.619 4.81 4.81 0 0 0 0 9.619M1184.466 185.056a5.347 5.347 0 1 0 0-10.695 5.347 5.347 0 0 0 0 10.695M1154.293 184.594a4.885 4.885 0 1 0 0-9.771 4.886 4.886 0 0 0 0 9.771M1124.12 184.594a4.885 4.885 0 1 0 .002-9.77 4.885 4.885 0 0 0-.002 9.77M1093.948 184.517a4.81 4.81 0 1 0 0-9.618 4.81 4.81 0 0 0 0 9.618M1184.466 204.095a5.787 5.787 0 1 0 0 11.573 5.787 5.787 0 0 0 0-11.573M1154.293 204.908a4.974 4.974 0 1 0 .001 9.947 4.974 4.974 0 0 0 0-9.947M1124.12 204.948a4.933 4.933 0 1 0 0 9.866 4.933 4.933 0 0 0 0-9.866M1093.948 204.908a4.974 4.974 0 1 0 0 9.947 4.974 4.974 0 0 0 0-9.947M1184.466 234.267a5.787 5.787 0 1 0 0 11.574 5.787 5.787 0 0 0 0-11.574M1154.293 244.674a4.62 4.62 0 1 0 0-9.24 4.62 4.62 0 0 0 0 9.24M1124.12 235.169a4.885 4.885 0 1 0 0 9.77 4.885 4.885 0 1 0 0-9.77M1093.948 235.081a4.974 4.974 0 1 0 0 9.947 4.974 4.974 0 0 0 0-9.947M1425.848 276.785a6.557 6.557 0 1 0 0-13.115 6.557 6.557 0 0 0 0 13.115M1395.675 276.785a6.558 6.558 0 1 0 0-13.116 6.558 6.558 0 0 0 0 13.116M1365.503 277.154a6.926 6.926 0 1 0 0-13.853 6.926 6.926 0 0 0 0 13.853M1335.33 276.785a6.558 6.558 0 1 0-.001-13.116 6.558 6.558 0 0 0 0 13.116M1425.848 307.182a6.783 6.783 0 1 0 0-13.566 6.783 6.783 0 0 0 0 13.566M1395.675 306.978a6.579 6.579 0 1 0 0-13.158 6.579 6.579 0 0 0 0 13.158M1365.503 293.821a6.578 6.578 0 1 0 0 13.157 6.58 6.58 0 0 0 0-13.157M1335.33 307.182a6.783 6.783 0 1 0 0-13.565 6.783 6.783 0 0 0 0 13.565M1305.157 276.95a6.724 6.724 0 1 0 0-13.448 6.724 6.724 0 0 0 0 13.449M1274.985 276.785a6.557 6.557 0 1 0-.001-13.115 6.557 6.557 0 0 0 0 13.115M1244.811 264.44a5.787 5.787 0 1 0 0 11.573 5.787 5.787 0 0 0 0-11.573M1214.639 264.44a5.787 5.787 0 1 0 0 11.573 5.787 5.787 0 0 0 0-11.573M1305.157 293.617a6.783 6.783 0 1 0 0 13.565 6.783 6.783 0 0 0 0-13.565M1274.985 293.68a6.72 6.72 0 1 0-.001 13.44 6.72 6.72 0 0 0 0-13.44M1244.811 294.613a5.787 5.787 0 1 0 0 11.573 5.787 5.787 0 0 0 0-11.573M1214.639 294.613a5.787 5.787 0 1 0 0 11.573 5.787 5.787 0 0 0 0-11.573M1184.466 264.44a5.787 5.787 0 1 0 0 11.573 5.787 5.787 0 0 0 0-11.573M1154.293 275.1a4.872 4.872 0 1 0 0-9.745 4.872 4.872 0 0 0 0 9.745M1124.12 265.354a4.873 4.873 0 1 0 0 9.745 4.873 4.873 0 0 0 0-9.745M1093.948 265.418a4.81 4.81 0 1 0 0 9.618 4.81 4.81 0 0 0 0-9.618M1184.466 294.613a5.787 5.787 0 1 0 0 11.573 5.787 5.787 0 0 0 0-11.573M1154.293 305.273a4.872 4.872 0 1 0 0-9.745 4.872 4.872 0 0 0 0 9.745M1124.12 295.078a5.321 5.321 0 1 0 0 10.643 5.321 5.321 0 0 0 0-10.643M1093.948 295.59a4.81 4.81 0 1 0 0 9.619 4.81 4.81 0 0 0 0-9.618M1425.848 63.032a4.014 4.014 0 1 0 0-8.028 4.014 4.014 0 0 0 0 8.028M1395.675 63.032a4.014 4.014 0 1 0 0-8.028 4.014 4.014 0 0 0 0 8.028M1365.503 63.032a4.014 4.014 0 1 0 0-8.028 4.014 4.014 0 0 0 0 8.028M1335.33 63.032a4.014 4.014 0 1 0 0-8.028 4.014 4.014 0 0 0 0 8.028M1305.157 63.032a4.014 4.014 0 1 0 0-8.028 4.014 4.014 0 0 0 0 8.028M1274.985 63.032a4.014 4.014 0 1 0 0-8.028 4.014 4.014 0 0 0 0 8.028M1244.811 63.032a4.014 4.014 0 1 0 0-8.028 4.014 4.014 0 0 0 0 8.028M1214.639 63.032a4.014 4.014 0 1 0 0-8.028 4.014 4.014 0 0 0 0 8.028M1184.466 63.032a4.014 4.014 0 1 0 0-8.028 4.014 4.014 0 0 0 0 8.028M1154.293 63.032a4.014 4.014 0 1 0 0-8.028 4.014 4.014 0 0 0 0 8.028M1124.12 63.032a4.014 4.014 0 1 0 .001-8.028 4.014 4.014 0 0 0 0 8.028M1093.948 63.032a4.014 4.014 0 1 0 0-8.028 4.014 4.014 0 0 0 0 8.028M1063.775 55.004a4.014 4.014 0 1 0 0 8.028 4.014 4.014 0 0 0 0-8.028M1033.602 55.004a4.014 4.014 0 1 0 0 8.027 4.014 4.014 0 0 0 0-8.027M1003.43 55.004a4.014 4.014 0 1 0 0 8.027 4.014 4.014 0 0 0 0-8.027M1425.848 32.859a4.014 4.014 0 1 0 0-8.028 4.014 4.014 0 0 0 0 8.028M1395.675 32.859a4.014 4.014 0 1 0 0-8.028 4.014 4.014 0 0 0 0 8.028M1365.503 32.859a4.014 4.014 0 1 0 0-8.028 4.014 4.014 0 0 0 0 8.028M1335.33 32.859a4.014 4.014 0 1 0 0-8.028 4.014 4.014 0 0 0 0 8.028M1305.157 32.859a4.014 4.014 0 1 0 0-8.028 4.014 4.014 0 0 0 0 8.028M1274.985 32.859a4.014 4.014 0 1 0 0-8.028 4.014 4.014 0 0 0 0 8.028M1244.811 32.859a4.014 4.014 0 1 0 0-8.028 4.014 4.014 0 0 0 0 8.028M1214.639 32.859a4.014 4.014 0 1 0 0-8.028 4.014 4.014 0 0 0 0 8.028M1184.466 32.859a4.014 4.014 0 1 0 0-8.028 4.014 4.014 0 0 0 0 8.028M1154.293 32.859a4.014 4.014 0 1 0 0-8.028 4.014 4.014 0 0 0 0 8.028M1124.12 32.859a4.014 4.014 0 1 0 .001-8.028 4.014 4.014 0 0 0 0 8.028M1093.948 32.859a4.014 4.014 0 1 0 0-8.028 4.014 4.014 0 0 0 0 8.028M1063.775 24.83a4.014 4.014 0 1 0 0 8.029 4.014 4.014 0 0 0 0-8.028M1033.602 24.83a4.014 4.014 0 1 0 0 8.029 4.014 4.014 0 0 0 0-8.028M1003.43 24.83a4.014 4.014 0 1 0 0 8.029 4.014 4.014 0 0 0 0-8.028M1425.848 2.687a4.014 4.014 0 1 0 0-8.028 4.014 4.014 0 0 0 0 8.028M882.739-4.08a2.676 2.676 0 1 0 0 5.353 2.676 2.676 0 0 0 0-5.353M882.739 26.055a2.676 2.676 0 1 0 0 5.352 2.676 2.676 0 0 0 0-5.352M882.739 56.19a2.676 2.676 0 1 0 0 5.352 2.676 2.676 0 0 0 0-5.352M882.739 86.325a2.676 2.676 0 1 0 0 5.352 2.676 2.676 0 0 0 0-5.352M882.739 116.46a2.676 2.676 0 1 0 0 5.352 2.676 2.676 0 0 0 0-5.352M882.739 146.595a2.676 2.676 0 1 0 0 5.353 2.676 2.676 0 0 0 0-5.353M882.739 176.73a2.676 2.676 0 1 0 0 5.352 2.676 2.676 0 0 0 0-5.352M882.739 206.865a2.676 2.676 0 1 0 0 5.352 2.676 2.676 0 0 0 0-5.352M882.739 237a2.676 2.676 0 1 0 0 5.352 2.676 2.676 0 0 0 0-5.352M882.739 267.134a2.676 2.676 0 1 0 0 5.352 2.676 2.676 0 0 0 0-5.352M882.739 297.27a2.676 2.676 0 1 0 0 5.351 2.676 2.676 0 0 0 0-5.352M791.012 297.965a2.676 2.676 0 1 0 0 5.352 2.676 2.676 0 0 0 0-5.352M791.012 267.83a2.676 2.676 0 1 0 .002 5.353 2.676 2.676 0 0 0-.002-5.353M791.012 237.696a2.676 2.676 0 1 0 0 5.351 2.676 2.676 0 0 0 0-5.351M791.012 207.56a2.676 2.676 0 1 0 0 5.352 2.676 2.676 0 0 0 0-5.351M791.012 177.426a2.676 2.676 0 1 0 0 5.351 2.676 2.676 0 0 0 0-5.351M791.012 147.29a2.676 2.676 0 1 0 0 5.353 2.676 2.676 0 0 0 0-5.352M791.012 117.156a2.676 2.676 0 1 0 .002 5.353 2.676 2.676 0 0 0-.002-5.353M791.012 87.021a2.676 2.676 0 1 0 0 5.352 2.676 2.676 0 0 0 0-5.352M791.012 56.886a2.676 2.676 0 1 0 0 5.352 2.676 2.676 0 0 0 0-5.352M791.012 26.751a2.676 2.676 0 1 0 0 5.352 2.676 2.676 0 0 0 0-5.352M791.012-3.384a2.676 2.676 0 1 0 0 5.352 2.676 2.676 0 0 0 0-5.352M821.576-4.08a2.676 2.676 0 1 0 .001 5.353 2.676 2.676 0 0 0-.001-5.353M821.576 26.055a2.676 2.676 0 1 0 0 5.352 2.676 2.676 0 0 0 0-5.352M821.576 56.19a2.676 2.676 0 1 0 0 5.352 2.676 2.676 0 0 0 0-5.352M821.576 86.325a2.676 2.676 0 1 0 0 5.352 2.676 2.676 0 0 0 0-5.352M821.576 116.46a2.676 2.676 0 1 0 0 5.352 2.676 2.676 0 0 0 0-5.352M821.576 146.595a2.676 2.676 0 1 0 .001 5.353 2.676 2.676 0 0 0-.001-5.353M821.576 176.73a2.676 2.676 0 1 0 0 5.352 2.676 2.676 0 0 0 0-5.352M821.576 206.865a2.676 2.676 0 1 0 0 5.352 2.676 2.676 0 0 0 0-5.352M821.576 237a2.676 2.676 0 1 0 0 5.352 2.676 2.676 0 0 0 0-5.352M821.576 267.134a2.676 2.676 0 1 0 0 5.352 2.676 2.676 0 0 0 0-5.352M821.576 297.27a2.676 2.676 0 1 0 0 5.351 2.676 2.676 0 0 0 0-5.352M729.885 297.965a2.676 2.676 0 1 0 0 5.352 2.676 2.676 0 0 0 0-5.352M729.885 267.83a2.676 2.676 0 1 0 .002 5.353 2.676 2.676 0 0 0-.002-5.353M729.885 237.696a2.676 2.676 0 1 0 0 5.351 2.676 2.676 0 0 0 0-5.351M729.885 207.56a2.676 2.676 0 1 0 0 5.352 2.676 2.676 0 0 0 0-5.351M729.885 177.426a2.676 2.676 0 1 0 0 5.351 2.676 2.676 0 0 0 0-5.351M729.885 147.29a2.676 2.676 0 1 0 0 5.353 2.676 2.676 0 0 0 0-5.352M729.885 117.156a2.676 2.676 0 1 0 .002 5.353 2.676 2.676 0 0 0-.002-5.353M729.885 87.021a2.676 2.676 0 1 0 0 5.352 2.676 2.676 0 0 0 0-5.352M729.885 56.886a2.676 2.676 0 1 0 0 5.352 2.676 2.676 0 0 0 0-5.352M729.885 26.751a2.676 2.676 0 1 0 0 5.352 2.676 2.676 0 0 0 0-5.352M729.885-3.384a2.676 2.676 0 1 0 0 5.352 2.676 2.676 0 0 0 0-5.352M760.449-4.08a2.676 2.676 0 1 0 .001 5.353 2.676 2.676 0 0 0-.001-5.353M760.449 26.055a2.676 2.676 0 1 0 0 5.352 2.676 2.676 0 0 0 0-5.352M760.449 56.19a2.676 2.676 0 1 0 0 5.352 2.676 2.676 0 0 0 0-5.352M760.449 86.325a2.676 2.676 0 1 0 0 5.352 2.676 2.676 0 0 0 0-5.352M760.449 116.46a2.676 2.676 0 1 0 0 5.352 2.676 2.676 0 0 0 0-5.352M760.449 146.595a2.676 2.676 0 1 0 .001 5.353 2.676 2.676 0 0 0-.001-5.353M760.449 176.73a2.676 2.676 0 1 0 0 5.352 2.676 2.676 0 0 0 0-5.352M760.449 206.865a2.676 2.676 0 1 0 0 5.352 2.676 2.676 0 0 0 0-5.352M760.449 237a2.676 2.676 0 1 0 0 5.352 2.676 2.676 0 0 0 0-5.352M760.449 267.134a2.676 2.676 0 1 0 0 5.352 2.676 2.676 0 0 0 0-5.352M760.449 297.27a2.676 2.676 0 1 0 0 5.351 2.676 2.676 0 0 0 0-5.352M668.758 297.965a2.676 2.676 0 1 0 0 5.352 2.676 2.676 0 0 0 0-5.352M668.758 267.83a2.676 2.676 0 1 0 .002 5.353 2.676 2.676 0 0 0-.002-5.353M668.758 237.696a2.676 2.676 0 1 0 0 5.351 2.676 2.676 0 0 0 0-5.351M668.758 207.56a2.676 2.676 0 1 0 0 5.352 2.676 2.676 0 0 0 0-5.351M668.758 177.426a2.676 2.676 0 1 0 0 5.351 2.676 2.676 0 0 0 0-5.351M668.758 147.29a2.676 2.676 0 1 0 0 5.353 2.676 2.676 0 0 0 0-5.352M668.758 117.156a2.676 2.676 0 1 0 .002 5.353 2.676 2.676 0 0 0-.002-5.353M668.758 87.021a2.676 2.676 0 1 0 0 5.352 2.676 2.676 0 0 0 0-5.352M668.758 56.886a2.676 2.676 0 1 0 0 5.352 2.676 2.676 0 0 0 0-5.352M668.758 26.751a2.676 2.676 0 1 0 0 5.352 2.676 2.676 0 0 0 0-5.352M668.758-3.384a2.676 2.676 0 1 0 0 5.352 2.676 2.676 0 0 0 0-5.352M699.322-4.08a2.677 2.677 0 1 0 0 5.353 2.677 2.677 0 0 0 0-5.353M699.322 26.055a2.676 2.676 0 1 0 0 5.353 2.676 2.676 0 0 0 0-5.353M699.322 56.19a2.676 2.676 0 1 0 0 5.352 2.676 2.676 0 0 0 0-5.352M699.322 86.325a2.676 2.676 0 1 0 0 5.352 2.676 2.676 0 0 0 0-5.352M699.322 116.46a2.676 2.676 0 1 0 0 5.352 2.676 2.676 0 0 0 0-5.352M699.322 146.595a2.677 2.677 0 1 0 0 5.353 2.677 2.677 0 0 0 0-5.353M699.322 176.73a2.676 2.676 0 1 0 0 5.352 2.676 2.676 0 0 0 0-5.352M699.322 206.865a2.676 2.676 0 1 0 0 5.352 2.676 2.676 0 0 0 0-5.352M699.322 237a2.676 2.676 0 1 0 0 5.352 2.676 2.676 0 0 0 0-5.352M699.322 267.134a2.676 2.676 0 1 0 0 5.353 2.676 2.676 0 0 0 0-5.353M699.322 297.27a2.676 2.676 0 1 0 0 5.352 2.676 2.676 0 0 0 0-5.353M606.864 297.965a2.676 2.676 0 1 0 .001 5.352 2.676 2.676 0 0 0 0-5.352M606.864 267.83a2.676 2.676 0 1 0 .002 5.353 2.676 2.676 0 0 0-.002-5.353M606.864 237.696a2.676 2.676 0 1 0 0 5.351 2.676 2.676 0 0 0 0-5.351M606.864 207.56a2.676 2.676 0 1 0 0 5.352 2.676 2.676 0 0 0 0-5.351M606.864 177.426a2.676 2.676 0 1 0 0 5.351 2.676 2.676 0 0 0 0-5.351M606.864 147.29a2.676 2.676 0 1 0 .001 5.353 2.676 2.676 0 0 0 0-5.352M606.864 117.156a2.676 2.676 0 1 0 .002 5.353 2.676 2.676 0 0 0-.002-5.353M606.864 87.021a2.676 2.676 0 1 0 0 5.352 2.676 2.676 0 0 0 0-5.352M606.864 56.886a2.676 2.676 0 1 0 0 5.352 2.676 2.676 0 0 0 0-5.352M606.864 26.751a2.676 2.676 0 1 0 .001 5.352 2.676 2.676 0 0 0 0-5.352M606.864-3.384a2.676 2.676 0 1 0 0 5.352 2.676 2.676 0 0 0 0-5.352M637.428-4.08a2.677 2.677 0 1 0 0 5.353 2.677 2.677 0 0 0 0-5.353M637.428 26.055a2.676 2.676 0 1 0 0 5.353 2.676 2.676 0 0 0 0-5.353M637.428 56.19a2.676 2.676 0 1 0 0 5.352 2.676 2.676 0 0 0 0-5.352M637.428 86.325a2.676 2.676 0 1 0 0 5.352 2.676 2.676 0 0 0 0-5.352M637.428 116.46a2.676 2.676 0 1 0 0 5.352 2.676 2.676 0 0 0 0-5.352M637.428 146.595a2.677 2.677 0 1 0 0 5.353 2.677 2.677 0 0 0 0-5.353M637.428 176.73a2.676 2.676 0 1 0 0 5.352 2.676 2.676 0 0 0 0-5.352M637.428 206.865a2.676 2.676 0 1 0 0 5.352 2.676 2.676 0 0 0 0-5.352M637.428 237a2.676 2.676 0 1 0 0 5.352 2.676 2.676 0 0 0 0-5.352M637.428 267.134a2.676 2.676 0 1 0 0 5.353 2.676 2.676 0 0 0 0-5.353M637.428 297.27a2.676 2.676 0 1 0 0 5.352 2.676 2.676 0 0 0 0-5.353M545.738 297.965a2.677 2.677 0 1 0 0 5.353 2.677 2.677 0 0 0 0-5.353M545.738 267.83a2.677 2.677 0 1 0 .001 5.354 2.677 2.677 0 0 0-.001-5.354M545.738 237.696a2.676 2.676 0 1 0 0 5.352 2.676 2.676 0 0 0 0-5.352M545.738 207.56a2.676 2.676 0 1 0 0 5.353 2.676 2.676 0 0 0 0-5.352M545.738 177.426a2.676 2.676 0 1 0 0 5.352 2.676 2.676 0 0 0 0-5.352M545.738 147.29a2.677 2.677 0 1 0 0 5.354 2.677 2.677 0 0 0 0-5.353M545.738 117.156a2.677 2.677 0 1 0 .001 5.354 2.677 2.677 0 0 0-.001-5.354M545.738 87.021a2.676 2.676 0 1 0 0 5.353 2.676 2.676 0 0 0 0-5.353M545.738 56.886a2.676 2.676 0 1 0 0 5.353 2.676 2.676 0 0 0 0-5.353M545.738 26.751a2.677 2.677 0 1 0 0 5.353 2.677 2.677 0 0 0 0-5.353M545.738-3.384a2.676 2.676 0 1 0 0 5.353 2.676 2.676 0 0 0 0-5.353M576.301-4.08a2.676 2.676 0 1 0 .002 5.353 2.676 2.676 0 0 0-.002-5.353M576.301 26.055a2.676 2.676 0 1 0 0 5.352 2.676 2.676 0 0 0 0-5.352M576.301 56.19a2.676 2.676 0 1 0 0 5.352 2.676 2.676 0 0 0 0-5.352M576.301 86.325a2.676 2.676 0 1 0 0 5.352 2.676 2.676 0 0 0 0-5.352M576.301 116.46a2.676 2.676 0 1 0 0 5.352 2.676 2.676 0 0 0 0-5.352M576.301 146.595a2.676 2.676 0 1 0 .002 5.353 2.676 2.676 0 0 0-.002-5.353M576.301 176.73a2.676 2.676 0 1 0 0 5.352 2.676 2.676 0 0 0 0-5.352M576.301 206.865a2.676 2.676 0 1 0 0 5.352 2.676 2.676 0 0 0 0-5.352M576.301 237a2.676 2.676 0 1 0 0 5.352 2.676 2.676 0 0 0 0-5.352M576.301 267.134a2.676 2.676 0 1 0 0 5.352 2.676 2.676 0 0 0 0-5.352M576.301 297.27a2.676 2.676 0 1 0 0 5.351 2.676 2.676 0 0 0 0-5.352M973.257 55.673a3.345 3.345 0 1 0 0 6.69 3.345 3.345 0 0 0 0-6.69M973.257 25.5a3.345 3.345 0 1 0 .001 6.69 3.345 3.345 0 0 0-.001-6.69M973.257-4.673a3.345 3.345 0 1 0 0 6.69 3.345 3.345 0 0 0 0-6.69M943.084 55.673a3.346 3.346 0 1 0 0 6.69 3.346 3.346 0 0 0 0-6.69M943.084 25.5a3.346 3.346 0 1 0 .001 6.692 3.346 3.346 0 0 0 0-6.692M943.084-4.673a3.345 3.345 0 1 0 0 6.691 3.345 3.345 0 0 0 0-6.69M912.912 55.673a3.345 3.345 0 1 0 0 6.69 3.345 3.345 0 0 0 0-6.69M912.912 25.5a3.346 3.346 0 1 0 0 6.69 3.346 3.346 0 0 0 0-6.69M912.912-4.673a3.345 3.345 0 1 0-.001 6.69 3.345 3.345 0 0 0 0-6.69M973.257 146.19a3.345 3.345 0 1 0 0 6.69 3.345 3.345 0 0 0 0-6.69M973.257 116.018a3.345 3.345 0 1 0 0 6.69 3.345 3.345 0 0 0 0-6.69M973.257 85.845a3.345 3.345 0 1 0 0 6.69 3.345 3.345 0 0 0 0-6.69M943.084 146.19a3.345 3.345 0 1 0 0 6.692 3.345 3.345 0 0 0 0-6.691M943.084 116.018a3.345 3.345 0 1 0 0 6.691 3.345 3.345 0 0 0 0-6.69M943.084 85.845a3.346 3.346 0 1 0 0 6.691 3.346 3.346 0 0 0 0-6.69M912.912 146.19a3.345 3.345 0 1 0-.001 6.69 3.345 3.345 0 0 0 0-6.69M912.912 116.018a3.345 3.345 0 1 0-.001 6.69 3.345 3.345 0 0 0 0-6.69M912.912 85.845a3.345 3.345 0 1 0 0 6.69 3.345 3.345 0 0 0 0-6.69M973.257 236.709a3.345 3.345 0 1 0 0 6.69 3.345 3.345 0 0 0 0-6.69M973.257 206.536a3.345 3.345 0 1 0 0 6.69 3.345 3.345 0 0 0 0-6.69M973.257 176.363a3.345 3.345 0 1 0 .001 6.691 3.345 3.345 0 0 0-.001-6.69M943.084 236.709a3.346 3.346 0 1 0 0 6.691 3.346 3.346 0 0 0 0-6.691M943.084 206.536a3.346 3.346 0 1 0 0 6.691 3.346 3.346 0 0 0 0-6.69M943.084 176.363a3.346 3.346 0 1 0 .001 6.692 3.346 3.346 0 0 0 0-6.692M912.912 236.709a3.345 3.345 0 1 0 0 6.69 3.345 3.345 0 0 0 0-6.69M912.912 206.536a3.345 3.345 0 1 0 0 6.69 3.345 3.345 0 0 0 0-6.69M912.912 176.363a3.346 3.346 0 1 0 0 6.692 3.346 3.346 0 0 0 0-6.692M973.257 297.055a3.345 3.345 0 1 0 0 6.69 3.345 3.345 0 0 0 0-6.69M973.257 266.882a3.345 3.345 0 1 0 0 6.69 3.345 3.345 0 0 0 0-6.69M943.084 297.055a3.345 3.345 0 1 0 0 6.69 3.345 3.345 0 0 0 0-6.69M943.084 266.882a3.345 3.345 0 1 0 0 6.69 3.345 3.345 0 0 0 0-6.69M912.912 297.055a3.345 3.345 0 1 0-.001 6.69 3.345 3.345 0 0 0 0-6.69M912.912 266.882a3.345 3.345 0 1 0-.001 6.69 3.345 3.345 0 0 0 0-6.69M1395.675 2.687a4.014 4.014 0 1 0 0-8.028 4.014 4.014 0 0 0 0 8.028M1365.503 2.687a4.014 4.014 0 1 0-.001-8.028 4.014 4.014 0 0 0 0 8.028M1335.33 2.687a4.014 4.014 0 1 0 0-8.029 4.014 4.014 0 0 0 0 8.029M1305.157 2.687a4.014 4.014 0 1 0 0-8.028 4.014 4.014 0 0 0 0 8.028M1274.985 2.687a4.014 4.014 0 1 0-.001-8.028 4.014 4.014 0 0 0 0 8.028M1244.811 2.687a4.014 4.014 0 1 0 0-8.028 4.014 4.014 0 0 0 0 8.028M1214.639 2.687a4.014 4.014 0 1 0 0-8.028 4.014 4.014 0 0 0 0 8.028M1184.466 2.687a4.014 4.014 0 1 0 0-8.029 4.014 4.014 0 0 0 0 8.029M1154.293 2.687a4.014 4.014 0 1 0 0-8.028 4.014 4.014 0 0 0 0 8.028M1124.12 2.687a4.014 4.014 0 1 0 0-8.029 4.014 4.014 0 0 0 0 8.029M1093.948 2.687a4.014 4.014 0 1 0 0-8.028 4.014 4.014 0 0 0 0 8.028M1063.775-5.342a4.015 4.015 0 1 0 0 8.029 4.015 4.015 0 0 0 0-8.03M1033.602-5.342a4.014 4.014 0 1 0 .002 8.029 4.014 4.014 0 0 0-.002-8.03M1003.43-5.342a4.014 4.014 0 1 0 .001 8.029 4.014 4.014 0 0 0-.001-8.03M1063.775 145.522a4.015 4.015 0 1 0 0 8.029 4.015 4.015 0 0 0 0-8.03M1033.602 145.522a4.014 4.014 0 1 0 .002 8.028 4.014 4.014 0 0 0-.002-8.028M1003.43 145.522a4.014 4.014 0 1 0 .001 8.028 4.014 4.014 0 0 0-.001-8.028M1063.775 115.35a4.014 4.014 0 1 0 0 8.027 4.014 4.014 0 0 0 0-8.028M1033.602 115.35a4.014 4.014 0 1 0 0 8.027 4.014 4.014 0 0 0 0-8.028M1003.43 115.35a4.014 4.014 0 1 0 0 8.027 4.014 4.014 0 0 0 0-8.028M1063.775 85.176a4.014 4.014 0 1 0 0 8.029 4.014 4.014 0 0 0 0-8.029M1033.602 85.176a4.014 4.014 0 1 0 0 8.028 4.014 4.014 0 0 0 0-8.028M1003.43 85.176a4.014 4.014 0 1 0 0 8.028 4.014 4.014 0 0 0 0-8.028M1063.775 236.04a4.014 4.014 0 1 0 0 8.028 4.014 4.014 0 0 0 0-8.028M1033.602 236.04a4.014 4.014 0 1 0 0 8.028 4.014 4.014 0 0 0 0-8.028M1003.43 236.04a4.014 4.014 0 1 0 0 8.028 4.014 4.014 0 0 0 0-8.028M1063.775 205.867a4.014 4.014 0 1 0 0 8.028 4.014 4.014 0 0 0 0-8.028M1033.602 205.867a4.014 4.014 0 1 0 0 8.028 4.014 4.014 0 0 0 0-8.028M1003.43 205.867a4.014 4.014 0 1 0 0 8.028 4.014 4.014 0 0 0 0-8.028M1063.775 175.694a4.015 4.015 0 1 0 0 8.03 4.015 4.015 0 0 0 0-8.03M1033.602 175.694a4.014 4.014 0 1 0 .002 8.03 4.014 4.014 0 0 0-.002-8.03M1003.43 175.694a4.014 4.014 0 1 0 .001 8.03 4.014 4.014 0 0 0-.001-8.03M1063.775 296.386a4.014 4.014 0 1 0 0 8.027 4.014 4.014 0 0 0 0-8.027M1033.602 296.386a4.014 4.014 0 1 0 0 8.027 4.014 4.014 0 0 0 0-8.027M1003.43 296.386a4.014 4.014 0 1 0 0 8.027 4.014 4.014 0 0 0 0-8.027M1063.775 266.213a4.014 4.014 0 1 0 0 8.028 4.014 4.014 0 0 0 0-8.028M1033.602 266.213a4.014 4.014 0 1 0 0 8.027 4.014 4.014 0 0 0 0-8.027M1003.43 266.213a4.014 4.014 0 1 0 0 8.027 4.014 4.014 0 0 0 0-8.027"/>
        </g>
    </g>
</svg>
