<svg width="90" height="85" viewBox="0 0 90 85" fill="none" xmlns="http://www.w3.org/2000/svg">
<path d="M27.5781 48H25.6934V41.4277H18.5254V48H16.6504V33.7812H18.5254V39.8945H25.6934V33.7812H27.5781V48ZM33.9199 48H32.0449V33.7812H33.9199V48ZM40.2324 42.4336V48H38.3574V33.7812H43.6016C45.1576 33.7812 46.375 34.1784 47.2539 34.9727C48.1393 35.7669 48.582 36.8184 48.582 38.127C48.582 39.5072 48.1491 40.5716 47.2832 41.3203C46.4238 42.0625 45.1901 42.4336 43.582 42.4336H40.2324ZM40.2324 40.9004H43.6016C44.6042 40.9004 45.3724 40.666 45.9062 40.1973C46.4401 39.722 46.707 39.0384 46.707 38.1465C46.707 37.3001 46.4401 36.623 45.9062 36.1152C45.3724 35.6074 44.64 35.3438 43.709 35.3242H40.2324V40.9004ZM58.4785 44.2891H52.5215L51.1836 48H49.25L54.6797 33.7812H56.3203L61.7598 48H59.8359L58.4785 44.2891ZM53.0879 42.7461H57.9219L55.5 36.0957L53.0879 42.7461ZM72.5254 44.2891H66.5684L65.2305 48H63.2969L68.7266 33.7812H70.3672L75.8066 48H73.8828L72.5254 44.2891ZM67.1348 42.7461H71.9688L69.5469 36.0957L67.1348 42.7461Z" fill="white"/>
<path d="M8 78V7H83V78H8Z" stroke="white"/>
<rect x="0.5" y="0.5" width="89" height="84" stroke="white"/>
</svg>
