<?xml version="1.0" encoding="UTF-8"?>
<svg width="70px" height="79px" viewBox="0 0 70 79" version="1.1" xmlns="http://www.w3.org/2000/svg" xmlns:xlink="http://www.w3.org/1999/xlink">
    <!-- Generator: Sketch 55.2 (78181) - https://sketchapp.com -->
    <title>how-icon_track</title>
    <desc>Created with Sketch.</desc>
    <defs>
        <polygon id="path-1" points="0.9402 0.7021 29.8552 0.7021 29.8552 55 0.9402 55"></polygon>
        <polygon id="path-3" points="0.3973 0.705 14.2563 0.705 14.2563 16.2324 0.3973 16.2324"></polygon>
        <polygon id="path-5" points="0 79.2954 70 79.2954 70 1.0004 0 1.0004"></polygon>
    </defs>
    <g id="Page-1" stroke="none" stroke-width="1" fill="none" fill-rule="evenodd">
        <g id="Crystal_homepage_hovers" transform="translate(-290.000000, -945.000000)">
            <g id="How-it-works" transform="translate(-224.000000, 774.000000)">
                <g id="1-2-3" transform="translate(0.137410, 107.000000)">
                    <g id="Track" transform="translate(374.000000, 63.000000)">
                        <g id="how-icon_track" transform="translate(139.862590, 0.000000)">
                            <path d="M70,41.3095 C70,21.9795 54.33,6.3095 35,6.3095 C15.67,6.3095 0,21.9795 0,41.3095 C0,60.6395 15.67,76.3095 35,76.3095 C54.33,76.3095 70,60.6395 70,41.3095" id="Fill-1" fill="#F2EEED"></path>
                            <g id="Group-5" transform="translate(20.000000, 24.295400)">
                                <mask id="mask-2" fill="white">
                                    <use xlink:href="#path-1"></use>
                                </mask>
                                <g id="Clip-4"></g>
                                <path d="M26.2412,0.7021 C24.2542,0.7021 22.6272,2.3291 22.6272,4.3171 L22.6272,17.4881 C22.6272,15.5011 21.0012,13.8751 19.0132,13.8751 L19.0112,13.8751 C17.0232,13.8751 15.3982,15.5011 15.3982,17.4881 C15.3982,15.5011 13.7722,13.8751 11.7852,13.8751 L11.7822,13.8751 C9.7952,13.8751 8.1692,15.5011 8.1692,17.4881 C8.1692,15.5011 6.5432,13.8751 4.5562,13.8751 L4.5532,13.8751 C2.5662,13.8751 0.9402,15.5011 0.9402,17.4881 L0.9402,20.4611 L0.9402,23.4351 L0.9402,29.7021 L0.9402,29.7031 L0.9402,29.7161 C0.9442,33.3121 2.2642,36.5981 4.4402,39.1261 L8.1572,42.4331 L8.0832,42.4331 L8.0832,55.0001 L22.7132,55.0001 L22.7132,42.2821 C26.7752,41.5351 29.8552,37.9821 29.8552,33.7041 L29.8552,29.7161 L29.8552,19.4051 L29.8552,4.3171 C29.8552,2.3291 28.2292,0.7021 26.2412,0.7021" id="Fill-3" fill="#FFFFFF" mask="url(#mask-2)"></path>
                            </g>
                            <path d="M52.2568,7.9302 C52.2568,4.6552 49.6028,2.0002 46.3268,2.0002 C43.0518,2.0002 40.3978,4.6552 40.3978,7.9302 C40.3978,7.9942 40.4028,15.5282 40.4028,15.5282 L52.2568,15.5282 L52.2568,7.9302 Z" id="Fill-6" fill="#8E7C79"></path>
                            <g id="Group-10" transform="translate(39.000000, 0.295400)">
                                <mask id="mask-4" fill="white">
                                    <use xlink:href="#path-3"></use>
                                </mask>
                                <g id="Clip-9"></g>
                                <path d="M2.4023,14.2324 L12.2563,14.2324 L12.2563,7.6344 C12.2563,4.9164 10.0453,2.7044 7.3273,2.7044 C4.6093,2.7044 2.3973,4.9164 2.3973,7.6344 L2.4023,14.2324 Z M14.2563,16.2324 L0.4043,16.2324 L0.3973,7.6344 C0.3973,3.8134 3.5063,0.7044 7.3273,0.7044 C11.1483,0.7044 14.2563,3.8134 14.2563,7.6344 L14.2563,16.2324 Z" id="Fill-8" fill="#8E7C79" mask="url(#mask-4)"></path>
                            </g>
                            <mask id="mask-6" fill="white">
                                <use xlink:href="#path-5"></use>
                            </mask>
                            <g id="Clip-12"></g>
                            <polygon id="Fill-11" fill="#fff" mask="url(#mask-6)" points="45.327 20.3004 47.327 20.3004 47.327 15.5274 45.327 15.5274"></polygon>
                            <path d="M46.3271,11.873 C44.9501,11.873 43.6171,11.373 42.5731,10.465 L43.8861,8.956 C45.2451,10.139 47.4091,10.139 48.7681,8.956 L50.0811,10.465 C49.0371,11.373 47.7041,11.873 46.3271,11.873" id="Fill-13" fill="#FFFFFF" mask="url(#mask-6)"></path>
                            <path d="M29.2549,79.2954 L27.2549,79.2954 L27.2549,67.0844 C22.7809,64.2644 20.0259,59.3034 20.0259,53.9974 L20.0259,44.7564 L22.0259,44.7564 L22.0259,53.9974 C22.0259,58.7864 24.6049,63.2534 28.7559,65.6544 L29.2549,65.9434 L29.2549,79.2954 Z" id="Fill-14" fill="#8E7C79" mask="url(#mask-6)"></path>
                            <path d="M50.9414,57.9995 L48.9414,57.9995 L48.9414,28.6125 C48.9414,27.1705 47.7684,25.9985 46.3274,25.9985 C44.8854,25.9985 43.7124,27.1705 43.7124,28.6125 L43.7124,44.3525 L41.7124,44.3525 L41.7124,28.6125 C41.7124,26.0675 43.7834,23.9985 46.3274,23.9985 C48.8714,23.9985 50.9414,26.0675 50.9414,28.6125 L50.9414,57.9995 Z" id="Fill-15" fill="#8E7C79" mask="url(#mask-6)"></path>
                            <path d="M43.7129,49.2705 L41.7129,49.2705 L41.7129,41.7835 C41.7129,40.3425 40.5409,39.1705 39.0999,39.1705 C37.6549,39.1705 36.4839,40.3425 36.4839,41.7835 L36.4839,47.7305 L34.4839,47.7305 L34.4839,41.7835 C34.4839,39.2395 36.5529,37.1705 39.0969,37.1705 C41.6439,37.1705 43.7129,39.2395 43.7129,41.7835 L43.7129,49.2705 Z" id="Fill-16" fill="#8E7C79" mask="url(#mask-6)"></path>
                            <path d="M36.4834,48.7309 L34.4834,48.7309 L34.4834,41.7829 C34.4834,40.3419 33.3114,39.1699 31.8714,39.1699 C30.4264,39.1699 29.2544,40.3419 29.2544,41.7829 L29.2544,47.7309 L27.2544,47.7309 L27.2544,41.7829 C27.2544,39.2399 29.3244,37.1699 31.8684,37.1699 C34.4144,37.1699 36.4834,39.2399 36.4834,41.7829 L36.4834,48.7309 Z" id="Fill-17" fill="#8E7C79" mask="url(#mask-6)"></path>
                            <path d="M24.6425,39.1704 C23.1985,39.1704 22.0265,40.3424 22.0265,41.7834 L22.0265,47.7304 C22.0265,49.1714 23.1985,50.3434 24.6385,50.3434 L24.6425,50.3434 C26.0825,50.3434 27.2545,49.1714 27.2545,47.7304 L27.2545,41.7834 C27.2545,40.3424 26.0825,39.1704 24.6425,39.1704 M24.6425,52.3434 L24.6385,52.3434 C22.0955,52.3434 20.0265,50.2744 20.0265,47.7304 L20.0265,41.7834 C20.0265,39.2394 22.0955,37.1704 24.6385,37.1704 C27.1855,37.1704 29.2545,39.2394 29.2545,41.7834 L29.2545,47.7304 C29.2545,50.2744 27.1855,52.3434 24.6425,52.3434" id="Fill-18" fill="#8E7C79" mask="url(#mask-6)"></path>
                            <path d="M40.6357,55.1655 L32.7607,55.1655 C29.5047,55.1655 26.8647,52.5265 26.8647,49.2705 L31.8687,49.2705 L41.2127,49.2705 C46.0327,49.2705 49.9417,53.1785 49.9417,57.9995 C49.9417,62.8205 46.0327,66.7285 41.2127,66.7285 L37.8747,66.7285" id="Fill-19" fill="#FFFFFF" mask="url(#mask-6)"></path>
                            <path d="M41.2129,67.7285 L37.8749,67.7285 L37.8749,65.7285 L41.2129,65.7285 C45.4749,65.7285 48.9419,62.2615 48.9419,57.9995 C48.9419,53.7375 45.4749,50.2705 41.2129,50.2705 L27.9679,50.2705 C28.4309,52.4915 30.4039,54.1655 32.7609,54.1655 L40.6359,54.1655 L40.6359,56.1655 L32.7609,56.1655 C28.9589,56.1655 25.8649,53.0725 25.8649,49.2705 L25.8649,48.2705 L41.2129,48.2705 C46.5769,48.2705 50.9419,52.6345 50.9419,57.9995 C50.9419,63.3645 46.5769,67.7285 41.2129,67.7285" id="Fill-20" fill="#8E7C79" mask="url(#mask-6)"></path>
                            <polygon id="Fill-21" fill="#8E7C79" mask="url(#mask-6)" points="41.713 79.2954 43.713 79.2954 43.713 66.7284 41.713 66.7284"></polygon>
                            <polygon id="Fill-22" fill="#fff" mask="url(#mask-6)" points="4.1201 20.5844 4.1201 13.4724 3.8681 13.4724 2.9431 16.8324 1.1801 16.8324 1.1801 16.6644 2.3551 12.5484 5.9681 12.5484 5.9681 20.5844 8.4041 20.5844 8.4041 22.3484 1.3481 22.3484 1.3481 20.5844"></polygon>
                            <path d="M14.6064,21.2148 C14.6064,21.4018 14.5714,21.5768 14.5014,21.7398 C14.4314,21.9028 14.3354,22.0428 14.2134,22.1598 C14.0924,22.2768 13.9504,22.3698 13.7874,22.4398 C13.6244,22.5098 13.4534,22.5448 13.2764,22.5448 C13.0894,22.5448 12.9174,22.5098 12.7574,22.4398 C12.5994,22.3698 12.4594,22.2768 12.3374,22.1598 C12.2164,22.0428 12.1214,21.9028 12.0504,21.7398 C11.9814,21.5768 11.9464,21.4018 11.9464,21.2148 C11.9464,21.0278 11.9814,20.8528 12.0504,20.6898 C12.1214,20.5268 12.2164,20.3858 12.3374,20.2698 C12.4594,20.1528 12.5994,20.0598 12.7574,19.9898 C12.9174,19.9198 13.0894,19.8848 13.2764,19.8848 C13.4534,19.8848 13.6244,19.9198 13.7874,19.9898 C13.9504,20.0598 14.0924,20.1528 14.2134,20.2698 C14.3354,20.3858 14.4314,20.5268 14.5014,20.6898 C14.5714,20.8528 14.6064,21.0278 14.6064,21.2148" id="Fill-23" fill="#8E7C79" mask="url(#mask-6)"></path>
                        </g>
                    </g>
                </g>
            </g>
        </g>
    </g>
</svg>