<?xml version="1.0" encoding="UTF-8"?>
<svg width="70px" height="70px" viewBox="0 0 70 70" version="1.1" xmlns="http://www.w3.org/2000/svg" xmlns:xlink="http://www.w3.org/1999/xlink">
    <!-- Generator: Sketch 55.2 (78181) - https://sketchapp.com -->
    <title>how-icon_learn</title>
    <desc>Created with Sketch.</desc>
    <defs>
        <polygon id="path-1" points="0 0.0001 70 0.0001 70 70 0 70"></polygon>
        <polygon id="path-3" points="0 70 70 70 70 0 0 0"></polygon>
    </defs>
    <g id="Page-1" stroke="none" stroke-width="1" fill="none" fill-rule="evenodd">
        <g id="Crystal_homepage_hovers" transform="translate(-685.000000, -949.000000)">
            <g id="How-it-works" transform="translate(-224.000000, 774.000000)">
                <g id="1-2-3" transform="translate(0.137410, 107.000000)">
                    <g id="Learn" transform="translate(768.000000, 68.000000)">
                        <g id="how-icon_learn" transform="translate(140.862590, 0.000000)">
                            <g id="Group-3">
                                <mask id="mask-2" fill="white">
                                    <use xlink:href="#path-1"></use>
                                </mask>
                                <g id="Clip-2"></g>
                                <path d="M70,35.0001 C70,15.6701 54.33,0.0001 35,0.0001 C15.67,0.0001 0,15.6701 0,35.0001 C0,54.3301 15.67,70.0001 35,70.0001 C54.33,70.0001 70,54.3301 70,35.0001" id="Fill-1" fill="#F2EEED" mask="url(#mask-2)"></path>
                            </g>
                            <path d="M8.6826,14.275 L8.6826,16.039 L1.7946,16.039 L1.7946,14.107 C1.7946,13.594 1.8716,13.155 2.0256,12.791 C2.1796,12.427 2.3996,12.119 2.6836,11.867 C2.9686,11.615 3.3116,11.407 3.7126,11.244 C4.1146,11.081 4.5666,10.943 5.0706,10.831 C5.4446,10.747 5.7496,10.651 5.9876,10.544 C6.2256,10.437 6.4146,10.316 6.5546,10.18 C6.6946,10.045 6.7896,9.896 6.8416,9.732 C6.8926,9.569 6.9186,9.384 6.9186,9.179 C6.9186,8.787 6.7766,8.461 6.4926,8.199 C6.2066,7.938 5.8126,7.807 5.3086,7.807 C4.7766,7.807 4.3516,7.968 4.0356,8.29 C3.7176,8.612 3.5586,9.058 3.5586,9.627 L3.5586,10.243 L1.7106,10.243 L1.7106,9.459 C1.7106,9.002 1.7916,8.566 1.9556,8.15 C2.1196,7.735 2.3526,7.371 2.6566,7.058 C2.9586,6.746 3.3296,6.498 3.7686,6.316 C4.2066,6.134 4.7026,6.043 5.2526,6.043 C5.8406,6.043 6.3536,6.129 6.7926,6.302 C7.2316,6.475 7.5976,6.701 7.8916,6.981 C8.1856,7.261 8.4056,7.586 8.5496,7.954 C8.6946,8.323 8.7666,8.703 8.7666,9.095 L8.7666,9.263 C8.7666,10.085 8.5366,10.766 8.0746,11.307 C7.6116,11.849 6.8586,12.24 5.8126,12.483 C5.3736,12.586 5.0126,12.691 4.7276,12.798 C4.4436,12.905 4.2216,13.025 4.0626,13.155 C3.9046,13.286 3.7936,13.428 3.7336,13.582 C3.6726,13.736 3.6426,13.911 3.6426,14.107 L3.6426,14.275 L8.6826,14.275 Z" id="Fill-4" fill="#fff"></path>
                            <path d="M15.0674,14.9054 C15.0674,15.0924 15.0324,15.2674 14.9624,15.4304 C14.8924,15.5934 14.7964,15.7334 14.6744,15.8504 C14.5534,15.9674 14.4114,16.0604 14.2484,16.1304 C14.0854,16.2004 13.9144,16.2354 13.7374,16.2354 C13.5504,16.2354 13.3784,16.2004 13.2184,16.1304 C13.0604,16.0604 12.9204,15.9674 12.7984,15.8504 C12.6774,15.7334 12.5824,15.5934 12.5114,15.4304 C12.4424,15.2674 12.4074,15.0924 12.4074,14.9054 C12.4074,14.7184 12.4424,14.5434 12.5114,14.3804 C12.5824,14.2174 12.6774,14.0764 12.7984,13.9604 C12.9204,13.8434 13.0604,13.7504 13.2184,13.6804 C13.3784,13.6104 13.5504,13.5754 13.7374,13.5754 C13.9144,13.5754 14.0854,13.6104 14.2484,13.6804 C14.4114,13.7504 14.5534,13.8434 14.6744,13.9604 C14.7964,14.0764 14.8924,14.2174 14.9624,14.3804 C15.0324,14.5434 15.0674,14.7184 15.0674,14.9054" id="Fill-6" fill="#8E7C79"></path>
                            <path d="M35,13.4737 L35,20.8237 C42.83,20.8237 49.177,27.1707 49.177,34.9997 C49.177,42.8297 42.83,49.1767 35,49.1767 C31.085,49.1767 27.541,47.5897 24.976,45.0247 L19.778,50.2217 C23.674,54.1167 29.056,56.5267 35,56.5267 C46.889,56.5267 56.526,46.8887 56.526,34.9997 C56.526,23.1117 46.889,13.4737 35,13.4737" id="Fill-8" fill="#8E7C79"></path>
                            <path d="M20.8232,35.0001 C20.8232,27.1701 27.1702,20.8231 35.0002,20.8231 L35.0002,13.4741 C23.1112,13.4741 13.4732,23.1111 13.4732,35.0001 C13.4732,40.9441 15.8832,46.3261 19.7782,50.2211 L24.9752,45.0241 C22.4102,42.4591 20.8232,38.9151 20.8232,35.0001" id="Fill-10" fill="#FFFFFF"></path>
                            <mask id="mask-4" fill="white">
                                <use xlink:href="#path-3"></use>
                            </mask>
                            <g id="Clip-13"></g>
                            <polygon id="Fill-12" fill="#fff" mask="url(#mask-4)" points="19.169 29.755 36.795 29.755 36.795 27.755 19.169 27.755"></polygon>
                            <polygon id="Fill-14" fill="#fff" mask="url(#mask-4)" points="19.169 34.478 39.797 34.478 39.797 32.478 19.169 32.478"></polygon>
                            <polygon id="Fill-15" fill="#fff" mask="url(#mask-4)" points="19.169 39.2 36.795 39.2 36.795 37.2 19.169 37.2"></polygon>
                        </g>
                    </g>
                </g>
            </g>
        </g>
    </g>
</svg>