<svg width="40" height="40" viewBox="0 0 40 40" fill="none" xmlns="http://www.w3.org/2000/svg">
<path fill-rule="evenodd" clip-rule="evenodd" d="M1 1H39V39H1V1ZM0 0H1H39H40V1V39V40H39H1H0V39V1V0ZM20 9L20.4182 8.72594C20.3258 8.58494 20.1686 8.5 20 8.5C19.8314 8.5 19.6742 8.58494 19.5818 8.72594L20 9ZM20 9C20.4182 8.72594 20.4183 8.72603 20.4183 8.72616L20.4186 8.7266L20.4196 8.7281L20.4232 8.73358L20.4367 8.75437L20.4882 8.83429C20.5331 8.90423 20.5985 9.00699 20.6815 9.13954C20.8476 9.40463 21.0842 9.78903 21.3678 10.2685C21.9349 11.227 22.6912 12.5677 23.4481 14.0961C24.9492 17.1273 26.5 20.9891 26.5 24.0769C26.5 25.7825 25.8136 27.417 24.5939 28.621C23.3744 29.8248 21.7218 30.5 20 30.5C18.2782 30.5 16.6256 29.8248 15.4061 28.621C14.1864 27.417 13.5 25.7825 13.5 24.0769C13.5 20.9891 15.0508 17.1273 16.5519 14.0961C17.3088 12.5677 18.0651 11.227 18.6322 10.2685C18.9158 9.78903 19.1524 9.40463 19.3185 9.13954C19.4015 9.00699 19.4669 8.90423 19.5118 8.83429L19.5633 8.75437L19.5768 8.73358L19.5804 8.7281L19.5814 8.7266L19.5817 8.72616C19.5817 8.72603 19.5818 8.72594 20 9ZM19.4928 10.7777C19.6872 10.4491 19.8589 10.1663 20 9.93744C20.1411 10.1663 20.3128 10.4491 20.5072 10.7777C21.0651 11.7209 21.8088 13.0392 22.5519 14.5398C24.0508 17.5667 25.5 21.2434 25.5 24.0769C25.5 25.5131 24.9221 26.8918 23.8914 27.9093C22.8604 28.9271 21.4608 29.5 20 29.5C18.5392 29.5 17.1396 28.9271 16.1086 27.9093C15.0779 26.8918 14.5 25.5131 14.5 24.0769C14.5 21.2434 15.9492 17.5667 17.4481 14.5398C18.1912 13.0392 18.9349 11.7209 19.4928 10.7777Z" fill="white"/>
</svg>
