<svg width="40" height="40" viewBox="0 0 40 40" fill="none" xmlns="http://www.w3.org/2000/svg">
<path fill-rule="evenodd" clip-rule="evenodd" d="M39 1H1V39H39V1ZM1 0H0V1V39V40H1H39H40V39V1V0H39H1ZM6.64645 11.6464C6.84171 11.4512 7.15829 11.4512 7.35355 11.6464L16 20.2929L20.6464 15.6464C20.8417 15.4512 21.1583 15.4512 21.3536 15.6464L32.5 26.7929V20C32.5 19.7239 32.7239 19.5 33 19.5C33.2761 19.5 33.5 19.7239 33.5 20V28C33.5 28.0678 33.4865 28.1324 33.4621 28.1914C33.4439 28.2354 33.4191 28.2772 33.3879 28.3156C33.3772 28.3287 33.3658 28.3414 33.3536 28.3536C33.3056 28.4015 33.2504 28.4377 33.1914 28.4621C33.1453 28.4811 33.0969 28.493 33.0479 28.4977C33.032 28.4992 33.016 28.5 33 28.5H25C24.7239 28.5 24.5 28.2761 24.5 28C24.5 27.7239 24.7239 27.5 25 27.5H31.7929L21 16.7071L16.3536 21.3536C16.1583 21.5488 15.8417 21.5488 15.6464 21.3536L6.64645 12.3536C6.45118 12.1583 6.45118 11.8417 6.64645 11.6464Z" fill="white"/>
</svg>
