<?xml version="1.0" encoding="UTF-8"?>
<svg width="70px" height="70px" viewBox="0 0 70 70" version="1.1" xmlns="http://www.w3.org/2000/svg" xmlns:xlink="http://www.w3.org/1999/xlink">
    <!-- Generator: Sketch 55.2 (78181) - https://sketchapp.com -->
    <title>how-icon_optimize</title>
    <desc>Created with Sketch.</desc>
    <defs>
        <polygon id="path-1" points="0 0.0001 70 0.0001 70 70 0 70"></polygon>
        <polygon id="path-3" points="0 70 70 70 70 0 0 0"></polygon>
    </defs>
    <g id="Page-1" stroke="none" stroke-width="1" fill="none" fill-rule="evenodd">
        <g id="Crystal_homepage_hovers" transform="translate(-1075.000000, -949.000000)">
            <g id="How-it-works" transform="translate(-224.000000, 774.000000)">
                <g id="1-2-3" transform="translate(0.137410, 107.000000)">
                    <g id="Optimize" transform="translate(1158.862590, 68.000000)">
                        <g id="how-icon_optimize" transform="translate(140.000000, 0.000000)">
                            <g id="Group-3">
                                <mask id="mask-2" fill="white">
                                    <use xlink:href="#path-1"></use>
                                </mask>
                                <g id="Clip-2"></g>
                                <path d="M70,35.0001 C70,15.6701 54.33,0.0001 35,0.0001 C15.67,0.0001 0,15.6701 0,35.0001 C0,54.3301 15.67,70.0001 35,70.0001 C54.33,70.0001 70,54.3301 70,35.0001" id="Fill-1" fill="#F2EEED" mask="url(#mask-2)"></path>
                            </g>
                            <mask id="mask-4" fill="white">
                                <use xlink:href="#path-3"></use>
                            </mask>
                            <g id="Clip-5"></g>
                            <polygon id="Fill-4" fill="#FFFFFF" mask="url(#mask-4)" points="21.729 51.69 29.355 51.69 29.355 41.117 21.729 41.117"></polygon>
                            <polygon id="Fill-6" fill="#FFFFFF" mask="url(#mask-4)" points="9.099 51.69 16.725 51.69 16.725 47.553 9.099 47.553"></polygon>
                            <polygon id="Fill-7" fill="#FFFFFF" mask="url(#mask-4)" points="34.358 51.69 41.985 51.69 41.985 30.752 34.358 30.752"></polygon>
                            <polygon id="Fill-8" fill="#FFFFFF" mask="url(#mask-4)" points="46.989 51.69 54.615 51.69 54.615 19.187 46.989 19.187"></polygon>
                            <polygon id="Fill-9" fill="#8E7C79" mask="url(#mask-4)" points="59.619 51.69 67.245 51.69 67.245 9.814 59.619 9.814"></polygon>
                            <path d="M4.2168,11.839 L4.2168,8.927 L6.6528,8.255 L6.6528,8.003 L1.7808,8.003 L1.7808,6.239 L8.1648,6.239 L8.1648,9.319 L5.5608,10.075 L5.5608,10.327 L5.8968,10.327 C6.2418,10.327 6.5828,10.381 6.9188,10.488 C7.2548,10.596 7.5508,10.761 7.8078,10.985 C8.0648,11.209 8.2718,11.487 8.4308,11.818 C8.5898,12.15 8.6688,12.539 8.6688,12.987 L8.6688,13.155 C8.6688,13.594 8.5968,14 8.4518,14.373 C8.3068,14.747 8.0928,15.071 7.8078,15.346 C7.5238,15.622 7.1708,15.839 6.7508,15.997 C6.3308,16.156 5.8498,16.235 5.3088,16.235 C4.7578,16.235 4.2588,16.147 3.8108,15.969 C3.3628,15.792 2.9828,15.549 2.6698,15.241 C2.3578,14.933 2.1168,14.579 1.9488,14.177 C1.7808,13.776 1.6958,13.351 1.6958,12.903 L1.6958,12.315 L3.5448,12.315 L3.5448,12.819 C3.5448,13.267 3.6898,13.654 3.9788,13.981 C4.2678,14.308 4.7018,14.471 5.2808,14.471 C5.7758,14.471 6.1558,14.345 6.4218,14.093 C6.6878,13.841 6.8208,13.51 6.8208,13.099 C6.8208,12.661 6.6788,12.341 6.3938,12.14 C6.1098,11.94 5.7468,11.839 5.3088,11.839 L4.2168,11.839 Z" id="Fill-10" fill="#fff" mask="url(#mask-4)"></path>
                            <path d="M15.0674,14.9054 C15.0674,15.0924 15.0324,15.2674 14.9624,15.4304 C14.8924,15.5934 14.7964,15.7334 14.6744,15.8504 C14.5534,15.9674 14.4114,16.0604 14.2484,16.1304 C14.0854,16.2004 13.9144,16.2354 13.7374,16.2354 C13.5504,16.2354 13.3784,16.2004 13.2184,16.1304 C13.0604,16.0604 12.9204,15.9674 12.7984,15.8504 C12.6774,15.7334 12.5824,15.5934 12.5114,15.4304 C12.4424,15.2674 12.4074,15.0924 12.4074,14.9054 C12.4074,14.7184 12.4424,14.5434 12.5114,14.3804 C12.5824,14.2174 12.6774,14.0764 12.7984,13.9604 C12.9204,13.8434 13.0604,13.7504 13.2184,13.6804 C13.3784,13.6104 13.5504,13.5754 13.7374,13.5754 C13.9144,13.5754 14.0854,13.6104 14.2484,13.6804 C14.4114,13.7504 14.5534,13.8434 14.6744,13.9604 C14.7964,14.0764 14.8924,14.2174 14.9624,14.3804 C15.0324,14.5434 15.0674,14.7184 15.0674,14.9054" id="Fill-11" fill="#8E7C79" mask="url(#mask-4)"></path>
                            <polygon id="Fill-12" fill="#8E7C79" mask="url(#mask-4)" points="30.5196 38.0328 29.1056 36.6188 39.4806 26.2438 40.8946 27.6578"></polygon>
                            <polygon id="Fill-13" fill="#8E7C79" mask="url(#mask-4)" points="41.1875 32.5514 39.1875 32.5514 39.1875 27.9504 34.5865 27.9504 34.5865 25.9504 41.1875 25.9504"></polygon>
                            <polygon id="Fill-14" fill="#8E7C79" mask="url(#mask-4)" points="0 52.69 67.245 52.69 67.245 50.69 0 50.69"></polygon>
                        </g>
                    </g>
                </g>
            </g>
        </g>
    </g>
</svg>