<svg width="40" height="40" viewBox="0 0 40 40" fill="none" xmlns="http://www.w3.org/2000/svg">
<path fill-rule="evenodd" clip-rule="evenodd" d="M39 1H1V39H39V1ZM1 0H0V1V39V40H1H39H40V39V1V0H39H1ZM24.7738 15.2304C23.5091 15.2915 22.104 15.8905 20.7608 17.2617L20.7572 17.2654L20.7571 17.2654C20.3849 17.6376 19.7734 17.6376 19.4011 17.2654L19.3974 17.2616L19.3974 17.2616C18.0826 15.9188 16.7086 15.3229 15.4694 15.2494C14.2295 15.1759 13.0804 15.6219 12.1981 16.4443C10.4418 18.0813 9.69356 21.2853 11.6963 24.8677L11.7045 24.8824L11.7117 24.8976C12.766 27.1233 13.5842 28.7019 15.5824 32.052C15.8342 32.4711 16.3548 32.7385 16.8798 32.6954L16.8816 32.6953L20.1224 32.4006L20.1634 32.3969L20.2046 32.4L23.3901 32.6359L23.3947 32.6363C23.9206 32.6801 24.4423 32.4123 24.6942 31.9924L24.6949 31.9912C26.5745 28.8781 27.3932 27.2987 28.3897 25.2472L28.3987 25.2286L28.4092 25.2108C30.5848 21.5378 29.8739 18.2174 28.1012 16.5045C27.2103 15.6436 26.0394 15.1692 24.7738 15.2304ZM29.2802 25.7025C31.6344 21.713 30.9578 17.8742 28.796 15.7854C27.7181 14.7437 26.2823 14.1563 24.7255 14.2315C23.1791 14.3063 21.5587 15.0318 20.0791 16.5287C18.6302 15.0623 17.045 14.3411 15.5286 14.2512C14.0013 14.1606 12.588 14.7138 11.5162 15.7128C9.367 17.716 8.63959 21.4366 10.8151 25.3408C11.8811 27.5905 12.7155 29.1977 14.7239 32.5648L14.7246 32.5659C15.1805 33.3259 16.0747 33.766 16.9646 33.6918L16.9683 33.6915L20.1718 33.4003L23.3117 33.6328L23.3143 33.633C24.2029 33.7061 25.0952 33.2666 25.551 32.5081C27.4412 29.3774 28.275 27.7715 29.2802 25.7025ZM22.1735 11.6941H20.2092C20.4165 8.83515 22.8559 6.5 25.8899 6.5H27.846C27.5928 9.41111 25.1504 11.6941 22.1735 11.6941ZM25.8899 5.5C22.1351 5.5 19.1319 8.55564 19.1959 12.2029L19.2045 12.6941H19.6958H22.1735C25.8711 12.6941 28.8676 9.69767 28.8676 6V5.5H28.3676H25.8899Z" fill="white"/>
</svg>
