
<svg width="26px" height="26px" viewBox="0 0 26 26" version="1.1" xmlns="http://www.w3.org/2000/svg" xmlns:xlink="http://www.w3.org/1999/xlink">
    <defs>
        <polygon id="path-1" points="0.0001625 0 26 0 26 26 0.0001625 26"></polygon>
    </defs>
    <g id="Page-1" stroke="none" stroke-width="1" fill="none" fill-rule="evenodd">
        <g id="Crystal_homepage" transform="translate(-928.000000, -1092.000000)">
            <g id="How-it-works" transform="translate(-224.000000, 742.000000)">
                <g id="Optimize" transform="translate(1152.000000, 308.000000)">
                    <g id="icon" transform="translate(0.000000, 42.000000)">
                        <g id="Group-3">
                            <mask id="mask-2" fill="white">
                                <use xlink:href="#path-1"></use>
                            </mask>
                            <g id="Clip-2"></g>
                            <path d="M26.0001625,13 C26.0001625,20.1800625 20.1794125,26 13.0001625,26 C5.8201,26 0.0001625,20.1800625 0.0001625,13 C0.0001625,5.8199375 5.8201,0 13.0001625,0 C20.1794125,0 26.0001625,5.8199375 26.0001625,13" id="Fill-1" fill="#5E5554" mask="url(#mask-2)"></path>
                        </g>
                        <path d="M13.0894563,19.4705875 C12.2672063,19.4705875 11.5221438,19.3243375 10.8550813,19.03265 C10.1872063,18.741775 9.65095625,18.2908375 9.24633125,17.6839 C8.84089375,17.07615 8.62639375,16.3132125 8.60283125,15.3950875 L10.8550813,15.3950875 C10.8664563,16.0028375 11.0663313,16.512275 11.4538938,16.9234 C11.8406438,17.334525 12.3858313,17.5400875 13.0894563,17.5400875 C13.7565188,17.5400875 14.2692063,17.35565 14.6267063,16.9859625 C14.9842063,16.6170875 15.1629563,16.1523375 15.1629563,15.592525 C15.1629563,14.9368375 14.9273313,14.4395875 14.4568938,14.0999625 C13.9856438,13.7603375 13.3811437,13.590525 12.6425812,13.590525 L11.7130813,13.590525 L11.7130813,11.7128375 L12.6604563,11.7128375 C13.2682063,11.7128375 13.7743938,11.5698375 14.1798312,11.28465 C14.5844563,10.9978375 14.7875813,10.5753375 14.7875813,10.0147125 C14.7875813,9.5499625 14.6356437,9.1778375 14.3317688,8.897525 C14.0278938,8.618025 13.6078313,8.478275 13.0715813,8.478275 C12.4873938,8.478275 12.0315813,8.6513375 11.7041438,8.9958375 C11.3758938,9.3419625 11.1947063,9.765275 11.1589563,10.2649625 L8.92458125,10.2649625 C8.97170625,9.1095875 9.37389375,8.1979625 10.1311438,7.5309 C10.8875813,6.863025 11.8674563,6.5290875 13.0715813,6.5290875 C13.9295813,6.5290875 14.6535188,6.6818375 15.2433938,6.9857125 C15.8332687,7.2895875 16.2801438,7.6909625 16.5840187,8.1914625 C16.8878938,8.6919625 17.0398312,9.2460875 17.0398312,9.8538375 C17.0398312,10.5574625 16.8456438,11.1505875 16.4588938,11.6332125 C16.0713313,12.115025 15.5919563,12.440025 15.0199563,12.6074 C15.7227688,12.7504 16.2947688,13.0924625 16.7359563,13.6344 C17.1763313,14.17715 17.3973313,14.8588375 17.3973313,15.6810875 C17.3973313,16.372525 17.2299563,17.0038375 16.8968312,17.5758375 C16.5628938,18.1478375 16.0770188,18.6077125 15.4400188,18.9522125 C14.8022063,19.297525 14.0189563,19.4705875 13.0894563,19.4705875" id="Fill-4" fill="#FFFFFF"></path>
                    </g>
                </g>
            </g>
        </g>
    </g>
</svg>