
<svg width="26px" height="26px" viewBox="0 0 26 26" version="1.1" xmlns="http://www.w3.org/2000/svg" xmlns:xlink="http://www.w3.org/1999/xlink">
    <defs>
        <polygon id="path-1" points="0.0001625 0 26 0 26 25.9997563 0.0001625 25.9997563"></polygon>
    </defs>
    <g id="Page-1" stroke="none" stroke-width="1" fill="none" fill-rule="evenodd">
        <g id="Crystal_homepage" transform="translate(-539.000000, -1092.000000)">
            <g id="How-it-works" transform="translate(-224.000000, 742.000000)">
                <g id="Learn" transform="translate(763.000000, 308.000000)">
                    <g id="icon" transform="translate(0.000000, 42.000000)">
                        <g id="Group-3">
                            <mask id="mask-2" fill="white">
                                <use xlink:href="#path-1"></use>
                            </mask>
                            <g id="Clip-2"></g>
                            <path d="M26.0001625,12.9997563 C26.0001625,20.1798188 20.1794125,25.9997563 13.0001625,25.9997563 C5.8201,25.9997563 0.0001625,20.1798188 0.0001625,12.9997563 C0.0001625,5.82050625 5.8201,-0.00024375 13.0001625,-0.00024375 C20.1794125,-0.00024375 26.0001625,5.82050625 26.0001625,12.9997563" id="Fill-1" fill="#5E5554" mask="url(#mask-2)"></path>
                        </g>
                        <path d="M8.692125,19.3632562 L8.692125,17.7008812 C9.45425,17.0695687 10.196875,16.4439437 10.9175625,15.8240063 C11.63825,15.2048812 12.28175,14.5906313 12.8480625,13.9828813 C13.414375,13.3751312 13.8669375,12.7820063 14.2065625,12.2043187 C14.5461875,11.6266312 14.716,11.0635688 14.716,10.5151312 C14.716,10.0024437 14.5754375,9.54988125 14.2959375,9.15663125 C14.015625,8.76338125 13.554125,8.56675625 12.910625,8.56675625 C12.2549375,8.56675625 11.760125,8.78125625 11.427,9.21025625 C11.0930625,9.63925625 10.9265,10.1576312 10.9265,10.7653812 L8.71,10.7653812 C8.7335625,9.84806875 8.935875,9.08269375 9.31775,8.46844375 C9.6988125,7.85500625 10.205,7.39594375 10.837125,7.09206875 C11.4684375,6.78819375 12.17775,6.63625625 12.96425,6.63625625 C14.2390625,6.63625625 15.231125,6.98481875 15.9404375,7.68194375 C16.6489375,8.37906875 17.004,9.28175625 17.004,10.3900063 C17.004,11.0814438 16.8455625,11.7550063 16.5303125,12.4098812 C16.21425,13.0655688 15.8006875,13.6968813 15.288,14.3046312 C14.7753125,14.9123812 14.2211875,15.4819437 13.625625,16.0116937 C13.02925,16.5414437 12.4515625,17.0338188 11.89175,17.4863813 L17.307875,17.4863813 L17.307875,19.3632562 L8.692125,19.3632562 Z" id="Fill-4" fill="#FFFFFF"></path>
                    </g>
                </g>
            </g>
        </g>
    </g>
</svg>