<svg width="16" height="16" viewBox="0 0 16 16" fill="none" xmlns="http://www.w3.org/2000/svg">
<path d="M8 16C12.4183 16 16 12.4183 16 8C16 3.58172 12.4183 0 8 0C3.58172 0 0 3.58172 0 8C0 12.4183 3.58172 16 8 16Z" fill="black"/>
<path fill-rule="evenodd" clip-rule="evenodd" d="M8.99979 4.33218C8.99979 4.88447 8.55208 5.33218 7.99979 5.33218C7.44751 5.33218 6.99979 4.88447 6.99979 4.33218C6.99979 3.7799 7.44751 3.33218 7.99979 3.33218C8.55208 3.33218 8.99979 3.7799 8.99979 4.33218ZM6.6665 7.99922H7.33317V12.6659H9.33317V11.3326H8.6665V6.66589H6.6665V7.99922Z" fill="white"/>
</svg>
