<svg xmlns="http://www.w3.org/2000/svg" width="24" height="24" viewBox="0 0 24 24">
    <path fill="#fff" fill-rule="evenodd" d="M18.4 4.2c-.801 0-1.4.6-1.4 1.4 0 .8.599 1.4 1.4 1.4.8 0 1.399-.6 1.399-1.4 0-.8-.599-1.4-1.399-1.4M12 16c-2.201 0-4-1.8-4-4s1.799-4 4-4c2.2 0 4 1.8 4 4s-1.8 4-4 4m0-10.2c-3.4 0-6.201 2.8-6.201 6.2 0 3.4 2.801 6.2 6.201 6.2 3.4 0 6.2-2.8 6.2-6.2 0-3.4-2.8-6.2-6.2-6.2M12 0C8.7 0 8.299 0 7.1.1 2.7.3.299 2.7.1 7.1 0 8.3 0 8.7 0 12c0 3.3 0 3.7.1 4.9.199 4.4 2.6 6.8 7 7 1.199.1 1.6.1 4.9.1 3.299 0 3.7 0 4.9-.1 4.399-.2 6.8-2.6 7-7 .1-1.2.1-1.6.1-4.9 0-3.3 0-3.7-.1-4.9-.2-4.4-2.601-6.8-7-7C15.7 0 15.299 0 12 0m0 2.2c3.2 0 3.599 0 4.9.1 3.3.1 4.8 1.7 4.899 4.9.101 1.3.101 1.6.101 4.8 0 3.2 0 3.599-.101 4.8-.099 3.2-1.7 4.799-4.899 4.9-1.301.1-1.601.1-4.9.1-3.201 0-3.6 0-4.8-.1-3.3-.101-4.8-1.7-4.901-4.9C2.2 15.5 2.2 15.2 2.2 12c0-3.2 0-3.6.099-4.8C2.4 4 4 2.4 7.2 2.3c1.2-.1 1.599-.1 4.8-.1"/>
</svg>
