<svg width="40" height="40" viewBox="0 0 40 40" fill="none" xmlns="http://www.w3.org/2000/svg">
<path fill-rule="evenodd" clip-rule="evenodd" d="M39 1H1V39H39V1ZM1 0H0V1V39V40H1H39H40V39V1V0H39H1ZM6.64645 28.3536C6.84171 28.5488 7.15829 28.5488 7.35355 28.3536L16 19.7071L20.6464 24.3536C20.8417 24.5488 21.1583 24.5488 21.3536 24.3536L32.5 13.2071V20C32.5 20.2761 32.7239 20.5 33 20.5C33.2761 20.5 33.5 20.2761 33.5 20V12C33.5 11.9322 33.4865 11.8676 33.4621 11.8086C33.4439 11.7646 33.4191 11.7228 33.3879 11.6844C33.3772 11.6713 33.3658 11.6587 33.3536 11.6464C33.3056 11.5985 33.2504 11.5623 33.1914 11.5379C33.1453 11.5189 33.0969 11.507 33.0479 11.5023C33.032 11.5008 33.016 11.5 33 11.5H25C24.7239 11.5 24.5 11.7239 24.5 12C24.5 12.2761 24.7239 12.5 25 12.5H31.7929L21 23.2929L16.3536 18.6464C16.1583 18.4512 15.8417 18.4512 15.6464 18.6464L6.64645 27.6464C6.45118 27.8417 6.45118 28.1583 6.64645 28.3536Z" fill="white"/>
</svg>
