<?xml version="1.0" encoding="UTF-8" standalone="no"?>
<svg width="15px" height="15px" viewBox="0 0 15 15" version="1.1" xmlns="http://www.w3.org/2000/svg" xmlns:xlink="http://www.w3.org/1999/xlink">
    <title>Ongoing</title>
    <defs>
        <polygon id="path-1" points="14.9315455 14.9509091 14.9315455 8.1818182e-05 7.28781706e-05 8.1818182e-05 7.28781706e-05 14.9509091"></polygon>
    </defs>
    <g id="*-Atoms" stroke="none" stroke-width="1" fill="none" fill-rule="evenodd">
        <g id="Labels-and-Icons" transform="translate(-410.000000, -3024.000000)">
            <g transform="translate(410.000000, 3024.000000)">
                <mask id="mask-2" fill="white">
                    <use xlink:href="#path-1"></use>
                </mask>
                <g id="Clip-2"></g>
                <path d="M14.2528091,0 L14.2498091,0 C13.8745364,0 13.5696273,0.303272727 13.5679909,0.678818182 L13.5568091,3.135 C12.1481727,1.22127273 9.86026364,0.0501818182 7.34108182,0.0501818182 C4.8909,0.0501818182 2.57108182,1.21690909 1.13544545,3.17127273 C0.912354545,3.47481818 0.977809091,3.90136364 1.28108182,4.12445455 C1.58435455,4.34727273 2.01144545,4.28181818 2.23426364,3.97854545 C3.41408182,2.37272727 5.32317273,1.41381818 7.34108182,1.41381818 C9.48035455,1.41381818 11.4134455,2.43218182 12.5583545,4.08436364 L10.2824455,3.645 C9.91262727,3.57409091 9.55508182,3.81545455 9.48362727,4.18527273 C9.41217273,4.55509091 9.65408182,4.91263636 10.0239,4.98381818 L14.1003545,5.77118182 C14.1434455,5.77936364 14.1868091,5.78345455 14.2299,5.78345455 C14.3861727,5.78345455 14.5397182,5.72945455 14.6624455,5.62854545 C14.8195364,5.49981818 14.9106273,5.30754545 14.9117182,5.10463636 L14.9316273,0.684818182 C14.9332636,0.308181818 14.6294455,0.00163636364 14.2528091,0 M13.5854455,10.8766364 C13.2816273,10.6535455 12.8553545,10.719 12.6325364,11.0225455 C11.4524455,12.6286364 9.54362727,13.5872727 7.52571818,13.5872727 C5.3589,13.5872727 3.38299091,12.5266364 2.2449,10.821 L4.64926364,11.2851818 C5.01880909,11.3563636 5.37635455,11.1147273 5.44780909,10.7451818 C5.51926364,10.3753636 5.27735455,10.0178182 4.90780909,9.94636364 L0.831081818,9.15927273 C0.631445455,9.12081818 0.425536364,9.17318182 0.268990909,9.30190909 C0.1119,9.43063636 0.0208090909,9.62263636 0.0197181818,9.82554545 L8.18181817e-05,14.2453636 C-0.00182727273,14.622 0.302263636,14.9285455 0.6789,14.9304545 L0.6819,14.9304545 C1.0569,14.9304545 1.36180909,14.6271818 1.36371818,14.2516364 L1.37408182,11.9495455 C2.7909,13.8111818 5.05862727,14.9509091 7.52571818,14.9509091 C9.9759,14.9509091 12.2957182,13.7841818 13.7313545,11.8298182 C13.9541727,11.5262727 13.8889909,11.0997273 13.5854455,10.8766364" id="Fill-1" fill="#000" mask="url(#mask-2)"></path>
            </g>
        </g>
    </g>
</svg>
