<svg xmlns="http://www.w3.org/2000/svg" xmlns:xlink="http://www.w3.org/1999/xlink" width="1427" height="600" viewBox="0 0 1427 600">
    <defs>
        <path id="a" d="M0 0h1427v600H0z"/>
    </defs>
    <g fill="none" fill-rule="evenodd">
        <mask id="b" fill="#fff">
            <use xlink:href="#a"/>
        </mask>
        <use fill="#333" xlink:href="#a"/>
        <g fill="#231F20" mask="url(#b)" opacity=".4">
            <path d="M12.518 361.43a5.331 5.331 0 1 0 0 10.663 5.331 5.331 0 0 0 0-10.663M44.996 361.862a4.9 4.9 0 1 0 0 9.799 4.9 4.9 0 0 0 0-9.8M12.518 339.464a5.18 5.18 0 1 0 0-10.36 5.18 5.18 0 0 0 0 10.36M44.996 329.104a5.18 5.18 0 1 0 0 10.36 5.18 5.18 0 0 0 0-10.36M77.473 361.862a4.9 4.9 0 1 0 .002 9.8 4.9 4.9 0 0 0-.002-9.8M109.951 361.689a5.072 5.072 0 1 0 0 10.144 5.072 5.072 0 0 0 0-10.144M142.429 361.558a5.202 5.202 0 1 0 0 10.405 5.202 5.202 0 0 0 0-10.405M174.906 361.456a5.305 5.305 0 1 0 0 10.61 5.305 5.305 0 0 0 0-10.61M77.473 328.952a5.33 5.33 0 1 0 0 10.662 5.33 5.33 0 0 0 0-10.662M109.951 329.212a5.072 5.072 0 1 0 0 10.143 5.072 5.072 0 0 0 0-10.143M142.429 328.952a5.33 5.33 0 1 0 0 10.662 5.33 5.33 0 0 0 0-10.662M174.906 328.978a5.305 5.305 0 1 0 0 10.61 5.305 5.305 0 0 0 0-10.61M207.384 361.558a5.202 5.202 0 1 0 0 10.405 5.202 5.202 0 0 0 0-10.405M239.862 361.816a4.945 4.945 0 1 0-.002 9.89 4.945 4.945 0 0 0 .002-9.89M272.339 362.031a4.73 4.73 0 1 0 0 9.46 4.73 4.73 0 0 0 0-9.46M304.817 362.019a4.742 4.742 0 1 0 0 9.484 4.742 4.742 0 0 0 0-9.484M207.384 339.101a4.818 4.818 0 1 0 0-9.636 4.818 4.818 0 0 0 0 9.636M239.862 328.978a5.305 5.305 0 1 0 0 10.61 5.305 5.305 0 0 0 0-10.61M272.339 328.936a5.348 5.348 0 1 0 0 10.696 5.348 5.348 0 0 0 0-10.696M304.817 329.107a5.176 5.176 0 1 0 0 10.353 5.176 5.176 0 0 0 0-10.353M12.518 296.475a5.331 5.331 0 1 0 0 10.663 5.331 5.331 0 0 0 0-10.663M44.996 296.626a5.18 5.18 0 1 0 0 10.36 5.18 5.18 0 0 0 0-10.36M12.518 263.713a5.615 5.615 0 1 0 0 11.231 5.615 5.615 0 0 0 0-11.231M44.996 263.782a5.546 5.546 0 1 0 0 11.093 5.546 5.546 0 0 0 0-11.093M12.518 230.622a6.229 6.229 0 1 0 0 12.457 6.229 6.229 0 0 0 0-12.457M44.996 230.622a6.229 6.229 0 1 0 0 12.459 6.229 6.229 0 0 0 0-12.46M12.518 198.144a6.229 6.229 0 1 0 0 12.457 6.229 6.229 0 0 0 0-12.457M44.996 198.144a6.229 6.229 0 1 0 0 12.459 6.229 6.229 0 0 0 0-12.46M77.473 296.475a5.33 5.33 0 1 0 0 10.661 5.33 5.33 0 0 0 0-10.661M109.951 296.734a5.072 5.072 0 1 0 0 10.143 5.072 5.072 0 0 0 0-10.143M142.429 307.009a5.202 5.202 0 1 0 0-10.405 5.202 5.202 0 0 0 0 10.405M174.906 306.7a4.894 4.894 0 1 0 0-9.788 4.894 4.894 0 0 0 0 9.788M77.473 263.442a5.886 5.886 0 1 0 0 11.772 5.886 5.886 0 0 0 0-11.772M109.951 263.492a5.836 5.836 0 1 0 0 11.673 5.836 5.836 0 0 0 0-11.673M142.429 263.632a5.696 5.696 0 1 0 0 11.393 5.696 5.696 0 0 0 0-11.393M174.906 263.573a5.756 5.756 0 1 0 .001 11.512 5.756 5.756 0 0 0 0-11.512M77.473 230.622a6.229 6.229 0 1 0 0 12.457 6.229 6.229 0 0 0 0-12.457M109.951 230.622a6.229 6.229 0 1 0 0 12.457 6.229 6.229 0 0 0 0-12.457M142.429 230.622a6.229 6.229 0 1 0 0 12.457 6.229 6.229 0 0 0 0-12.457M174.906 230.622a6.229 6.229 0 1 0 0 12.457 6.229 6.229 0 0 0 0-12.457M77.473 198.144a6.229 6.229 0 1 0 0 12.457 6.229 6.229 0 0 0 0-12.457M109.951 198.144a6.229 6.229 0 1 0 0 12.457 6.229 6.229 0 0 0 0-12.457M142.429 198.144a6.229 6.229 0 1 0 0 12.457 6.229 6.229 0 0 0 0-12.457M174.906 198.144a6.229 6.229 0 1 0 0 12.457 6.229 6.229 0 0 0 0-12.457M207.384 306.535a4.73 4.73 0 1 0 0-9.459 4.73 4.73 0 0 0 0 9.459M239.862 296.86a4.945 4.945 0 1 0-.002 9.89 4.945 4.945 0 0 0 .002-9.89M272.339 307.117a5.311 5.311 0 1 0 0-10.623 5.311 5.311 0 0 0 0 10.623M304.817 296.63a5.176 5.176 0 1 0 0 10.351 5.176 5.176 0 0 0 0-10.351M207.384 263.573a5.756 5.756 0 1 0 .001 11.512 5.756 5.756 0 0 0-.001-11.512M239.862 264.07a5.259 5.259 0 1 0-.001 10.518 5.259 5.259 0 0 0 0-10.518M272.339 264.07a5.258 5.258 0 1 0 0 10.516 5.258 5.258 0 0 0 0-10.516M304.817 264.152a5.176 5.176 0 1 0 0 10.353 5.176 5.176 0 0 0 0-10.353M207.384 230.622a6.229 6.229 0 1 0 0 12.457 6.229 6.229 0 0 0 0-12.457M239.862 231.498a5.353 5.353 0 1 0 0 10.706 5.353 5.353 0 0 0 0-10.706M272.339 242.161a5.31 5.31 0 1 0 0-10.621 5.31 5.31 0 0 0 0 10.621M304.817 231.498a5.352 5.352 0 1 0 0 10.705 5.352 5.352 0 0 0 0-10.705M207.384 198.144a6.229 6.229 0 1 0 0 12.457 6.229 6.229 0 0 0 0-12.457M239.862 199.4a4.974 4.974 0 1 0 0 9.947 4.974 4.974 0 0 0 0-9.947M272.339 209.632a5.258 5.258 0 1 0 0-10.517 5.258 5.258 0 0 0 0 10.517M304.817 199.02a5.352 5.352 0 1 0 0 10.705 5.352 5.352 0 0 0 0-10.704M12.518 164.44a7.455 7.455 0 0 0-7.455 7.455 7.456 7.456 0 1 0 14.911 0 7.455 7.455 0 0 0-7.456-7.455M44.996 164.837a7.059 7.059 0 1 0 0 14.117 7.059 7.059 0 0 0 0-14.117M12.518 146.499a7.08 7.08 0 1 0 0-14.162 7.081 7.081 0 1 0 0 14.162M44.996 132.117a7.301 7.301 0 1 0 0 14.602 7.301 7.301 0 0 0 0-14.602M12.518 114.022a7.081 7.081 0 1 0 0-14.163 7.081 7.081 0 0 0 0 14.163M44.996 99.64a7.301 7.301 0 1 0 0 14.602 7.301 7.301 0 0 0 0-14.602M12.518 65.987a8.476 8.476 0 1 0 0 16.952 8.476 8.476 0 0 0 0-16.952M44.996 66.972a7.49 7.49 0 1 0 0 14.982 7.49 7.49 0 0 0 0-14.982M77.473 164.658a7.238 7.238 0 1 0 .001 14.477 7.238 7.238 0 0 0 0-14.477M109.951 164.837a7.059 7.059 0 1 0 0 14.118 7.059 7.059 0 0 0 0-14.118M142.429 165.667a6.229 6.229 0 1 0 0 12.457 6.229 6.229 0 0 0 0-12.457M174.906 165.667a6.229 6.229 0 1 0 0 12.457 6.229 6.229 0 0 0 0-12.457M77.473 132.117a7.301 7.301 0 1 0 .001 14.602 7.301 7.301 0 0 0 0-14.602M109.951 132.185a7.233 7.233 0 1 0 0 14.466 7.233 7.233 0 0 0 0-14.466M142.429 133.189a6.229 6.229 0 1 0 0 12.457 6.229 6.229 0 0 0 0-12.457M174.906 133.189a6.229 6.229 0 1 0 0 12.457 6.229 6.229 0 0 0 0-12.457M77.473 99.64a7.301 7.301 0 1 0 .001 14.602 7.301 7.301 0 0 0 0-14.602M109.951 99.708a7.233 7.233 0 1 0 0 14.466 7.233 7.233 0 0 0 0-14.466M142.429 100.711a6.229 6.229 0 1 0 0 12.458 6.229 6.229 0 0 0 0-12.458M174.906 100.711a6.229 6.229 0 1 0 0 12.458 6.229 6.229 0 0 0 0-12.458M77.473 81.618a7.156 7.156 0 1 0 0-14.312 7.156 7.156 0 0 0 0 14.312M109.951 67.23a7.232 7.232 0 1 0 0 14.465 7.232 7.232 0 1 0 0-14.465M142.429 68.234a6.229 6.229 0 1 0 0 12.457 6.229 6.229 0 0 0 0-12.457M174.906 68.234a6.229 6.229 0 1 0 0 12.457 6.229 6.229 0 0 0 0-12.457M207.384 165.667a6.229 6.229 0 1 0 0 12.457 6.229 6.229 0 0 0 0-12.457M239.862 166.65a5.245 5.245 0 1 0-.001 10.49 5.245 5.245 0 0 0 0-10.49M272.339 177.14a5.245 5.245 0 1 0 0-10.49 5.245 5.245 0 0 0 0 10.49M304.817 177.071a5.176 5.176 0 1 0 0-10.351 5.176 5.176 0 0 0 0 10.351M207.384 133.189a6.229 6.229 0 1 0 0 12.457 6.229 6.229 0 0 0 0-12.457M239.862 134.173a5.245 5.245 0 1 0 0 10.49 5.245 5.245 0 0 0 0-10.49M272.339 133.69a5.728 5.728 0 1 0 0 11.456 5.728 5.728 0 0 0 0-11.456M304.817 144.594a5.176 5.176 0 1 0-.001-10.353 5.176 5.176 0 0 0 0 10.353M207.384 100.711a6.229 6.229 0 1 0 0 12.458 6.229 6.229 0 0 0 0-12.458M239.862 101.695a5.245 5.245 0 1 0-.001 10.49 5.245 5.245 0 0 0 0-10.49M272.339 112.185a5.245 5.245 0 1 0 0-10.49 5.245 5.245 0 0 0 0 10.49M304.817 112.117a5.176 5.176 0 1 0-.001-10.353 5.176 5.176 0 0 0 0 10.353M207.384 68.234a6.229 6.229 0 1 0 0 12.457 6.229 6.229 0 0 0 0-12.457M239.862 79.74a5.278 5.278 0 1 0-.002-10.556 5.278 5.278 0 0 0 .002 10.556M272.339 79.708a5.245 5.245 0 1 0 0-10.491 5.245 5.245 0 0 0 0 10.49M304.817 79.639a5.176 5.176 0 1 0 0-10.352 5.176 5.176 0 0 0 0 10.352M12.518 33.422a8.563 8.563 0 0 0-8.563 8.563 8.563 8.563 0 0 0 17.126 0 8.563 8.563 0 0 0-8.563-8.563M44.996 34.495a7.49 7.49 0 1 0 0 14.98 7.49 7.49 0 0 0 0-14.98M12.518 17.762a8.254 8.254 0 1 0 0-16.509 8.254 8.254 0 0 0 0 16.509M44.996 2.017a7.49 7.49 0 1 0 0 14.981 7.49 7.49 0 0 0 0-14.98M77.473 49.14a7.155 7.155 0 1 0 0-14.31 7.155 7.155 0 0 0 0 14.31M109.951 34.752a7.233 7.233 0 1 0 0 14.466 7.233 7.233 0 0 0 0-14.466M142.429 35.756a6.229 6.229 0 1 0 0 12.457 6.229 6.229 0 0 0 0-12.457M174.906 35.756a6.229 6.229 0 1 0 0 12.457 6.229 6.229 0 0 0 0-12.457M77.473 16.662a7.155 7.155 0 1 0 0-14.31 7.155 7.155 0 0 0 0 14.31M109.951 2.275a7.232 7.232 0 1 0 0 14.465 7.232 7.232 0 1 0 0-14.465M142.429 3.279a6.229 6.229 0 1 0 0 12.457 6.229 6.229 0 0 0 0-12.457M174.906 3.279a6.229 6.229 0 1 0 0 12.457 6.229 6.229 0 0 0 0-12.457M207.384 35.756a6.229 6.229 0 1 0 0 12.457 6.229 6.229 0 0 0 0-12.457M239.862 47.262a5.277 5.277 0 1 0 0-10.555 5.277 5.277 0 0 0 0 10.555M272.339 47.23a5.245 5.245 0 1 0 0-10.49 5.245 5.245 0 0 0 0 10.49M304.817 47.161a5.176 5.176 0 1 0-.001-10.353 5.176 5.176 0 0 0 0 10.353M207.384 3.279a6.229 6.229 0 1 0 0 12.457 6.229 6.229 0 0 0 0-12.457M239.862 14.753a5.245 5.245 0 1 0 0-10.49 5.245 5.245 0 0 0 0 10.49M272.339 14.753a5.245 5.245 0 1 0 0-10.49 5.245 5.245 0 0 0 0 10.49M304.817 14.683a5.176 5.176 0 1 0 0-10.351 5.176 5.176 0 0 0 0 10.351M12.518 394.918a4.32 4.32 0 1 0 0 8.641 4.32 4.32 0 0 0 0-8.641M44.996 394.918a4.32 4.32 0 1 0 0 8.641 4.32 4.32 0 0 0 0-8.641M77.473 394.918a4.32 4.32 0 1 0 .001 8.64 4.32 4.32 0 0 0 0-8.64M109.951 394.918a4.32 4.32 0 1 0 0 8.64 4.32 4.32 0 0 0 0-8.64M142.429 394.918a4.321 4.321 0 1 0 0 8.642 4.321 4.321 0 0 0 0-8.642M174.906 394.918a4.32 4.32 0 1 0 0 8.641 4.32 4.32 0 0 0 0-8.641M207.384 394.918a4.32 4.32 0 1 0 0 8.641 4.32 4.32 0 0 0 0-8.641M239.862 394.918a4.32 4.32 0 1 0 0 8.641 4.32 4.32 0 0 0 0-8.641M272.339 394.918a4.32 4.32 0 1 0 0 8.64 4.32 4.32 0 0 0 0-8.64M304.817 394.918a4.321 4.321 0 1 0 0 8.642 4.321 4.321 0 0 0 0-8.642M337.294 394.918a4.321 4.321 0 1 0 0 8.642 4.321 4.321 0 0 0 0-8.642M369.772 394.918a4.32 4.32 0 1 0 0 8.641 4.32 4.32 0 0 0 0-8.641M402.25 394.918a4.32 4.32 0 1 0 0 8.641 4.32 4.32 0 0 0 0-8.641M12.518 427.396a4.32 4.32 0 1 0 0 8.64 4.32 4.32 0 0 0 0-8.64M44.996 427.396a4.32 4.32 0 1 0 0 8.64 4.32 4.32 0 0 0 0-8.64M77.473 427.396a4.32 4.32 0 1 0 0 8.64 4.32 4.32 0 0 0 0-8.64M109.951 427.396a4.32 4.32 0 1 0 0 8.64 4.32 4.32 0 0 0 0-8.64M142.429 427.396a4.321 4.321 0 1 0 0 8.642 4.321 4.321 0 0 0 0-8.642M174.906 427.396a4.32 4.32 0 1 0 0 8.64 4.32 4.32 0 0 0 0-8.64M207.384 427.396a4.32 4.32 0 1 0 0 8.64 4.32 4.32 0 0 0 0-8.64M239.862 427.396a4.32 4.32 0 1 0-.001 8.64 4.32 4.32 0 0 0 0-8.64M272.339 427.396a4.32 4.32 0 1 0 0 8.64 4.32 4.32 0 0 0 0-8.64M304.817 427.396a4.321 4.321 0 1 0 0 8.642 4.321 4.321 0 0 0 0-8.642M337.294 427.396a4.321 4.321 0 1 0 0 8.642 4.321 4.321 0 0 0 0-8.642M369.772 427.396a4.32 4.32 0 1 0 0 8.64 4.32 4.32 0 0 0 0-8.64M402.25 427.396a4.32 4.32 0 1 0-.001 8.64 4.32 4.32 0 0 0 0-8.64M12.518 591.142a2.88 2.88 0 1 0 0 5.762 2.88 2.88 0 0 0 0-5.762M44.996 591.142a2.88 2.88 0 1 0 0 5.761 2.88 2.88 0 0 0 0-5.76M77.473 591.142a2.88 2.88 0 1 0 0 5.76 2.88 2.88 0 0 0 0-5.76M109.951 591.142a2.88 2.88 0 1 0 0 5.76 2.88 2.88 0 0 0 0-5.76M142.429 591.142a2.88 2.88 0 1 0 0 5.76 2.88 2.88 0 0 0 0-5.76M174.906 591.142a2.88 2.88 0 1 0 0 5.762 2.88 2.88 0 0 0 0-5.762M207.384 591.142a2.88 2.88 0 1 0 0 5.761 2.88 2.88 0 0 0 0-5.76M239.862 591.142a2.88 2.88 0 1 0-.001 5.761 2.88 2.88 0 0 0 0-5.76M272.339 591.142a2.88 2.88 0 1 0 0 5.76 2.88 2.88 0 0 0 0-5.76M304.817 591.142a2.88 2.88 0 1 0 0 5.76 2.88 2.88 0 0 0 0-5.76M337.294 591.142a2.88 2.88 0 1 0 0 5.76 2.88 2.88 0 0 0 0-5.76M369.772 591.142a2.88 2.88 0 1 0 0 5.761 2.88 2.88 0 0 0 0-5.76M402.25 591.142a2.88 2.88 0 1 0-.001 5.761 2.88 2.88 0 0 0 0-5.76M434.727 591.142a2.88 2.88 0 1 0 0 5.76 2.88 2.88 0 0 0 0-5.76M467.205 591.142a2.88 2.88 0 1 0 0 5.76 2.88 2.88 0 0 0 0-5.76M499.682 591.142a2.88 2.88 0 1 0 0 5.76 2.88 2.88 0 0 0 0-5.76M862.73 591.142a2.88 2.88 0 1 0 0 5.76 2.88 2.88 0 0 0 0-5.76M862.73 558.705a2.88 2.88 0 1 0 0 5.76 2.88 2.88 0 0 0 0-5.76M862.73 526.268a2.88 2.88 0 1 0 0 5.761 2.88 2.88 0 0 0 0-5.76M862.73 493.831a2.88 2.88 0 1 0 0 5.761 2.88 2.88 0 0 0 0-5.76M862.73 461.394a2.88 2.88 0 1 0 0 5.761 2.88 2.88 0 0 0 0-5.76M862.73 428.958a2.88 2.88 0 1 0 .002 5.761 2.88 2.88 0 0 0-.002-5.761M862.73 396.521a2.88 2.88 0 1 0 0 5.76 2.88 2.88 0 0 0 0-5.76M862.73 364.084a2.88 2.88 0 1 0 0 5.76 2.88 2.88 0 0 0 0-5.76M862.73 331.647a2.88 2.88 0 1 0 0 5.76 2.88 2.88 0 0 0 0-5.76M862.73 299.21a2.88 2.88 0 1 0 0 5.761 2.88 2.88 0 0 0 0-5.76M862.73 266.773a2.88 2.88 0 1 0 0 5.761 2.88 2.88 0 0 0 0-5.76M862.73 234.337a2.88 2.88 0 1 0 0 5.76 2.88 2.88 0 0 0 0-5.76M862.73 201.9a2.88 2.88 0 1 0 0 5.76 2.88 2.88 0 0 0 0-5.76M862.73 169.463a2.88 2.88 0 1 0 0 5.76 2.88 2.88 0 0 0 0-5.76M862.73 137.026a2.88 2.88 0 1 0 0 5.76 2.88 2.88 0 0 0 0-5.76M862.73 104.59a2.88 2.88 0 1 0 0 5.76 2.88 2.88 0 0 0 0-5.76M862.73 72.152a2.88 2.88 0 1 0 0 5.761 2.88 2.88 0 0 0 0-5.76M862.73 39.715a2.88 2.88 0 1 0 0 5.761 2.88 2.88 0 0 0 0-5.76M862.73 7.279a2.88 2.88 0 1 0 0 5.76 2.88 2.88 0 0 0 0-5.76M12.518 493.07a3.601 3.601 0 1 0 0 7.203 3.601 3.601 0 0 0 0-7.202M12.518 525.549a3.6 3.6 0 1 0 0 7.2 3.6 3.6 0 0 0 0-7.2M12.518 558.026a3.601 3.601 0 1 0 0 7.202 3.601 3.601 0 0 0 0-7.202M44.996 493.07a3.601 3.601 0 1 0 0 7.203 3.601 3.601 0 0 0 0-7.202M44.996 525.549a3.6 3.6 0 1 0 0 7.2 3.6 3.6 0 0 0 0-7.2M44.996 558.026a3.601 3.601 0 1 0 0 7.202 3.601 3.601 0 0 0 0-7.202M77.473 493.07a3.601 3.601 0 1 0 .002 7.203 3.601 3.601 0 0 0-.002-7.202M77.473 525.549a3.6 3.6 0 1 0 0 7.2 3.6 3.6 0 0 0 0-7.2M77.473 558.026a3.601 3.601 0 1 0 .002 7.202 3.601 3.601 0 0 0-.002-7.202M109.951 493.07a3.601 3.601 0 1 0 .002 7.203 3.601 3.601 0 0 0-.002-7.202M109.951 525.549a3.6 3.6 0 1 0 0 7.2 3.6 3.6 0 0 0 0-7.2M109.951 558.026a3.601 3.601 0 1 0 .002 7.202 3.601 3.601 0 0 0-.002-7.202M142.429 493.07a3.601 3.601 0 1 0 .001 7.203 3.601 3.601 0 0 0-.001-7.202M142.429 525.549a3.6 3.6 0 1 0 0 7.2 3.6 3.6 0 0 0 0-7.2M142.429 558.026a3.601 3.601 0 1 0 .001 7.202 3.601 3.601 0 0 0-.001-7.202M174.906 493.07a3.602 3.602 0 1 0 .002 7.204 3.602 3.602 0 0 0-.002-7.203M174.906 525.549a3.601 3.601 0 1 0 0 7.202 3.601 3.601 0 0 0 0-7.202M174.906 558.026a3.602 3.602 0 1 0 .002 7.203 3.602 3.602 0 0 0-.002-7.203M207.384 493.07a3.601 3.601 0 1 0 0 7.203 3.601 3.601 0 0 0 0-7.202M207.384 525.549a3.6 3.6 0 1 0 0 7.2 3.6 3.6 0 0 0 0-7.2M207.384 558.026a3.601 3.601 0 1 0 0 7.202 3.601 3.601 0 0 0 0-7.202M239.862 493.07a3.601 3.601 0 1 0 0 7.203 3.601 3.601 0 0 0 0-7.202M239.862 525.549a3.6 3.6 0 1 0-.001 7.2 3.6 3.6 0 0 0 0-7.2M239.862 558.026a3.601 3.601 0 1 0 0 7.202 3.601 3.601 0 0 0 0-7.202M272.339 493.07a3.601 3.601 0 1 0 .002 7.203 3.601 3.601 0 0 0-.002-7.202M272.339 525.549a3.6 3.6 0 1 0 0 7.2 3.6 3.6 0 0 0 0-7.2M272.339 558.026a3.601 3.601 0 1 0 .002 7.202 3.601 3.601 0 0 0-.002-7.202M304.817 493.07a3.601 3.601 0 1 0 .001 7.203 3.601 3.601 0 0 0-.001-7.202M304.817 525.549a3.6 3.6 0 1 0 0 7.2 3.6 3.6 0 0 0 0-7.2M304.817 558.026a3.601 3.601 0 1 0 .001 7.202 3.601 3.601 0 0 0-.001-7.202M337.294 493.07a3.602 3.602 0 1 0 .002 7.204 3.602 3.602 0 0 0-.002-7.203M337.294 525.549a3.601 3.601 0 1 0 0 7.202 3.601 3.601 0 0 0 0-7.202M337.294 558.026a3.602 3.602 0 1 0 .002 7.203 3.602 3.602 0 0 0-.002-7.203M369.772 493.07a3.601 3.601 0 1 0 0 7.203 3.601 3.601 0 0 0 0-7.202M369.772 525.549a3.6 3.6 0 1 0 0 7.2 3.6 3.6 0 0 0 0-7.2M369.772 558.026a3.601 3.601 0 1 0 0 7.202 3.601 3.601 0 0 0 0-7.202M402.25 493.07a3.601 3.601 0 1 0 0 7.203 3.601 3.601 0 0 0 0-7.202M402.25 525.549a3.6 3.6 0 1 0-.001 7.2 3.6 3.6 0 0 0 0-7.2M402.25 558.026a3.601 3.601 0 1 0 0 7.202 3.601 3.601 0 0 0 0-7.202M434.727 493.07a3.601 3.601 0 1 0 .002 7.203 3.601 3.601 0 0 0-.002-7.202M434.727 525.549a3.6 3.6 0 1 0 0 7.2 3.6 3.6 0 0 0 0-7.2M434.727 558.026a3.601 3.601 0 1 0 .002 7.202 3.601 3.601 0 0 0-.002-7.202M467.205 493.07a3.601 3.601 0 1 0 .001 7.203 3.601 3.601 0 0 0-.001-7.202M467.205 525.549a3.6 3.6 0 1 0 0 7.2 3.6 3.6 0 0 0 0-7.2M467.205 558.026a3.601 3.601 0 1 0 .001 7.202 3.601 3.601 0 0 0-.001-7.202M499.682 493.07a3.602 3.602 0 1 0 .002 7.204 3.602 3.602 0 0 0-.002-7.203M499.682 525.549a3.601 3.601 0 1 0 0 7.202 3.601 3.601 0 0 0 0-7.202M499.682 558.026a3.602 3.602 0 1 0 .002 7.203 3.602 3.602 0 0 0-.002-7.203M434.727 395.638a3.6 3.6 0 1 0 0 7.201 3.6 3.6 0 0 0 0-7.2M434.727 428.115a3.601 3.601 0 1 0 .002 7.202 3.601 3.601 0 0 0-.002-7.202M434.727 460.593a3.6 3.6 0 1 0 0 7.201 3.6 3.6 0 0 0 0-7.2M467.205 395.638a3.6 3.6 0 1 0 0 7.201 3.6 3.6 0 0 0 0-7.2M467.205 428.115a3.601 3.601 0 1 0 .001 7.202 3.601 3.601 0 0 0-.001-7.202M467.205 460.593a3.6 3.6 0 1 0 0 7.201 3.6 3.6 0 0 0 0-7.2M499.682 395.638a3.601 3.601 0 1 0 0 7.202 3.601 3.601 0 0 0 0-7.202M499.682 428.115a3.602 3.602 0 1 0 .002 7.203 3.602 3.602 0 0 0-.002-7.203M499.682 460.593a3.601 3.601 0 1 0 0 7.202 3.601 3.601 0 0 0 0-7.202M434.727 298.205a3.6 3.6 0 1 0 0 7.201 3.6 3.6 0 0 0 0-7.2M434.727 330.683a3.601 3.601 0 1 0 .002 7.202 3.601 3.601 0 0 0-.002-7.202M434.727 363.16a3.6 3.6 0 1 0 0 7.201 3.6 3.6 0 0 0 0-7.2M467.205 298.205a3.6 3.6 0 1 0 0 7.201 3.6 3.6 0 0 0 0-7.2M467.205 330.683a3.601 3.601 0 1 0 .001 7.202 3.601 3.601 0 0 0-.001-7.202M467.205 363.16a3.6 3.6 0 1 0 0 7.201 3.6 3.6 0 0 0 0-7.2M499.682 298.205a3.601 3.601 0 1 0 0 7.202 3.601 3.601 0 0 0 0-7.202M499.682 330.683a3.602 3.602 0 1 0 .002 7.203 3.602 3.602 0 0 0-.002-7.203M499.682 363.16a3.601 3.601 0 1 0 0 7.203 3.601 3.601 0 0 0 0-7.202M434.727 200.772a3.601 3.601 0 1 0 .002 7.202 3.601 3.601 0 0 0-.002-7.202M434.727 233.25a3.6 3.6 0 1 0 0 7.201 3.6 3.6 0 0 0 0-7.2M434.727 265.727a3.601 3.601 0 1 0 .002 7.202 3.601 3.601 0 0 0-.002-7.202M467.205 200.772a3.601 3.601 0 1 0 .001 7.202 3.601 3.601 0 0 0-.001-7.202M467.205 233.25a3.6 3.6 0 1 0 0 7.201 3.6 3.6 0 0 0 0-7.2M467.205 265.727a3.601 3.601 0 1 0 .001 7.202 3.601 3.601 0 0 0-.001-7.202M499.682 200.772a3.602 3.602 0 1 0 .002 7.203 3.602 3.602 0 0 0-.002-7.203M499.682 233.25a3.601 3.601 0 1 0 0 7.202 3.601 3.601 0 0 0 0-7.202M499.682 265.727a3.602 3.602 0 1 0 .002 7.204 3.602 3.602 0 0 0-.002-7.204M434.727 103.34a3.601 3.601 0 1 0 .002 7.201 3.601 3.601 0 0 0-.002-7.202M434.727 135.817a3.6 3.6 0 1 0 0 7.201 3.6 3.6 0 0 0 0-7.2M434.727 168.295a3.601 3.601 0 1 0 .002 7.202 3.601 3.601 0 0 0-.002-7.202M467.205 103.34a3.601 3.601 0 1 0 .001 7.201 3.601 3.601 0 0 0-.001-7.202M467.205 135.817a3.6 3.6 0 1 0 0 7.201 3.6 3.6 0 0 0 0-7.2M467.205 168.295a3.601 3.601 0 1 0 .001 7.202 3.601 3.601 0 0 0-.001-7.202M499.682 103.34a3.602 3.602 0 1 0 .002 7.203 3.602 3.602 0 0 0-.002-7.204M499.682 135.817a3.601 3.601 0 1 0 0 7.202 3.601 3.601 0 0 0 0-7.202M499.682 168.295a3.602 3.602 0 1 0 .002 7.203 3.602 3.602 0 0 0-.002-7.203M434.727 5.907a3.601 3.601 0 1 0 .002 7.202 3.601 3.601 0 0 0-.002-7.202M434.727 38.384a3.601 3.601 0 1 0 .002 7.202 3.601 3.601 0 0 0-.002-7.202M434.727 70.862a3.6 3.6 0 1 0 0 7.201 3.6 3.6 0 0 0 0-7.2M467.205 5.907a3.601 3.601 0 1 0 .001 7.202 3.601 3.601 0 0 0-.001-7.202M467.205 38.384a3.601 3.601 0 1 0 .001 7.202 3.601 3.601 0 0 0-.001-7.202M467.205 70.862a3.6 3.6 0 1 0 0 7.201 3.6 3.6 0 0 0 0-7.2M499.682 5.907a3.602 3.602 0 1 0 .002 7.203 3.602 3.602 0 0 0-.002-7.203M499.682 38.384a3.602 3.602 0 1 0 .002 7.203 3.602 3.602 0 0 0-.002-7.203M499.682 70.862a3.601 3.601 0 1 0 0 7.202 3.601 3.601 0 0 0 0-7.202M12.518 459.873a4.32 4.32 0 1 0 0 8.641 4.32 4.32 0 0 0 0-8.641M44.996 459.873a4.32 4.32 0 1 0 0 8.641 4.32 4.32 0 0 0 0-8.641M77.473 459.873a4.32 4.32 0 1 0 0 8.64 4.32 4.32 0 0 0 0-8.64M109.951 459.873a4.32 4.32 0 1 0 0 8.64 4.32 4.32 0 0 0 0-8.64M142.429 459.873a4.321 4.321 0 1 0 0 8.642 4.321 4.321 0 0 0 0-8.642M174.906 459.873a4.32 4.32 0 1 0 0 8.641 4.32 4.32 0 0 0 0-8.641M207.384 459.873a4.32 4.32 0 1 0 0 8.641 4.32 4.32 0 0 0 0-8.641M239.862 459.873a4.32 4.32 0 1 0-.001 8.641 4.32 4.32 0 0 0 0-8.641M272.339 459.873a4.32 4.32 0 1 0 0 8.64 4.32 4.32 0 0 0 0-8.64M304.817 459.873a4.321 4.321 0 1 0 0 8.642 4.321 4.321 0 0 0 0-8.642M337.294 459.873a4.321 4.321 0 1 0 0 8.642 4.321 4.321 0 0 0 0-8.642M369.772 459.873a4.32 4.32 0 1 0 0 8.641 4.32 4.32 0 0 0 0-8.641M402.25 459.873a4.32 4.32 0 1 0-.001 8.641 4.32 4.32 0 0 0 0-8.641M337.294 297.485a4.321 4.321 0 1 0 0 8.642 4.321 4.321 0 0 0 0-8.642M369.772 297.485a4.32 4.32 0 1 0 0 8.641 4.32 4.32 0 0 0 0-8.641M402.25 297.485a4.32 4.32 0 1 0-.001 8.641 4.32 4.32 0 0 0 0-8.641M337.294 329.963a4.321 4.321 0 1 0 0 8.642 4.321 4.321 0 0 0 0-8.642M369.772 329.963a4.32 4.32 0 1 0 0 8.641 4.32 4.32 0 0 0 0-8.641M402.25 329.963a4.32 4.32 0 1 0-.001 8.641 4.32 4.32 0 0 0 0-8.641M337.294 362.44a4.321 4.321 0 1 0 0 8.642 4.321 4.321 0 0 0 0-8.642M369.772 362.44a4.32 4.32 0 1 0 0 8.641 4.32 4.32 0 0 0 0-8.64M402.25 362.44a4.32 4.32 0 1 0-.001 8.641 4.32 4.32 0 0 0 0-8.64M337.294 200.052a4.321 4.321 0 1 0 0 8.642 4.321 4.321 0 0 0 0-8.642M369.772 200.052a4.32 4.32 0 1 0 0 8.641 4.32 4.32 0 0 0 0-8.64M402.25 200.052a4.32 4.32 0 1 0-.001 8.641 4.32 4.32 0 0 0 0-8.64M337.294 232.53a4.321 4.321 0 1 0 0 8.642 4.321 4.321 0 0 0 0-8.642M369.772 232.53a4.32 4.32 0 1 0 0 8.641 4.32 4.32 0 0 0 0-8.641M402.25 232.53a4.32 4.32 0 1 0 0 8.641 4.32 4.32 0 0 0 0-8.641M337.294 265.008a4.321 4.321 0 1 0 0 8.642 4.321 4.321 0 0 0 0-8.642M369.772 265.008a4.32 4.32 0 1 0 0 8.64 4.32 4.32 0 0 0 0-8.64M402.25 265.008a4.32 4.32 0 1 0-.001 8.64 4.32 4.32 0 0 0 0-8.64M337.294 102.62a4.321 4.321 0 1 0 0 8.642 4.321 4.321 0 0 0 0-8.642M369.772 102.62a4.32 4.32 0 1 0 0 8.64 4.32 4.32 0 0 0 0-8.64M402.25 102.62a4.32 4.32 0 1 0-.001 8.64 4.32 4.32 0 0 0 0-8.64M337.294 135.097a4.321 4.321 0 1 0 0 8.642 4.321 4.321 0 0 0 0-8.642M369.772 135.097a4.32 4.32 0 1 0 0 8.641 4.32 4.32 0 0 0 0-8.641M402.25 135.097a4.32 4.32 0 1 0-.001 8.641 4.32 4.32 0 0 0 0-8.641M337.294 167.575a4.321 4.321 0 1 0 0 8.642 4.321 4.321 0 0 0 0-8.642M369.772 167.575a4.32 4.32 0 1 0 0 8.641 4.32 4.32 0 0 0 0-8.641M402.25 167.575a4.32 4.32 0 1 0-.001 8.641 4.32 4.32 0 0 0 0-8.641M337.294 5.186a4.322 4.322 0 1 0 .002 8.644 4.322 4.322 0 0 0-.002-8.644M369.772 5.186a4.321 4.321 0 1 0 0 8.643 4.321 4.321 0 0 0 0-8.643M402.25 5.186a4.321 4.321 0 1 0 0 8.643 4.321 4.321 0 0 0 0-8.643M337.294 37.664a4.321 4.321 0 1 0 0 8.642 4.321 4.321 0 0 0 0-8.642M369.772 37.664a4.32 4.32 0 1 0 0 8.641 4.32 4.32 0 0 0 0-8.64M402.25 37.664a4.32 4.32 0 1 0-.001 8.641 4.32 4.32 0 0 0 0-8.64M337.294 70.142a4.321 4.321 0 1 0 0 8.642 4.321 4.321 0 0 0 0-8.642M369.772 70.142a4.32 4.32 0 1 0 0 8.641 4.32 4.32 0 0 0 0-8.641M402.25 70.142a4.32 4.32 0 1 0 0 8.641 4.32 4.32 0 0 0 0-8.641M1415.27 242.003a5.331 5.331 0 1 0 0-10.663 5.331 5.331 0 0 0 0 10.663M1382.793 241.571a4.9 4.9 0 1 0-.002-9.8 4.9 4.9 0 0 0 .002 9.8M1415.27 263.97a5.18 5.18 0 1 0 0 10.36 5.18 5.18 0 0 0 0-10.36M1382.793 274.33a5.18 5.18 0 1 0-.001-10.361 5.18 5.18 0 0 0 0 10.36M1350.315 241.571a4.9 4.9 0 1 0 0-9.799 4.9 4.9 0 0 0 0 9.8M1317.837 241.744a5.072 5.072 0 1 0 0-10.144 5.072 5.072 0 0 0 0 10.144M1285.36 241.875a5.202 5.202 0 0 0 5.202-5.203 5.202 5.202 0 1 0-5.203 5.203M1252.882 241.977a5.305 5.305 0 1 0 0-10.61 5.305 5.305 0 0 0 0 10.61M1350.315 274.48a5.332 5.332 0 1 0 0-10.662 5.332 5.332 0 0 0 0 10.663M1317.837 274.222a5.072 5.072 0 1 0 0-10.144 5.072 5.072 0 0 0 0 10.144M1285.36 274.48a5.332 5.332 0 1 0 0-10.662 5.332 5.332 0 0 0 0 10.663M1252.882 274.454a5.304 5.304 0 1 0 0-10.608 5.304 5.304 0 0 0 0 10.608M1220.404 241.875a5.202 5.202 0 1 0 .002-10.405 5.202 5.202 0 0 0-.002 10.405M1187.927 241.617a4.946 4.946 0 1 0 0-9.891 4.946 4.946 0 0 0 0 9.891M1155.45 241.402a4.73 4.73 0 1 0 0-9.46 4.73 4.73 0 1 0 0 9.46M1122.971 241.414a4.742 4.742 0 1 0 .001-9.483 4.742 4.742 0 0 0 0 9.483M1220.404 264.332a4.817 4.817 0 1 0 .001 9.634 4.817 4.817 0 0 0 0-9.634M1187.927 274.454a5.304 5.304 0 0 0 5.304-5.304 5.304 5.304 0 1 0-10.609 0 5.304 5.304 0 0 0 5.305 5.304M1155.45 274.497a5.347 5.347 0 1 0 0-10.695 5.347 5.347 0 0 0 0 10.695M1122.971 274.326a5.177 5.177 0 1 0 0-10.354 5.177 5.177 0 0 0 0 10.354M1415.27 306.958a5.332 5.332 0 1 0 0-10.663 5.332 5.332 0 0 0 0 10.663M1382.793 306.807a5.18 5.18 0 1 0-.001-10.36 5.18 5.18 0 0 0 0 10.36M1415.27 339.72a5.615 5.615 0 1 0 0-11.23 5.615 5.615 0 0 0 0 11.23M1382.793 339.65a5.546 5.546 0 1 0-.002-11.092 5.546 5.546 0 0 0 .002 11.093M1415.27 372.811a6.229 6.229 0 1 0 0-12.457 6.229 6.229 0 0 0 0 12.457M1382.793 372.811a6.23 6.23 0 1 0-.001-12.458 6.23 6.23 0 0 0 0 12.458M1415.27 405.29a6.229 6.229 0 1 0 0-12.458 6.229 6.229 0 0 0 0 12.457M1382.793 405.29a6.23 6.23 0 1 0-.001-12.46 6.23 6.23 0 0 0 0 12.46M1350.315 306.958a5.332 5.332 0 1 0 0-10.663 5.332 5.332 0 0 0 0 10.663M1317.837 306.699a5.072 5.072 0 1 0 0-10.144 5.072 5.072 0 0 0 0 10.144M1285.36 296.424a5.202 5.202 0 1 0-.001 10.405 5.202 5.202 0 0 0 0-10.405M1252.882 296.734a4.893 4.893 0 1 0 0 9.786 4.893 4.893 0 0 0 0-9.786M1350.315 339.991a5.887 5.887 0 1 0 0-11.773 5.887 5.887 0 0 0 0 11.773M1317.837 339.941a5.836 5.836 0 1 0 0-11.673 5.836 5.836 0 0 0 0 11.673M1285.36 339.8a5.696 5.696 0 1 0 0-11.392 5.696 5.696 0 0 0 0 11.393M1252.882 339.86a5.756 5.756 0 1 0-.001-11.51 5.756 5.756 0 0 0 .001 11.51M1350.315 372.811a6.229 6.229 0 1 0 0-12.457 6.229 6.229 0 0 0 0 12.457M1317.837 372.811a6.229 6.229 0 1 0 0-12.457 6.229 6.229 0 0 0 0 12.457M1285.36 360.353a6.229 6.229 0 1 0 0 12.458 6.229 6.229 0 0 0 0-12.458M1252.882 360.353a6.229 6.229 0 1 0 0 12.458 6.229 6.229 0 0 0 0-12.458M1350.315 405.29a6.229 6.229 0 1 0 0-12.458 6.229 6.229 0 0 0 0 12.457M1317.837 405.29a6.229 6.229 0 1 0 0-12.458 6.229 6.229 0 0 0 0 12.457M1285.36 392.831a6.229 6.229 0 1 0 0 12.458 6.229 6.229 0 0 0 0-12.458M1252.882 392.831a6.229 6.229 0 1 0 0 12.458 6.229 6.229 0 0 0 0-12.458M1220.404 296.898a4.728 4.728 0 1 0 0 9.457 4.728 4.728 0 0 0 0-9.457M1187.927 306.573a4.946 4.946 0 1 0 0-9.892 4.946 4.946 0 0 0 0 9.892M1155.45 296.316a5.31 5.31 0 1 0-.001 10.622 5.31 5.31 0 0 0 0-10.622M1122.971 306.803a5.177 5.177 0 1 0 0-10.354 5.177 5.177 0 0 0 0 10.354M1220.404 339.86a5.755 5.755 0 1 0 .002-11.51 5.755 5.755 0 0 0-.002 11.51M1187.927 339.363a5.258 5.258 0 1 0 0-10.518 5.259 5.259 0 0 0 0 10.518M1155.45 339.363a5.258 5.258 0 1 0 0-10.518 5.26 5.26 0 1 0 0 10.518M1122.971 339.28a5.176 5.176 0 1 0 .001-10.352 5.176 5.176 0 0 0 0 10.353M1220.404 360.353a6.23 6.23 0 1 0 0 12.459 6.23 6.23 0 0 0 0-12.459M1187.927 361.23a5.353 5.353 0 1 0 0 10.706 5.353 5.353 0 0 0 0-10.707M1155.45 361.272a5.31 5.31 0 1 0-.001 10.621 5.31 5.31 0 0 0 0-10.621M1122.971 361.23a5.353 5.353 0 1 0 .001 10.706 5.353 5.353 0 0 0 0-10.707M1220.404 392.831a6.23 6.23 0 1 0 0 12.459 6.23 6.23 0 0 0 0-12.459M1187.927 404.033a4.973 4.973 0 1 0 0-9.946 4.973 4.973 0 0 0 0 9.946M1155.45 393.8a5.259 5.259 0 1 0-.002 10.518 5.259 5.259 0 0 0 .002-10.517M1122.971 393.707a5.353 5.353 0 1 0 0 10.706 5.353 5.353 0 0 0 0-10.706M1415.27 438.993a7.456 7.456 0 1 0-.001-14.912 7.456 7.456 0 0 0 .001 14.912M1382.793 438.597a7.059 7.059 0 1 0-.002-14.118 7.059 7.059 0 0 0 .002 14.118M1415.27 456.934a7.08 7.08 0 1 0 0 14.162 7.081 7.081 0 1 0 0-14.162M1382.793 471.316a7.301 7.301 0 1 0-.001-14.602 7.301 7.301 0 0 0 0 14.602M1415.27 489.412a7.081 7.081 0 1 0 0 14.162 7.082 7.082 0 0 0 0-14.162M1382.793 503.793a7.301 7.301 0 1 0-.001-14.602 7.301 7.301 0 0 0 0 14.602M1415.27 537.446a8.476 8.476 0 1 0-.001-16.952 8.476 8.476 0 0 0 .001 16.952M1382.793 521.48a7.49 7.49 0 1 0 0 14.98 7.49 7.49 0 0 0 0-14.98M1350.315 438.775a7.238 7.238 0 1 0-.001-14.477 7.238 7.238 0 0 0 0 14.477M1317.837 438.597a7.058 7.058 0 0 0 7.058-7.06 7.059 7.059 0 1 0-14.116 0 7.059 7.059 0 0 0 7.058 7.06M1285.36 425.308a6.229 6.229 0 1 0 0 12.458 6.229 6.229 0 0 0 0-12.458M1252.882 425.308a6.229 6.229 0 1 0 0 12.458 6.229 6.229 0 0 0 0-12.458M1350.315 456.714a7.301 7.301 0 1 0 0 14.603 7.301 7.301 0 0 0 0-14.603M1317.837 456.782a7.233 7.233 0 1 0 0 14.466 7.233 7.233 0 0 0 0-14.466M1285.36 457.786a6.229 6.229 0 1 0 0 12.457 6.229 6.229 0 0 0 0-12.457M1252.882 457.786a6.229 6.229 0 1 0 0 12.457 6.229 6.229 0 0 0 0-12.457M1350.315 489.192a7.3 7.3 0 1 0 0 14.602 7.3 7.3 0 0 0 0-14.602M1317.837 489.26a7.232 7.232 0 1 0 0 14.465 7.233 7.233 0 1 0 0-14.465M1285.36 490.264a6.229 6.229 0 1 0 0 12.457 6.229 6.229 0 0 0 0-12.457M1252.882 490.264a6.229 6.229 0 1 0 0 12.457 6.229 6.229 0 0 0 0-12.457M1350.315 521.815a7.155 7.155 0 1 0 0 14.31 7.155 7.155 0 0 0 0-14.31M1317.837 521.738a7.233 7.233 0 1 0 0 14.465 7.233 7.233 0 0 0 0-14.465M1285.36 522.741a6.229 6.229 0 1 0 0 12.458 6.229 6.229 0 0 0 0-12.458M1252.882 522.741a6.229 6.229 0 1 0 0 12.458 6.229 6.229 0 0 0 0-12.458M1220.404 425.308a6.23 6.23 0 1 0 0 12.459 6.23 6.23 0 0 0 0-12.459M1187.927 436.782a5.244 5.244 0 1 0 0-10.491 5.244 5.244 0 0 0 0 10.491M1155.45 426.293a5.245 5.245 0 1 0-.001 10.49 5.245 5.245 0 0 0 0-10.49M1122.971 426.361a5.176 5.176 0 1 0 .001 10.353 5.176 5.176 0 0 0 0-10.353M1220.404 457.786a6.23 6.23 0 1 0 0 12.458 6.23 6.23 0 0 0 0-12.458M1187.927 469.26a5.245 5.245 0 1 0 0-10.49 5.245 5.245 0 0 0 0 10.49M1155.45 458.287a5.728 5.728 0 1 0 0 11.457 5.728 5.728 0 0 0 0-11.457M1122.971 458.839a5.176 5.176 0 1 0 0 10.352 5.176 5.176 0 0 0 0-10.352M1220.404 490.264a6.23 6.23 0 1 0 0 12.458 6.23 6.23 0 0 0 0-12.458M1187.927 501.738a5.244 5.244 0 1 0 0-10.491 5.244 5.244 0 0 0 0 10.49M1155.45 491.248a5.245 5.245 0 1 0-.001 10.49 5.245 5.245 0 0 0 0-10.49M1122.971 491.316a5.176 5.176 0 1 0 .001 10.353 5.176 5.176 0 0 0 0-10.353M1220.404 522.741a6.23 6.23 0 1 0 0 12.458 6.23 6.23 0 0 0 0-12.458M1187.927 523.693a5.278 5.278 0 1 0 0 10.555 5.278 5.278 0 0 0 0-10.555M1155.45 523.725a5.245 5.245 0 1 0-.001 10.49 5.245 5.245 0 0 0 0-10.49M1122.971 523.794a5.176 5.176 0 1 0 0 10.352 5.176 5.176 0 0 0 0-10.352M1415.27 552.885a8.562 8.562 0 0 0-8.563 8.563 8.562 8.562 0 0 0 8.563 8.563 8.563 8.563 0 1 0 0-17.126M1382.793 553.958a7.49 7.49 0 1 0 0 14.98 7.49 7.49 0 0 0 0-14.98M1415.27 585.671a8.254 8.254 0 1 0 .001 16.509 8.254 8.254 0 0 0 0-16.509M1382.793 586.436a7.49 7.49 0 1 0 0 14.98 7.49 7.49 0 0 0 0-14.98M1350.315 554.293a7.155 7.155 0 1 0 0 14.31 7.155 7.155 0 0 0 0-14.31M1317.837 554.216a7.232 7.232 0 1 0 0 14.464 7.233 7.233 0 1 0 0-14.464M1285.36 555.22a6.229 6.229 0 1 0 0 12.457 6.229 6.229 0 0 0 0-12.458M1252.882 555.22a6.229 6.229 0 1 0 0 12.457 6.229 6.229 0 0 0 0-12.458M1350.315 586.77a7.155 7.155 0 1 0 0 14.31 7.155 7.155 0 0 0 0-14.31M1317.837 586.693a7.233 7.233 0 1 0 0 14.466 7.233 7.233 0 0 0 0-14.466M1285.36 587.696a6.229 6.229 0 1 0 0 12.458 6.229 6.229 0 0 0 0-12.458M1252.882 587.696a6.229 6.229 0 1 0 0 12.458 6.229 6.229 0 0 0 0-12.458M1220.404 555.22a6.23 6.23 0 1 0 0 12.457 6.23 6.23 0 0 0 0-12.458M1187.927 556.17a5.278 5.278 0 1 0 .001 10.556 5.278 5.278 0 0 0-.001-10.556M1155.45 556.203a5.246 5.246 0 1 0 0 10.49 5.246 5.246 0 0 0 0-10.49M1122.971 556.272a5.176 5.176 0 1 0 .001 10.353 5.176 5.176 0 0 0 0-10.353M1220.404 587.696a6.23 6.23 0 1 0 0 12.459 6.23 6.23 0 0 0 0-12.459M1187.927 588.68a5.244 5.244 0 1 0 0 10.491 5.244 5.244 0 0 0 0-10.49M1155.45 588.68a5.245 5.245 0 1 0-.001 10.49 5.245 5.245 0 0 0 0-10.49M1122.971 588.749a5.176 5.176 0 1 0 .001 10.353 5.176 5.176 0 0 0 0-10.353M1415.27 208.515a4.32 4.32 0 1 0 0-8.641 4.32 4.32 0 0 0 0 8.64M1382.793 208.515a4.32 4.32 0 1 0 0-8.641 4.32 4.32 0 0 0 0 8.64M1350.315 208.515a4.32 4.32 0 1 0 0-8.641 4.32 4.32 0 0 0 0 8.64M1317.837 208.515a4.32 4.32 0 1 0 0-8.641 4.32 4.32 0 0 0 0 8.64M1285.36 208.515a4.32 4.32 0 1 0 0-8.64 4.32 4.32 0 0 0 0 8.64M1252.882 208.515a4.32 4.32 0 1 0 0-8.641 4.32 4.32 0 0 0 0 8.64M1220.404 208.515a4.32 4.32 0 1 0 0-8.641 4.32 4.32 0 0 0 0 8.64M1187.927 208.515a4.32 4.32 0 1 0 0-8.641 4.32 4.32 0 0 0 0 8.64M1155.45 208.515a4.32 4.32 0 1 0 0-8.641 4.32 4.32 0 0 0 0 8.64M1122.971 208.515a4.321 4.321 0 1 0 0-8.642 4.321 4.321 0 0 0 0 8.642M1090.494 199.874a4.32 4.32 0 1 0 0 8.64 4.32 4.32 0 0 0 0-8.64M1058.016 199.874a4.32 4.32 0 1 0 0 8.64 4.32 4.32 0 0 0 0-8.64M1025.539 199.874a4.32 4.32 0 1 0 0 8.64 4.32 4.32 0 0 0 0-8.64M1415.27 176.037a4.32 4.32 0 1 0 0-8.64 4.32 4.32 0 0 0 0 8.64M1382.793 176.037a4.32 4.32 0 1 0 0-8.64 4.32 4.32 0 0 0 0 8.64M1350.315 176.037a4.32 4.32 0 1 0 0-8.64 4.32 4.32 0 0 0 0 8.64M1317.837 176.037a4.32 4.32 0 1 0 0-8.64 4.32 4.32 0 0 0 0 8.64M1285.36 176.037a4.32 4.32 0 0 0 4.32-4.32 4.32 4.32 0 1 0-4.32 4.32M1252.882 176.037a4.32 4.32 0 1 0 0-8.64 4.32 4.32 0 0 0 0 8.64M1220.404 176.037a4.32 4.32 0 1 0 0-8.64 4.32 4.32 0 0 0 0 8.64M1187.927 176.037a4.32 4.32 0 1 0 0-8.64 4.32 4.32 0 0 0 0 8.64M1155.45 176.037a4.32 4.32 0 1 0 0-8.64 4.32 4.32 0 0 0 0 8.64M1122.971 176.037a4.321 4.321 0 1 0 0-8.642 4.321 4.321 0 0 0 0 8.642M1090.494 167.396a4.32 4.32 0 0 0-4.32 4.32 4.32 4.32 0 1 0 8.64 0 4.32 4.32 0 0 0-4.32-4.32M1058.016 167.396a4.32 4.32 0 1 0 0 8.64 4.32 4.32 0 0 0 0-8.64M1025.539 167.396a4.32 4.32 0 1 0 0 8.64 4.32 4.32 0 0 0 0-8.64M1415.27 12.29a2.88 2.88 0 1 0 0-5.76 2.88 2.88 0 0 0 0 5.76M1382.793 12.29a2.88 2.88 0 1 0 0-5.76 2.88 2.88 0 0 0 0 5.76M1350.315 12.29a2.88 2.88 0 1 0 0-5.76 2.88 2.88 0 0 0 0 5.76M1317.837 12.29a2.88 2.88 0 1 0 0-5.76 2.88 2.88 0 0 0 0 5.76M1285.36 12.29a2.88 2.88 0 1 0 0-5.76 2.88 2.88 0 0 0 0 5.76M1252.882 12.29a2.88 2.88 0 1 0 0-5.76 2.88 2.88 0 0 0 0 5.76M1220.404 12.29a2.88 2.88 0 1 0 0-5.761 2.88 2.88 0 0 0 0 5.762M1187.927 12.29a2.88 2.88 0 1 0 0-5.76 2.88 2.88 0 0 0 0 5.76M1155.45 12.29a2.88 2.88 0 1 0 0-5.76 2.88 2.88 0 0 0 0 5.76M1122.971 12.29a2.88 2.88 0 1 0 0-5.76 2.88 2.88 0 0 0 0 5.76M1090.494 12.29a2.88 2.88 0 1 0 0-5.76 2.88 2.88 0 0 0 0 5.76M1058.016 12.29a2.88 2.88 0 1 0 .001-5.76 2.88 2.88 0 0 0 0 5.76M1025.539 12.29a2.88 2.88 0 1 0 0-5.76 2.88 2.88 0 0 0 0 5.76M993.06 12.29a2.88 2.88 0 1 0 .002-5.76 2.88 2.88 0 0 0-.001 5.76M960.584 12.29a2.88 2.88 0 1 0 0-5.76 2.88 2.88 0 0 0 0 5.76M928.106 12.29a2.88 2.88 0 1 0 0-5.76 2.88 2.88 0 0 0 0 5.76M895.628 6.53a2.88 2.88 0 1 0 0 5.76 2.88 2.88 0 0 0 0-5.76M895.628 38.966a2.88 2.88 0 1 0 0 5.761 2.88 2.88 0 0 0 0-5.76M895.628 71.403a2.88 2.88 0 1 0 0 5.76 2.88 2.88 0 0 0 0-5.76M895.628 103.84a2.88 2.88 0 1 0 0 5.76 2.88 2.88 0 0 0 0-5.76M895.628 136.277a2.88 2.88 0 1 0 0 5.76 2.88 2.88 0 0 0 0-5.76M895.628 168.714a2.88 2.88 0 1 0 0 5.76 2.88 2.88 0 0 0 0-5.76M895.628 201.151a2.88 2.88 0 1 0 0 5.76 2.88 2.88 0 0 0 0-5.76M895.628 233.588a2.88 2.88 0 1 0 0 5.76 2.88 2.88 0 0 0 0-5.76M895.628 266.025a2.88 2.88 0 1 0 0 5.76 2.88 2.88 0 0 0 0-5.76M895.628 298.461a2.88 2.88 0 1 0 .002 5.762 2.88 2.88 0 0 0-.002-5.762M895.628 330.898a2.88 2.88 0 1 0 0 5.761 2.88 2.88 0 0 0 0-5.76M895.628 363.335a2.88 2.88 0 1 0 0 5.76 2.88 2.88 0 0 0 0-5.76M895.628 395.772a2.88 2.88 0 1 0 0 5.76 2.88 2.88 0 0 0 0-5.76M895.628 428.209a2.88 2.88 0 1 0 0 5.76 2.88 2.88 0 0 0 0-5.76M895.628 460.646a2.88 2.88 0 1 0 0 5.76 2.88 2.88 0 0 0 0-5.76M895.628 493.083a2.88 2.88 0 1 0 0 5.76 2.88 2.88 0 0 0 0-5.76M895.628 525.52a2.88 2.88 0 1 0 0 5.76 2.88 2.88 0 0 0 0-5.76M895.628 557.957a2.88 2.88 0 1 0 0 5.76 2.88 2.88 0 0 0 0-5.76M895.628 590.393a2.88 2.88 0 1 0 0 5.76 2.88 2.88 0 0 0 0-5.76M796.895 591.142a2.88 2.88 0 1 0 0 5.76 2.88 2.88 0 0 0 0-5.76M796.895 558.705a2.88 2.88 0 1 0 0 5.76 2.88 2.88 0 0 0 0-5.76M796.895 526.268a2.88 2.88 0 1 0 0 5.761 2.88 2.88 0 0 0 0-5.76M796.895 493.831a2.88 2.88 0 1 0 0 5.761 2.88 2.88 0 0 0 0-5.76M796.895 461.394a2.88 2.88 0 1 0 0 5.761 2.88 2.88 0 0 0 0-5.76M796.895 428.958a2.88 2.88 0 1 0 .002 5.761 2.88 2.88 0 0 0-.002-5.761M796.895 396.521a2.88 2.88 0 1 0 0 5.76 2.88 2.88 0 0 0 0-5.76M796.895 364.084a2.88 2.88 0 1 0 0 5.76 2.88 2.88 0 0 0 0-5.76M796.895 331.647a2.88 2.88 0 1 0 0 5.76 2.88 2.88 0 0 0 0-5.76M796.895 299.21a2.88 2.88 0 1 0 0 5.761 2.88 2.88 0 0 0 0-5.76M796.895 266.773a2.88 2.88 0 1 0 0 5.761 2.88 2.88 0 0 0 0-5.76M796.895 234.337a2.88 2.88 0 1 0 0 5.76 2.88 2.88 0 0 0 0-5.76M796.895 201.9a2.88 2.88 0 1 0 0 5.76 2.88 2.88 0 0 0 0-5.76M796.895 169.463a2.88 2.88 0 1 0 0 5.76 2.88 2.88 0 0 0 0-5.76M796.895 137.026a2.88 2.88 0 1 0 0 5.76 2.88 2.88 0 0 0 0-5.76M796.895 104.59a2.88 2.88 0 1 0 0 5.76 2.88 2.88 0 0 0 0-5.76M796.895 72.152a2.88 2.88 0 1 0 0 5.761 2.88 2.88 0 0 0 0-5.76M796.895 39.715a2.88 2.88 0 1 0 0 5.761 2.88 2.88 0 0 0 0-5.76M796.895 7.279a2.88 2.88 0 1 0 0 5.76 2.88 2.88 0 0 0 0-5.76M829.793 6.53a2.88 2.88 0 1 0 0 5.76 2.88 2.88 0 0 0 0-5.76M829.793 38.966a2.88 2.88 0 1 0 0 5.761 2.88 2.88 0 0 0 0-5.76M829.793 71.403a2.88 2.88 0 1 0 0 5.76 2.88 2.88 0 0 0 0-5.76M829.793 103.84a2.88 2.88 0 1 0 0 5.76 2.88 2.88 0 0 0 0-5.76M829.793 136.277a2.88 2.88 0 1 0 0 5.76 2.88 2.88 0 0 0 0-5.76M829.793 168.714a2.88 2.88 0 1 0 0 5.76 2.88 2.88 0 0 0 0-5.76M829.793 201.151a2.88 2.88 0 1 0 0 5.76 2.88 2.88 0 0 0 0-5.76M829.793 233.588a2.88 2.88 0 1 0 0 5.76 2.88 2.88 0 0 0 0-5.76M829.793 266.025a2.88 2.88 0 1 0 0 5.76 2.88 2.88 0 0 0 0-5.76M829.793 298.461a2.88 2.88 0 1 0 .002 5.762 2.88 2.88 0 0 0-.002-5.762M829.793 330.898a2.88 2.88 0 1 0 0 5.761 2.88 2.88 0 0 0 0-5.76M829.793 363.335a2.88 2.88 0 1 0 0 5.76 2.88 2.88 0 0 0 0-5.76M829.793 395.772a2.88 2.88 0 1 0 0 5.76 2.88 2.88 0 0 0 0-5.76M829.793 428.209a2.88 2.88 0 1 0 0 5.76 2.88 2.88 0 0 0 0-5.76M829.793 460.646a2.88 2.88 0 1 0 0 5.76 2.88 2.88 0 0 0 0-5.76M829.793 493.083a2.88 2.88 0 1 0 0 5.76 2.88 2.88 0 0 0 0-5.76M829.793 525.52a2.88 2.88 0 1 0 0 5.76 2.88 2.88 0 0 0 0-5.76M829.793 557.957a2.88 2.88 0 1 0 0 5.76 2.88 2.88 0 0 0 0-5.76M829.793 590.393a2.88 2.88 0 1 0 0 5.76 2.88 2.88 0 0 0 0-5.76M731.099 591.142a2.88 2.88 0 1 0 0 5.76 2.88 2.88 0 0 0 0-5.76M731.099 558.705a2.88 2.88 0 1 0 0 5.76 2.88 2.88 0 0 0 0-5.76M731.099 526.268a2.88 2.88 0 1 0 0 5.761 2.88 2.88 0 0 0 0-5.76M731.099 493.831a2.88 2.88 0 1 0 0 5.761 2.88 2.88 0 0 0 0-5.76M731.099 461.394a2.88 2.88 0 1 0 0 5.761 2.88 2.88 0 0 0 0-5.76M731.099 428.958a2.88 2.88 0 1 0 .001 5.761 2.88 2.88 0 0 0-.001-5.761M731.099 396.521a2.88 2.88 0 1 0 0 5.76 2.88 2.88 0 0 0 0-5.76M731.099 364.084a2.88 2.88 0 1 0 0 5.76 2.88 2.88 0 0 0 0-5.76M731.099 331.647a2.88 2.88 0 1 0 0 5.76 2.88 2.88 0 0 0 0-5.76M731.099 299.21a2.88 2.88 0 1 0 0 5.761 2.88 2.88 0 0 0 0-5.76M731.099 266.773a2.88 2.88 0 1 0 0 5.761 2.88 2.88 0 0 0 0-5.76M731.099 234.337a2.88 2.88 0 1 0 0 5.76 2.88 2.88 0 0 0 0-5.76M731.099 201.9a2.88 2.88 0 1 0 0 5.76 2.88 2.88 0 0 0 0-5.76M731.099 169.463a2.88 2.88 0 1 0 0 5.76 2.88 2.88 0 0 0 0-5.76M731.099 137.026a2.88 2.88 0 1 0 0 5.76 2.88 2.88 0 0 0 0-5.76M731.099 104.59a2.88 2.88 0 1 0 0 5.76 2.88 2.88 0 0 0 0-5.76M731.099 72.152a2.88 2.88 0 1 0 0 5.761 2.88 2.88 0 0 0 0-5.76M731.099 39.715a2.88 2.88 0 1 0 0 5.761 2.88 2.88 0 0 0 0-5.76M731.099 7.279a2.88 2.88 0 1 0 0 5.76 2.88 2.88 0 0 0 0-5.76M763.997 6.53a2.88 2.88 0 1 0 0 5.76 2.88 2.88 0 0 0 0-5.76M763.997 38.966a2.88 2.88 0 1 0 0 5.761 2.88 2.88 0 0 0 0-5.76M763.997 71.403a2.88 2.88 0 1 0 0 5.761 2.88 2.88 0 0 0 0-5.76M763.997 103.84a2.88 2.88 0 1 0 0 5.761 2.88 2.88 0 0 0 0-5.76M763.997 136.277a2.88 2.88 0 1 0 0 5.76 2.88 2.88 0 0 0 0-5.76M763.997 168.714a2.88 2.88 0 1 0 0 5.76 2.88 2.88 0 0 0 0-5.76M763.997 201.151a2.88 2.88 0 1 0 0 5.76 2.88 2.88 0 0 0 0-5.76M763.997 233.588a2.88 2.88 0 1 0 0 5.76 2.88 2.88 0 0 0 0-5.76M763.997 266.025a2.88 2.88 0 1 0 0 5.76 2.88 2.88 0 0 0 0-5.76M763.997 298.461a2.881 2.881 0 1 0 0 5.762 2.881 2.881 0 0 0 0-5.762M763.997 330.898a2.88 2.88 0 1 0 0 5.761 2.88 2.88 0 0 0 0-5.76M763.997 363.335a2.88 2.88 0 1 0 0 5.76 2.88 2.88 0 0 0 0-5.76M763.997 395.772a2.88 2.88 0 1 0 0 5.76 2.88 2.88 0 0 0 0-5.76M763.997 428.209a2.88 2.88 0 1 0 0 5.76 2.88 2.88 0 0 0 0-5.76M763.997 460.646a2.88 2.88 0 1 0 0 5.76 2.88 2.88 0 0 0 0-5.76M763.997 493.083a2.88 2.88 0 1 0 0 5.76 2.88 2.88 0 0 0 0-5.76M763.997 525.52a2.88 2.88 0 1 0 0 5.76 2.88 2.88 0 0 0 0-5.76M763.997 557.957a2.88 2.88 0 1 0 0 5.76 2.88 2.88 0 0 0 0-5.76M763.997 590.393a2.88 2.88 0 1 0 0 5.761 2.88 2.88 0 0 0 0-5.76M665.303 591.142a2.88 2.88 0 1 0-.001 5.761 2.88 2.88 0 0 0 0-5.76M665.303 558.705a2.88 2.88 0 1 0-.001 5.761 2.88 2.88 0 0 0 0-5.76M665.303 526.268a2.88 2.88 0 1 0-.001 5.761 2.88 2.88 0 0 0 0-5.76M665.303 493.831a2.88 2.88 0 1 0-.001 5.761 2.88 2.88 0 0 0 0-5.76M665.303 461.394a2.88 2.88 0 1 0-.001 5.762 2.88 2.88 0 0 0 0-5.762M665.303 428.958a2.881 2.881 0 1 0 0 5.762 2.881 2.881 0 0 0 0-5.762M665.303 396.521a2.88 2.88 0 1 0-.001 5.761 2.88 2.88 0 0 0 0-5.76M665.303 364.084a2.88 2.88 0 1 0-.001 5.761 2.88 2.88 0 0 0 0-5.76M665.303 331.647a2.88 2.88 0 1 0-.001 5.761 2.88 2.88 0 0 0 0-5.76M665.303 299.21a2.88 2.88 0 1 0-.001 5.761 2.88 2.88 0 0 0 0-5.76M665.303 266.773a2.88 2.88 0 1 0-.001 5.761 2.88 2.88 0 0 0 0-5.76M665.303 234.337a2.88 2.88 0 1 0-.001 5.76 2.88 2.88 0 0 0 0-5.76M665.303 201.9a2.88 2.88 0 1 0-.001 5.76 2.88 2.88 0 0 0 0-5.76M665.303 169.463a2.88 2.88 0 1 0-.001 5.76 2.88 2.88 0 0 0 0-5.76M665.303 137.026a2.88 2.88 0 1 0-.001 5.761 2.88 2.88 0 0 0 0-5.76M665.303 104.59a2.88 2.88 0 1 0-.001 5.76 2.88 2.88 0 0 0 0-5.76M665.303 72.152a2.88 2.88 0 1 0-.001 5.761 2.88 2.88 0 0 0 0-5.76M665.303 39.715a2.88 2.88 0 1 0-.001 5.761 2.88 2.88 0 0 0 0-5.76M665.303 7.279a2.88 2.88 0 1 0-.001 5.76 2.88 2.88 0 0 0 0-5.76M698.2 6.53a2.88 2.88 0 1 0 0 5.76 2.88 2.88 0 0 0 0-5.76M698.2 38.966a2.88 2.88 0 1 0 .001 5.761 2.88 2.88 0 0 0 0-5.76M698.2 71.403a2.88 2.88 0 1 0 0 5.76 2.88 2.88 0 0 0 0-5.76M698.2 103.84a2.88 2.88 0 1 0 0 5.76 2.88 2.88 0 0 0 0-5.76M698.2 136.277a2.88 2.88 0 1 0 0 5.76 2.88 2.88 0 0 0 0-5.76M698.2 168.714a2.88 2.88 0 1 0 0 5.76 2.88 2.88 0 0 0 0-5.76M698.2 201.151a2.88 2.88 0 1 0 0 5.76 2.88 2.88 0 0 0 0-5.76M698.2 233.588a2.88 2.88 0 1 0 0 5.76 2.88 2.88 0 0 0 0-5.76M698.2 266.025a2.88 2.88 0 1 0 0 5.76 2.88 2.88 0 0 0 0-5.76M698.2 298.461a2.88 2.88 0 1 0 .002 5.762 2.88 2.88 0 0 0-.001-5.762M698.2 330.898a2.88 2.88 0 1 0 .001 5.761 2.88 2.88 0 0 0 0-5.76M698.2 363.335a2.88 2.88 0 1 0 0 5.76 2.88 2.88 0 0 0 0-5.76M698.2 395.772a2.88 2.88 0 1 0 0 5.76 2.88 2.88 0 0 0 0-5.76M698.2 428.209a2.88 2.88 0 1 0 0 5.76 2.88 2.88 0 0 0 0-5.76M698.2 460.646a2.88 2.88 0 1 0 0 5.76 2.88 2.88 0 0 0 0-5.76M698.2 493.083a2.88 2.88 0 1 0 0 5.76 2.88 2.88 0 0 0 0-5.76M698.2 525.52a2.88 2.88 0 1 0 0 5.76 2.88 2.88 0 0 0 0-5.76M698.2 557.957a2.88 2.88 0 1 0 0 5.76 2.88 2.88 0 0 0 0-5.76M698.2 590.393a2.88 2.88 0 1 0 .001 5.76 2.88 2.88 0 0 0 0-5.76M598.68 591.142a2.88 2.88 0 1 0 0 5.761 2.88 2.88 0 0 0 0-5.76M598.68 558.705a2.88 2.88 0 1 0 0 5.761 2.88 2.88 0 0 0 0-5.76M598.68 526.268a2.88 2.88 0 1 0 0 5.761 2.88 2.88 0 0 0 0-5.76M598.68 493.831a2.88 2.88 0 1 0 0 5.761 2.88 2.88 0 0 0 0-5.76M598.68 461.394a2.88 2.88 0 1 0 0 5.762 2.88 2.88 0 0 0 0-5.762M598.68 428.958a2.881 2.881 0 1 0 .001 5.762 2.881 2.881 0 0 0 0-5.762M598.68 396.521a2.88 2.88 0 1 0 0 5.761 2.88 2.88 0 0 0 0-5.76M598.68 364.084a2.88 2.88 0 1 0 0 5.761 2.88 2.88 0 0 0 0-5.76M598.68 331.647a2.88 2.88 0 1 0 0 5.761 2.88 2.88 0 0 0 0-5.76M598.68 299.21a2.88 2.88 0 1 0 0 5.761 2.88 2.88 0 0 0 0-5.76M598.68 266.773a2.88 2.88 0 1 0 0 5.761 2.88 2.88 0 0 0 0-5.76M598.68 234.337a2.88 2.88 0 1 0 0 5.76 2.88 2.88 0 0 0 0-5.76M598.68 201.9a2.88 2.88 0 1 0 0 5.76 2.88 2.88 0 0 0 0-5.76M598.68 169.463a2.88 2.88 0 1 0 0 5.76 2.88 2.88 0 0 0 0-5.76M598.68 137.026a2.88 2.88 0 1 0 0 5.761 2.88 2.88 0 0 0 0-5.76M598.68 104.59a2.88 2.88 0 1 0 0 5.76 2.88 2.88 0 0 0 0-5.76M598.68 72.152a2.88 2.88 0 1 0 0 5.761 2.88 2.88 0 0 0 0-5.76M598.68 39.715a2.88 2.88 0 1 0 0 5.761 2.88 2.88 0 0 0 0-5.76M598.68 7.279a2.88 2.88 0 1 0 0 5.76 2.88 2.88 0 0 0 0-5.76M631.579 6.53a2.88 2.88 0 1 0 0 5.76 2.88 2.88 0 0 0 0-5.76M631.579 38.966a2.88 2.88 0 1 0 0 5.761 2.88 2.88 0 0 0 0-5.76M631.579 71.403a2.88 2.88 0 1 0 0 5.76 2.88 2.88 0 0 0 0-5.76M631.579 103.84a2.88 2.88 0 1 0 0 5.76 2.88 2.88 0 0 0 0-5.76M631.579 136.277a2.88 2.88 0 1 0 0 5.76 2.88 2.88 0 0 0 0-5.76M631.579 168.714a2.88 2.88 0 1 0 0 5.76 2.88 2.88 0 0 0 0-5.76M631.579 201.151a2.88 2.88 0 1 0 0 5.76 2.88 2.88 0 0 0 0-5.76M631.579 233.588a2.88 2.88 0 1 0 0 5.76 2.88 2.88 0 0 0 0-5.76M631.579 266.025a2.88 2.88 0 1 0 0 5.76 2.88 2.88 0 0 0 0-5.76M631.579 298.461a2.88 2.88 0 1 0 .001 5.762 2.88 2.88 0 0 0-.001-5.762M631.579 330.898a2.88 2.88 0 1 0 0 5.761 2.88 2.88 0 0 0 0-5.76M631.579 363.335a2.88 2.88 0 1 0 0 5.76 2.88 2.88 0 0 0 0-5.76M631.579 395.772a2.88 2.88 0 1 0 0 5.76 2.88 2.88 0 0 0 0-5.76M631.579 428.209a2.88 2.88 0 1 0 0 5.76 2.88 2.88 0 0 0 0-5.76M631.579 460.646a2.88 2.88 0 1 0 0 5.76 2.88 2.88 0 0 0 0-5.76M631.579 493.083a2.88 2.88 0 1 0 0 5.76 2.88 2.88 0 0 0 0-5.76M631.579 525.52a2.88 2.88 0 1 0 0 5.76 2.88 2.88 0 0 0 0-5.76M631.579 557.957a2.88 2.88 0 1 0 0 5.76 2.88 2.88 0 0 0 0-5.76M631.579 590.393a2.88 2.88 0 1 0 0 5.76 2.88 2.88 0 0 0 0-5.76M532.884 591.142a2.88 2.88 0 1 0 0 5.76 2.88 2.88 0 0 0 0-5.76M532.884 558.705a2.88 2.88 0 1 0 0 5.76 2.88 2.88 0 0 0 0-5.76M532.884 526.268a2.88 2.88 0 1 0 0 5.761 2.88 2.88 0 0 0 0-5.76M532.884 493.831a2.88 2.88 0 1 0 0 5.761 2.88 2.88 0 0 0 0-5.76M532.884 461.394a2.88 2.88 0 1 0 0 5.761 2.88 2.88 0 0 0 0-5.76M532.884 428.958a2.88 2.88 0 1 0 .002 5.761 2.88 2.88 0 0 0-.002-5.761M532.884 396.521a2.88 2.88 0 1 0 0 5.76 2.88 2.88 0 0 0 0-5.76M532.884 364.084a2.88 2.88 0 1 0 0 5.76 2.88 2.88 0 0 0 0-5.76M532.884 331.647a2.88 2.88 0 1 0 0 5.76 2.88 2.88 0 0 0 0-5.76M532.884 299.21a2.88 2.88 0 1 0 0 5.761 2.88 2.88 0 0 0 0-5.76M532.884 266.773a2.88 2.88 0 1 0 0 5.761 2.88 2.88 0 0 0 0-5.76M532.884 234.337a2.88 2.88 0 1 0 0 5.76 2.88 2.88 0 0 0 0-5.76M532.884 201.9a2.88 2.88 0 1 0 0 5.76 2.88 2.88 0 0 0 0-5.76M532.884 169.463a2.88 2.88 0 1 0 0 5.76 2.88 2.88 0 0 0 0-5.76M532.884 137.026a2.88 2.88 0 1 0 0 5.76 2.88 2.88 0 0 0 0-5.76M532.884 104.59a2.88 2.88 0 1 0 0 5.76 2.88 2.88 0 0 0 0-5.76M532.884 72.152a2.88 2.88 0 1 0 0 5.761 2.88 2.88 0 0 0 0-5.76M532.884 39.715a2.88 2.88 0 1 0 0 5.761 2.88 2.88 0 0 0 0-5.76M532.884 7.279a2.88 2.88 0 1 0 0 5.76 2.88 2.88 0 0 0 0-5.76M565.782 6.53a2.88 2.88 0 1 0 0 5.76 2.88 2.88 0 0 0 0-5.76M565.782 38.966a2.88 2.88 0 1 0 0 5.761 2.88 2.88 0 0 0 0-5.76M565.782 71.403a2.88 2.88 0 1 0 0 5.76 2.88 2.88 0 0 0 0-5.76M565.782 103.84a2.88 2.88 0 1 0 0 5.76 2.88 2.88 0 0 0 0-5.76M565.782 136.277a2.88 2.88 0 1 0 0 5.76 2.88 2.88 0 0 0 0-5.76M565.782 168.714a2.88 2.88 0 1 0 0 5.76 2.88 2.88 0 0 0 0-5.76M565.782 201.151a2.88 2.88 0 1 0 0 5.76 2.88 2.88 0 0 0 0-5.76M565.782 233.588a2.88 2.88 0 1 0 0 5.76 2.88 2.88 0 0 0 0-5.76M565.782 266.025a2.88 2.88 0 1 0 0 5.76 2.88 2.88 0 0 0 0-5.76M565.782 298.461a2.88 2.88 0 1 0 .002 5.762 2.88 2.88 0 0 0-.002-5.762M565.782 330.898a2.88 2.88 0 1 0 0 5.761 2.88 2.88 0 0 0 0-5.76M565.782 363.335a2.88 2.88 0 1 0 0 5.76 2.88 2.88 0 0 0 0-5.76M565.782 395.772a2.88 2.88 0 1 0 0 5.76 2.88 2.88 0 0 0 0-5.76M565.782 428.209a2.88 2.88 0 1 0 0 5.76 2.88 2.88 0 0 0 0-5.76M565.782 460.646a2.88 2.88 0 1 0 0 5.76 2.88 2.88 0 0 0 0-5.76M565.782 493.083a2.88 2.88 0 1 0 0 5.76 2.88 2.88 0 0 0 0-5.76M565.782 525.52a2.88 2.88 0 1 0 0 5.76 2.88 2.88 0 0 0 0-5.76M565.782 557.957a2.88 2.88 0 1 0 0 5.76 2.88 2.88 0 0 0 0-5.76M565.782 590.393a2.88 2.88 0 1 0 0 5.76 2.88 2.88 0 0 0 0-5.76M1415.27 110.362a3.602 3.602 0 1 0-.001-7.203 3.602 3.602 0 0 0 .001 7.203M1415.27 77.884a3.601 3.601 0 1 0 0-7.202 3.601 3.601 0 0 0 0 7.202M1415.27 45.407a3.602 3.602 0 1 0-.001-7.203 3.602 3.602 0 0 0 .001 7.203M1382.793 110.362a3.601 3.601 0 1 0-.002-7.201 3.601 3.601 0 0 0 .002 7.201M1382.793 77.884a3.6 3.6 0 1 0 0-7.2 3.6 3.6 0 0 0 0 7.2M1382.793 45.407a3.601 3.601 0 1 0-.002-7.202 3.601 3.601 0 0 0 .002 7.202M1350.315 110.362a3.602 3.602 0 1 0-.002-7.203 3.602 3.602 0 0 0 .002 7.203M1350.315 77.884a3.601 3.601 0 1 0 0-7.202 3.601 3.601 0 0 0 0 7.202M1350.315 45.407a3.602 3.602 0 1 0-.002-7.203 3.602 3.602 0 0 0 .002 7.203M1317.837 110.362a3.601 3.601 0 1 0-.001-7.201 3.601 3.601 0 0 0 .001 7.201M1317.837 77.884a3.6 3.6 0 1 0 0-7.2 3.6 3.6 0 0 0 0 7.2M1317.837 45.407a3.601 3.601 0 1 0-.001-7.202 3.601 3.601 0 0 0 .001 7.202M1285.36 110.362a3.601 3.601 0 1 0-.001-7.202 3.601 3.601 0 0 0 0 7.202M1285.36 77.884a3.6 3.6 0 1 0 0-7.2 3.6 3.6 0 0 0 0 7.2M1285.36 45.407a3.601 3.601 0 1 0-.001-7.202 3.601 3.601 0 0 0 0 7.202M1252.882 110.362a3.602 3.602 0 1 0-.001-7.203 3.602 3.602 0 0 0 .001 7.203M1252.882 77.884a3.601 3.601 0 1 0 0-7.202 3.601 3.601 0 0 0 0 7.202M1252.882 45.407a3.602 3.602 0 1 0-.001-7.203 3.602 3.602 0 0 0 .001 7.203M1220.404 110.362a3.601 3.601 0 1 0 0-7.202 3.601 3.601 0 0 0 0 7.202M1220.404 77.884a3.6 3.6 0 1 0 0-7.2 3.6 3.6 0 0 0 0 7.2M1220.404 45.407a3.601 3.601 0 1 0 0-7.202 3.601 3.601 0 0 0 0 7.202M1187.927 110.362a3.602 3.602 0 1 0-.002-7.203 3.602 3.602 0 0 0 .002 7.203M1187.927 77.884a3.601 3.601 0 1 0 0-7.202 3.601 3.601 0 0 0 0 7.202M1187.927 45.407a3.602 3.602 0 1 0-.002-7.203 3.602 3.602 0 0 0 .002 7.203M1155.45 110.362a3.601 3.601 0 1 0-.002-7.201 3.601 3.601 0 0 0 .002 7.201M1155.45 77.884a3.6 3.6 0 1 0-.001-7.2 3.6 3.6 0 0 0 0 7.2M1155.45 45.407a3.601 3.601 0 1 0-.002-7.202 3.601 3.601 0 0 0 .002 7.202M1122.971 110.362a3.602 3.602 0 1 0 0-7.203 3.602 3.602 0 0 0 0 7.203M1122.971 77.884a3.601 3.601 0 1 0 0-7.202 3.601 3.601 0 0 0 0 7.202M1122.971 45.407a3.602 3.602 0 1 0 0-7.203 3.602 3.602 0 0 0 0 7.203M1090.494 110.362a3.601 3.601 0 1 0-.001-7.201 3.601 3.601 0 0 0 .001 7.201M1090.494 77.884a3.6 3.6 0 1 0 0-7.2 3.6 3.6 0 0 0 0 7.2M1090.494 45.407a3.601 3.601 0 1 0-.001-7.202 3.601 3.601 0 0 0 .001 7.202M1058.016 110.362a3.601 3.601 0 1 0 0-7.202 3.601 3.601 0 0 0 0 7.202M1058.016 77.884a3.6 3.6 0 1 0 0-7.2 3.6 3.6 0 0 0 0 7.2M1058.016 45.407a3.601 3.601 0 1 0 0-7.202 3.601 3.601 0 0 0 0 7.202M1025.539 110.362a3.602 3.602 0 1 0-.001-7.203 3.602 3.602 0 0 0 0 7.203M1025.539 77.884a3.601 3.601 0 1 0 0-7.202 3.601 3.601 0 0 0 0 7.202M1025.539 45.407a3.602 3.602 0 1 0-.001-7.203 3.602 3.602 0 0 0 0 7.203M993.06 103.16a3.601 3.601 0 1 0 .002 7.203 3.601 3.601 0 0 0-.001-7.202M993.06 70.683a3.6 3.6 0 1 0 .001 7.201 3.6 3.6 0 0 0 0-7.2M993.06 38.205a3.601 3.601 0 1 0 .002 7.202 3.601 3.601 0 0 0-.001-7.202M960.584 103.16a3.601 3.601 0 1 0 .001 7.203 3.601 3.601 0 0 0-.001-7.202M960.584 70.683a3.6 3.6 0 1 0 0 7.201 3.6 3.6 0 0 0 0-7.2M960.584 38.205a3.601 3.601 0 1 0 .001 7.202 3.601 3.601 0 0 0-.001-7.202M928.106 103.16a3.602 3.602 0 1 0 .002 7.204 3.602 3.602 0 0 0-.002-7.203M928.106 70.683a3.601 3.601 0 1 0 0 7.202 3.601 3.601 0 0 0 0-7.202M928.106 38.205a3.602 3.602 0 1 0 .002 7.204 3.602 3.602 0 0 0-.002-7.204M993.06 200.593a3.601 3.601 0 1 0 .002 7.202 3.601 3.601 0 0 0-.001-7.202M993.06 168.116a3.601 3.601 0 1 0 .002 7.202 3.601 3.601 0 0 0-.001-7.202M993.06 135.639a3.6 3.6 0 1 0 .001 7.2 3.6 3.6 0 0 0 0-7.2M960.584 200.593a3.601 3.601 0 1 0 .001 7.202 3.601 3.601 0 0 0-.001-7.202M960.584 168.116a3.601 3.601 0 1 0 .001 7.202 3.601 3.601 0 0 0-.001-7.202M960.584 135.639a3.6 3.6 0 1 0 0 7.2 3.6 3.6 0 0 0 0-7.2M928.106 200.593a3.602 3.602 0 1 0 .002 7.204 3.602 3.602 0 0 0-.002-7.204M928.106 168.116a3.602 3.602 0 1 0 .002 7.203 3.602 3.602 0 0 0-.002-7.203M928.106 135.639a3.601 3.601 0 1 0 0 7.202 3.601 3.601 0 0 0 0-7.202M993.06 298.027a3.6 3.6 0 1 0 .001 7.2 3.6 3.6 0 0 0 0-7.2M993.06 265.549a3.601 3.601 0 1 0 .002 7.202 3.601 3.601 0 0 0-.001-7.202M993.06 233.071a3.6 3.6 0 1 0 .001 7.201 3.6 3.6 0 0 0 0-7.2M960.584 298.027a3.6 3.6 0 1 0 0 7.2 3.6 3.6 0 0 0 0-7.2M960.584 265.549a3.601 3.601 0 1 0 .001 7.202 3.601 3.601 0 0 0-.001-7.202M960.584 233.071a3.6 3.6 0 1 0 0 7.201 3.6 3.6 0 0 0 0-7.2M928.106 298.027a3.601 3.601 0 1 0 0 7.202 3.601 3.601 0 0 0 0-7.202M928.106 265.549a3.602 3.602 0 1 0 .002 7.203 3.602 3.602 0 0 0-.002-7.203M928.106 233.071a3.601 3.601 0 1 0 0 7.203 3.601 3.601 0 0 0 0-7.203M993.06 395.46a3.6 3.6 0 1 0 .001 7.2 3.6 3.6 0 0 0 0-7.2M993.06 362.981a3.601 3.601 0 1 0 .002 7.202 3.601 3.601 0 0 0-.001-7.202M993.06 330.504a3.601 3.601 0 1 0 .002 7.202 3.601 3.601 0 0 0-.001-7.202M960.584 395.46a3.6 3.6 0 1 0 0 7.2 3.6 3.6 0 0 0 0-7.2M960.584 362.981a3.601 3.601 0 1 0 .001 7.202 3.601 3.601 0 0 0-.001-7.202M960.584 330.504a3.601 3.601 0 1 0 .001 7.202 3.601 3.601 0 0 0-.001-7.202M928.106 395.46a3.601 3.601 0 1 0 0 7.202 3.601 3.601 0 0 0 0-7.203M928.106 362.981a3.602 3.602 0 1 0 .002 7.204 3.602 3.602 0 0 0-.002-7.204M928.106 330.504a3.602 3.602 0 1 0 .002 7.203 3.602 3.602 0 0 0-.002-7.203M993.06 492.892a3.601 3.601 0 1 0 .002 7.202 3.601 3.601 0 0 0-.001-7.202M993.06 460.415a3.6 3.6 0 1 0 .001 7.2 3.6 3.6 0 0 0 0-7.2M993.06 427.937a3.601 3.601 0 1 0 .002 7.202 3.601 3.601 0 0 0-.001-7.202M960.584 492.892a3.601 3.601 0 1 0 .001 7.202 3.601 3.601 0 0 0-.001-7.202M960.584 460.415a3.6 3.6 0 1 0 0 7.2 3.6 3.6 0 0 0 0-7.2M960.584 427.937a3.601 3.601 0 1 0 .001 7.202 3.601 3.601 0 0 0-.001-7.202M928.106 492.892a3.602 3.602 0 1 0 .002 7.203 3.602 3.602 0 0 0-.002-7.203M928.106 460.415a3.601 3.601 0 1 0 0 7.202 3.601 3.601 0 0 0 0-7.202M928.106 427.937a3.602 3.602 0 1 0 .002 7.203 3.602 3.602 0 0 0-.002-7.203M993.06 590.325a3.601 3.601 0 1 0 .002 7.202 3.601 3.601 0 0 0-.001-7.202M993.06 557.847a3.6 3.6 0 1 0 .001 7.201 3.6 3.6 0 0 0 0-7.2M993.06 525.37a3.601 3.601 0 1 0 .002 7.201 3.601 3.601 0 0 0-.001-7.202M960.584 590.325a3.601 3.601 0 1 0 .001 7.202 3.601 3.601 0 0 0-.001-7.202M960.584 557.847a3.6 3.6 0 1 0 0 7.201 3.6 3.6 0 0 0 0-7.2M960.584 525.37a3.601 3.601 0 1 0 .001 7.201 3.601 3.601 0 0 0-.001-7.202M928.106 590.325a3.602 3.602 0 1 0 .002 7.203 3.602 3.602 0 0 0-.002-7.203M928.106 557.847a3.601 3.601 0 1 0 0 7.203 3.601 3.601 0 0 0 0-7.203M928.106 525.37a3.602 3.602 0 1 0 .002 7.202 3.602 3.602 0 0 0-.002-7.203M1415.27 143.56a4.32 4.32 0 1 0 0-8.64 4.32 4.32 0 0 0 0 8.64M1382.793 143.56a4.32 4.32 0 1 0 0-8.64 4.32 4.32 0 0 0 0 8.64M1350.315 143.56a4.32 4.32 0 1 0 0-8.64 4.32 4.32 0 0 0 0 8.64M1317.837 143.56a4.32 4.32 0 1 0 0-8.64 4.32 4.32 0 0 0 0 8.64M1285.36 143.56a4.32 4.32 0 0 0 4.32-4.32 4.32 4.32 0 1 0-8.64 0 4.32 4.32 0 0 0 4.32 4.32M1252.882 143.56a4.32 4.32 0 1 0 0-8.64 4.32 4.32 0 0 0 0 8.64M1220.404 143.56a4.32 4.32 0 1 0 0-8.641 4.32 4.32 0 0 0 0 8.641M1187.927 143.56a4.32 4.32 0 1 0 0-8.64 4.32 4.32 0 0 0 0 8.64M1155.45 143.56a4.32 4.32 0 1 0-.001-8.64 4.32 4.32 0 0 0 0 8.64M1122.971 143.56a4.321 4.321 0 1 0 0-8.642 4.321 4.321 0 0 0 0 8.642M1090.494 134.918a4.32 4.32 0 0 0-4.32 4.32 4.32 4.32 0 1 0 4.32-4.32M1058.016 134.918a4.32 4.32 0 1 0 0 8.641 4.32 4.32 0 0 0 0-8.64M1025.539 134.918a4.32 4.32 0 1 0 0 8.641 4.32 4.32 0 0 0 0-8.64M1090.494 297.306a4.32 4.32 0 0 0-4.32 4.32 4.32 4.32 0 1 0 4.32-4.32M1058.016 297.306a4.32 4.32 0 1 0 0 8.641 4.32 4.32 0 0 0 0-8.64M1025.539 297.306a4.32 4.32 0 1 0 0 8.641 4.32 4.32 0 0 0 0-8.64M1090.494 264.829a4.32 4.32 0 1 0 0 8.64 4.32 4.32 0 0 0 0-8.64M1058.016 264.829a4.32 4.32 0 1 0 0 8.64 4.32 4.32 0 0 0 0-8.64M1025.539 264.829a4.32 4.32 0 1 0 0 8.64 4.32 4.32 0 0 0 0-8.64M1090.494 232.351a4.32 4.32 0 0 0-4.32 4.32 4.32 4.32 0 1 0 8.64 0 4.32 4.32 0 0 0-4.32-4.32M1058.016 232.351a4.32 4.32 0 1 0 0 8.641 4.32 4.32 0 0 0 0-8.641M1025.539 232.351a4.32 4.32 0 1 0 0 8.641 4.32 4.32 0 0 0 0-8.641M1090.494 394.739a4.32 4.32 0 0 0-4.32 4.32 4.32 4.32 0 1 0 8.64 0 4.32 4.32 0 0 0-4.32-4.32M1058.016 394.739a4.32 4.32 0 1 0 0 8.641 4.32 4.32 0 0 0 0-8.641M1025.539 394.739a4.32 4.32 0 1 0 0 8.641 4.32 4.32 0 0 0 0-8.641M1090.494 362.262a4.32 4.32 0 1 0 0 8.64 4.32 4.32 0 0 0 0-8.64M1058.016 362.262a4.32 4.32 0 1 0 0 8.64 4.32 4.32 0 0 0 0-8.64M1025.539 362.262a4.32 4.32 0 1 0 0 8.64 4.32 4.32 0 0 0 0-8.64M1090.494 329.784a4.32 4.32 0 1 0 0 8.64 4.32 4.32 0 0 0 0-8.64M1058.016 329.784a4.321 4.321 0 1 0 .002 8.642 4.321 4.321 0 0 0-.002-8.642M1025.539 329.784a4.321 4.321 0 1 0 .001 8.642 4.321 4.321 0 0 0-.001-8.642M1090.494 492.172a4.32 4.32 0 1 0 0 8.64 4.32 4.32 0 0 0 0-8.64M1058.016 492.172a4.321 4.321 0 1 0 .002 8.642 4.321 4.321 0 0 0-.002-8.642M1025.539 492.172a4.321 4.321 0 1 0 .001 8.642 4.321 4.321 0 0 0-.001-8.642M1090.494 459.694a4.32 4.32 0 0 0-4.32 4.32 4.32 4.32 0 1 0 4.32-4.32M1058.016 459.694a4.32 4.32 0 1 0 0 8.641 4.32 4.32 0 0 0 0-8.64M1025.539 459.694a4.32 4.32 0 1 0 0 8.641 4.32 4.32 0 0 0 0-8.64M1090.494 427.217a4.32 4.32 0 1 0 0 8.64 4.32 4.32 0 0 0 0-8.64M1058.016 427.217a4.32 4.32 0 1 0 0 8.64 4.32 4.32 0 0 0 0-8.64M1025.539 427.217a4.32 4.32 0 1 0 0 8.64 4.32 4.32 0 0 0 0-8.64M1090.494 589.605a4.32 4.32 0 1 0 0 8.64 4.32 4.32 0 0 0 0-8.64M1058.016 589.605a4.32 4.32 0 1 0 0 8.64 4.32 4.32 0 0 0 0-8.64M1025.539 589.605a4.32 4.32 0 1 0 0 8.64 4.32 4.32 0 0 0 0-8.64M1090.494 557.127a4.32 4.32 0 0 0-4.32 4.32 4.32 4.32 0 1 0 8.64 0 4.32 4.32 0 0 0-4.32-4.32M1058.016 557.127a4.32 4.32 0 1 0 0 8.641 4.32 4.32 0 0 0 0-8.641M1025.539 557.127a4.32 4.32 0 1 0 0 8.641 4.32 4.32 0 0 0 0-8.641M1090.494 524.65a4.32 4.32 0 1 0 .001 8.642 4.32 4.32 0 0 0 0-8.642M1058.016 524.65a4.32 4.32 0 1 0 0 8.64 4.32 4.32 0 0 0 0-8.64M1025.539 524.65a4.32 4.32 0 1 0 0 8.64 4.32 4.32 0 0 0 0-8.64"/>
        </g>
    </g>
</svg>
