<svg width="360" height="703" viewBox="0 0 360 703" fill="none" xmlns="http://www.w3.org/2000/svg">
<rect x="5.85779" y="0.5" width="348.682" height="701.705" rx="50.5" stroke="black"/>
<rect x="16.9575" y="10.3745" width="326.505" height="681.989" rx="43.5" stroke="black"/>
<rect x="155.456" y="27.9701" width="48.3713" height="6.05304" rx="2.5" stroke="black"/>
<rect x="118.578" y="664.099" width="122.129" height="3.71211" rx="1.85606" fill="#D9D9D9"/>
<path d="M223.131 31.3678C223.131 33.2443 221.609 34.7656 219.733 34.7656C217.856 34.7656 216.335 33.2443 216.335 31.3678C216.335 29.4913 217.856 27.9701 219.733 27.9701C221.609 27.9701 223.131 29.4913 223.131 31.3678Z" stroke="black"/>
<rect x="0.5" y="102.955" width="5.58302" height="23.8712" rx="2.79151" stroke="black"/>
<rect x="0.5" y="139.334" width="5.58302" height="55.4243" rx="2.79151" stroke="black"/>
<rect x="0.5" y="202.44" width="5.58302" height="55.4243" rx="2.79151" stroke="black"/>
<rect x="353.917" y="147.872" width="5.58302" height="88.4622" rx="2.79151" stroke="black"/>
</svg>
