<svg width="41" height="73" viewBox="0 0 41 73" fill="none" xmlns="http://www.w3.org/2000/svg">
<g clip-path="url(#clip0)">
<path d="M31.6 72.5H9.4C4.5 72.5 0.5 68.5 0.5 63.6V9.4C0.5 4.5 4.5 0.5 9.4 0.5H31.7C36.6 0.5 40.6 4.5 40.6 9.4V63.7C40.5 68.5 36.5 72.5 31.6 72.5Z" stroke="black" stroke-miterlimit="10"/>
<path d="M23.5 11.5H15C14.4 11.5 14 11.1 14 10.5V10.2C14 9.59995 14.4 9.19995 15 9.19995H23.5C24.1 9.19995 24.5 9.59995 24.5 10.2V10.5C24.5 11.1 24.1 11.5 23.5 11.5Z" fill="black"/>
<path d="M28.5 11.3999C29.0523 11.3999 29.5 10.9522 29.5 10.3999C29.5 9.84762 29.0523 9.3999 28.5 9.3999C27.9477 9.3999 27.5 9.84762 27.5 10.3999C27.5 10.9522 27.9477 11.3999 28.5 11.3999Z" fill="black"/>
<path d="M31.5 68H9.5C6.8 68 4.5 65.8 4.5 63V9C4.5 6.3 6.7 4 9.5 4H31.5C34.2 4 36.5 6.2 36.5 9V63C36.5 65.8 34.3 68 31.5 68Z" stroke="black" stroke-miterlimit="10"/>
</g>
<defs>
<clipPath id="clip0">
<rect width="41" height="73" fill="black"/>
</clipPath>
</defs>
</svg>
