<?xml version="1.0" encoding="UTF-8"?>
<svg width="12px" height="18px" viewBox="0 0 12 18" version="1.1" xmlns="http://www.w3.org/2000/svg" xmlns:xlink="http://www.w3.org/1999/xlink">
    <!-- Generator: Sketch 55.2 (78181) - https://sketchapp.com -->
    <title>pin_taupe</title>
    <desc>Created with Sketch.</desc>
    <g id="Page-1" stroke="none" stroke-width="1" fill="none" fill-rule="evenodd">
        <g id="Crystal_homepage" transform="translate(-1064.000000, -5757.000000)" fill="#5E5554" fill-rule="nonzero">
            <g id="Footer" transform="translate(6.000000, 5340.000000)">
                <g id="hub-location" transform="translate(1038.000000, 371.000000)">
                    <g id="text-CTA" transform="translate(20.000000, 42.000000)">
                        <g id="pin_taupe" transform="translate(0.000000, 4.000000)">
                            <path d="M6,0 C2.8515,0 0,2.55225 0,5.7015 C0,8.85 2.60175,12.609 6,18 C9.39825,12.609 12,8.85 12,5.7015 C12,2.55225 9.14925,0 6,0 Z M6,8.25 C4.75725,8.25 3.75,7.24275 3.75,6 C3.75,4.75725 4.75725,3.75 6,3.75 C7.24275,3.75 8.25,4.75725 8.25,6 C8.25,7.24275 7.24275,8.25 6,8.25 Z" id="Shape"></path>
                        </g>
                    </g>
                </g>
            </g>
        </g>
    </g>
</svg>