<?xml version="1.0" encoding="UTF-8"?>
<svg width="13px" height="18px" viewBox="0 0 13 18" version="1.1" xmlns="http://www.w3.org/2000/svg" xmlns:xlink="http://www.w3.org/1999/xlink">
    <!-- Generator: Sketch 55.2 (78181) - https://sketchapp.com -->
    <title>pin_blue</title>
    <desc>Created with Sketch.</desc>
    <g id="Page-1" stroke="none" stroke-width="1" fill="none" fill-rule="evenodd">
        <g id="Crystal_homepage" transform="translate(-244.000000, -3858.000000)" fill="#A5B3B2" fill-rule="nonzero">
            <g id="Try-it-out" transform="translate(152.000000, 3543.000000)">
                <g id="Text" transform="translate(0.000000, 124.000000)">
                    <g id="today" transform="translate(31.000000, 186.000000)">
                        <g id="location" transform="translate(60.125874, 0.000000)">
                            <g id="text-CTA" transform="translate(0.914685, 0.000000)">
                                <g id="pin_blue" transform="translate(0.000000, 5.000000)">
                                    <path d="M5.99580126,0 C2.84950455,0 0,2.55225 0,5.7015 C0,8.85 2.59992932,12.609 5.99580126,18 C9.3916732,12.609 11.9916025,8.85 11.9916025,5.7015 C11.9916025,2.55225 9.14284745,0 5.99580126,0 Z M5.99580126,8.25 C4.75392092,8.25 3.74737579,7.24275 3.74737579,6 C3.74737579,4.75725 4.75392092,3.75 5.99580126,3.75 C7.2376816,3.75 8.24422673,4.75725 8.24422673,6 C8.24422673,7.24275 7.2376816,8.25 5.99580126,8.25 Z" id="Shape"></path>
                                </g>
                            </g>
                        </g>
                    </g>
                </g>
            </g>
        </g>
    </g>
</svg>