<svg width="195" height="32" viewBox="0 0 195 32" fill="none" xmlns="http://www.w3.org/2000/svg">
<path d="M22.2227 26.0488C23.6992 25.9082 24.8359 25.4512 25.6328 24.6777C26.4297 23.9043 26.8281 22.873 26.8281 21.584C26.8281 20.4355 26.4648 19.5156 25.7383 18.8242C25.0234 18.1328 23.8516 17.5938 22.2227 17.207V26.0488ZM20.3945 13.6035V5.71094C19.1172 5.71094 18.0977 6.06836 17.3359 6.7832C16.5859 7.49805 16.2109 8.45312 16.2109 9.64844C16.2109 10.7617 16.5508 11.6406 17.2305 12.2852C17.9102 12.9297 18.9648 13.3691 20.3945 13.6035ZM20.3945 31.9199V28.6855C17.793 28.4863 15.8359 27.7305 14.5234 26.418C13.2227 25.1055 12.5723 23.2305 12.5723 20.793V20.4062H15.6836V20.6875C15.6836 22.2578 16.0938 23.5 16.9141 24.4141C17.7344 25.3281 18.8945 25.8262 20.3945 25.9082V16.7324C17.9688 16.334 16.1406 15.5664 14.9102 14.4297C13.6914 13.2812 13.082 11.7695 13.082 9.89453C13.082 7.87891 13.7383 6.25 15.0508 5.00781C16.3633 3.75391 18.1445 3.06836 20.3945 2.95117V0.490234H22.2227V2.95117C24.5547 3.13867 26.3359 3.80664 27.5664 4.95508C28.8086 6.10352 29.4414 7.66797 29.4648 9.64844H26.3359C26.1953 8.41797 25.7793 7.48047 25.0879 6.83594C24.4082 6.17969 23.4531 5.81641 22.2227 5.74609V13.8848C25.1523 14.5293 27.1973 15.4023 28.3574 16.5039C29.5293 17.5938 30.1152 19.1582 30.1152 21.1973C30.1152 23.3184 29.4355 25.0234 28.0762 26.3125C26.7168 27.6016 24.7656 28.3809 22.2227 28.6504V31.9199H20.3945ZM30.2488 20.1602H33.5184C33.5652 21.9297 34.0516 23.2949 34.9773 24.2559C35.9031 25.2168 37.2098 25.6973 38.8973 25.6973C40.5379 25.6973 41.827 25.2578 42.7645 24.3789C43.7137 23.5 44.1883 22.293 44.1883 20.7578C44.1883 19.3516 43.7254 18.2617 42.7996 17.4883C41.8738 16.7148 40.573 16.3281 38.8973 16.3281C38.5574 16.3281 37.9949 16.3516 37.2098 16.3984L37.0867 16.416L37.1043 13.5684C37.2566 13.5801 37.409 13.5918 37.5613 13.6035C37.7254 13.6035 37.9305 13.6035 38.1766 13.6035C39.9813 13.6035 41.282 13.2988 42.0789 12.6895C42.8758 12.0684 43.2742 11.0781 43.2742 9.71875C43.2742 8.45312 42.8934 7.48047 42.1316 6.80078C41.3699 6.12109 40.2801 5.78125 38.8621 5.78125C37.2684 5.78125 36.0613 6.23242 35.241 7.13477C34.4324 8.02539 34.0281 9.34961 34.0281 11.1074H30.8289V10.9316C30.8289 8.45898 31.5379 6.49023 32.9559 5.02539C34.3738 3.56055 36.2781 2.82812 38.6688 2.82812C41.2234 2.82812 43.2039 3.41992 44.6102 4.60352C46.0281 5.78711 46.7371 7.43945 46.7371 9.56055C46.7371 10.7793 46.4734 11.8164 45.9461 12.6719C45.4188 13.5156 44.6395 14.1602 43.6082 14.6055C44.9441 15.0977 45.952 15.8652 46.6316 16.9082C47.323 17.9395 47.6688 19.2227 47.6688 20.7578C47.6688 23.1719 46.8543 25.1055 45.2254 26.5586C43.5965 28 41.4109 28.7207 38.6688 28.7207C36.1023 28.7207 34.0574 27.9648 32.534 26.4531C31.0105 24.9297 30.2488 22.8906 30.2488 20.3359V20.1602ZM48.4879 28V27.7891C48.4879 25.3633 49.0738 23.3242 50.2457 21.6719C51.4293 20.0078 53.4859 18.373 56.4156 16.7676L58.5426 15.6074C59.8082 14.916 60.734 14.1367 61.3199 13.2695C61.9176 12.4023 62.2164 11.3945 62.2164 10.2461C62.2164 8.91016 61.7652 7.83789 60.8629 7.0293C59.9605 6.2207 58.7535 5.81641 57.2418 5.81641C55.7066 5.81641 54.4996 6.33203 53.6207 7.36328C52.7535 8.39453 52.3199 9.8125 52.3199 11.6172V11.916H49.0328V11.4766C49.0328 8.80469 49.7828 6.69531 51.2828 5.14844C52.7828 3.60156 54.816 2.82812 57.3824 2.82812C59.8668 2.82812 61.859 3.51367 63.359 4.88477C64.8707 6.25586 65.6266 8.05469 65.6266 10.2812C65.6266 12.0156 65.1871 13.5273 64.3082 14.8164C63.4293 16.0938 62.0699 17.2129 60.2301 18.1738L58.1031 19.2461C56.1813 20.2539 54.7691 21.1914 53.8668 22.0586C52.9762 22.9141 52.3844 23.8633 52.0914 24.9062H65.6266V28H48.4879ZM70.0141 15.8008C70.0141 19.2695 70.4301 21.8008 71.2621 23.3945C72.0941 24.9766 73.4066 25.7676 75.1996 25.7676C77.0043 25.7676 78.3168 24.9824 79.1371 23.4121C79.9691 21.8301 80.3852 19.293 80.3852 15.8008C80.3852 12.2969 79.9691 9.75391 79.1371 8.17188C78.3168 6.57812 77.0043 5.78125 75.1996 5.78125C73.4066 5.78125 72.0941 6.58398 71.2621 8.18945C70.4301 9.7832 70.0141 12.3203 70.0141 15.8008ZM66.5687 15.8008C66.5687 11.5586 67.3012 8.33594 68.766 6.13281C70.2309 3.92969 72.3754 2.82812 75.1996 2.82812C78.0355 2.82812 80.1918 3.92969 81.6684 6.13281C83.1449 8.32422 83.8832 11.5469 83.8832 15.8008C83.8832 20.0312 83.1449 23.2422 81.6684 25.4336C80.2035 27.625 78.0473 28.7207 75.1996 28.7207C72.3754 28.7207 70.2309 27.625 68.766 25.4336C67.3012 23.2422 66.5687 20.0312 66.5687 15.8008ZM92.6406 19.8965V17.0488H101.342V19.8965H92.6406ZM119.662 26.0488C121.138 25.9082 122.275 25.4512 123.072 24.6777C123.869 23.9043 124.267 22.873 124.267 21.584C124.267 20.4355 123.904 19.5156 123.177 18.8242C122.463 18.1328 121.291 17.5938 119.662 17.207V26.0488ZM117.834 13.6035V5.71094C116.556 5.71094 115.537 6.06836 114.775 6.7832C114.025 7.49805 113.65 8.45312 113.65 9.64844C113.65 10.7617 113.99 11.6406 114.67 12.2852C115.349 12.9297 116.404 13.3691 117.834 13.6035ZM117.834 31.9199V28.6855C115.232 28.4863 113.275 27.7305 111.963 26.418C110.662 25.1055 110.011 23.2305 110.011 20.793V20.4062H113.123V20.6875C113.123 22.2578 113.533 23.5 114.353 24.4141C115.173 25.3281 116.334 25.8262 117.834 25.9082V16.7324C115.408 16.334 113.58 15.5664 112.349 14.4297C111.13 13.2812 110.521 11.7695 110.521 9.89453C110.521 7.87891 111.177 6.25 112.49 5.00781C113.802 3.75391 115.584 3.06836 117.834 2.95117V0.490234H119.662V2.95117C121.994 3.13867 123.775 3.80664 125.005 4.95508C126.248 6.10352 126.88 7.66797 126.904 9.64844H123.775C123.634 8.41797 123.218 7.48047 122.527 6.83594C121.847 6.17969 120.892 5.81641 119.662 5.74609V13.8848C122.591 14.5293 124.636 15.4023 125.796 16.5039C126.968 17.5938 127.554 19.1582 127.554 21.1973C127.554 23.3184 126.875 25.0234 125.515 26.3125C124.156 27.6016 122.205 28.3809 119.662 28.6504V31.9199H117.834ZM131.713 28C132.241 24.0039 133.348 20.2656 135.036 16.7852C136.723 13.293 139.037 9.97656 141.979 6.83594H128.303V3.54883H145.442V6.53711C142.606 9.60742 140.35 12.9297 138.674 16.5039C137.01 20.0664 135.914 23.8984 135.387 28H131.713ZM145.786 21.4785H149.109C149.308 22.7793 149.847 23.7988 150.726 24.5371C151.616 25.2637 152.741 25.627 154.101 25.627C155.777 25.627 157.124 25.1172 158.144 24.0977C159.175 23.0781 159.691 21.7363 159.691 20.0723C159.691 18.3613 159.193 17.0078 158.196 16.0117C157.2 15.0039 155.847 14.5 154.136 14.5C153.175 14.5 152.29 14.6934 151.482 15.0801C150.685 15.4668 149.988 16.041 149.39 16.8027H146.507L148.493 3.54883H161.818V6.50195H150.866L149.864 13.2344C150.486 12.707 151.2 12.3086 152.009 12.0391C152.829 11.7578 153.72 11.6172 154.681 11.6172C157.247 11.6172 159.304 12.373 160.851 13.8848C162.398 15.3965 163.171 17.4004 163.171 19.8965C163.171 22.5332 162.351 24.666 160.71 26.2949C159.07 27.9121 156.919 28.7207 154.259 28.7207C151.892 28.7207 149.935 28.0645 148.388 26.752C146.853 25.4277 145.986 23.6699 145.786 21.4785ZM167.453 15.8008C167.453 19.2695 167.869 21.8008 168.701 23.3945C169.533 24.9766 170.846 25.7676 172.639 25.7676C174.443 25.7676 175.756 24.9824 176.576 23.4121C177.408 21.8301 177.824 19.293 177.824 15.8008C177.824 12.2969 177.408 9.75391 176.576 8.17188C175.756 6.57812 174.443 5.78125 172.639 5.78125C170.846 5.78125 169.533 6.58398 168.701 8.18945C167.869 9.7832 167.453 12.3203 167.453 15.8008ZM164.008 15.8008C164.008 11.5586 164.74 8.33594 166.205 6.13281C167.67 3.92969 169.814 2.82812 172.639 2.82812C175.475 2.82812 177.631 3.92969 179.107 6.13281C180.584 8.32422 181.322 11.5469 181.322 15.8008C181.322 20.0312 180.584 23.2422 179.107 25.4336C177.643 27.625 175.486 28.7207 172.639 28.7207C169.814 28.7207 167.67 27.625 166.205 25.4336C164.74 23.2422 164.008 20.0312 164.008 15.8008Z" fill="black"/>
<path d="M0.5 23L194 6.5" stroke="black" stroke-width="3"/>
</svg>
