<svg width="478" height="172" viewBox="0 0 478 172" fill="none" xmlns="http://www.w3.org/2000/svg">
<rect x="23.8271" y="95.9438" width="5.37594" height="53.5311" fill="white"/>
<rect x="232" y="67.0542" width="5.86466" height="82.4208" fill="#E3E3E3"/>
<rect x="76" y="85.7476" width="5.37594" height="63.7275" fill="#E3E3E3"/>
<rect x="285" y="51.7598" width="5.86466" height="97.7154" fill="#E3E3E3"/>
<rect x="128" y="79.7998" width="5.37594" height="69.6754" fill="#E3E3E3"/>
<rect x="338" y="42.4131" width="5.86466" height="107.062" fill="#E3E3E3"/>
<rect x="180" y="72.1523" width="5.37594" height="77.3226" fill="#E3E3E3"/>
<rect x="391" y="30.5171" width="5.37594" height="118.958" fill="#E3E3E3"/>
<rect x="443" y="30.5171" width="5.37594" height="118.958" fill="white"/>
<line x1="0.593994" y1="148.975" x2="477.098" y2="148.975" stroke="#D1D1D1"/>
<path d="M8.82422 168.766H9.86084C9.87158 169.339 10.0614 169.795 10.4302 170.135C10.8026 170.475 11.2985 170.646 11.918 170.646C12.5303 170.646 13.0119 170.517 13.3628 170.259C13.7173 170.001 13.8945 169.65 13.8945 169.206C13.8945 168.601 13.2321 168.141 11.9072 167.826C11.8285 167.808 11.7676 167.793 11.7246 167.783C10.6504 167.528 9.93962 167.246 9.59229 166.934C9.24854 166.619 9.07666 166.173 9.07666 165.597C9.07666 164.891 9.33447 164.326 9.8501 163.899C10.3657 163.47 11.0514 163.255 11.9072 163.255C12.7809 163.255 13.4684 163.48 13.9697 163.932C14.471 164.379 14.7253 164.995 14.7324 165.779L13.7065 165.785C13.6707 165.255 13.4899 164.848 13.1641 164.565C12.8418 164.283 12.3996 164.141 11.8374 164.141C11.311 164.141 10.8903 164.257 10.5752 164.49C10.2601 164.719 10.1025 165.026 10.1025 165.409C10.1025 166.021 10.7542 166.478 12.0576 166.778C12.251 166.825 12.3996 166.861 12.5034 166.886C12.5249 166.889 12.5625 166.898 12.6162 166.913C13.4684 167.117 14.0342 167.337 14.3135 167.573C14.5247 167.752 14.6859 167.971 14.7969 168.229C14.9079 168.483 14.9634 168.767 14.9634 169.083C14.9634 169.845 14.6895 170.452 14.1416 170.903C13.5973 171.354 12.8597 171.58 11.9287 171.58C10.9691 171.58 10.2207 171.338 9.68359 170.855C9.15007 170.368 8.86361 169.672 8.82422 168.766ZM16.3008 171.371V163.459H21.9404V164.442H17.3643V166.805H21.5913V167.729H17.3643V170.382H22.0317V171.371H16.3008ZM24.4111 167.079H26.2158C26.8424 167.079 27.2793 166.979 27.5264 166.778C27.777 166.578 27.9023 166.234 27.9023 165.747C27.9023 165.278 27.7788 164.941 27.5317 164.737C27.2847 164.533 26.8729 164.431 26.2964 164.431H24.4111V167.079ZM23.3369 171.371V163.459H26.248C26.7207 163.459 27.0806 163.482 27.3276 163.529C27.5747 163.575 27.7949 163.652 27.9883 163.76C28.3105 163.935 28.5576 164.195 28.7295 164.539C28.9014 164.882 28.9873 165.285 28.9873 165.747C28.9873 166.188 28.9014 166.576 28.7295 166.913C28.5576 167.249 28.307 167.518 27.9775 167.718C27.7878 167.833 27.564 167.915 27.3062 167.965C27.0519 168.012 26.6312 168.035 26.0439 168.035H24.4111V171.371H23.3369ZM34.3477 164.823V165.924H33.2842V164.662C33.2842 164.279 33.3755 163.966 33.5581 163.722C33.7407 163.479 34.0039 163.323 34.3477 163.255V163.749C34.1829 163.771 34.0522 163.856 33.9556 164.007C33.8589 164.157 33.8105 164.352 33.8105 164.592V164.823H34.3477ZM37.2104 171.371V165.935H35.4272V165.156C36.0754 165.149 36.5605 165.027 36.8828 164.791C37.2087 164.555 37.402 164.184 37.4629 163.679H38.2095V171.371H37.2104ZM41.0078 166.236C41.0078 166.73 41.1421 167.126 41.4106 167.423C41.6828 167.716 42.0444 167.863 42.4956 167.863C42.9933 167.863 43.3854 167.718 43.6719 167.428C43.9583 167.135 44.1016 166.734 44.1016 166.225C44.1016 165.713 43.9601 165.307 43.6772 165.006C43.3944 164.701 43.0148 164.549 42.5386 164.549C42.0767 164.549 41.7061 164.703 41.4268 165.011C41.1475 165.319 41.0078 165.727 41.0078 166.236ZM40.0088 169.48H41.0186C41.0293 169.86 41.1564 170.159 41.3999 170.377C41.6434 170.592 41.9746 170.699 42.3936 170.699C42.9521 170.699 43.38 170.472 43.6772 170.017C43.9744 169.559 44.1481 168.862 44.1982 167.928C43.9834 168.203 43.7202 168.415 43.4087 168.562C43.1007 168.705 42.7552 168.776 42.3721 168.776C41.6452 168.776 41.0579 168.545 40.6104 168.083C40.1628 167.618 39.939 167.006 39.939 166.247C39.939 165.48 40.1753 164.861 40.6479 164.388C41.1242 163.916 41.7508 163.679 42.5278 163.679C43.4194 163.679 44.1034 163.989 44.5796 164.608C45.0594 165.228 45.2993 166.121 45.2993 167.289C45.2993 168.671 45.0469 169.734 44.542 170.479C44.0371 171.22 43.3174 171.591 42.3828 171.591C41.6559 171.591 41.0794 171.401 40.6533 171.021C40.2272 170.638 40.0124 170.125 40.0088 169.48Z" fill="white"/>
<path d="M60.6787 167.423C60.6787 168.436 60.9115 169.229 61.377 169.802C61.846 170.372 62.4941 170.656 63.3213 170.656C64.1449 170.656 64.7876 170.372 65.2495 169.802C65.715 169.229 65.9478 168.436 65.9478 167.423C65.9478 166.406 65.715 165.613 65.2495 165.043C64.7876 164.474 64.1449 164.189 63.3213 164.189C62.4941 164.189 61.846 164.474 61.377 165.043C60.9115 165.613 60.6787 166.406 60.6787 167.423ZM59.5669 167.423C59.5669 166.116 59.8981 165.095 60.5605 164.361C61.2266 163.624 62.1468 163.255 63.3213 163.255C64.4922 163.255 65.4071 163.622 66.0659 164.356C66.7284 165.09 67.0596 166.112 67.0596 167.423C67.0596 168.73 66.7284 169.752 66.0659 170.49C65.4071 171.224 64.4922 171.591 63.3213 171.591C62.1468 171.591 61.2266 171.224 60.5605 170.49C59.8981 169.752 59.5669 168.73 59.5669 167.423ZM73.9507 168.433H74.9927C74.9461 169.396 74.6167 170.164 74.0044 170.737C73.3957 171.306 72.6079 171.591 71.6411 171.591C70.5275 171.591 69.6538 171.211 69.02 170.452C68.3898 169.693 68.0747 168.642 68.0747 167.299C68.0747 166.06 68.4059 165.077 69.0684 164.351C69.7308 163.62 70.6242 163.255 71.7485 163.255C72.6437 163.255 73.376 163.486 73.9453 163.948C74.5182 164.41 74.8494 165.04 74.939 165.838H73.8862C73.786 165.316 73.5479 164.915 73.1719 164.635C72.7959 164.352 72.3071 164.211 71.7056 164.211C70.9035 164.211 70.2804 164.492 69.8364 165.054C69.396 165.616 69.1758 166.41 69.1758 167.434C69.1758 168.4 69.4049 169.176 69.8633 169.759C70.3252 170.343 70.9357 170.635 71.6948 170.635C72.3429 170.635 72.8729 170.434 73.2847 170.033C73.7 169.629 73.922 169.095 73.9507 168.433ZM78.0059 171.371V164.42H75.5083V163.459H81.583V164.42H79.0854V171.371H78.0059ZM86.6265 164.823V165.924H85.563V164.662C85.563 164.279 85.6543 163.966 85.8369 163.722C86.0195 163.479 86.2827 163.323 86.6265 163.255V163.749C86.4618 163.771 86.3311 163.856 86.2344 164.007C86.1377 164.157 86.0894 164.352 86.0894 164.592V164.823H86.6265ZM89.4893 171.371V165.935H87.7061V165.156C88.3542 165.149 88.8394 165.027 89.1616 164.791C89.4875 164.555 89.6808 164.184 89.7417 163.679H90.4883V171.371H89.4893ZM93.2866 166.236C93.2866 166.73 93.4209 167.126 93.6895 167.423C93.9616 167.716 94.3232 167.863 94.7744 167.863C95.2721 167.863 95.6642 167.718 95.9507 167.428C96.2371 167.135 96.3804 166.734 96.3804 166.225C96.3804 165.713 96.2389 165.307 95.9561 165.006C95.6732 164.701 95.2936 164.549 94.8174 164.549C94.3555 164.549 93.9849 164.703 93.7056 165.011C93.4263 165.319 93.2866 165.727 93.2866 166.236ZM92.2876 169.48H93.2974C93.3081 169.86 93.4352 170.159 93.6787 170.377C93.9222 170.592 94.2534 170.699 94.6724 170.699C95.231 170.699 95.6589 170.472 95.9561 170.017C96.2533 169.559 96.4269 168.862 96.4771 167.928C96.2622 168.203 95.999 168.415 95.6875 168.562C95.3796 168.705 95.034 168.776 94.6509 168.776C93.924 168.776 93.3368 168.545 92.8892 168.083C92.4416 167.618 92.2178 167.006 92.2178 166.247C92.2178 165.48 92.4541 164.861 92.9268 164.388C93.403 163.916 94.0296 163.679 94.8066 163.679C95.6982 163.679 96.3822 163.989 96.8584 164.608C97.3382 165.228 97.5781 166.121 97.5781 167.289C97.5781 168.671 97.3257 169.734 96.8208 170.479C96.3159 171.22 95.5962 171.591 94.6616 171.591C93.9347 171.591 93.3582 171.401 92.9321 171.021C92.506 170.638 92.2912 170.125 92.2876 169.48Z" fill="white"/>
<path d="M112.131 171.371V163.459H113.308L117.003 169.206C117.085 169.331 117.157 169.45 117.218 169.561C117.279 169.672 117.327 169.775 117.363 169.872V163.459H118.389V171.371H117.223L113.447 165.543C113.39 165.453 113.336 165.36 113.286 165.264C113.24 165.167 113.195 165.065 113.152 164.958V171.371H112.131ZM120.849 167.423C120.849 168.436 121.081 169.229 121.547 169.802C122.016 170.372 122.664 170.656 123.491 170.656C124.315 170.656 124.958 170.372 125.419 169.802C125.885 169.229 126.118 168.436 126.118 167.423C126.118 166.406 125.885 165.613 125.419 165.043C124.958 164.474 124.315 164.189 123.491 164.189C122.664 164.189 122.016 164.474 121.547 165.043C121.081 165.613 120.849 166.406 120.849 167.423ZM119.737 167.423C119.737 166.116 120.068 165.095 120.73 164.361C121.396 163.624 122.317 163.255 123.491 163.255C124.662 163.255 125.577 163.622 126.236 164.356C126.898 165.09 127.229 166.112 127.229 167.423C127.229 168.73 126.898 169.752 126.236 170.49C125.577 171.224 124.662 171.591 123.491 171.591C122.317 171.591 121.396 171.224 120.73 170.49C120.068 169.752 119.737 168.73 119.737 167.423ZM130.554 171.371L127.74 163.459H128.852L131.129 170.082L133.336 163.459H134.459L131.677 171.371H130.554ZM139.395 164.823V165.924H138.332V164.662C138.332 164.279 138.423 163.966 138.605 163.722C138.788 163.479 139.051 163.323 139.395 163.255V163.749C139.23 163.771 139.1 163.856 139.003 164.007C138.906 164.157 138.858 164.352 138.858 164.592V164.823H139.395ZM142.258 171.371V165.935H140.475V165.156C141.123 165.149 141.608 165.027 141.93 164.791C142.256 164.555 142.449 164.184 142.51 163.679H143.257V171.371H142.258ZM146.055 166.236C146.055 166.73 146.189 167.126 146.458 167.423C146.73 167.716 147.092 167.863 147.543 167.863C148.041 167.863 148.433 167.718 148.719 167.428C149.006 167.135 149.149 166.734 149.149 166.225C149.149 165.713 149.007 165.307 148.725 165.006C148.442 164.701 148.062 164.549 147.586 164.549C147.124 164.549 146.753 164.703 146.474 165.011C146.195 165.319 146.055 165.727 146.055 166.236ZM145.056 169.48H146.066C146.077 169.86 146.204 170.159 146.447 170.377C146.691 170.592 147.022 170.699 147.441 170.699C148 170.699 148.427 170.472 148.725 170.017C149.022 169.559 149.195 168.862 149.246 167.928C149.031 168.203 148.768 168.415 148.456 168.562C148.148 168.705 147.803 168.776 147.419 168.776C146.693 168.776 146.105 168.545 145.658 168.083C145.21 167.618 144.986 167.006 144.986 166.247C144.986 165.48 145.223 164.861 145.695 164.388C146.172 163.916 146.798 163.679 147.575 163.679C148.467 163.679 149.151 163.989 149.627 164.608C150.107 165.228 150.347 166.121 150.347 167.289C150.347 168.671 150.094 169.734 149.589 170.479C149.084 171.22 148.365 171.591 147.43 171.591C146.703 171.591 146.127 171.401 145.701 171.021C145.275 170.638 145.06 170.125 145.056 169.48Z" fill="white"/>
<path d="M167.822 164.372H165.974V170.404H167.822C168.613 170.404 169.211 170.148 169.616 169.636C170.02 169.12 170.223 168.359 170.223 167.353C170.223 166.39 170.017 165.652 169.605 165.14C169.193 164.628 168.599 164.372 167.822 164.372ZM164.9 171.371V163.459H167.913C169.016 163.459 169.859 163.788 170.443 164.447C171.03 165.106 171.324 166.057 171.324 167.299C171.324 168.585 171.019 169.586 170.411 170.302C169.806 171.014 168.959 171.371 167.87 171.371H164.9ZM172.677 171.371V163.459H178.317V164.442H173.741V166.805H177.968V167.729H173.741V170.382H178.408V171.371H172.677ZM185.246 168.433H186.288C186.241 169.396 185.912 170.164 185.299 170.737C184.691 171.306 183.903 171.591 182.936 171.591C181.822 171.591 180.949 171.211 180.315 170.452C179.685 169.693 179.37 168.642 179.37 167.299C179.37 166.06 179.701 165.077 180.363 164.351C181.026 163.62 181.919 163.255 183.043 163.255C183.939 163.255 184.671 163.486 185.24 163.948C185.813 164.41 186.144 165.04 186.234 165.838H185.181C185.081 165.316 184.843 164.915 184.467 164.635C184.091 164.352 183.602 164.211 183 164.211C182.198 164.211 181.575 164.492 181.131 165.054C180.691 165.616 180.471 166.41 180.471 167.434C180.471 168.4 180.7 169.176 181.158 169.759C181.62 170.343 182.231 170.635 182.99 170.635C183.638 170.635 184.168 170.434 184.58 170.033C184.995 169.629 185.217 169.095 185.246 168.433ZM191.637 164.823V165.924H190.574V164.662C190.574 164.279 190.665 163.966 190.848 163.722C191.03 163.479 191.293 163.323 191.637 163.255V163.749C191.472 163.771 191.342 163.856 191.245 164.007C191.148 164.157 191.1 164.352 191.1 164.592V164.823H191.637ZM194.5 171.371V165.935H192.717V165.156C193.365 165.149 193.85 165.027 194.172 164.791C194.498 164.555 194.692 164.184 194.752 163.679H195.499V171.371H194.5ZM198.297 166.236C198.297 166.73 198.432 167.126 198.7 167.423C198.972 167.716 199.334 167.863 199.785 167.863C200.283 167.863 200.675 167.718 200.961 167.428C201.248 167.135 201.391 166.734 201.391 166.225C201.391 165.713 201.25 165.307 200.967 165.006C200.684 164.701 200.304 164.549 199.828 164.549C199.366 164.549 198.996 164.703 198.716 165.011C198.437 165.319 198.297 165.727 198.297 166.236ZM197.298 169.48H198.308C198.319 169.86 198.446 170.159 198.689 170.377C198.933 170.592 199.264 170.699 199.683 170.699C200.242 170.699 200.67 170.472 200.967 170.017C201.264 169.559 201.438 168.862 201.488 167.928C201.273 168.203 201.01 168.415 200.698 168.562C200.39 168.705 200.045 168.776 199.662 168.776C198.935 168.776 198.347 168.545 197.9 168.083C197.452 167.618 197.229 167.006 197.229 166.247C197.229 165.48 197.465 164.861 197.938 164.388C198.414 163.916 199.04 163.679 199.817 163.679C200.709 163.679 201.393 163.989 201.869 164.608C202.349 165.228 202.589 166.121 202.589 167.289C202.589 168.671 202.336 169.734 201.832 170.479C201.327 171.22 200.607 171.591 199.672 171.591C198.945 171.591 198.369 171.401 197.943 171.021C197.517 170.638 197.302 170.125 197.298 169.48Z" fill="white"/>
<path d="M216.529 168.809H217.561C217.557 168.848 217.553 168.891 217.55 168.938C217.55 168.98 217.55 169.047 217.55 169.136C217.55 169.659 217.648 170.039 217.845 170.275C218.042 170.508 218.359 170.624 218.796 170.624C219.068 170.624 219.294 170.576 219.473 170.479C219.652 170.382 219.793 170.232 219.897 170.028C219.944 169.931 219.976 169.797 219.994 169.625C220.015 169.45 220.026 169.156 220.026 168.744V163.459H221.105V169.179C221.105 169.996 220.919 170.601 220.547 170.995C220.174 171.385 219.598 171.58 218.817 171.58C218.051 171.58 217.476 171.378 217.093 170.973C216.71 170.569 216.519 169.96 216.519 169.147C216.519 169.057 216.519 168.989 216.519 168.943C216.522 168.893 216.526 168.848 216.529 168.809ZM224.129 168.083H226.595L225.37 164.592L224.129 168.083ZM221.841 171.371L224.779 163.459H225.966L228.915 171.371H227.75L226.912 169.007H223.796L222.953 171.371H221.841ZM229.726 171.371V163.459H230.902L234.598 169.206C234.68 169.331 234.752 169.45 234.812 169.561C234.873 169.672 234.922 169.775 234.958 169.872V163.459H235.983V171.371H234.818L231.042 165.543C230.985 165.453 230.931 165.36 230.881 165.264C230.834 165.167 230.79 165.065 230.747 164.958V171.371H229.726ZM241.757 164.823V165.924H240.694V164.662C240.694 164.279 240.785 163.966 240.968 163.722C241.15 163.479 241.414 163.323 241.757 163.255V163.749C241.593 163.771 241.462 163.856 241.365 164.007C241.269 164.157 241.22 164.352 241.22 164.592V164.823H241.757ZM242.944 171.371V171.306C242.944 170.565 243.123 169.942 243.481 169.437C243.843 168.929 244.472 168.429 245.367 167.938L246.017 167.584C246.403 167.373 246.686 167.135 246.865 166.87C247.048 166.605 247.139 166.297 247.139 165.946C247.139 165.538 247.001 165.21 246.726 164.963C246.45 164.716 246.081 164.592 245.619 164.592C245.15 164.592 244.781 164.75 244.513 165.065C244.248 165.38 244.115 165.813 244.115 166.365V166.456H243.111V166.322C243.111 165.505 243.34 164.861 243.798 164.388C244.257 163.916 244.878 163.679 245.662 163.679C246.421 163.679 247.03 163.889 247.488 164.308C247.95 164.727 248.181 165.276 248.181 165.957C248.181 166.486 248.047 166.948 247.778 167.342C247.51 167.733 247.094 168.075 246.532 168.368L245.882 168.696C245.295 169.004 244.864 169.29 244.588 169.555C244.316 169.817 244.135 170.107 244.045 170.425H248.181V171.371H242.944ZM250.072 167.643C250.072 168.703 250.199 169.476 250.453 169.963C250.707 170.447 251.108 170.688 251.656 170.688C252.208 170.688 252.609 170.449 252.859 169.969C253.114 169.485 253.241 168.71 253.241 167.643C253.241 166.572 253.114 165.795 252.859 165.312C252.609 164.825 252.208 164.582 251.656 164.582C251.108 164.582 250.707 164.827 250.453 165.317C250.199 165.804 250.072 166.58 250.072 167.643ZM249.019 167.643C249.019 166.347 249.243 165.362 249.69 164.689C250.138 164.016 250.793 163.679 251.656 163.679C252.523 163.679 253.182 164.016 253.633 164.689C254.084 165.359 254.31 166.343 254.31 167.643C254.31 168.936 254.084 169.917 253.633 170.586C253.185 171.256 252.526 171.591 251.656 171.591C250.793 171.591 250.138 171.256 249.69 170.586C249.243 169.917 249.019 168.936 249.019 167.643Z" fill="white"/>
<path d="M269.056 171.371V163.459H274.368V164.453H270.13V166.827H273.831V167.793H270.13V171.371H269.056ZM275.469 171.371V163.459H281.108V164.442H276.532V166.805H280.759V167.729H276.532V170.382H281.2V171.371H275.469ZM282.505 171.371V163.459H285.695C286.515 163.459 287.129 163.62 287.538 163.942C287.949 164.265 288.155 164.746 288.155 165.387C288.155 165.799 288.06 166.15 287.871 166.44C287.681 166.726 287.398 166.947 287.022 167.101C287.498 167.19 287.869 167.403 288.134 167.74C288.399 168.073 288.531 168.495 288.531 169.007C288.531 169.731 288.291 170.305 287.812 170.731C287.332 171.158 286.68 171.371 285.856 171.371H282.505ZM283.579 166.784H285.464C286.019 166.784 286.428 166.683 286.689 166.483C286.95 166.282 287.081 165.969 287.081 165.543C287.081 165.142 286.956 164.845 286.705 164.651C286.454 164.458 286.069 164.361 285.55 164.361H283.579V166.784ZM283.579 170.415H285.76C286.308 170.415 286.723 170.295 287.006 170.055C287.289 169.811 287.43 169.458 287.43 168.997C287.43 168.538 287.285 168.202 286.995 167.987C286.709 167.772 286.256 167.665 285.636 167.665H283.579V170.415ZM293.87 164.823V165.924H292.807V164.662C292.807 164.279 292.898 163.966 293.081 163.722C293.263 163.479 293.526 163.323 293.87 163.255V163.749C293.705 163.771 293.575 163.856 293.478 164.007C293.381 164.157 293.333 164.352 293.333 164.592V164.823H293.87ZM295.057 171.371V171.306C295.057 170.565 295.236 169.942 295.594 169.437C295.956 168.929 296.584 168.429 297.479 167.938L298.129 167.584C298.516 167.373 298.799 167.135 298.978 166.87C299.161 166.605 299.252 166.297 299.252 165.946C299.252 165.538 299.114 165.21 298.838 164.963C298.563 164.716 298.194 164.592 297.732 164.592C297.263 164.592 296.894 164.75 296.625 165.065C296.361 165.38 296.228 165.813 296.228 166.365V166.456H295.224V166.322C295.224 165.505 295.453 164.861 295.911 164.388C296.369 163.916 296.991 163.679 297.775 163.679C298.534 163.679 299.143 163.889 299.601 164.308C300.063 164.727 300.294 165.276 300.294 165.957C300.294 166.486 300.16 166.948 299.891 167.342C299.623 167.733 299.207 168.075 298.645 168.368L297.995 168.696C297.408 169.004 296.976 169.29 296.701 169.555C296.429 169.817 296.248 170.107 296.158 170.425H300.294V171.371H295.057ZM302.185 167.643C302.185 168.703 302.312 169.476 302.566 169.963C302.82 170.447 303.221 170.688 303.769 170.688C304.32 170.688 304.722 170.449 304.972 169.969C305.226 169.485 305.354 168.71 305.354 167.643C305.354 166.572 305.226 165.795 304.972 165.312C304.722 164.825 304.32 164.582 303.769 164.582C303.221 164.582 302.82 164.827 302.566 165.317C302.312 165.804 302.185 166.58 302.185 167.643ZM301.132 167.643C301.132 166.347 301.356 165.362 301.803 164.689C302.251 164.016 302.906 163.679 303.769 163.679C304.636 163.679 305.294 164.016 305.746 164.689C306.197 165.359 306.422 166.343 306.422 167.643C306.422 168.936 306.197 169.917 305.746 170.586C305.298 171.256 304.639 171.591 303.769 171.591C302.906 171.591 302.251 171.256 301.803 170.586C301.356 169.917 301.132 168.936 301.132 167.643Z" fill="white"/>
<path d="M322.185 164.63V171.371H321.197V163.459H322.733L324.693 169.512C324.751 169.684 324.792 169.818 324.817 169.915C324.846 170.008 324.867 170.09 324.881 170.162C324.91 170.03 324.939 169.911 324.967 169.808C324.996 169.704 325.026 169.605 325.059 169.512L327.089 163.459H328.63V171.371H327.588V164.63C327.563 164.744 327.535 164.861 327.502 164.979C327.47 165.094 327.436 165.208 327.4 165.323L325.365 171.371H324.35L322.362 165.323C322.326 165.222 322.294 165.115 322.266 165C322.237 164.886 322.21 164.762 322.185 164.63ZM331.735 168.083H334.2L332.976 164.592L331.735 168.083ZM329.447 171.371L332.385 163.459H333.572L336.521 171.371H335.355L334.517 169.007H331.402L330.559 171.371H329.447ZM338.395 164.388V167.068H340.232C340.894 167.068 341.362 166.961 341.634 166.746C341.91 166.531 342.047 166.173 342.047 165.672C342.047 165.203 341.918 164.872 341.661 164.678C341.403 164.485 340.927 164.388 340.232 164.388H338.395ZM337.342 163.459H340.409C340.907 163.459 341.272 163.48 341.505 163.523C341.741 163.566 341.952 163.638 342.139 163.738C342.472 163.921 342.724 164.175 342.896 164.501C343.071 164.827 343.159 165.21 343.159 165.65C343.159 166.076 343.068 166.442 342.885 166.746C342.703 167.047 342.431 167.283 342.069 167.455C342.377 167.541 342.595 167.686 342.724 167.89C342.857 168.094 342.939 168.44 342.971 168.927L343.062 170.232C343.08 170.511 343.116 170.721 343.17 170.86C343.227 170.996 343.311 171.093 343.422 171.15V171.371H342.182C342.081 171.206 342.012 170.853 341.972 170.312C341.972 170.298 341.972 170.287 341.972 170.28L341.908 169.249C341.872 168.719 341.759 168.375 341.569 168.218C341.38 168.06 340.905 167.981 340.146 167.981H338.406V171.371H337.342V163.459ZM348.729 164.823V165.924H347.666V164.662C347.666 164.279 347.757 163.966 347.939 163.722C348.122 163.479 348.385 163.323 348.729 163.255V163.749C348.564 163.771 348.434 163.856 348.337 164.007C348.24 164.157 348.192 164.352 348.192 164.592V164.823H348.729ZM349.916 171.371V171.306C349.916 170.565 350.095 169.942 350.453 169.437C350.815 168.929 351.443 168.429 352.338 167.938L352.988 167.584C353.375 167.373 353.658 167.135 353.837 166.87C354.02 166.605 354.111 166.297 354.111 165.946C354.111 165.538 353.973 165.21 353.697 164.963C353.422 164.716 353.053 164.592 352.591 164.592C352.122 164.592 351.753 164.75 351.484 165.065C351.219 165.38 351.087 165.813 351.087 166.365V166.456H350.083V166.322C350.083 165.505 350.312 164.861 350.77 164.388C351.228 163.916 351.85 163.679 352.634 163.679C353.393 163.679 354.002 163.889 354.46 164.308C354.922 164.727 355.153 165.276 355.153 165.957C355.153 166.486 355.019 166.948 354.75 167.342C354.481 167.733 354.066 168.075 353.504 168.368L352.854 168.696C352.267 169.004 351.835 169.29 351.56 169.555C351.287 169.817 351.107 170.107 351.017 170.425H355.153V171.371H349.916ZM357.043 167.643C357.043 168.703 357.171 169.476 357.425 169.963C357.679 170.447 358.08 170.688 358.628 170.688C359.179 170.688 359.58 170.449 359.831 169.969C360.085 169.485 360.212 168.71 360.212 167.643C360.212 166.572 360.085 165.795 359.831 165.312C359.58 164.825 359.179 164.582 358.628 164.582C358.08 164.582 357.679 164.827 357.425 165.317C357.171 165.804 357.043 166.58 357.043 167.643ZM355.991 167.643C355.991 166.347 356.215 165.362 356.662 164.689C357.11 164.016 357.765 163.679 358.628 163.679C359.494 163.679 360.153 164.016 360.604 164.689C361.056 165.359 361.281 166.343 361.281 167.643C361.281 168.936 361.056 169.917 360.604 170.586C360.157 171.256 359.498 171.591 358.628 171.591C357.765 171.591 357.11 171.256 356.662 170.586C356.215 169.917 355.991 168.936 355.991 167.643Z" fill="white"/>
<path d="M377.705 168.083H380.17L378.946 164.592L377.705 168.083ZM375.417 171.371L378.355 163.459H379.542L382.491 171.371H381.325L380.487 169.007H377.372L376.529 171.371H375.417ZM384.387 167.079H386.191C386.818 167.079 387.255 166.979 387.502 166.778C387.753 166.578 387.878 166.234 387.878 165.747C387.878 165.278 387.754 164.941 387.507 164.737C387.26 164.533 386.848 164.431 386.272 164.431H384.387V167.079ZM383.312 171.371V163.459H386.224C386.696 163.459 387.056 163.482 387.303 163.529C387.55 163.575 387.771 163.652 387.964 163.76C388.286 163.935 388.533 164.195 388.705 164.539C388.877 164.882 388.963 165.285 388.963 165.747C388.963 166.188 388.877 166.576 388.705 166.913C388.533 167.249 388.283 167.518 387.953 167.718C387.763 167.833 387.54 167.915 387.282 167.965C387.028 168.012 386.607 168.035 386.02 168.035H384.387V171.371H383.312ZM391.294 164.388V167.068H393.131C393.793 167.068 394.261 166.961 394.533 166.746C394.808 166.531 394.946 166.173 394.946 165.672C394.946 165.203 394.817 164.872 394.56 164.678C394.302 164.485 393.826 164.388 393.131 164.388H391.294ZM390.241 163.459H393.308C393.806 163.459 394.171 163.48 394.404 163.523C394.64 163.566 394.851 163.638 395.038 163.738C395.371 163.921 395.623 164.175 395.795 164.501C395.97 164.827 396.058 165.21 396.058 165.65C396.058 166.076 395.967 166.442 395.784 166.746C395.602 167.047 395.329 167.283 394.968 167.455C395.276 167.541 395.494 167.686 395.623 167.89C395.756 168.094 395.838 168.44 395.87 168.927L395.961 170.232C395.979 170.511 396.015 170.721 396.069 170.86C396.126 170.996 396.21 171.093 396.321 171.15V171.371H395.081C394.98 171.206 394.91 170.853 394.871 170.312C394.871 170.298 394.871 170.287 394.871 170.28L394.807 169.249C394.771 168.719 394.658 168.375 394.468 168.218C394.278 168.06 393.804 167.981 393.045 167.981H391.305V171.371H390.241V163.459ZM401.628 164.823V165.924H400.564V164.662C400.564 164.279 400.656 163.966 400.838 163.722C401.021 163.479 401.284 163.323 401.628 163.255V163.749C401.463 163.771 401.333 163.856 401.236 164.007C401.139 164.157 401.091 164.352 401.091 164.592V164.823H401.628ZM402.815 171.371V171.306C402.815 170.565 402.994 169.942 403.352 169.437C403.714 168.929 404.342 168.429 405.237 167.938L405.887 167.584C406.274 167.373 406.557 167.135 406.736 166.87C406.918 166.605 407.01 166.297 407.01 165.946C407.01 165.538 406.872 165.21 406.596 164.963C406.32 164.716 405.952 164.592 405.49 164.592C405.021 164.592 404.652 164.75 404.383 165.065C404.118 165.38 403.986 165.813 403.986 166.365V166.456H402.981V166.322C402.981 165.505 403.211 164.861 403.669 164.388C404.127 163.916 404.749 163.679 405.533 163.679C406.292 163.679 406.901 163.889 407.359 164.308C407.821 164.727 408.052 165.276 408.052 165.957C408.052 166.486 407.917 166.948 407.649 167.342C407.38 167.733 406.965 168.075 406.403 168.368L405.753 168.696C405.166 169.004 404.734 169.29 404.458 169.555C404.186 169.817 404.006 170.107 403.916 170.425H408.052V171.371H402.815ZM409.942 167.643C409.942 168.703 410.069 169.476 410.324 169.963C410.578 170.447 410.979 170.688 411.527 170.688C412.078 170.688 412.479 170.449 412.73 169.969C412.984 169.485 413.111 168.71 413.111 167.643C413.111 166.572 412.984 165.795 412.73 165.312C412.479 164.825 412.078 164.582 411.527 164.582C410.979 164.582 410.578 164.827 410.324 165.317C410.069 165.804 409.942 166.58 409.942 167.643ZM408.89 167.643C408.89 166.347 409.113 165.362 409.561 164.689C410.009 164.016 410.664 163.679 411.527 163.679C412.393 163.679 413.052 164.016 413.503 164.689C413.955 165.359 414.18 166.343 414.18 167.643C414.18 168.936 413.955 169.917 413.503 170.586C413.056 171.256 412.397 171.591 411.527 171.591C410.664 171.591 410.009 171.256 409.561 170.586C409.113 169.917 408.89 168.936 408.89 167.643Z" fill="white"/>
<path d="M430.018 164.63V171.371H429.03V163.459H430.566L432.526 169.512C432.584 169.684 432.625 169.818 432.65 169.915C432.679 170.008 432.7 170.09 432.714 170.162C432.743 170.03 432.772 169.911 432.8 169.808C432.829 169.704 432.859 169.605 432.892 169.512L434.922 163.459H436.463V171.371H435.421V164.63C435.396 164.744 435.368 164.861 435.335 164.979C435.303 165.094 435.269 165.208 435.233 165.323L433.198 171.371H432.183L430.195 165.323C430.16 165.222 430.127 165.115 430.099 165C430.07 164.886 430.043 164.762 430.018 164.63ZM439.568 168.083H442.033L440.809 164.592L439.568 168.083ZM437.28 171.371L440.218 163.459H441.405L444.354 171.371H443.188L442.35 169.007H439.235L438.392 171.371H437.28ZM448.242 171.371H447.163V168.202L444.23 163.459H445.578L447.694 167.203L449.794 163.459H451.057L448.242 168.126V171.371ZM455.896 164.823V165.924H454.833V164.662C454.833 164.279 454.924 163.966 455.106 163.722C455.289 163.479 455.552 163.323 455.896 163.255V163.749C455.731 163.771 455.601 163.856 455.504 164.007C455.407 164.157 455.359 164.352 455.359 164.592V164.823H455.896ZM457.083 171.371V171.306C457.083 170.565 457.262 169.942 457.62 169.437C457.982 168.929 458.61 168.429 459.505 167.938L460.155 167.584C460.542 167.373 460.825 167.135 461.004 166.87C461.187 166.605 461.278 166.297 461.278 165.946C461.278 165.538 461.14 165.21 460.864 164.963C460.589 164.716 460.22 164.592 459.758 164.592C459.289 164.592 458.92 164.75 458.651 165.065C458.386 165.38 458.254 165.813 458.254 166.365V166.456H457.25V166.322C457.25 165.505 457.479 164.861 457.937 164.388C458.395 163.916 459.017 163.679 459.801 163.679C460.56 163.679 461.169 163.889 461.627 164.308C462.089 164.727 462.32 165.276 462.32 165.957C462.32 166.486 462.186 166.948 461.917 167.342C461.648 167.733 461.233 168.075 460.671 168.368L460.021 168.696C459.434 169.004 459.002 169.29 458.727 169.555C458.454 169.817 458.274 170.107 458.184 170.425H462.32V171.371H457.083ZM464.21 167.643C464.21 168.703 464.338 169.476 464.592 169.963C464.846 170.447 465.247 170.688 465.795 170.688C466.346 170.688 466.747 170.449 466.998 169.969C467.252 169.485 467.379 168.71 467.379 167.643C467.379 166.572 467.252 165.795 466.998 165.312C466.747 164.825 466.346 164.582 465.795 164.582C465.247 164.582 464.846 164.827 464.592 165.317C464.338 165.804 464.21 166.58 464.21 167.643ZM463.158 167.643C463.158 166.347 463.382 165.362 463.829 164.689C464.277 164.016 464.932 163.679 465.795 163.679C466.661 163.679 467.32 164.016 467.771 164.689C468.223 165.359 468.448 166.343 468.448 167.643C468.448 168.936 468.223 169.917 467.771 170.586C467.324 171.256 466.665 171.591 465.795 171.591C464.932 171.591 464.277 171.256 463.829 170.586C463.382 169.917 463.158 168.936 463.158 167.643Z" fill="white"/>
<path d="M432.754 13.3789C433.018 11.3809 433.571 9.51172 434.415 7.77148C435.259 6.02539 436.416 4.36719 437.887 2.79688H431.049V1.15332H439.618V2.64746C438.2 4.18262 437.072 5.84375 436.234 7.63086C435.402 9.41211 434.854 11.3281 434.591 13.3789H432.754ZM443.503 13.3789V4.48438H440.585V3.20996C441.646 3.19824 442.439 2.99902 442.967 2.6123C443.5 2.22559 443.816 1.61914 443.916 0.792969H445.138V13.3789H443.503ZM457.1 10.25C457.1 10.7598 457.272 11.1904 457.618 11.542C457.964 11.8877 458.392 12.0605 458.901 12.0605C459.394 12.0605 459.815 11.8848 460.167 11.5332C460.519 11.1758 460.694 10.748 460.694 10.25C460.694 9.74609 460.519 9.32129 460.167 8.97559C459.821 8.62402 459.399 8.44824 458.901 8.44824C458.397 8.44824 457.97 8.62402 457.618 8.97559C457.272 9.32129 457.1 9.74609 457.1 10.25ZM455.781 10.25C455.781 9.37695 456.083 8.63867 456.687 8.03516C457.29 7.43164 458.028 7.12988 458.901 7.12988C459.757 7.12988 460.492 7.43457 461.107 8.04395C461.723 8.65332 462.03 9.38867 462.03 10.25C462.03 11.1113 461.723 11.8496 461.107 12.4648C460.498 13.0742 459.763 13.3789 458.901 13.3789C458.028 13.3789 457.29 13.0771 456.687 12.4736C456.083 11.8643 455.781 11.123 455.781 10.25ZM449.392 4.27344C449.392 4.7832 449.564 5.21094 449.91 5.55664C450.256 5.90234 450.684 6.0752 451.193 6.0752C451.691 6.0752 452.116 5.89941 452.468 5.54785C452.819 5.19629 452.995 4.77148 452.995 4.27344C452.995 3.76953 452.819 3.34473 452.468 2.99902C452.116 2.64746 451.691 2.47168 451.193 2.47168C450.689 2.47168 450.262 2.64746 449.91 2.99902C449.564 3.34473 449.392 3.76953 449.392 4.27344ZM448.082 4.27344C448.082 3.40039 448.381 2.66211 448.979 2.05859C449.582 1.45508 450.32 1.15332 451.193 1.15332C452.055 1.15332 452.787 1.45801 453.391 2.06738C454 2.67676 454.305 3.41211 454.305 4.27344C454.305 5.13477 454 5.87305 453.391 6.48828C452.787 7.09766 452.055 7.40234 451.193 7.40234C450.32 7.40234 449.582 7.10059 448.979 6.49707C448.381 5.8877 448.082 5.14648 448.082 4.27344ZM450.657 13.7393L458.356 0.792969H459.455L451.747 13.7393H450.657Z" fill="white"/>
<path d="M14.4932 77.2441H16.1543C16.2539 77.8945 16.5234 78.4043 16.9629 78.7734C17.4082 79.1367 17.9707 79.3184 18.6504 79.3184C19.4883 79.3184 20.1621 79.0635 20.6719 78.5537C21.1875 78.0439 21.4453 77.373 21.4453 76.541C21.4453 75.6855 21.1963 75.0088 20.6982 74.5107C20.2002 74.0068 19.5234 73.7549 18.668 73.7549C18.1875 73.7549 17.7451 73.8516 17.3408 74.0449C16.9424 74.2383 16.5938 74.5254 16.2949 74.9062H14.8535L15.8467 68.2793H22.5088V69.7559H17.0332L16.5322 73.1221C16.8428 72.8584 17.2002 72.6592 17.6045 72.5244C18.0146 72.3838 18.46 72.3135 18.9404 72.3135C20.2236 72.3135 21.252 72.6914 22.0254 73.4473C22.7988 74.2031 23.1855 75.2051 23.1855 76.4531C23.1855 77.7715 22.7754 78.8379 21.9551 79.6523C21.1348 80.4609 20.0596 80.8652 18.7295 80.8652C17.5459 80.8652 16.5674 80.5371 15.7939 79.8809C15.0264 79.2188 14.5928 78.3398 14.4932 77.2441ZM26.3145 80.5049C26.5781 78.5068 27.1318 76.6377 27.9756 74.8975C28.8193 73.1514 29.9766 71.4932 31.4473 69.9229H24.6094V68.2793H33.1787V69.7734C31.7607 71.3086 30.6328 72.9697 29.7949 74.7568C28.9629 76.5381 28.415 78.4541 28.1514 80.5049H26.3145ZM43.418 77.376C43.418 77.8857 43.5908 78.3164 43.9365 78.668C44.2822 79.0137 44.71 79.1865 45.2197 79.1865C45.7119 79.1865 46.1338 79.0107 46.4854 78.6592C46.8369 78.3018 47.0127 77.874 47.0127 77.376C47.0127 76.8721 46.8369 76.4473 46.4854 76.1016C46.1396 75.75 45.7178 75.5742 45.2197 75.5742C44.7158 75.5742 44.2881 75.75 43.9365 76.1016C43.5908 76.4473 43.418 76.8721 43.418 77.376ZM42.0996 77.376C42.0996 76.5029 42.4014 75.7646 43.0049 75.1611C43.6084 74.5576 44.3467 74.2559 45.2197 74.2559C46.0752 74.2559 46.8105 74.5605 47.4258 75.1699C48.041 75.7793 48.3486 76.5146 48.3486 77.376C48.3486 78.2373 48.041 78.9756 47.4258 79.5908C46.8164 80.2002 46.0811 80.5049 45.2197 80.5049C44.3467 80.5049 43.6084 80.2031 43.0049 79.5996C42.4014 78.9902 42.0996 78.249 42.0996 77.376ZM35.71 71.3994C35.71 71.9092 35.8828 72.3369 36.2285 72.6826C36.5742 73.0283 37.002 73.2012 37.5117 73.2012C38.0098 73.2012 38.4346 73.0254 38.7861 72.6738C39.1377 72.3223 39.3135 71.8975 39.3135 71.3994C39.3135 70.8955 39.1377 70.4707 38.7861 70.125C38.4346 69.7734 38.0098 69.5977 37.5117 69.5977C37.0078 69.5977 36.5801 69.7734 36.2285 70.125C35.8828 70.4707 35.71 70.8955 35.71 71.3994ZM34.4004 71.3994C34.4004 70.5264 34.6992 69.7881 35.2969 69.1846C35.9004 68.5811 36.6387 68.2793 37.5117 68.2793C38.373 68.2793 39.1055 68.584 39.709 69.1934C40.3184 69.8027 40.623 70.5381 40.623 71.3994C40.623 72.2607 40.3184 72.999 39.709 73.6143C39.1055 74.2236 38.373 74.5283 37.5117 74.5283C36.6387 74.5283 35.9004 74.2266 35.2969 73.623C34.6992 73.0137 34.4004 72.2725 34.4004 71.3994ZM36.9756 80.8652L44.6748 67.9189H45.7734L38.0654 80.8652H36.9756Z" fill="white"/>
</svg>
