<svg width="160" height="162" viewBox="0 0 160 162" fill="none" xmlns="http://www.w3.org/2000/svg">
<path d="M52.2063 83.4785H55.5286C55.7278 84.7793 56.2669 85.7988 57.1458 86.5371C58.0364 87.2637 59.1614 87.627 60.5208 87.627C62.1966 87.627 63.5442 87.1172 64.5638 86.0977C65.595 85.0781 66.1106 83.7363 66.1106 82.0723C66.1106 80.3613 65.6126 79.0078 64.6165 78.0117C63.6204 77.0039 62.2669 76.5 60.5559 76.5C59.595 76.5 58.7102 76.6934 57.9016 77.0801C57.1048 77.4668 56.4075 78.041 55.8098 78.8027H52.927L54.9134 65.5488H68.2376V68.502H57.2864L56.2845 75.2344C56.9055 74.707 57.6204 74.3086 58.429 74.0391C59.2493 73.7578 60.1399 73.6172 61.1009 73.6172C63.6673 73.6172 65.7239 74.373 67.2708 75.8848C68.8177 77.3965 69.5911 79.4004 69.5911 81.8965C69.5911 84.5332 68.7708 86.666 67.1302 88.2949C65.4895 89.9121 63.3391 90.7207 60.679 90.7207C58.3118 90.7207 56.3548 90.0645 54.8079 88.752C53.2727 87.4277 52.4055 85.6699 52.2063 83.4785ZM75.0234 82.7578C75.0234 84.293 75.4805 85.5 76.3945 86.3789C77.3086 87.2578 78.5566 87.6973 80.1387 87.6973C81.7324 87.6973 82.9863 87.2578 83.9004 86.3789C84.8262 85.4883 85.2891 84.2812 85.2891 82.7578C85.2891 81.3398 84.8262 80.2207 83.9004 79.4004C82.9863 78.5684 81.7324 78.1523 80.1387 78.1523C78.5449 78.1523 77.291 78.5625 76.377 79.3828C75.4746 80.2031 75.0234 81.3281 75.0234 82.7578ZM75.7793 71.5605C75.7793 72.7559 76.1777 73.7168 76.9746 74.4434C77.7715 75.1699 78.8262 75.5332 80.1387 75.5332C81.4512 75.5332 82.5059 75.1699 83.3027 74.4434C84.0996 73.7168 84.498 72.7559 84.498 71.5605C84.498 70.3535 84.1113 69.4102 83.3379 68.7305C82.5762 68.0508 81.5098 67.7109 80.1387 67.7109C78.7793 67.7109 77.7129 68.0508 76.9395 68.7305C76.166 69.4102 75.7793 70.3535 75.7793 71.5605ZM75.709 76.5352C74.5957 76.0312 73.7637 75.3457 73.2129 74.4785C72.6738 73.6113 72.4043 72.5449 72.4043 71.2793C72.4043 69.3574 73.1133 67.8047 74.5313 66.6211C75.9492 65.4258 77.8184 64.8281 80.1387 64.8281C82.4707 64.8281 84.3516 65.4258 85.7813 66.6211C87.2109 67.8164 87.9258 69.3691 87.9258 71.2793C87.9258 72.5449 87.6504 73.6113 87.0996 74.4785C86.5488 75.3457 85.7168 76.0312 84.6035 76.5352C85.9863 77.0742 87.0293 77.877 87.7324 78.9434C88.4355 79.998 88.7871 81.293 88.7871 82.8281C88.7871 85.2305 88.002 87.1465 86.4316 88.5762C84.873 90.0059 82.7754 90.7207 80.1387 90.7207C77.502 90.7207 75.4102 90.0059 73.8633 88.5762C72.3164 87.1465 71.543 85.2305 71.543 82.8281C71.543 81.293 71.8945 79.998 72.5977 78.9434C73.3008 77.877 74.3379 77.0742 75.709 76.5352ZM108.616 83.7422C108.616 84.7617 108.962 85.623 109.653 86.3262C110.344 87.0176 111.2 87.3633 112.219 87.3633C113.204 87.3633 114.048 87.0117 114.751 86.3086C115.454 85.5938 115.805 84.7383 115.805 83.7422C115.805 82.7344 115.454 81.8848 114.751 81.1934C114.059 80.4902 113.216 80.1387 112.219 80.1387C111.212 80.1387 110.356 80.4902 109.653 81.1934C108.962 81.8848 108.616 82.7344 108.616 83.7422ZM105.979 83.7422C105.979 81.9961 106.583 80.5195 107.79 79.3125C108.997 78.1055 110.473 77.502 112.219 77.502C113.93 77.502 115.401 78.1113 116.632 79.3301C117.862 80.5488 118.477 82.0195 118.477 83.7422C118.477 85.4648 117.862 86.9414 116.632 88.1719C115.413 89.3906 113.942 90 112.219 90C110.473 90 108.997 89.3965 107.79 88.1895C106.583 86.9707 105.979 85.4883 105.979 83.7422ZM93.1999 71.7891C93.1999 72.8086 93.5456 73.6641 94.237 74.3555C94.9284 75.0469 95.7839 75.3926 96.8034 75.3926C97.7995 75.3926 98.6491 75.041 99.3523 74.3379C100.055 73.6348 100.407 72.7852 100.407 71.7891C100.407 70.7812 100.055 69.9316 99.3523 69.2402C98.6491 68.5371 97.7995 68.1855 96.8034 68.1855C95.7956 68.1855 94.9402 68.5371 94.237 69.2402C93.5456 69.9316 93.1999 70.7812 93.1999 71.7891ZM90.5808 71.7891C90.5808 70.043 91.1784 68.5664 92.3738 67.3594C93.5808 66.1523 95.0573 65.5488 96.8034 65.5488C98.5261 65.5488 99.9909 66.1582 101.198 67.377C102.417 68.5957 103.026 70.0664 103.026 71.7891C103.026 73.5117 102.417 74.9883 101.198 76.2188C99.9909 77.4375 98.5261 78.0469 96.8034 78.0469C95.0573 78.0469 93.5808 77.4434 92.3738 76.2363C91.1784 75.0176 90.5808 73.5352 90.5808 71.7891ZM95.7312 90.7207L111.13 64.8281H113.327L97.9109 90.7207H95.7312Z" fill="black"/>
<path d="M52.7443 50.1582H53.8752C53.8869 50.7832 54.0939 51.2812 54.4963 51.6523C54.9025 52.0234 55.4435 52.209 56.1193 52.209C56.7873 52.209 57.3127 52.0684 57.6955 51.7871C58.0822 51.5059 58.2755 51.123 58.2755 50.6387C58.2755 49.9785 57.5529 49.4766 56.1076 49.1328C56.0216 49.1133 55.9552 49.0977 55.9084 49.0859C54.7365 48.8086 53.9611 48.5 53.5822 48.1602C53.2072 47.8164 53.0197 47.3301 53.0197 46.7012C53.0197 45.9316 53.3009 45.3145 53.8634 44.8496C54.4259 44.3809 55.174 44.1465 56.1076 44.1465C57.0607 44.1465 57.8107 44.3926 58.3576 44.8848C58.9045 45.373 59.1818 46.0449 59.1896 46.9004L58.0705 46.9062C58.0314 46.3281 57.8341 45.8848 57.4787 45.5762C57.1271 45.2676 56.6447 45.1133 56.0314 45.1133C55.4572 45.1133 54.9982 45.2402 54.6545 45.4941C54.3107 45.7441 54.1388 46.0781 54.1388 46.4961C54.1388 47.1641 54.8498 47.6621 56.2716 47.9902C56.4826 48.041 56.6447 48.0801 56.758 48.1074C56.7814 48.1113 56.8224 48.1211 56.881 48.1367C57.8107 48.3594 58.4279 48.5996 58.7326 48.8574C58.963 49.0527 59.1388 49.291 59.2599 49.5723C59.381 49.8496 59.4416 50.1602 59.4416 50.5039C59.4416 51.3359 59.1427 51.998 58.5451 52.4902C57.9513 52.9824 57.1466 53.2285 56.131 53.2285C55.0841 53.2285 54.2677 52.9648 53.6818 52.4375C53.0998 51.9062 52.7873 51.1465 52.7443 50.1582ZM60.6605 53V44.3691H66.8129V45.4414H61.8207V48.0195H66.432V49.0273H61.8207V51.9219H66.9125V53H60.6605ZM67.1705 53L70.1354 48.582L67.3288 44.3691H68.7643L70.8209 47.5625L72.9069 44.3691H74.2721L71.4655 48.5586L74.4303 53H72.9889L70.7682 49.5078L68.6002 53H67.1705ZM78.3095 45.3652H76.2938V51.9453H78.3095C79.1727 51.9453 79.8251 51.666 80.2665 51.1074C80.7079 50.5449 80.9286 49.7148 80.9286 48.6172C80.9286 47.5664 80.704 46.7617 80.2548 46.2031C79.8055 45.6445 79.1571 45.3652 78.3095 45.3652ZM75.122 53V44.3691H78.4091C79.6122 44.3691 80.5321 44.7285 81.1688 45.4473C81.8095 46.166 82.1298 47.2031 82.1298 48.5586C82.1298 49.9609 81.7977 51.0527 81.1337 51.834C80.4735 52.6113 79.5497 53 78.3622 53H75.122ZM84.5148 45.3828V48.3066H86.5187C87.2413 48.3066 87.7511 48.1895 88.048 47.9551C88.3488 47.7207 88.4991 47.3301 88.4991 46.7832C88.4991 46.2715 88.3585 45.9102 88.0773 45.6992C87.796 45.4883 87.2765 45.3828 86.5187 45.3828H84.5148ZM83.3663 44.3691H86.712C87.255 44.3691 87.6534 44.3926 87.9073 44.4395C88.1652 44.4863 88.3956 44.5645 88.5988 44.6738C88.962 44.873 89.2374 45.1504 89.4249 45.5059C89.6163 45.8613 89.712 46.2793 89.712 46.7598C89.712 47.2246 89.6124 47.623 89.4132 47.9551C89.214 48.2832 88.9171 48.541 88.5226 48.7285C88.8585 48.8223 89.0968 48.9805 89.2374 49.2031C89.382 49.4258 89.4718 49.8027 89.507 50.334L89.6066 51.7578C89.6261 52.0625 89.6652 52.291 89.7238 52.4434C89.7863 52.5918 89.878 52.6973 89.9991 52.7598V53H88.6456C88.5363 52.8203 88.4601 52.4355 88.4171 51.8457C88.4171 51.8301 88.4171 51.8184 88.4171 51.8105L88.3468 50.6855C88.3077 50.1074 88.1847 49.7324 87.9777 49.5605C87.7706 49.3887 87.253 49.3027 86.4249 49.3027H84.5265V53H83.3663V44.3691ZM91.1185 53V44.3691H92.2904V53H91.1185ZM96.0816 53L93.0113 44.3691H94.2242L96.7086 51.5938L99.1168 44.3691H100.341L97.3063 53H96.0816ZM101.033 53V44.3691H107.185V45.4414H102.193V48.0195H106.805V49.0273H102.193V51.9219H107.285V53H101.033Z" fill="black"/>
<path d="M58.3546 109.617C58.3546 110.999 58.672 112.08 59.3067 112.861C59.9464 113.638 60.8302 114.026 61.9581 114.026C63.0812 114.026 63.9576 113.638 64.5875 112.861C65.2223 112.08 65.5396 110.999 65.5396 109.617C65.5396 108.23 65.2223 107.148 64.5875 106.372C63.9576 105.596 63.0812 105.208 61.9581 105.208C60.8302 105.208 59.9464 105.596 59.3067 106.372C58.672 107.148 58.3546 108.23 58.3546 109.617ZM56.8385 109.617C56.8385 107.834 57.2901 106.443 58.1935 105.442C59.1017 104.436 60.3565 103.933 61.9581 103.933C63.5548 103.933 64.8023 104.434 65.7008 105.435C66.6041 106.436 67.0558 107.83 67.0558 109.617C67.0558 111.399 66.6041 112.793 65.7008 113.799C64.8023 114.8 63.5548 115.3 61.9581 115.3C60.3565 115.3 59.1017 114.8 58.1935 113.799C57.2901 112.793 56.8385 111.399 56.8385 109.617ZM69.7294 111.133C69.7294 112.109 69.9223 112.844 70.308 113.337C70.6986 113.826 71.2821 114.07 72.0585 114.07C72.8007 114.07 73.372 113.801 73.7724 113.264C74.1776 112.722 74.3803 111.956 74.3803 110.964C74.3803 110.071 74.1703 109.368 73.7504 108.855C73.3354 108.342 72.7665 108.086 72.0438 108.086C71.3017 108.086 70.7304 108.35 70.33 108.877C69.9296 109.404 69.7294 110.156 69.7294 111.133ZM68.4843 118.135V107.156H69.7733V108.262C70.1005 107.793 70.4667 107.449 70.872 107.229C71.2821 107.009 71.768 106.899 72.3295 106.899C73.3744 106.899 74.2069 107.275 74.8271 108.027C75.4521 108.779 75.7646 109.788 75.7646 111.052C75.7646 112.332 75.4496 113.35 74.8197 114.106C74.1898 114.863 73.3549 115.242 72.3148 115.242C71.7631 115.242 71.2772 115.144 70.8573 114.949C70.4423 114.749 70.081 114.446 69.7733 114.041V118.135H68.4843ZM78.6213 113.022C78.6213 113.374 78.6701 113.608 78.7678 113.726C78.8703 113.843 79.0559 113.901 79.3244 113.901C79.4025 113.901 79.4953 113.899 79.6027 113.894C79.715 113.889 79.8591 113.879 80.0349 113.865V114.985C79.8151 115.024 79.6174 115.054 79.4416 115.073C79.2707 115.093 79.1169 115.103 78.9802 115.103C78.3601 115.103 77.9255 114.983 77.6765 114.744C77.4274 114.504 77.3029 114.08 77.3029 113.469V108.203H76.1311V107.156H77.3029V104.966H78.6213V107.156H80.0349V108.203H78.6213V113.022ZM80.9946 105.713V104.211H82.313V105.713H80.9946ZM80.9946 115V107.156H82.313V115H80.9946ZM93.5926 115V110.173C93.5926 109.382 93.4852 108.843 93.2703 108.555C93.0555 108.262 92.6819 108.115 92.1497 108.115C91.5149 108.115 91.0218 108.313 90.6702 108.708C90.3187 109.099 90.1429 109.651 90.1429 110.364V115H88.8025V110.173C88.8025 109.382 88.6951 108.843 88.4803 108.555C88.2654 108.262 87.8943 108.115 87.367 108.115C86.7371 108.115 86.2439 108.315 85.8875 108.716C85.5311 109.111 85.3528 109.661 85.3528 110.364V115H84.0345V107.156H85.2942V108.262C85.5872 107.822 85.9339 107.495 86.3343 107.28C86.7347 107.065 87.2034 106.958 87.7405 106.958C88.2288 106.958 88.6463 107.058 88.993 107.258C89.3396 107.454 89.6375 107.764 89.8865 108.188C90.2283 107.764 90.6019 107.454 91.0071 107.258C91.4124 107.058 91.8787 106.958 92.4061 106.958C92.9139 106.958 93.3558 107.051 93.7317 107.236C94.1077 107.417 94.3958 107.681 94.596 108.027C94.7083 108.228 94.7889 108.467 94.8377 108.745C94.8865 109.023 94.9109 109.463 94.9109 110.063V110.291V115H93.5926ZM101.459 113.953C101.049 114.382 100.612 114.705 100.148 114.919C99.6891 115.134 99.2008 115.242 98.6832 115.242C97.8824 115.242 97.2574 115.034 96.8082 114.619C96.359 114.199 96.1344 113.621 96.1344 112.883C96.1344 112.17 96.3541 111.611 96.7936 111.206C97.2379 110.801 97.9117 110.54 98.815 110.422C99.0445 110.398 99.3546 110.364 99.7452 110.32C100.414 110.251 100.824 110.186 100.976 110.122C101.127 110.063 101.227 109.988 101.276 109.895C101.325 109.797 101.349 109.59 101.349 109.272C101.349 108.872 101.203 108.572 100.91 108.372C100.617 108.171 100.175 108.071 99.5841 108.071C98.9737 108.071 98.5123 108.193 98.1998 108.438C97.8922 108.682 97.7384 109.043 97.7384 109.521H96.4933V109.463C96.4933 108.672 96.7716 108.047 97.3282 107.588C97.8849 107.129 98.6515 106.899 99.628 106.899C100.678 106.899 101.449 107.097 101.942 107.493C102.441 107.883 102.69 108.496 102.69 109.331V113.257C102.69 113.594 102.726 113.811 102.799 113.909C102.873 114.006 103.004 114.055 103.195 114.055C103.234 114.055 103.28 114.053 103.334 114.048C103.393 114.038 103.461 114.026 103.539 114.011V115.029C103.378 115.073 103.236 115.103 103.114 115.117C102.997 115.137 102.885 115.146 102.777 115.146C102.338 115.146 102.008 115.051 101.789 114.861C101.569 114.67 101.459 114.382 101.459 113.997V113.953ZM101.335 111.008C100.983 111.199 100.38 111.348 99.5255 111.455C99.2228 111.494 98.9957 111.526 98.8443 111.55C98.3658 111.628 98.0216 111.77 97.8116 111.975C97.6017 112.18 97.4967 112.478 97.4967 112.869C97.4967 113.259 97.6188 113.56 97.8629 113.77C98.107 113.979 98.4562 114.084 98.9103 114.084C99.6183 114.084 100.199 113.906 100.653 113.55C101.108 113.193 101.335 112.737 101.335 112.18V111.008ZM104.47 115V104.211H105.81V115H104.47Z" fill="black"/>
<path d="M158.5 81C158.5 124.91 123.128 160.5 79.5 160.5C35.8725 160.5 0.5 124.91 0.5 81C0.5 37.0904 35.8725 1.5 79.5 1.5C123.128 1.5 158.5 37.0904 158.5 81Z" stroke="#9B9B9B"/>
<path d="M79.5 160.5C123.407 160.5 159 125.183 159 81C159 36.8172 123.407 1 79.5 1" stroke="#E2F15B" stroke-width="2" stroke-miterlimit="1"/>
</svg>
