<svg width="161" height="162" viewBox="0 0 161 162" fill="none" xmlns="http://www.w3.org/2000/svg">
<path d="M51.0911 90C51.6184 86.0039 52.7259 82.2656 54.4134 78.7852C56.1009 75.293 58.4153 71.9766 61.3567 68.8359H47.6809V65.5488H64.8196V68.5371C61.9837 71.6074 59.7278 74.9297 58.052 78.5039C56.388 82.0664 55.2923 85.8984 54.7649 90H51.0911ZM66.2441 83.4785H69.5664C69.7656 84.7793 70.3047 85.7988 71.1836 86.5371C72.0742 87.2637 73.1992 87.627 74.5586 87.627C76.2344 87.627 77.582 87.1172 78.6016 86.0977C79.6328 85.0781 80.1484 83.7363 80.1484 82.0723C80.1484 80.3613 79.6504 79.0078 78.6543 78.0117C77.6582 77.0039 76.3047 76.5 74.5938 76.5C73.6328 76.5 72.748 76.6934 71.9395 77.0801C71.1426 77.4668 70.4453 78.041 69.8477 78.8027H66.9648L68.9512 65.5488H82.2754V68.502H71.3242L70.3223 75.2344C70.9434 74.707 71.6582 74.3086 72.4668 74.0391C73.2871 73.7578 74.1777 73.6172 75.1387 73.6172C77.7051 73.6172 79.7617 74.373 81.3086 75.8848C82.8555 77.3965 83.6289 79.4004 83.6289 81.8965C83.6289 84.5332 82.8086 86.666 81.168 88.2949C79.5273 89.9121 77.377 90.7207 74.7168 90.7207C72.3496 90.7207 70.3926 90.0645 68.8457 88.752C67.3105 87.4277 66.4434 85.6699 66.2441 83.4785ZM103.616 83.7422C103.616 84.7617 103.962 85.623 104.653 86.3262C105.344 87.0176 106.2 87.3633 107.219 87.3633C108.204 87.3633 109.048 87.0117 109.751 86.3086C110.454 85.5938 110.805 84.7383 110.805 83.7422C110.805 82.7344 110.454 81.8848 109.751 81.1934C109.059 80.4902 108.216 80.1387 107.219 80.1387C106.212 80.1387 105.356 80.4902 104.653 81.1934C103.962 81.8848 103.616 82.7344 103.616 83.7422ZM100.979 83.7422C100.979 81.9961 101.583 80.5195 102.79 79.3125C103.997 78.1055 105.473 77.502 107.219 77.502C108.93 77.502 110.401 78.1113 111.632 79.3301C112.862 80.5488 113.477 82.0195 113.477 83.7422C113.477 85.4648 112.862 86.9414 111.632 88.1719C110.413 89.3906 108.942 90 107.219 90C105.473 90 103.997 89.3965 102.79 88.1895C101.583 86.9707 100.979 85.4883 100.979 83.7422ZM88.1999 71.7891C88.1999 72.8086 88.5456 73.6641 89.237 74.3555C89.9284 75.0469 90.7839 75.3926 91.8034 75.3926C92.7995 75.3926 93.6491 75.041 94.3523 74.3379C95.0554 73.6348 95.407 72.7852 95.407 71.7891C95.407 70.7812 95.0554 69.9316 94.3523 69.2402C93.6491 68.5371 92.7995 68.1855 91.8034 68.1855C90.7956 68.1855 89.9402 68.5371 89.237 69.2402C88.5456 69.9316 88.1999 70.7812 88.1999 71.7891ZM85.5808 71.7891C85.5808 70.043 86.1784 68.5664 87.3738 67.3594C88.5808 66.1523 90.0573 65.5488 91.8034 65.5488C93.5261 65.5488 94.9909 66.1582 96.198 67.377C97.4167 68.5957 98.0261 70.0664 98.0261 71.7891C98.0261 73.5117 97.4167 74.9883 96.198 76.2188C94.9909 77.4375 93.5261 78.0469 91.8034 78.0469C90.0573 78.0469 88.5808 77.4434 87.3738 76.2363C86.1784 75.0176 85.5808 73.5352 85.5808 71.7891ZM90.7312 90.7207L106.13 64.8281H108.327L92.9109 90.7207H90.7312Z" fill="black"/>
<path d="M53.7443 50.1582H54.8752C54.8869 50.7832 55.0939 51.2812 55.4963 51.6523C55.9025 52.0234 56.4435 52.209 57.1193 52.209C57.7873 52.209 58.3127 52.0684 58.6955 51.7871C59.0822 51.5059 59.2755 51.123 59.2755 50.6387C59.2755 49.9785 58.5529 49.4766 57.1076 49.1328C57.0216 49.1133 56.9552 49.0977 56.9084 49.0859C55.7365 48.8086 54.9611 48.5 54.5822 48.1602C54.2072 47.8164 54.0197 47.3301 54.0197 46.7012C54.0197 45.9316 54.3009 45.3145 54.8634 44.8496C55.4259 44.3809 56.174 44.1465 57.1076 44.1465C58.0607 44.1465 58.8107 44.3926 59.3576 44.8848C59.9045 45.373 60.1818 46.0449 60.1896 46.9004L59.0705 46.9062C59.0314 46.3281 58.8341 45.8848 58.4787 45.5762C58.1271 45.2676 57.6447 45.1133 57.0314 45.1133C56.4572 45.1133 55.9982 45.2402 55.6545 45.4941C55.3107 45.7441 55.1388 46.0781 55.1388 46.4961C55.1388 47.1641 55.8498 47.6621 57.2716 47.9902C57.4826 48.041 57.6447 48.0801 57.758 48.1074C57.7814 48.1113 57.8224 48.1211 57.881 48.1367C58.8107 48.3594 59.4279 48.5996 59.7326 48.8574C59.963 49.0527 60.1388 49.291 60.2599 49.5723C60.381 49.8496 60.4416 50.1602 60.4416 50.5039C60.4416 51.3359 60.1427 51.998 59.5451 52.4902C58.9513 52.9824 58.1466 53.2285 57.131 53.2285C56.0841 53.2285 55.2677 52.9648 54.6818 52.4375C54.0998 51.9062 53.7873 51.1465 53.7443 50.1582ZM61.6605 53V44.3691H67.8129V45.4414H62.8207V48.0195H67.432V49.0273H62.8207V51.9219H67.9125V53H61.6605ZM68.1705 53L71.1354 48.582L68.3288 44.3691H69.7643L71.8209 47.5625L73.9069 44.3691H75.2721L72.4655 48.5586L75.4303 53H73.9889L71.7682 49.5078L69.6002 53H68.1705ZM79.3095 45.3652H77.2938V51.9453H79.3095C80.1727 51.9453 80.8251 51.666 81.2665 51.1074C81.7079 50.5449 81.9286 49.7148 81.9286 48.6172C81.9286 47.5664 81.704 46.7617 81.2548 46.2031C80.8055 45.6445 80.1571 45.3652 79.3095 45.3652ZM76.122 53V44.3691H79.4091C80.6122 44.3691 81.5321 44.7285 82.1688 45.4473C82.8095 46.166 83.1298 47.2031 83.1298 48.5586C83.1298 49.9609 82.7977 51.0527 82.1337 51.834C81.4735 52.6113 80.5497 53 79.3622 53H76.122ZM85.5148 45.3828V48.3066H87.5187C88.2413 48.3066 88.7511 48.1895 89.048 47.9551C89.3488 47.7207 89.4991 47.3301 89.4991 46.7832C89.4991 46.2715 89.3585 45.9102 89.0773 45.6992C88.796 45.4883 88.2765 45.3828 87.5187 45.3828H85.5148ZM84.3663 44.3691H87.712C88.255 44.3691 88.6534 44.3926 88.9073 44.4395C89.1652 44.4863 89.3956 44.5645 89.5988 44.6738C89.962 44.873 90.2374 45.1504 90.4249 45.5059C90.6163 45.8613 90.712 46.2793 90.712 46.7598C90.712 47.2246 90.6124 47.623 90.4132 47.9551C90.214 48.2832 89.9171 48.541 89.5226 48.7285C89.8585 48.8223 90.0968 48.9805 90.2374 49.2031C90.382 49.4258 90.4718 49.8027 90.507 50.334L90.6066 51.7578C90.6261 52.0625 90.6652 52.291 90.7238 52.4434C90.7863 52.5918 90.878 52.6973 90.9991 52.7598V53H89.6456C89.5363 52.8203 89.4601 52.4355 89.4171 51.8457C89.4171 51.8301 89.4171 51.8184 89.4171 51.8105L89.3468 50.6855C89.3077 50.1074 89.1847 49.7324 88.9777 49.5605C88.7706 49.3887 88.253 49.3027 87.4249 49.3027H85.5265V53H84.3663V44.3691ZM92.1185 53V44.3691H93.2904V53H92.1185ZM97.0816 53L94.0113 44.3691H95.2242L97.7086 51.5938L100.117 44.3691H101.341L98.3063 53H97.0816ZM102.033 53V44.3691H108.185V45.4414H103.193V48.0195H107.805V49.0273H103.193V51.9219H108.285V53H102.033Z" fill="black"/>
<path d="M59.3546 109.617C59.3546 110.999 59.672 112.08 60.3067 112.861C60.9464 113.638 61.8302 114.026 62.9581 114.026C64.0812 114.026 64.9576 113.638 65.5875 112.861C66.2223 112.08 66.5396 110.999 66.5396 109.617C66.5396 108.23 66.2223 107.148 65.5875 106.372C64.9576 105.596 64.0812 105.208 62.9581 105.208C61.8302 105.208 60.9464 105.596 60.3067 106.372C59.672 107.148 59.3546 108.23 59.3546 109.617ZM57.8385 109.617C57.8385 107.834 58.2901 106.443 59.1935 105.442C60.1017 104.436 61.3565 103.933 62.9581 103.933C64.5548 103.933 65.8023 104.434 66.7008 105.435C67.6041 106.436 68.0558 107.83 68.0558 109.617C68.0558 111.399 67.6041 112.793 66.7008 113.799C65.8023 114.8 64.5548 115.3 62.9581 115.3C61.3565 115.3 60.1017 114.8 59.1935 113.799C58.2901 112.793 57.8385 111.399 57.8385 109.617ZM70.7294 111.133C70.7294 112.109 70.9223 112.844 71.308 113.337C71.6986 113.826 72.2821 114.07 73.0585 114.07C73.8007 114.07 74.372 113.801 74.7724 113.264C75.1776 112.722 75.3803 111.956 75.3803 110.964C75.3803 110.071 75.1703 109.368 74.7504 108.855C74.3354 108.342 73.7665 108.086 73.0438 108.086C72.3017 108.086 71.7304 108.35 71.33 108.877C70.9296 109.404 70.7294 110.156 70.7294 111.133ZM69.4843 118.135V107.156H70.7733V108.262C71.1005 107.793 71.4667 107.449 71.872 107.229C72.2821 107.009 72.768 106.899 73.3295 106.899C74.3744 106.899 75.2069 107.275 75.8271 108.027C76.4521 108.779 76.7646 109.788 76.7646 111.052C76.7646 112.332 76.4496 113.35 75.8197 114.106C75.1898 114.863 74.3549 115.242 73.3148 115.242C72.7631 115.242 72.2772 115.144 71.8573 114.949C71.4423 114.749 71.081 114.446 70.7733 114.041V118.135H69.4843ZM79.6213 113.022C79.6213 113.374 79.6701 113.608 79.7678 113.726C79.8703 113.843 80.0559 113.901 80.3244 113.901C80.4025 113.901 80.4953 113.899 80.6027 113.894C80.715 113.889 80.8591 113.879 81.0349 113.865V114.985C80.8151 115.024 80.6174 115.054 80.4416 115.073C80.2707 115.093 80.1169 115.103 79.9802 115.103C79.3601 115.103 78.9255 114.983 78.6765 114.744C78.4274 114.504 78.3029 114.08 78.3029 113.469V108.203H77.1311V107.156H78.3029V104.966H79.6213V107.156H81.0349V108.203H79.6213V113.022ZM81.9946 105.713V104.211H83.313V105.713H81.9946ZM81.9946 115V107.156H83.313V115H81.9946ZM94.5926 115V110.173C94.5926 109.382 94.4852 108.843 94.2703 108.555C94.0555 108.262 93.6819 108.115 93.1497 108.115C92.5149 108.115 92.0218 108.313 91.6702 108.708C91.3187 109.099 91.1429 109.651 91.1429 110.364V115H89.8025V110.173C89.8025 109.382 89.6951 108.843 89.4803 108.555C89.2654 108.262 88.8943 108.115 88.367 108.115C87.7371 108.115 87.2439 108.315 86.8875 108.716C86.5311 109.111 86.3528 109.661 86.3528 110.364V115H85.0345V107.156H86.2942V108.262C86.5872 107.822 86.9339 107.495 87.3343 107.28C87.7347 107.065 88.2034 106.958 88.7405 106.958C89.2288 106.958 89.6463 107.058 89.993 107.258C90.3396 107.454 90.6375 107.764 90.8865 108.188C91.2283 107.764 91.6019 107.454 92.0071 107.258C92.4124 107.058 92.8787 106.958 93.4061 106.958C93.9139 106.958 94.3558 107.051 94.7317 107.236C95.1077 107.417 95.3958 107.681 95.596 108.027C95.7083 108.228 95.7889 108.467 95.8377 108.745C95.8865 109.023 95.9109 109.463 95.9109 110.063V110.291V115H94.5926ZM102.459 113.953C102.049 114.382 101.612 114.705 101.148 114.919C100.689 115.134 100.201 115.242 99.6832 115.242C98.8824 115.242 98.2574 115.034 97.8082 114.619C97.359 114.199 97.1344 113.621 97.1344 112.883C97.1344 112.17 97.3541 111.611 97.7936 111.206C98.2379 110.801 98.9117 110.54 99.815 110.422C100.045 110.398 100.355 110.364 100.745 110.32C101.414 110.251 101.824 110.186 101.976 110.122C102.127 110.063 102.227 109.988 102.276 109.895C102.325 109.797 102.349 109.59 102.349 109.272C102.349 108.872 102.203 108.572 101.91 108.372C101.617 108.171 101.175 108.071 100.584 108.071C99.9737 108.071 99.5123 108.193 99.1998 108.438C98.8922 108.682 98.7384 109.043 98.7384 109.521H97.4933V109.463C97.4933 108.672 97.7716 108.047 98.3282 107.588C98.8849 107.129 99.6515 106.899 100.628 106.899C101.678 106.899 102.449 107.097 102.942 107.493C103.441 107.883 103.69 108.496 103.69 109.331V113.257C103.69 113.594 103.726 113.811 103.799 113.909C103.873 114.006 104.004 114.055 104.195 114.055C104.234 114.055 104.28 114.053 104.334 114.048C104.393 114.038 104.461 114.026 104.539 114.011V115.029C104.378 115.073 104.236 115.103 104.114 115.117C103.997 115.137 103.885 115.146 103.777 115.146C103.338 115.146 103.008 115.051 102.789 114.861C102.569 114.67 102.459 114.382 102.459 113.997V113.953ZM102.335 111.008C101.983 111.199 101.38 111.348 100.525 111.455C100.223 111.494 99.9957 111.526 99.8443 111.55C99.3658 111.628 99.0216 111.77 98.8116 111.975C98.6017 112.18 98.4967 112.478 98.4967 112.869C98.4967 113.259 98.6188 113.56 98.8629 113.77C99.107 113.979 99.4562 114.084 99.9103 114.084C100.618 114.084 101.199 113.906 101.653 113.55C102.108 113.193 102.335 112.737 102.335 112.18V111.008ZM105.47 115V104.211H106.81V115H105.47Z" fill="black"/>
<path d="M159.5 81C159.5 124.91 124.128 160.5 80.5 160.5C36.8725 160.5 1.5 124.91 1.5 81C1.5 37.0904 36.8725 1.5 80.5 1.5C124.128 1.5 159.5 37.0904 159.5 81Z" stroke="#9B9B9B"/>
<path d="M1 81C1 125.183 36.5934 161 80.5 161C124.407 161 160 125.183 160 81C160 36.8172 124.407 1 80.5 1" stroke="#65C5B5" stroke-width="2"/>
</svg>
