<svg width="123" height="33" viewBox="0 0 123 33" fill="none" xmlns="http://www.w3.org/2000/svg">
<path d="M13.5712 15.9752C11.7957 14.4187 9.89869 12.9837 8.14757 11.3785C7.32065 10.6246 6.54238 9.7247 5.98299 8.75186C5.01015 7.04938 5.86139 5.24962 7.78275 4.83616C8.53671 4.66591 9.36363 4.64159 10.1419 4.71455C12.0633 4.90912 13.6685 5.83332 15.2007 6.92777C15.3466 7.02506 15.5169 7.14666 15.7114 7.26827C16.1492 6.22246 16.5627 5.2253 16.9518 4.25245C17.5842 2.67158 17.6085 2.62294 16.1249 1.79602C12.7199 -0.149668 9.12042 -0.514485 5.39929 0.70157C3.01582 1.45552 1.28902 3.08504 0.705312 5.61443C0.0729634 8.31408 0.559385 10.8678 2.40779 13.0324C3.08878 13.835 3.84274 14.6132 4.64533 15.2942C6.83423 17.1913 9.07178 19.0154 11.2607 20.9124C11.9903 21.5691 12.6956 22.323 13.1577 23.15C14.2522 25.0956 14.0819 27.7223 10.7013 28.3547C8.4151 28.7924 6.34781 28.2087 4.42644 27.017C3.5752 26.4819 2.77261 25.8496 1.92137 25.2416C1.28902 26.7008 0.632349 28.1601 0 29.6194C1.55655 31.03 3.30767 31.9785 5.302 32.5136C6.00731 32.7081 6.73695 32.8298 7.44226 33C8.56103 33 9.70412 33 10.8229 33C11.5039 32.8298 12.1849 32.7081 12.8415 32.5136C15.5898 31.6623 17.7787 30.1301 18.5813 27.2602C19.4082 24.3174 18.8245 21.4961 16.8545 19.1126C15.8574 17.9939 14.7143 16.9724 13.5712 15.9752Z" fill="white"/>
<path d="M39.5218 13.8109C36.1412 13.8109 32.8578 13.8109 29.4772 13.8109C29.4772 9.3115 29.4772 4.83641 29.4772 0.361328C27.6774 0.361328 25.975 0.361328 24.2482 0.361328C24.2482 11.1842 24.2482 21.9585 24.2482 32.7327C25.9993 32.7327 27.7261 32.7327 29.4772 32.7327C29.4772 32.4409 29.4772 32.1733 29.4772 31.9301C29.4772 27.7955 29.4772 23.661 29.4772 19.5507C29.4772 19.0156 29.5988 18.8211 30.1825 18.8211C33.0767 18.8454 35.9709 18.8454 38.8652 18.8454C39.084 18.8454 39.2786 18.8697 39.5705 18.8697C39.5705 23.5393 39.5705 28.136 39.5705 32.757C41.3459 32.757 43.0484 32.757 44.7995 32.757C44.7995 21.9098 44.7995 11.1356 44.7995 0.361328C43.0484 0.361328 41.3216 0.361328 39.5218 0.361328C39.5218 4.88505 39.5218 9.36014 39.5218 13.8109Z" fill="white"/>
<path d="M112.023 27.9171C112.023 24.8526 112.023 21.8611 112.023 18.7966C115.233 18.7966 118.395 18.7966 121.557 18.7966C121.557 17.1671 121.557 15.5862 121.557 13.9324C118.346 13.9324 115.209 13.9324 112.023 13.9324C112.023 11.0139 112.023 8.19263 112.023 5.2741C115.574 5.2741 119.076 5.2741 122.603 5.2741C122.603 3.59594 122.603 1.99075 122.603 0.336914C117.276 0.336914 112.023 0.336914 106.721 0.336914C106.721 11.1841 106.721 21.9584 106.721 32.757C112.047 32.757 117.325 32.757 122.627 32.757C122.627 31.1274 122.627 29.5466 122.627 27.8927C119.052 27.9171 115.525 27.9171 112.023 27.9171Z" fill="white"/>
<path d="M65.2292 2.2581C65.0103 1.62575 64.9374 0.750195 64.4753 0.43402C64.0132 0.117846 63.1619 0.361057 62.4809 0.312415C62.0675 0.288094 61.8972 0.458342 61.7756 0.823158C58.2734 11.2812 54.7711 21.7393 51.2689 32.1974C51.2203 32.3676 51.1716 32.5622 51.123 32.8054C52.7525 32.8054 54.3334 32.8054 55.8899 32.7811C56.0115 32.7811 56.2061 32.5379 56.2547 32.3676C56.7412 30.9084 57.2033 29.4734 57.6654 27.9898C57.787 27.6007 57.9572 27.4304 58.395 27.4304C61.5567 27.4548 64.7428 27.4548 67.9045 27.4304C68.318 27.4304 68.4883 27.5764 68.5855 27.9412C69.0233 29.4005 69.5097 30.8597 69.9962 32.319C70.0691 32.4892 70.2637 32.7811 70.4096 32.7811C72.0635 32.8054 73.7173 32.8054 75.4441 32.8054C75.3468 32.5136 75.2982 32.2947 75.2252 32.0758C71.8932 22.1284 68.5612 12.1811 65.2292 2.2581ZM59.4165 22.6635C60.6325 18.7965 61.8486 14.978 63.0646 11.1596C63.1133 11.1596 63.1863 11.1596 63.2349 11.1596C64.451 14.978 65.667 18.7721 66.8831 22.6635C64.378 22.6635 61.9459 22.6635 59.4165 22.6635Z" fill="white"/>
<path d="M93.1012 1.04204C89.3801 -0.101052 85.586 0.458334 81.7676 0.288086C81.7676 11.1839 81.7676 21.9582 81.7676 32.7324C83.5187 32.7324 85.2455 32.7324 87.0209 32.7324C87.0209 29.6193 87.0209 26.5792 87.0209 23.5634C88.237 23.4418 89.4044 23.4175 90.5475 23.2229C97.0169 22.1528 101.322 16.7778 100.714 10.4057C100.3 5.78466 97.6249 2.42834 93.1012 1.04204ZM94.3173 15.7563C92.5905 18.3587 89.9152 18.6992 87.0453 18.7478C87.0453 14.1025 87.0453 9.57875 87.0453 4.95774C89.7935 5.05502 92.4932 5.20095 94.2686 7.6817C95.7765 9.72468 95.7765 13.5431 94.3173 15.7563Z" fill="white"/>
</svg>
