<svg width="160" height="161" viewBox="0 0 160 161" fill="none" xmlns="http://www.w3.org/2000/svg">
<path d="M61.4622 80.3711C61.4622 78.7422 61.011 77.4414 60.1087 76.4688C59.218 75.4961 58.0403 75.0098 56.5755 75.0098C54.9348 75.0098 53.6458 75.4902 52.7083 76.4512C51.7825 77.4121 51.3196 78.7305 51.3196 80.4062C51.3196 82.082 51.7825 83.4121 52.7083 84.3965C53.6458 85.3809 54.8997 85.873 56.47 85.873C57.97 85.873 59.177 85.3691 60.0911 84.3613C61.0052 83.3535 61.4622 82.0234 61.4622 80.3711ZM64.7493 69.7539H61.427C61.3098 68.4414 60.8704 67.4453 60.1087 66.7656C59.347 66.0859 58.2864 65.7461 56.927 65.7461C55.0989 65.7461 53.6985 66.4961 52.7259 67.9961C51.7532 69.4961 51.1848 71.7695 51.0208 74.8164C51.7356 73.9141 52.5911 73.2285 53.5872 72.7598C54.595 72.291 55.72 72.0566 56.9622 72.0566C59.3528 72.0566 61.2805 72.8184 62.7454 74.3418C64.222 75.8535 64.9602 77.8516 64.9602 80.3359C64.9602 82.832 64.1751 84.8535 62.6048 86.4004C61.0462 87.9473 59.0013 88.7207 56.47 88.7207C53.552 88.7207 51.3138 87.707 49.7552 85.6797C48.2083 83.6406 47.4348 80.7168 47.4348 76.9082C47.4348 72.4199 48.261 68.9512 49.9134 66.502C51.5657 64.0527 53.8919 62.8281 56.8919 62.8281C59.2591 62.8281 61.1223 63.4316 62.4817 64.6387C63.8411 65.834 64.597 67.5391 64.7493 69.7539ZM66.1035 80.1602H69.373C69.4199 81.9297 69.9063 83.2949 70.832 84.2559C71.7578 85.2168 73.0645 85.6973 74.752 85.6973C76.3926 85.6973 77.6816 85.2578 78.6191 84.3789C79.5684 83.5 80.043 82.293 80.043 80.7578C80.043 79.3516 79.5801 78.2617 78.6543 77.4883C77.7285 76.7148 76.4277 76.3281 74.752 76.3281C74.4121 76.3281 73.8496 76.3516 73.0645 76.3984L72.9414 76.416L72.959 73.5684C73.1113 73.5801 73.2637 73.5918 73.416 73.6035C73.5801 73.6035 73.7852 73.6035 74.0313 73.6035C75.8359 73.6035 77.1367 73.2988 77.9336 72.6895C78.7305 72.0684 79.1289 71.0781 79.1289 69.7188C79.1289 68.4531 78.748 67.4805 77.9863 66.8008C77.2246 66.1211 76.1348 65.7812 74.7168 65.7812C73.123 65.7812 71.916 66.2324 71.0957 67.1348C70.2871 68.0254 69.8828 69.3496 69.8828 71.1074H66.6836V70.9316C66.6836 68.459 67.3926 66.4902 68.8105 65.0254C70.2285 63.5605 72.1328 62.8281 74.5234 62.8281C77.0781 62.8281 79.0586 63.4199 80.4648 64.6035C81.8828 65.7871 82.5918 67.4395 82.5918 69.5605C82.5918 70.7793 82.3281 71.8164 81.8008 72.6719C81.2734 73.5156 80.4941 74.1602 79.4629 74.6055C80.7988 75.0977 81.8066 75.8652 82.4863 76.9082C83.1777 77.9395 83.5234 79.2227 83.5234 80.7578C83.5234 83.1719 82.709 85.1055 81.0801 86.5586C79.4512 88 77.2656 88.7207 74.5234 88.7207C71.957 88.7207 69.9121 87.9648 68.3887 86.4531C66.8652 84.9297 66.1035 82.8906 66.1035 80.3359V80.1602ZM103.616 81.7422C103.616 82.7617 103.962 83.623 104.653 84.3262C105.344 85.0176 106.2 85.3633 107.219 85.3633C108.204 85.3633 109.048 85.0117 109.751 84.3086C110.454 83.5938 110.805 82.7383 110.805 81.7422C110.805 80.7344 110.454 79.8848 109.751 79.1934C109.059 78.4902 108.216 78.1387 107.219 78.1387C106.212 78.1387 105.356 78.4902 104.653 79.1934C103.962 79.8848 103.616 80.7344 103.616 81.7422ZM100.979 81.7422C100.979 79.9961 101.583 78.5195 102.79 77.3125C103.997 76.1055 105.473 75.502 107.219 75.502C108.93 75.502 110.401 76.1113 111.632 77.3301C112.862 78.5488 113.477 80.0195 113.477 81.7422C113.477 83.4648 112.862 84.9414 111.632 86.1719C110.413 87.3906 108.942 88 107.219 88C105.473 88 103.997 87.3965 102.79 86.1895C101.583 84.9707 100.979 83.4883 100.979 81.7422ZM88.1999 69.7891C88.1999 70.8086 88.5456 71.6641 89.237 72.3555C89.9284 73.0469 90.7839 73.3926 91.8034 73.3926C92.7995 73.3926 93.6491 73.041 94.3523 72.3379C95.0554 71.6348 95.407 70.7852 95.407 69.7891C95.407 68.7812 95.0554 67.9316 94.3523 67.2402C93.6491 66.5371 92.7995 66.1855 91.8034 66.1855C90.7956 66.1855 89.9402 66.5371 89.237 67.2402C88.5456 67.9316 88.1999 68.7812 88.1999 69.7891ZM85.5808 69.7891C85.5808 68.043 86.1784 66.5664 87.3738 65.3594C88.5808 64.1523 90.0573 63.5488 91.8034 63.5488C93.5261 63.5488 94.9909 64.1582 96.198 65.377C97.4167 66.5957 98.0261 68.0664 98.0261 69.7891C98.0261 71.5117 97.4167 72.9883 96.198 74.2188C94.9909 75.4375 93.5261 76.0469 91.8034 76.0469C90.0573 76.0469 88.5808 75.4434 87.3738 74.2363C86.1784 73.0176 85.5808 71.5352 85.5808 69.7891ZM90.7312 88.7207L106.13 62.8281H108.327L92.9109 88.7207H90.7312Z" fill="black"/>
<path d="M62.9624 43.1582H64.0933C64.105 43.7832 64.312 44.2812 64.7144 44.6523C65.1206 45.0234 65.6616 45.209 66.3374 45.209C67.0054 45.209 67.5308 45.0684 67.9136 44.7871C68.3003 44.5059 68.4937 44.123 68.4937 43.6387C68.4937 42.9785 67.771 42.4766 66.3257 42.1328C66.2398 42.1133 66.1734 42.0977 66.1265 42.0859C64.9546 41.8086 64.1792 41.5 63.8003 41.1602C63.4253 40.8164 63.2378 40.3301 63.2378 39.7012C63.2378 38.9316 63.5191 38.3145 64.0816 37.8496C64.6441 37.3809 65.3921 37.1465 66.3257 37.1465C67.2788 37.1465 68.0288 37.3926 68.5757 37.8848C69.1226 38.373 69.3999 39.0449 69.4077 39.9004L68.2886 39.9062C68.2495 39.3281 68.0523 38.8848 67.6968 38.5762C67.3452 38.2676 66.8628 38.1133 66.2495 38.1133C65.6753 38.1133 65.2163 38.2402 64.8726 38.4941C64.5288 38.7441 64.357 39.0781 64.357 39.4961C64.357 40.1641 65.0679 40.6621 66.4898 40.9902C66.7007 41.041 66.8628 41.0801 66.9761 41.1074C66.9995 41.1113 67.0405 41.1211 67.0991 41.1367C68.0288 41.3594 68.646 41.5996 68.9507 41.8574C69.1812 42.0527 69.357 42.291 69.478 42.5723C69.5991 42.8496 69.6597 43.1602 69.6597 43.5039C69.6597 44.3359 69.3609 44.998 68.7632 45.4902C68.1695 45.9824 67.3648 46.2285 66.3491 46.2285C65.3023 46.2285 64.4859 45.9648 63.8999 45.4375C63.3179 44.9062 63.0054 44.1465 62.9624 43.1582ZM70.8787 46V37.3691H72.0623V44.9102H76.363V46H70.8787ZM77.0605 46V37.3691H83.2129V38.4414H78.2207V41.0195H82.832V42.0273H78.2207V44.9219H83.3125V46H77.0605ZM84.4963 46V37.3691H90.6487V38.4414H85.6565V41.0195H90.2678V42.0273H85.6565V44.9219H90.7483V46H84.4963ZM93.104 41.3184H95.0727C95.7563 41.3184 96.2329 41.209 96.5024 40.9902C96.7759 40.7715 96.9126 40.3965 96.9126 39.8652C96.9126 39.3535 96.7778 38.9863 96.5083 38.7637C96.2388 38.541 95.7895 38.4297 95.1606 38.4297H93.104V41.3184ZM91.9321 46V37.3691H95.1079C95.6235 37.3691 96.0161 37.3945 96.2856 37.4453C96.5552 37.4961 96.7954 37.5801 97.0063 37.6973C97.3579 37.8887 97.6274 38.1719 97.8149 38.5469C98.0024 38.9219 98.0962 39.3613 98.0962 39.8652C98.0962 40.3457 98.0024 40.7695 97.8149 41.1367C97.6274 41.5039 97.354 41.7969 96.9946 42.0156C96.7876 42.1406 96.5434 42.2305 96.2622 42.2852C95.9848 42.3359 95.5259 42.3613 94.8852 42.3613H93.104V46H91.9321Z" fill="black"/>
<path d="M57.3546 107.617C57.3546 108.999 57.672 110.08 58.3067 110.861C58.9464 111.638 59.8302 112.026 60.9581 112.026C62.0812 112.026 62.9576 111.638 63.5875 110.861C64.2223 110.08 64.5396 108.999 64.5396 107.617C64.5396 106.23 64.2223 105.148 63.5875 104.372C62.9576 103.596 62.0812 103.208 60.9581 103.208C59.8302 103.208 58.9464 103.596 58.3067 104.372C57.672 105.148 57.3546 106.23 57.3546 107.617ZM55.8385 107.617C55.8385 105.834 56.2901 104.443 57.1935 103.442C58.1017 102.436 59.3565 101.933 60.9581 101.933C62.5548 101.933 63.8023 102.434 64.7008 103.435C65.6041 104.436 66.0558 105.83 66.0558 107.617C66.0558 109.399 65.6041 110.793 64.7008 111.799C63.8023 112.8 62.5548 113.3 60.9581 113.3C59.3565 113.3 58.1017 112.8 57.1935 111.799C56.2901 110.793 55.8385 109.399 55.8385 107.617ZM68.7294 109.133C68.7294 110.109 68.9223 110.844 69.308 111.337C69.6986 111.826 70.2821 112.07 71.0585 112.07C71.8007 112.07 72.372 111.801 72.7724 111.264C73.1776 110.722 73.3803 109.956 73.3803 108.964C73.3803 108.071 73.1703 107.368 72.7504 106.855C72.3354 106.342 71.7665 106.086 71.0438 106.086C70.3017 106.086 69.7304 106.35 69.33 106.877C68.9296 107.404 68.7294 108.156 68.7294 109.133ZM67.4843 116.135V105.156H68.7733V106.262C69.1005 105.793 69.4667 105.449 69.872 105.229C70.2821 105.009 70.768 104.899 71.3295 104.899C72.3744 104.899 73.2069 105.275 73.8271 106.027C74.4521 106.779 74.7646 107.788 74.7646 109.052C74.7646 110.332 74.4496 111.35 73.8197 112.106C73.1898 112.863 72.3549 113.242 71.3148 113.242C70.7631 113.242 70.2772 113.144 69.8573 112.949C69.4423 112.749 69.081 112.446 68.7733 112.041V116.135H67.4843ZM77.6213 111.022C77.6213 111.374 77.6701 111.608 77.7678 111.726C77.8703 111.843 78.0559 111.901 78.3244 111.901C78.4025 111.901 78.4953 111.899 78.6027 111.894C78.715 111.889 78.8591 111.879 79.0349 111.865V112.985C78.8151 113.024 78.6174 113.054 78.4416 113.073C78.2707 113.093 78.1169 113.103 77.9802 113.103C77.3601 113.103 76.9255 112.983 76.6765 112.744C76.4274 112.504 76.3029 112.08 76.3029 111.469V106.203H75.1311V105.156H76.3029V102.966H77.6213V105.156H79.0349V106.203H77.6213V111.022ZM79.9946 103.713V102.211H81.313V103.713H79.9946ZM79.9946 113V105.156H81.313V113H79.9946ZM92.5926 113V108.173C92.5926 107.382 92.4852 106.843 92.2703 106.555C92.0555 106.262 91.6819 106.115 91.1497 106.115C90.5149 106.115 90.0218 106.313 89.6702 106.708C89.3187 107.099 89.1429 107.651 89.1429 108.364V113H87.8025V108.173C87.8025 107.382 87.6951 106.843 87.4803 106.555C87.2654 106.262 86.8943 106.115 86.367 106.115C85.7371 106.115 85.2439 106.315 84.8875 106.716C84.5311 107.111 84.3528 107.661 84.3528 108.364V113H83.0345V105.156H84.2942V106.262C84.5872 105.822 84.9339 105.495 85.3343 105.28C85.7347 105.065 86.2034 104.958 86.7405 104.958C87.2288 104.958 87.6463 105.058 87.993 105.258C88.3396 105.454 88.6375 105.764 88.8865 106.188C89.2283 105.764 89.6019 105.454 90.0071 105.258C90.4124 105.058 90.8787 104.958 91.4061 104.958C91.9139 104.958 92.3558 105.051 92.7317 105.236C93.1077 105.417 93.3958 105.681 93.596 106.027C93.7083 106.228 93.7889 106.467 93.8377 106.745C93.8865 107.023 93.9109 107.463 93.9109 108.063V108.291V113H92.5926ZM100.459 111.953C100.049 112.382 99.6119 112.705 99.148 112.919C98.6891 113.134 98.2008 113.242 97.6832 113.242C96.8824 113.242 96.2574 113.034 95.8082 112.619C95.359 112.199 95.1344 111.621 95.1344 110.883C95.1344 110.17 95.3541 109.611 95.7936 109.206C96.2379 108.801 96.9117 108.54 97.815 108.422C98.0445 108.398 98.3546 108.364 98.7452 108.32C99.4142 108.251 99.8243 108.186 99.9757 108.122C100.127 108.063 100.227 107.988 100.276 107.895C100.325 107.797 100.349 107.59 100.349 107.272C100.349 106.872 100.203 106.572 99.9098 106.372C99.6168 106.171 99.1749 106.071 98.5841 106.071C97.9737 106.071 97.5123 106.193 97.1998 106.438C96.8922 106.682 96.7384 107.043 96.7384 107.521H95.4933V107.463C95.4933 106.672 95.7716 106.047 96.3282 105.588C96.8849 105.129 97.6515 104.899 98.628 104.899C99.6778 104.899 100.449 105.097 100.942 105.493C101.441 105.883 101.69 106.496 101.69 107.331V111.257C101.69 111.594 101.726 111.811 101.799 111.909C101.873 112.006 102.004 112.055 102.195 112.055C102.234 112.055 102.28 112.053 102.334 112.048C102.393 112.038 102.461 112.026 102.539 112.011V113.029C102.378 113.073 102.236 113.103 102.114 113.117C101.997 113.137 101.885 113.146 101.777 113.146C101.338 113.146 101.008 113.051 100.789 112.861C100.569 112.67 100.459 112.382 100.459 111.997V111.953ZM100.335 109.008C99.983 109.199 99.38 109.348 98.5255 109.455C98.2228 109.494 97.9957 109.526 97.8443 109.55C97.3658 109.628 97.0216 109.77 96.8116 109.975C96.6017 110.18 96.4967 110.478 96.4967 110.869C96.4967 111.259 96.6188 111.56 96.8629 111.77C97.107 111.979 97.4562 112.084 97.9103 112.084C98.6183 112.084 99.1993 111.906 99.6534 111.55C100.108 111.193 100.335 110.737 100.335 110.18V109.008ZM103.47 113V102.211H104.81V113H103.47Z" fill="black"/>
<circle cx="79.5" cy="80.5" r="79" stroke="#D7D7D7"/>
<path d="M79.7907 1C123.537 1 159 36.5934 159 80.5C159 124.407 123.537 160 79.7907 160C60.462 160 42.7502 153.051 29 141.507" stroke="black"/>
</svg>
