<svg width="124" height="124" viewBox="0 0 124 124" fill="none" xmlns="http://www.w3.org/2000/svg">
<circle cx="62" cy="62" r="61.75" stroke="black" stroke-width="0.5"/>
<path fill-rule="evenodd" clip-rule="evenodd" d="M46.7914 85.727C42.4218 79.6692 43.2163 69.7385 47.6851 62.1911C51.0616 56.5306 54.1401 50.5722 56.7221 44.5144C58.1844 41.0175 59.2803 37.3171 60.3748 33.6216C60.9897 31.5451 61.6042 29.4702 62.283 27.4338L62.283 27.4336C62.283 27.4336 62.2831 27.4337 62.2831 27.4337C62.2831 27.4337 62.2831 27.4336 62.2831 27.4336V27.4338C62.9348 29.4977 63.481 31.6011 64.0274 33.7057C64.9796 37.3732 65.9327 41.0441 67.447 44.5145C70.029 50.5722 73.1075 56.5306 76.484 62.1911C80.9528 69.7385 81.7473 79.6692 77.3777 85.727C73.4422 91.1983 68.115 93.144 62.3826 93.2679L62.3826 93.2743C62.2834 93.2743 62.1842 93.2738 62.0852 93.2727C61.9858 93.2738 61.8862 93.2743 61.7865 93.2743L61.7866 93.2679C56.0541 93.144 50.7269 91.1983 46.7914 85.727Z" fill="black"/>
<circle cx="115.77" cy="62.0003" r="2.74336" stroke="black"/>
<circle cx="9.32759" cy="62.0002" r="2.74336" stroke="black"/>
<path d="M109.333 80.9817L115.517 81.4083L116.05 80.0221L109.013 77.2496L108.693 78.1027L114.771 80.5552C114.664 80.5552 114.558 80.5552 114.451 80.4486C114.344 80.4486 114.238 80.4486 114.131 80.4486L107.946 80.0221L107.627 80.9817L112.318 85.0338C112.425 85.1404 112.532 85.1404 112.638 85.247C112.745 85.3537 112.852 85.3536 112.958 85.4603L106.88 83.0077L106.454 83.9674L113.598 86.8465L114.131 85.4603L109.439 81.4083C109.119 81.3016 109.119 81.195 109.013 81.195C108.906 81.0884 108.8 81.0884 108.693 80.9817C108.8 80.9817 108.8 80.9817 108.906 80.9817C109.013 80.9817 109.226 80.9817 109.333 80.9817Z" fill="black"/>
<path d="M107.946 88.7659C106.88 88.0195 105.92 87.8062 104.961 87.9129C104.001 88.0195 103.255 88.5527 102.615 89.5123C101.975 90.472 101.762 91.4317 101.975 92.2848C102.188 93.2444 102.828 93.9909 103.894 94.7373C104.961 95.4837 105.92 95.8036 106.88 95.5903C107.84 95.4837 108.586 94.9506 109.226 93.9909C109.866 93.0312 110.079 92.0715 109.866 91.2184C109.652 90.3654 109.013 89.5123 107.946 88.7659ZM108.48 93.5643C108.053 94.2041 107.413 94.6307 106.773 94.6307C106.134 94.6307 105.281 94.4174 104.534 93.8842C103.681 93.3511 103.255 92.7113 103.041 92.0715C102.828 91.4317 102.935 90.6853 103.361 90.0455C103.788 89.4057 104.428 88.9792 105.067 88.9792C105.814 88.8725 106.56 89.1924 107.307 89.7256C108.16 90.2588 108.586 90.8985 108.799 91.5383C109.013 92.1781 108.906 92.8179 108.48 93.5643Z" fill="black"/>
<path d="M97.9228 95.5905L102.295 100.069C102.188 100.069 102.081 99.9624 101.975 99.9624C101.868 99.9624 101.762 99.8558 101.655 99.8558L95.1504 98.363L94.2974 99.1094L99.629 104.548L100.375 103.801L96.0035 99.3226C96.1101 99.3226 96.2167 99.4293 96.3234 99.4293C96.43 99.4293 96.5366 99.5359 96.7499 99.5359L103.254 101.029L104.107 100.282L98.7759 94.8441L97.9228 95.5905Z" fill="black"/>
<path d="M93.9778 107.747L90.2456 102.202L89.3926 102.735L93.1247 108.387L91.0987 109.666L91.6318 110.519L96.5369 107.214L96.0038 106.361L93.9778 107.747Z" fill="black"/>
<path d="M84.0609 105.933L85.4472 109.132L81.8217 110.839L80.3288 107.533L79.3691 107.959L82.5681 114.997L83.5278 114.571L82.2482 111.692L85.8737 109.985L87.1533 112.864L88.113 112.545L84.914 105.507L84.0609 105.933Z" fill="black"/>
<path d="M71.3718 110.093L71.5851 111.052L75.3172 110.199L76.9167 116.704L77.983 116.384L76.1703 108.92L71.3718 110.093Z" fill="black"/>
<path d="M66.8933 110.626L65.827 110.732L66.0402 113.931L63.6943 118.623L64.9739 118.516L66.68 114.784L69.0259 118.196L70.3055 118.09L67.1065 113.718L66.8933 110.626Z" fill="black"/>
<path d="M53.9908 110.199L53.0311 109.986L51.7515 116.597L49.4056 116.17L49.1924 117.024L55.0571 118.09L55.1638 117.237L52.8179 116.81L53.9908 110.199Z" fill="black"/>
<path d="M42.4744 107.746L46.633 109.346L45.78 111.692L41.9412 110.305L41.6213 111.158L45.4601 112.545L44.7136 114.677L40.555 113.184L40.2351 114.038L45.3534 115.957L48.0192 108.813L42.7943 106.893L42.4744 107.746Z" fill="black"/>
<path d="M37.7829 104.014C37.0364 103.588 36.29 103.375 35.6502 103.481C35.0104 103.588 34.4773 104.014 34.0507 104.547C33.9441 104.761 33.8375 105.081 33.7309 105.294C33.7309 105.614 33.7309 105.827 33.8375 106.04C33.9441 106.36 34.3706 106.787 34.9038 107.427L35.0104 107.533C35.1171 107.64 35.2237 107.746 35.3303 107.853C36.29 108.706 36.6099 109.453 36.29 109.986C36.0768 110.306 35.8635 110.519 35.437 110.519C35.0104 110.519 34.6905 110.412 34.264 110.199C33.8375 109.879 33.5176 109.559 33.411 109.239C33.3043 108.813 33.3043 108.386 33.5176 107.96L32.6645 107.427C32.238 108.066 32.238 108.706 32.3446 109.346C32.5579 109.986 32.9844 110.519 33.7309 110.945C34.4773 111.372 35.1171 111.479 35.7569 111.372C36.3966 111.265 36.9298 110.945 37.2497 110.306C37.5696 109.772 37.5696 109.346 37.463 108.919C37.3563 108.493 36.8232 107.853 36.0768 107.213L35.9701 107.107C35.0104 106.147 34.6905 105.507 35.0104 104.974C35.2237 104.654 35.5436 104.441 35.9701 104.334C36.3966 104.334 36.8232 104.441 37.3563 104.761C37.8895 105.081 38.2094 105.401 38.316 105.934C38.4227 106.36 38.4226 106.893 38.1028 107.32L38.9558 107.853C39.3823 107.107 39.489 106.36 39.2757 105.72C39.1691 104.974 38.6359 104.441 37.7829 104.014Z" fill="black"/>
<path d="M30.5318 99.0027L26.2665 104.228L24.3471 102.628L23.814 103.375L28.2925 107.107L28.9323 106.467L27.0129 104.867L31.3848 99.7491L30.5318 99.0027Z" fill="black"/>
<path d="M26.0782 94.6363L20.416 99.821L21.1361 100.607L26.7982 95.4227L26.0782 94.6363Z" fill="black"/>
<path d="M23.1743 91.1118L18.056 94.6307C18.1626 94.524 18.1626 94.4174 18.2692 94.3108C18.2692 94.2041 18.3759 94.0975 18.3759 93.9909L21.0417 87.8062L20.4019 86.8465L14.1106 91.1118L14.6438 91.9649L19.7621 88.446C19.6554 88.5526 19.6554 88.6593 19.5488 88.7659C19.4422 88.8725 19.4422 88.9792 19.3356 89.0858L16.7764 95.1638L17.4162 96.1235L23.7075 91.8582L23.1743 91.1118Z" fill="black"/>
<path d="M17.6293 83.7539C18.0558 82.9009 18.0558 81.9412 17.6293 80.9815C17.4161 80.4484 17.0962 80.0218 16.7763 79.7019C16.4564 79.382 16.0298 79.1688 15.4967 79.0621L16.3497 78.4224L16.1365 77.7826L12.2977 79.382L13.5773 82.4744L14.4304 82.2611L13.4707 80.0218H13.5773C14.2171 79.7019 14.8569 79.7019 15.4967 79.9152C16.1365 80.1285 16.4564 80.555 16.7763 81.3014C17.0962 82.0478 17.0962 82.6876 16.7763 83.3274C16.4564 83.9672 15.8166 84.5004 14.9635 84.8203C14.0038 85.2468 13.2574 85.2468 12.6176 85.0335C11.9778 84.8203 11.4447 84.2871 11.1248 83.5407C10.9115 83.0075 10.8049 82.4744 10.9115 82.0478C11.0181 81.6213 11.338 81.1948 11.7646 80.9815L11.338 80.0218C10.6983 80.4484 10.1651 80.9815 10.0585 81.6213C9.8452 82.2611 9.95183 83.0075 10.2717 83.8606C10.6983 84.9269 11.4447 85.5667 12.2977 85.8866C13.1508 86.2065 14.2171 86.0998 15.3901 85.6733C16.4564 85.3534 17.2028 84.607 17.6293 83.7539Z" fill="black"/>
<path d="M16.2433 46.007L10.1653 43.5544C10.2719 43.5544 10.3785 43.5544 10.4852 43.6611C10.5918 43.6611 10.6984 43.6611 10.8051 43.6611L16.9897 44.0876L17.3096 43.1279L12.6178 39.0759C12.5112 38.9693 12.4045 38.9693 12.2979 38.8626C12.1913 38.756 12.0846 38.756 11.978 38.6494L18.056 41.1019L18.4825 40.1422L11.3382 37.2632L10.9117 38.756L15.6035 42.808C15.7101 42.9146 15.7101 42.9146 15.8167 43.0213C15.9234 43.1279 16.03 43.1279 16.1366 43.2345C16.03 43.2345 16.03 43.2345 15.9234 43.2345C15.8167 43.2345 15.7101 43.2345 15.4969 43.2345L9.31221 42.808L8.77905 43.981L15.9234 46.86L16.2433 46.007Z" fill="black"/>
<path d="M16.8829 35.3435C17.9492 36.09 18.9089 36.3032 19.8686 36.1966C20.8283 36.09 21.5747 35.5568 22.2145 34.5971C22.8543 33.6374 23.0675 32.6777 22.8543 31.8247C22.641 30.865 22.0012 30.1186 20.9349 29.3722C19.8686 28.6257 18.9089 28.3058 17.9492 28.5191C17.0962 28.6257 16.2431 29.1589 15.6033 30.012C14.9635 30.9716 14.7503 31.9313 14.9635 32.7844C15.1768 33.6374 15.8166 34.5971 16.8829 35.3435ZM16.3497 30.5451C16.7763 29.9053 17.416 29.4788 18.0558 29.4788C18.8023 29.3722 19.5487 29.6921 20.2951 30.2252C21.1482 30.7584 21.5747 31.3982 21.788 32.038C22.0012 32.6777 21.8946 33.4242 21.4681 34.064C21.0415 34.7037 20.4017 35.1303 19.7619 35.1303C19.0155 35.2369 18.2691 34.917 17.5227 34.3839C16.6696 33.8507 16.2431 33.2109 16.0298 32.5711C15.8166 31.9313 15.9232 31.2915 16.3497 30.5451Z" fill="black"/>
<path d="M26.9061 28.5191L22.5342 24.0405C22.6409 24.0405 22.7475 24.1472 22.8541 24.1472C22.9608 24.1472 23.0674 24.2538 23.174 24.2538L29.7852 25.7467L30.6382 25.0002L25.3067 19.562L24.5602 20.3084L28.9321 24.787C28.8255 24.787 28.7189 24.6803 28.6122 24.6803C28.5056 24.6803 28.399 24.5737 28.1857 24.5737L21.6812 23.0809L20.8281 23.8273L26.1597 29.2655L26.9061 28.5191Z" fill="black"/>
<path d="M30.8514 16.3629L34.6901 21.9077L35.5432 21.3746L31.7045 15.7231L33.7305 14.3369L33.1973 13.5905L28.2922 16.896L28.8254 17.6425L30.8514 16.3629Z" fill="black"/>
<path d="M39.3822 14.8704L43.0076 13.2709L44.5005 16.5765L45.4602 16.1499L42.3679 9.11224L41.4082 9.53877L42.6877 12.4178L39.0623 14.1239L37.7827 11.2449L36.823 11.5648L39.9153 18.6025L40.875 18.1759L39.3822 14.8704Z" fill="black"/>
<path d="M53.2446 13.0573L49.5125 13.9104L47.913 7.40585L46.8467 7.72575L48.7661 15.19L53.4579 14.017L53.2446 13.0573Z" fill="black"/>
<path d="M59.9619 5.59305L58.2558 9.32516L55.9099 5.91295L54.5237 6.01958L57.7226 10.3915L58.0425 13.4838L59.1088 13.3772L58.789 10.1782L61.1348 5.48642L59.9619 5.59305Z" fill="black"/>
<path d="M71.905 14.1234L73.078 7.51222L75.5305 7.93875L75.6372 7.0857L69.879 6.01938L69.6658 6.87243L72.1183 7.29896L70.8387 13.9101L71.905 14.1234Z" fill="black"/>
<path d="M82.4613 16.3632L78.1961 14.7637L79.0491 12.4178L82.8879 13.804L83.2078 12.951L79.369 11.5647L80.2221 9.43211L84.3807 10.925L84.7006 10.0719L79.5823 8.15253L76.9165 15.2969L82.1415 17.2162L82.4613 16.3632Z" fill="black"/>
<path d="M90.7786 19.5623C90.8853 19.3491 90.9919 19.0292 91.0985 18.8159C91.0985 18.496 91.0985 18.2827 90.9919 18.0695C90.8853 17.7496 90.4587 17.3231 89.9256 16.6833L89.8189 16.5766C89.7123 16.47 89.6057 16.3634 89.499 16.2567C88.5394 15.4037 88.2195 14.6573 88.5394 14.1241C88.7526 13.8042 88.9659 13.5909 89.3924 13.5909C89.8189 13.5909 90.1388 13.6976 90.5654 13.9108C90.9919 14.2307 91.3118 14.5506 91.4184 14.8705C91.5251 15.2971 91.5251 15.7236 91.3118 16.1501L92.1648 16.6833C92.5914 16.0435 92.5914 15.4037 92.4847 14.7639C92.3781 14.1241 91.8449 13.5909 91.0985 13.1644C90.3521 12.7379 89.7123 12.6313 89.0725 12.7379C88.4327 12.8445 87.8996 13.1644 87.5797 13.8042C87.2598 14.3374 87.2598 14.7639 87.3664 15.1904C87.473 15.6169 88.0062 16.2567 88.7526 16.8965L88.8592 17.0032C89.8189 17.9628 90.1388 18.6026 89.8189 19.1358C89.6057 19.4557 89.2858 19.669 88.8592 19.7756C88.4327 19.7756 88.0062 19.669 87.473 19.3491C86.9399 19.0292 86.62 18.7093 86.5133 18.1761C86.4067 17.643 86.4067 17.2164 86.7266 16.7899L85.8736 16.2567C85.447 17.0032 85.3404 17.7496 85.5537 18.3894C85.7669 19.0292 86.3001 19.669 87.0465 20.0955C87.7929 20.522 88.5394 20.7353 89.1791 20.6286C89.8189 20.522 90.4587 20.2021 90.7786 19.5623Z" fill="black"/>
<path d="M94.2979 25.1068L98.6698 19.8818L100.483 21.4813L101.122 20.7349L96.5371 17.0028L96.004 17.6426L97.8167 19.242L93.4448 24.3604L94.2979 25.1068Z" fill="black"/>
<path d="M103.706 23.5278L98.0435 28.7132L98.7636 29.4996L104.426 24.3142L103.706 23.5278Z" fill="black"/>
<path d="M101.655 32.9974L106.774 29.4785C106.667 29.5852 106.667 29.6918 106.56 29.7984C106.56 29.9051 106.454 30.0117 106.454 30.1183L103.788 36.303L104.428 37.2626L110.719 32.9974L110.186 32.1443L105.067 35.6632C105.174 35.5565 105.174 35.4499 105.281 35.3433C105.387 35.2366 105.387 35.13 105.494 35.0234L108.053 28.9454L107.413 27.9857L101.122 32.251L101.655 32.9974Z" fill="black"/>
<path d="M107.2 40.3556C106.774 41.2086 106.774 42.1683 107.2 43.128C107.414 43.6611 107.733 44.0877 108.053 44.4076C108.373 44.7275 108.8 44.9407 109.333 45.0474L108.48 45.6872L108.693 46.3269L112.532 44.7275L111.252 41.6351L110.506 41.955L111.466 44.1943H111.359C110.719 44.5142 110.079 44.5142 109.44 44.3009C108.906 44.0877 108.48 43.6611 108.16 42.9147C107.84 42.1683 107.84 41.5285 108.16 40.8887C108.48 40.2489 109.12 39.7158 109.973 39.3959C110.932 38.9693 111.679 38.9693 112.319 39.1826C112.958 39.3959 113.492 39.929 113.811 40.6755C114.025 41.2086 114.131 41.7418 114.025 42.1683C113.918 42.5948 113.598 43.0214 113.172 43.2346L113.598 44.1943C114.238 43.7678 114.771 43.2346 114.878 42.5948C115.091 41.955 114.984 41.2086 114.664 40.3556C114.238 39.2892 113.492 38.6495 112.638 38.3296C111.679 38.0097 110.719 38.1163 109.546 38.5428C108.48 38.7561 107.627 39.5025 107.2 40.3556Z" fill="black"/>
</svg>
