<svg width="124" height="124" viewBox="0 0 124 124" fill="none" xmlns="http://www.w3.org/2000/svg">
<circle cx="62" cy="62" r="61.75" fill="black" stroke="black" stroke-width="0.5"/>
<path fill-rule="evenodd" clip-rule="evenodd" d="M46.7914 85.727C42.4218 79.6692 43.2163 69.7385 47.6851 62.1911C51.0616 56.5306 54.1401 50.5722 56.7221 44.5144C58.1844 41.0175 59.2803 37.3171 60.3748 33.6216C60.9897 31.5451 61.6042 29.4702 62.283 27.4338L62.283 27.4336C62.283 27.4336 62.2831 27.4337 62.2831 27.4337C62.2831 27.4337 62.2831 27.4336 62.2831 27.4336V27.4338C62.9348 29.4977 63.481 31.6011 64.0274 33.7057C64.9796 37.3732 65.9327 41.0441 67.447 44.5145C70.029 50.5722 73.1075 56.5306 76.484 62.1911C80.9528 69.7385 81.7473 79.6692 77.3777 85.727C73.4422 91.1983 68.115 93.144 62.3826 93.2679L62.3826 93.2743C62.2834 93.2743 62.1842 93.2738 62.0852 93.2727C61.9858 93.2738 61.8862 93.2743 61.7865 93.2743L61.7866 93.2679C56.0541 93.144 50.7269 91.1983 46.7914 85.727Z" fill="white"/>
<circle cx="115.77" cy="62.0002" r="2.74336" stroke="white"/>
<circle cx="9.32747" cy="62.0002" r="2.74336" stroke="white"/>
<path d="M107.169 76.5655C107.065 76.2535 107.065 75.9416 107.065 75.6296C107.065 75.3177 107.169 75.0057 107.169 74.5898C107.481 73.5499 108.001 72.7181 108.832 72.3021C109.664 71.8862 110.704 71.7822 111.848 72.1981C112.992 72.5101 113.928 73.03 114.448 73.8619C114.968 74.6938 115.072 75.6296 114.76 76.6695C114.448 77.7093 113.928 78.4372 113.096 78.8531C112.264 79.2691 111.224 79.3731 110.08 78.9571C109.456 78.7492 109.04 78.5412 108.521 78.3332C108.105 78.0213 107.689 77.7093 107.481 77.2934L106.545 77.9173L106.025 77.2934L107.169 76.5655ZM108.001 75.9416L108.832 75.3177L109.352 75.9416L108.313 76.6695C108.521 76.9814 108.728 77.1894 109.144 77.3974C109.56 77.6053 109.872 77.8133 110.392 77.9173C111.328 78.1252 112.056 78.1252 112.784 77.9173C113.408 77.6053 113.824 77.0854 114.032 76.3575C114.24 75.6296 114.136 74.9017 113.72 74.3818C113.304 73.8619 112.68 73.4459 111.744 73.134C110.808 72.926 110.08 72.926 109.352 73.238C108.625 73.5499 108.313 74.0699 108.105 74.7977C108.001 75.0057 108.001 75.2137 108.001 75.4217C108.001 75.6296 108.001 75.7336 108.001 75.9416Z" fill="white"/>
<path d="M108.001 81.8687L112.16 83.9484L111.744 84.8843L107.585 82.8046C106.961 82.4926 106.441 82.3886 106.025 82.4926C105.609 82.5966 105.193 83.0126 104.985 83.5325C104.673 84.1564 104.673 84.5723 104.777 85.0922C104.985 85.5082 105.297 85.9241 105.921 86.2361L110.08 88.3158L109.56 89.1476L105.401 87.0679C104.465 86.652 103.945 86.0281 103.737 85.4042C103.529 84.6763 103.633 83.9484 104.049 83.0126C104.465 82.1807 104.985 81.6608 105.713 81.4528C106.337 81.3488 107.065 81.4528 108.001 81.8687Z" fill="white"/>
<path d="M101.762 87.7959L106.129 94.4509L105.401 95.3868L97.7062 93.2031L98.4341 92.2672L100.722 92.9951L102.489 90.6035L101.138 88.6278L101.762 87.7959ZM102.905 91.4354L101.554 93.3071L104.881 94.3469L102.905 91.4354Z" fill="white"/>
<path d="M101.242 100.378L99.1619 102.354C98.85 102.666 98.538 102.874 98.33 102.978C98.1221 103.082 97.9141 103.185 97.7061 103.289C97.3942 103.393 96.9782 103.393 96.6663 103.289C96.3543 103.185 96.0424 102.978 95.7304 102.666C95.4185 102.354 95.3145 102.042 95.2105 101.73C95.1065 101.418 95.2105 101.106 95.3145 100.69C95.0025 100.794 94.7946 100.898 94.5866 100.794C94.3786 100.69 94.0667 100.586 93.7547 100.274L92.8189 99.4421C92.6109 99.2341 92.5069 99.1301 92.2989 99.1301C92.195 99.0261 92.091 99.0261 91.987 99.1301L91.883 99.0261L92.7149 98.1942C92.9228 98.1942 93.1308 98.4022 93.5468 98.8182L94.2746 99.4421C94.6906 99.754 94.8986 99.962 95.2105 99.962C95.4185 99.962 95.8344 99.65 96.3543 99.2341L97.4982 98.0903L95.3145 95.8026L96.0424 95.0747L101.242 100.378ZM99.9938 100.378L98.2261 98.5062L96.9782 99.65C96.5623 100.066 96.2503 100.482 96.2503 100.794C96.2503 101.106 96.3543 101.418 96.6663 101.834C96.9782 102.146 97.2902 102.25 97.6021 102.25C97.9141 102.25 98.33 101.938 98.746 101.522L99.9938 100.378Z" fill="white"/>
<path d="M88.4516 101.418L92.091 106.825L94.0667 105.473L94.5866 106.201L89.8034 109.425L89.2834 108.697L91.2591 107.345L87.6197 101.938L88.4516 101.418Z" fill="white"/>
<path d="M83.4603 104.537L86.5798 111.296L81.6926 113.48L81.2766 112.648L85.228 110.88L84.2922 108.801L80.6527 110.464L80.3408 109.633L83.9802 107.969L82.9404 105.681L78.885 107.553L78.4691 106.721L83.4603 104.537Z" fill="white"/>
<path d="M77.7411 114.832L74.9336 115.56C74.5176 115.664 74.1017 115.768 73.8937 115.768C73.6857 115.768 73.4778 115.768 73.2698 115.768C72.9578 115.664 72.6459 115.456 72.4379 115.248C72.23 115.04 72.022 114.624 71.918 114.208C71.814 113.792 71.814 113.48 71.918 113.168C72.022 112.856 72.23 112.544 72.5419 112.336C72.23 112.336 72.022 112.232 71.814 112.128C71.6061 112.024 71.5021 111.712 71.3981 111.192L70.9821 110.048C70.8782 109.84 70.7742 109.632 70.7742 109.528C70.6702 109.424 70.5662 109.32 70.4622 109.32V109.113L71.6061 108.801C71.71 108.905 71.918 109.217 72.022 109.736L72.3339 110.672C72.5419 111.192 72.6459 111.4 72.8539 111.504C73.0618 111.608 73.4778 111.608 74.2057 111.4L75.7654 110.984L74.9336 107.865L75.8694 107.657L77.7411 114.832ZM76.5973 114.312L75.9734 111.816L74.3096 112.232C73.6857 112.336 73.2698 112.544 73.0618 112.856C72.8539 113.168 72.8539 113.48 72.9578 113.896C73.0618 114.312 73.2698 114.624 73.5818 114.728C73.8937 114.832 74.3096 114.832 74.9336 114.624L76.5973 114.312Z" fill="white"/>
<path d="M67.6546 109.425L68.2785 116.911L67.2387 117.015L66.7188 110.464L62.9753 110.776L62.8713 109.84L67.6546 109.425Z" fill="white"/>
<path d="M57.5682 109.633L58.608 109.737L58.4 112.752L60.8957 117.431L59.6479 117.327L57.8801 113.688L55.6964 117.119L54.5526 117.015L57.4642 112.752L57.5682 109.633Z" fill="white"/>
<path d="M46.6498 107.449L44.5701 113.688L46.8578 114.416L46.5458 115.248L41.1386 113.376L41.4506 112.544L43.6342 113.272L45.7139 107.033L46.6498 107.449Z" fill="white"/>
<path d="M41.2426 105.369L37.7071 111.92L33.0278 109.425L33.4438 108.593L37.2912 110.672L38.331 108.697L34.7956 106.825L35.2115 106.097L38.747 107.969L39.8908 105.785L36.0434 103.705L36.4593 102.874L41.2426 105.369Z" fill="white"/>
<path d="M32.9239 103.393L32.196 102.77C32.5079 102.354 32.6119 101.938 32.6119 101.418C32.5079 100.898 32.2999 100.482 31.78 100.17C31.3641 99.858 30.8442 99.65 30.4282 99.65C30.0123 99.65 29.7003 99.754 29.3884 100.17C29.0764 100.586 29.2844 101.314 30.0123 102.354C30.0123 102.458 30.1163 102.458 30.1163 102.458C30.7402 103.289 31.1561 103.913 31.1561 104.329C31.2601 104.745 31.0521 105.161 30.7402 105.577C30.3242 106.097 29.8043 106.409 29.1804 106.409C28.5565 106.409 27.9326 106.201 27.3087 105.681C26.6848 105.161 26.2688 104.641 26.1649 104.017C26.0609 103.393 26.2688 102.77 26.6848 102.146L27.4127 102.77C27.1007 103.185 26.9967 103.601 27.1007 104.017C27.2047 104.433 27.4127 104.745 27.8286 105.057C28.2446 105.369 28.5565 105.473 28.9724 105.577C29.3884 105.681 29.5964 105.473 29.9083 105.161C30.2203 104.745 30.0123 104.017 29.2844 102.977C29.1804 102.874 29.0764 102.666 28.9724 102.666C28.9724 102.666 28.9724 102.666 28.8685 102.562C28.3485 101.938 28.0366 101.418 28.0366 101.106C28.0366 100.898 28.0366 100.586 28.0366 100.378C28.0366 100.17 28.2446 99.858 28.4525 99.65C28.8685 99.1301 29.4924 98.8181 30.1163 98.8181C30.7402 98.8181 31.4681 99.0261 32.196 99.65C32.9239 100.17 33.3398 100.794 33.4438 101.522C33.5478 101.938 33.4438 102.666 32.9239 103.393Z" fill="white"/>
<path d="M26.6848 94.6588L21.7975 99.1301L23.3573 100.898L22.7333 101.522L18.8859 97.2584L19.5098 96.6345L21.0696 98.4022L25.9569 93.9309L26.6848 94.6588Z" fill="white"/>
<path d="M22.9414 90.0836L16.8063 94.3469L16.1824 93.5151L22.3175 89.1477L22.9414 90.0836Z" fill="white"/>
<path d="M20.5497 86.5481L13.8947 89.9796L13.3748 88.9397L16.5983 83.3246C16.7023 83.2206 16.7023 83.1166 16.8063 83.0126C16.9102 82.9086 16.9102 82.8047 17.0142 82.8047L11.607 85.6122L11.1911 84.7804L17.8461 81.3489L18.366 82.2847L15.1425 88.0039C15.1425 88.1079 15.0385 88.2119 14.9345 88.2119C14.8306 88.2119 14.8306 88.4198 14.7266 88.4198L20.1338 85.6122L20.5497 86.5481Z" fill="white"/>
<path d="M14.1027 73.3421C14.6226 73.55 14.9345 73.758 15.2465 74.1739C15.5584 74.4859 15.7664 74.9018 15.9744 75.4217C16.2863 76.3576 16.1823 77.2935 15.6624 78.1253C15.1425 78.8532 14.3106 79.4771 13.1668 79.7891C12.023 80.101 10.9831 80.101 10.1513 79.6851C9.31938 79.2692 8.69547 78.5413 8.38352 77.3974C8.17555 76.5656 8.17555 75.8377 8.38352 75.2138C8.59148 74.5899 9.11141 74.0699 9.8393 73.758L10.1513 74.6939C9.73531 74.9018 9.42336 75.2138 9.21539 75.6297C9.00742 76.0457 9.00742 76.5656 9.21539 77.0855C9.42336 77.9174 9.8393 78.4373 10.4632 78.6453C11.0871 78.9572 11.919 78.9572 12.7509 78.6453C13.6867 78.3333 14.3106 77.9174 14.7266 77.3974C15.1425 76.8775 15.2465 76.1496 15.0385 75.4217C14.8306 74.6939 14.5186 74.2779 13.9987 73.966C13.4788 73.654 12.8548 73.654 12.127 73.862H12.023L12.6469 76.1496L11.815 76.3576L10.8791 73.2381L14.7266 72.0942L14.9345 72.7181L14.1027 73.3421Z" fill="white"/>
<path d="M15.7663 47.7619C15.8703 48.0738 15.8703 48.3858 15.8703 48.6978C15.8703 49.0097 15.7663 49.3217 15.7663 49.7376C15.4544 50.7774 14.9345 51.6093 14.1026 52.0253C13.2707 52.4412 12.2309 52.5452 11.087 52.1292C9.94321 51.8173 9.00735 51.2974 8.48743 50.4655C7.9675 49.6336 7.86352 48.6978 8.17547 47.6579C8.48743 46.6181 9.00735 45.8902 9.83922 45.4742C10.6711 45.0583 11.7109 44.9543 12.8548 45.3703C13.4787 45.5782 13.8946 45.7862 14.4145 45.9942C14.8305 46.3061 15.2464 46.6181 15.4544 47.034L16.3902 46.4101L16.9102 47.034L15.7663 47.7619ZM14.9345 48.3858L14.1026 49.0097L13.5827 48.3858L14.6225 47.6579C14.4145 47.346 14.2066 47.138 13.7906 46.93C13.3747 46.7221 13.0627 46.5141 12.5428 46.4101C11.607 46.2021 10.8791 46.2021 10.1512 46.4101C9.42329 46.6181 9.11133 47.242 8.90336 47.9699C8.6954 48.6978 8.79938 49.4256 9.21532 49.9456C9.63126 50.4655 10.2552 50.8814 11.191 51.1934C12.1269 51.4014 12.8548 51.4014 13.5827 51.0894C14.3106 50.7774 14.6225 50.2575 14.8305 49.5296C14.9345 49.3217 14.9345 49.1137 14.9345 48.9057C14.9345 48.8017 14.9345 48.5938 14.9345 48.3858Z" fill="white"/>
<path d="M14.9345 42.4586L10.7751 40.3789L11.191 39.443L15.3504 41.5227C15.9743 41.8347 16.4942 41.9387 16.9102 41.8347C17.3261 41.7307 17.742 41.3148 17.95 40.7948C18.262 40.1709 18.262 39.755 18.158 39.2351C17.95 38.8191 17.6381 38.4032 17.0142 38.0912L12.8548 36.0115L13.2707 35.0757L17.4301 37.1554C18.366 37.5713 18.8859 38.1952 19.0938 38.8191C19.3018 39.547 19.1978 40.2749 18.7819 41.2108C18.3659 42.0426 17.846 42.5626 17.1181 42.7705C16.5982 43.0825 15.8703 42.8745 14.9345 42.4586Z" fill="white"/>
<path d="M21.2775 36.5315L16.9102 29.8765L17.5341 28.9407L25.2289 31.1243L24.605 32.0602L22.3173 31.3323L20.5496 33.724L21.9014 35.6997L21.2775 36.5315ZM20.0297 32.8921L21.3815 31.0204L18.054 29.9805L20.0297 32.8921Z" fill="white"/>
<path d="M21.6935 24.0535L23.7732 22.0778C24.0851 21.7659 24.3971 21.5579 24.605 21.4539C24.813 21.3499 25.021 21.2459 25.229 21.142C25.5409 21.038 25.9568 21.038 26.2688 21.142C26.5808 21.2459 26.8927 21.4539 27.2047 21.7659C27.5166 22.0778 27.6206 22.3898 27.7246 22.7017C27.8286 23.0137 27.7246 23.3256 27.6206 23.7416C27.9325 23.6376 28.1405 23.5336 28.3485 23.6376C28.5565 23.7416 28.8684 23.8455 29.1804 24.1575L30.1162 24.9894C30.3242 25.1973 30.4282 25.3013 30.6361 25.3013C30.7401 25.4053 30.8441 25.4053 30.9481 25.3013L31.0521 25.4053L30.2202 26.2372C30.0122 26.2372 29.8043 26.0292 29.3883 25.6133L28.6604 24.9894C28.2445 24.6774 28.0365 24.4695 27.7246 24.4695C27.5166 24.4695 27.1007 24.7814 26.5808 25.1973L25.4369 26.3412L27.6206 28.6288L26.8927 29.3567L21.6935 24.0535ZM23.0453 23.9495L24.813 25.8213L26.0608 24.6774C26.4768 24.2615 26.7887 23.8455 26.7887 23.5336C26.7887 23.2216 26.6847 22.9097 26.3728 22.4938C26.0608 22.1818 25.7489 22.0778 25.4369 22.0778C25.125 22.0778 24.709 22.3898 24.2931 22.8057L23.0453 23.9495Z" fill="white"/>
<path d="M34.5875 22.9096L30.8441 17.5024L28.8684 18.8542L28.3484 18.1264L33.1317 14.9028L33.6517 15.6307L31.676 16.9825L35.3154 22.3897L34.5875 22.9096Z" fill="white"/>
<path d="M39.4748 19.8941L36.3553 13.1351L41.2426 10.8474L41.6585 11.6793L37.7071 13.447L38.6429 15.5267L42.2824 13.863L42.5944 14.6948L38.9549 16.3586L39.9947 18.6462L44.0501 16.7745L44.4661 17.6064L39.4748 19.8941Z" fill="white"/>
<path d="M45.194 9.49567L48.0015 8.76778C48.4175 8.6638 48.8334 8.55981 49.0414 8.55981C49.2494 8.55981 49.4573 8.55981 49.6653 8.55981C50.0812 8.6638 50.2892 8.87177 50.6012 9.07974C50.8091 9.28771 51.0171 9.70364 51.1211 10.1196C51.2251 10.5355 51.2251 10.8475 51.1211 11.1594C51.0171 11.4714 50.8091 11.7833 50.4972 11.9913C50.8091 11.9913 51.0171 12.0953 51.2251 12.1993C51.433 12.3033 51.537 12.6152 51.641 13.1351L52.0569 14.279C52.1609 14.4869 52.2649 14.6949 52.2649 14.7989C52.3689 14.9029 52.4729 15.0069 52.5769 15.0069L52.6808 15.3188L51.537 15.6308C51.433 15.5268 51.2251 15.2148 51.1211 14.6949L50.8091 13.759C50.6012 13.2391 50.3932 12.9272 50.1852 12.8232C49.9773 12.7192 49.5613 12.7192 48.8334 12.9272L47.2737 13.3431L48.1055 16.4626L47.1697 16.6706L45.194 9.49567ZM46.4418 10.0156L47.0657 12.5112L48.7294 12.0953C49.3533 11.9913 49.7693 11.7833 49.9773 11.4714C50.1852 11.1594 50.1852 10.8475 50.0812 10.4315C49.9773 10.0156 49.7693 9.70364 49.4573 9.59966C49.1454 9.49567 48.7294 9.49567 48.1055 9.70364L46.4418 10.0156Z" fill="white"/>
<path d="M55.3844 14.9029L54.7605 7.416L55.8003 7.31201L56.3203 13.863L59.9597 13.5511L60.0637 14.4869L55.3844 14.9029Z" fill="white"/>
<path d="M65.367 14.6948L64.3271 14.5909L64.5351 11.5753L62.1434 7L63.3912 7.10398L65.159 10.7434L67.3427 7.31195L68.4865 7.41594L65.5749 11.6793L65.367 14.6948Z" fill="white"/>
<path d="M76.2853 16.8784L78.365 10.6394L76.0773 9.91147L76.4933 9.07959L81.9005 10.9513L81.5885 11.7832L79.3009 11.0553L77.2212 17.2944L76.2853 16.8784Z" fill="white"/>
<path d="M81.7964 19.0623L85.3319 12.5112L90.0112 15.0069L89.5953 15.8387L85.7479 13.759L84.708 15.7347L88.2435 17.6065L87.8276 18.3344L84.2921 16.4626L83.1482 18.6463L86.9957 20.726L86.4757 21.5579L81.7964 19.0623Z" fill="white"/>
<path d="M90.1152 20.934L90.8431 21.5579C90.5312 21.9739 90.4272 22.3898 90.4272 22.9097C90.5312 23.4296 90.7391 23.8456 91.259 24.1575C91.675 24.4695 92.1949 24.6774 92.6108 24.6774C93.0268 24.6774 93.3387 24.5735 93.6507 24.1575C93.9626 23.7416 93.7547 23.0137 93.0268 21.9739C93.0268 21.8699 92.9228 21.8699 92.9228 21.8699C92.2989 21.038 91.883 20.4141 91.883 19.9981C91.883 19.5822 91.9869 19.1663 92.2989 18.7503C92.7148 18.2304 93.2348 17.9185 93.8587 17.9185C94.4826 17.9185 95.1065 18.1264 95.7304 18.6463C96.3543 19.1663 96.7702 19.6862 96.8742 20.3101C96.9782 20.934 96.7702 21.5579 96.3543 22.1818L95.4184 21.5579C95.7304 21.142 95.8344 20.726 95.7304 20.3101C95.6264 19.8942 95.4184 19.5822 95.0025 19.2703C94.5865 18.9583 94.2746 18.8543 93.8587 18.7503C93.4427 18.7503 93.2348 18.8543 92.9228 19.1663C92.6108 19.5822 92.8188 20.3101 93.5467 21.3499C93.6507 21.4539 93.7547 21.5579 93.8587 21.6619C93.8587 21.6619 93.8587 21.6619 93.9626 21.7659C94.4826 22.3898 94.7945 22.9097 94.7945 23.2217C94.7945 23.4296 94.7945 23.7416 94.7945 23.9496C94.6905 24.1575 94.5866 24.4695 94.3786 24.6774C93.9626 25.1974 93.3387 25.5093 92.7148 25.5093C92.0909 25.5093 91.363 25.3014 90.6351 24.6774C89.9072 24.1575 89.4913 23.5336 89.3873 22.8057C89.3873 22.3898 89.5953 21.6619 90.1152 20.934Z" fill="white"/>
<path d="M96.2503 29.6687L101.138 25.1973L99.4738 23.5336L100.098 22.9097L103.945 27.173L103.321 27.7969L101.761 26.0292L96.8742 30.5005L96.2503 29.6687Z" fill="white"/>
<path d="M100.098 34.2438L106.233 29.8765L106.857 30.7083L100.618 35.0757L100.098 34.2438Z" fill="white"/>
<path d="M102.489 37.7794L109.144 34.3479L109.664 35.3877L106.441 41.0029C106.337 41.1069 106.337 41.2109 106.233 41.3149C106.129 41.4188 106.129 41.5228 106.025 41.5228L111.432 38.7152L111.848 39.5471L105.193 42.9786L104.673 42.0427L107.897 36.3236C107.897 36.2196 108.001 36.1156 108.105 36.1156C108.209 36.0117 108.209 35.9077 108.313 35.9077L102.905 38.7152L102.489 37.7794Z" fill="white"/>
<path d="M108.832 50.9853C108.312 50.7774 108.001 50.5694 107.689 50.1534C107.377 49.7375 107.169 49.4256 106.961 48.9056C106.649 47.9698 106.753 47.0339 107.273 46.202C107.793 45.3702 108.624 44.8502 109.768 44.5383C110.912 44.2263 111.952 44.2263 112.784 44.6423C113.616 45.0582 114.24 45.7861 114.552 46.9299C114.76 47.7618 114.76 48.4897 114.552 49.1136C114.24 49.7375 113.824 50.2574 113.096 50.5694L112.784 49.6335C113.2 49.4256 113.512 49.1136 113.72 48.6977C113.928 48.2817 113.928 47.7618 113.72 47.2419C113.512 46.41 113.096 45.8901 112.472 45.6821C111.848 45.3702 111.016 45.3702 110.184 45.6821C109.248 45.9941 108.624 46.41 108.209 46.9299C107.793 47.5538 107.689 48.1777 107.897 48.9056C108.105 49.6335 108.416 50.0495 108.936 50.3614C109.456 50.6734 110.08 50.6734 110.808 50.4654H110.912L110.288 48.1777L111.12 47.9698L112.056 51.0893L108.209 52.2331L108.001 51.6092L108.832 50.9853Z" fill="white"/>
</svg>
