<svg width="40" height="40" viewBox="0 0 40 40" fill="none" xmlns="http://www.w3.org/2000/svg">
<path d="M14.9609 22.6211H16.9531V22.9141C16.9531 24.1562 17.1797 25.082 17.6328 25.6914C18.0859 26.3008 18.7773 26.6055 19.707 26.6055C20.6992 26.6055 21.4453 26.2969 21.9453 25.6797C22.4531 25.0547 22.707 24.1406 22.707 22.9375C22.707 21.7344 22.418 20.8477 21.8398 20.2773C21.2617 19.6992 20.3594 19.4102 19.1328 19.4102C18.9609 19.4102 18.832 19.4141 18.7461 19.4219C18.6602 19.4219 18.582 19.4219 18.5117 19.4219V17.7812H18.9219C20.0625 17.7812 20.8945 17.5273 21.418 17.0195C21.9414 16.5039 22.2031 15.6914 22.2031 14.582C22.2031 13.6367 21.9766 12.9023 21.5234 12.3789C21.0703 11.8477 20.4336 11.582 19.6133 11.582C18.8086 11.582 18.2031 11.8633 17.7969 12.4258C17.3906 12.9805 17.1875 13.8125 17.1875 14.9219V15.2031H15.2773V14.9453C15.2773 13.3594 15.668 12.1172 16.4492 11.2188C17.2305 10.3125 18.3008 9.85938 19.6602 9.85938C21.0586 9.85938 22.1641 10.2656 22.9766 11.0781C23.7891 11.8828 24.1953 12.9805 24.1953 14.3711C24.1953 15.4648 23.9648 16.3789 23.5039 17.1133C23.0508 17.8398 22.4336 18.2773 21.6523 18.4258C22.707 18.6133 23.4922 19.0703 24.0078 19.7969C24.5234 20.5234 24.7812 21.5391 24.7812 22.8438C24.7812 24.5938 24.3359 25.9531 23.4453 26.9219C22.5625 27.8828 21.3164 28.3633 19.707 28.3633C18.1602 28.3633 16.9805 27.8906 16.168 26.9453C15.3633 25.9922 14.9609 24.6094 14.9609 22.7969V22.6211Z" fill="white"/>
<rect x="0.5" y="0.5" width="39" height="39" stroke="white"/>
</svg>
