<svg width="611" height="403" viewBox="0 0 611 403" fill="none" xmlns="http://www.w3.org/2000/svg">
<line x1="417.5" y1="114" x2="417.5" y2="303" stroke="#C4C4C4"/>
<circle cx="417" cy="311" r="6.165" stroke="#F67171" stroke-width="3.67"/>
<path d="M403.327 70.5918H399.214V82H397.535V70.5918H393.431V69.2031H403.327V70.5918ZM402.761 77.1572C402.761 76.2256 402.943 75.3877 403.306 74.6436C403.675 73.8994 404.185 73.3252 404.835 72.9209C405.492 72.5166 406.239 72.3145 407.077 72.3145C408.371 72.3145 409.417 72.7627 410.214 73.6592C411.017 74.5557 411.418 75.748 411.418 77.2363V77.3506C411.418 78.2764 411.24 79.1084 410.882 79.8467C410.531 80.5791 410.024 81.1504 409.362 81.5605C408.705 81.9707 407.95 82.1758 407.094 82.1758C405.805 82.1758 404.759 81.7275 403.956 80.8311C403.16 79.9346 402.761 78.748 402.761 77.2715V77.1572ZM404.396 77.3506C404.396 78.4053 404.639 79.252 405.125 79.8906C405.618 80.5293 406.274 80.8486 407.094 80.8486C407.92 80.8486 408.577 80.5264 409.063 79.8818C409.549 79.2314 409.792 78.3232 409.792 77.1572C409.792 76.1143 409.543 75.2705 409.045 74.626C408.553 73.9756 407.897 73.6504 407.077 73.6504C406.274 73.6504 405.626 73.9697 405.134 74.6084C404.642 75.2471 404.396 76.1611 404.396 77.3506ZM412.127 77.1572C412.127 76.2256 412.308 75.3877 412.672 74.6436C413.041 73.8994 413.551 73.3252 414.201 72.9209C414.857 72.5166 415.604 72.3145 416.442 72.3145C417.737 72.3145 418.783 72.7627 419.58 73.6592C420.383 74.5557 420.784 75.748 420.784 77.2363V77.3506C420.784 78.2764 420.605 79.1084 420.248 79.8467C419.896 80.5791 419.389 81.1504 418.727 81.5605C418.071 81.9707 417.315 82.1758 416.46 82.1758C415.171 82.1758 414.125 81.7275 413.322 80.8311C412.525 79.9346 412.127 78.748 412.127 77.2715V77.1572ZM413.762 77.3506C413.762 78.4053 414.005 79.252 414.491 79.8906C414.983 80.5293 415.639 80.8486 416.46 80.8486C417.286 80.8486 417.942 80.5264 418.429 79.8818C418.915 79.2314 419.158 78.3232 419.158 77.1572C419.158 76.1143 418.909 75.2705 418.411 74.626C417.919 73.9756 417.263 73.6504 416.442 73.6504C415.639 73.6504 414.992 73.9697 414.5 74.6084C414.008 75.2471 413.762 76.1611 413.762 77.3506ZM427.017 72.4902L427.061 73.5449C427.758 72.7246 428.699 72.3145 429.882 72.3145C431.212 72.3145 432.118 72.8242 432.598 73.8438C432.915 73.3867 433.325 73.0176 433.829 72.7363C434.338 72.4551 434.939 72.3145 435.63 72.3145C437.716 72.3145 438.777 73.4189 438.812 75.6279V82H437.186V75.7246C437.186 75.0449 437.031 74.5381 436.72 74.2041C436.41 73.8643 435.888 73.6943 435.156 73.6943C434.552 73.6943 434.051 73.876 433.653 74.2393C433.254 74.5967 433.023 75.0801 432.959 75.6895V82H431.324V75.7686C431.324 74.3857 430.647 73.6943 429.294 73.6943C428.227 73.6943 427.498 74.1484 427.105 75.0566V82H425.479V72.4902H427.017ZM446.244 81.0596C445.611 81.8037 444.683 82.1758 443.458 82.1758C442.444 82.1758 441.671 81.8828 441.138 81.2969C440.61 80.7051 440.344 79.832 440.338 78.6777V72.4902H441.964V78.6338C441.964 80.0752 442.55 80.7959 443.722 80.7959C444.964 80.7959 445.79 80.333 446.2 79.4072V72.4902H447.826V82H446.279L446.244 81.0596ZM453.219 80.8486C453.799 80.8486 454.306 80.6729 454.74 80.3213C455.173 79.9697 455.413 79.5303 455.46 79.0029H456.998C456.969 79.5479 456.782 80.0664 456.436 80.5586C456.09 81.0508 455.627 81.4434 455.047 81.7363C454.473 82.0293 453.864 82.1758 453.219 82.1758C451.924 82.1758 450.893 81.7451 450.125 80.8838C449.364 80.0166 448.983 78.833 448.983 77.333V77.0605C448.983 76.1348 449.153 75.3115 449.493 74.5908C449.832 73.8701 450.319 73.3105 450.952 72.9121C451.59 72.5137 452.343 72.3145 453.21 72.3145C454.277 72.3145 455.162 72.6338 455.865 73.2725C456.574 73.9111 456.952 74.7402 456.998 75.7598H455.46C455.413 75.1445 455.179 74.6406 454.757 74.248C454.341 73.8496 453.826 73.6504 453.21 73.6504C452.384 73.6504 451.743 73.9492 451.286 74.5469C450.834 75.1387 450.609 75.9971 450.609 77.1221V77.4297C450.609 78.5254 450.834 79.3691 451.286 79.9609C451.737 80.5527 452.381 80.8486 453.219 80.8486ZM459.553 73.6416C460.273 72.7568 461.211 72.3145 462.365 72.3145C464.375 72.3145 465.388 73.4482 465.406 75.7158V82H463.78V75.707C463.774 75.0215 463.616 74.5146 463.305 74.1865C463.001 73.8584 462.523 73.6943 461.873 73.6943C461.346 73.6943 460.883 73.835 460.484 74.1162C460.086 74.3975 459.775 74.7666 459.553 75.2236V82H457.927V68.5H459.553V73.6416ZM395.76 94.4902L395.804 95.5449C396.501 94.7246 397.441 94.3145 398.625 94.3145C399.955 94.3145 400.86 94.8242 401.341 95.8438C401.657 95.3867 402.067 95.0176 402.571 94.7363C403.081 94.4551 403.682 94.3145 404.373 94.3145C406.459 94.3145 407.52 95.4189 407.555 97.6279V104H405.929V97.7246C405.929 97.0449 405.773 96.5381 405.463 96.2041C405.152 95.8643 404.631 95.6943 403.898 95.6943C403.295 95.6943 402.794 95.876 402.396 96.2393C401.997 96.5967 401.766 97.0801 401.701 97.6895V104H400.066V97.7686C400.066 96.3857 399.39 95.6943 398.036 95.6943C396.97 95.6943 396.24 96.1484 395.848 97.0566V104H394.222V94.4902H395.76ZM413.062 104.176C411.773 104.176 410.724 103.754 409.915 102.91C409.107 102.061 408.703 100.927 408.703 99.5088V99.21C408.703 98.2666 408.881 97.4258 409.239 96.6875C409.602 95.9434 410.106 95.3633 410.75 94.9473C411.401 94.5254 412.104 94.3145 412.86 94.3145C414.096 94.3145 415.057 94.7217 415.743 95.5361C416.428 96.3506 416.771 97.5166 416.771 99.0342V99.7109H410.329C410.352 100.648 410.624 101.407 411.146 101.987C411.673 102.562 412.341 102.849 413.15 102.849C413.724 102.849 414.21 102.731 414.609 102.497C415.007 102.263 415.356 101.952 415.655 101.565L416.648 102.339C415.851 103.563 414.656 104.176 413.062 104.176ZM412.86 95.6504C412.204 95.6504 411.653 95.8906 411.207 96.3711C410.762 96.8457 410.487 97.5137 410.381 98.375H415.145V98.252C415.098 97.4258 414.875 96.7871 414.477 96.3359C414.079 95.8789 413.539 95.6504 412.86 95.6504ZM419.527 104H417.901V90.5H419.527V104ZM427.109 104C427.015 103.812 426.939 103.479 426.88 102.998C426.124 103.783 425.222 104.176 424.173 104.176C423.236 104.176 422.465 103.912 421.862 103.385C421.264 102.852 420.965 102.178 420.965 101.363C420.965 100.373 421.34 99.6055 422.09 99.0605C422.846 98.5098 423.906 98.2344 425.272 98.2344H426.854V97.4873C426.854 96.9189 426.684 96.4678 426.344 96.1338C426.004 95.7939 425.503 95.624 424.841 95.624C424.261 95.624 423.775 95.7705 423.382 96.0635C422.989 96.3564 422.793 96.7109 422.793 97.127H421.158C421.158 96.6523 421.325 96.1953 421.659 95.7559C421.999 95.3105 422.456 94.959 423.03 94.7012C423.611 94.4434 424.246 94.3145 424.938 94.3145C426.033 94.3145 426.892 94.5898 427.513 95.1406C428.134 95.6855 428.456 96.4385 428.48 97.3994V101.776C428.48 102.649 428.591 103.344 428.814 103.859V104H427.109ZM424.41 102.761C424.92 102.761 425.404 102.629 425.861 102.365C426.318 102.102 426.649 101.759 426.854 101.337V99.3857H425.579C423.587 99.3857 422.591 99.9688 422.591 101.135C422.591 101.645 422.761 102.043 423.101 102.33C423.441 102.617 423.877 102.761 424.41 102.761ZM432.335 92.1875V94.4902H434.11V95.7471H432.335V101.645C432.335 102.025 432.414 102.312 432.572 102.506C432.73 102.693 433 102.787 433.38 102.787C433.568 102.787 433.826 102.752 434.154 102.682V104C433.726 104.117 433.31 104.176 432.906 104.176C432.179 104.176 431.631 103.956 431.262 103.517C430.893 103.077 430.709 102.453 430.709 101.645V95.7471H428.977V94.4902H430.709V92.1875H432.335ZM434.511 99.1572C434.511 98.2256 434.692 97.3877 435.056 96.6436C435.425 95.8994 435.935 95.3252 436.585 94.9209C437.241 94.5166 437.988 94.3145 438.826 94.3145C440.121 94.3145 441.167 94.7627 441.964 95.6592C442.767 96.5557 443.168 97.748 443.168 99.2363V99.3506C443.168 100.276 442.989 101.108 442.632 101.847C442.28 102.579 441.773 103.15 441.111 103.561C440.455 103.971 439.699 104.176 438.844 104.176C437.555 104.176 436.509 103.728 435.706 102.831C434.909 101.935 434.511 100.748 434.511 99.2715V99.1572ZM436.146 99.3506C436.146 100.405 436.389 101.252 436.875 101.891C437.367 102.529 438.023 102.849 438.844 102.849C439.67 102.849 440.326 102.526 440.812 101.882C441.299 101.231 441.542 100.323 441.542 99.1572C441.542 98.1143 441.293 97.2705 440.795 96.626C440.303 95.9756 439.646 95.6504 438.826 95.6504C438.023 95.6504 437.376 95.9697 436.884 96.6084C436.392 97.2471 436.146 98.1611 436.146 99.3506ZM445.845 94.4902L445.898 95.6855C446.624 94.7715 447.574 94.3145 448.746 94.3145C450.755 94.3145 451.769 95.4482 451.787 97.7158V104H450.161V97.707C450.155 97.0215 449.996 96.5146 449.686 96.1865C449.381 95.8584 448.904 95.6943 448.253 95.6943C447.726 95.6943 447.263 95.835 446.865 96.1162C446.466 96.3975 446.156 96.7666 445.933 97.2236V104H444.307V94.4902H445.845ZM455.105 104H453.479V94.4902H455.105V104ZM453.347 91.9678C453.347 91.7041 453.427 91.4814 453.585 91.2998C453.749 91.1182 453.989 91.0273 454.305 91.0273C454.622 91.0273 454.862 91.1182 455.026 91.2998C455.19 91.4814 455.272 91.7041 455.272 91.9678C455.272 92.2314 455.19 92.4512 455.026 92.627C454.862 92.8027 454.622 92.8906 454.305 92.8906C453.989 92.8906 453.749 92.8027 453.585 92.627C453.427 92.4512 453.347 92.2314 453.347 91.9678ZM458.354 94.4902L458.406 95.6855C459.133 94.7715 460.082 94.3145 461.254 94.3145C463.264 94.3145 464.278 95.4482 464.295 97.7158V104H462.669V97.707C462.663 97.0215 462.505 96.5146 462.195 96.1865C461.89 95.8584 461.412 95.6943 460.762 95.6943C460.235 95.6943 459.772 95.835 459.373 96.1162C458.975 96.3975 458.664 96.7666 458.442 97.2236V104H456.816V94.4902H458.354Z" fill="black"/>
<path d="M162.934 59.3213C162.5 59.9424 161.894 60.4082 161.114 60.7188C160.341 61.0234 159.438 61.1758 158.407 61.1758C157.364 61.1758 156.438 60.9326 155.63 60.4463C154.821 59.9541 154.194 59.2568 153.749 58.3545C153.31 57.4521 153.084 56.4062 153.072 55.2168V54.1006C153.072 52.1729 153.521 50.6787 154.417 49.6182C155.319 48.5576 156.585 48.0273 158.214 48.0273C159.55 48.0273 160.625 48.3701 161.439 49.0557C162.254 49.7354 162.752 50.7021 162.934 51.9561H161.246C160.93 50.2627 159.922 49.416 158.223 49.416C157.092 49.416 156.233 49.8145 155.647 50.6113C155.067 51.4023 154.774 52.5508 154.769 54.0566V55.1025C154.769 56.5381 155.097 57.6807 155.753 58.5303C156.409 59.374 157.297 59.7959 158.416 59.7959C159.049 59.7959 159.603 59.7256 160.077 59.585C160.552 59.4443 160.944 59.207 161.255 58.873V55.999H158.293V54.6279H162.934V59.3213ZM171.921 57.6602H166.56L165.356 61H163.616L168.502 48.2031H169.979L174.874 61H173.143L171.921 57.6602ZM167.07 56.2715H171.42L169.241 50.2861L167.07 56.2715ZM175.697 61V48.2031H179.881C181.269 48.2031 182.312 48.4902 183.01 49.0645C183.713 49.6387 184.064 50.4883 184.064 51.6133C184.064 52.2109 183.894 52.7412 183.554 53.2041C183.215 53.6611 182.752 54.0156 182.166 54.2676C182.857 54.4609 183.402 54.8301 183.801 55.375C184.205 55.9141 184.407 56.5586 184.407 57.3086C184.407 58.457 184.035 59.3594 183.291 60.0156C182.547 60.6719 181.495 61 180.136 61H175.697ZM177.385 55.0146V59.6201H180.171C180.956 59.6201 181.574 59.418 182.025 59.0137C182.482 58.6035 182.711 58.041 182.711 57.3262C182.711 55.7852 181.873 55.0146 180.197 55.0146H177.385ZM177.385 53.6611H179.933C180.672 53.6611 181.261 53.4766 181.7 53.1074C182.145 52.7383 182.368 52.2373 182.368 51.6045C182.368 50.9014 182.163 50.3916 181.753 50.0752C181.343 49.7529 180.719 49.5918 179.881 49.5918H177.385V53.6611ZM193.078 57.6602H187.717L186.513 61H184.773L189.659 48.2031H191.136L196.031 61H194.3L193.078 57.6602ZM188.227 56.2715H192.577L190.398 50.2861L188.227 56.2715ZM158.768 80.4775C158.768 80.0381 158.601 79.6982 158.267 79.458C157.938 79.2119 157.361 79.001 156.535 78.8252C155.715 78.6494 155.062 78.4385 154.575 78.1924C154.095 77.9463 153.737 77.6533 153.503 77.3135C153.274 76.9736 153.16 76.5693 153.16 76.1006C153.16 75.3213 153.488 74.6621 154.145 74.123C154.807 73.584 155.65 73.3145 156.676 73.3145C157.754 73.3145 158.627 73.5928 159.295 74.1494C159.969 74.7061 160.306 75.418 160.306 76.2852H158.671C158.671 75.8398 158.48 75.4561 158.1 75.1338C157.725 74.8115 157.25 74.6504 156.676 74.6504C156.084 74.6504 155.621 74.7793 155.287 75.0371C154.953 75.2949 154.786 75.6318 154.786 76.0479C154.786 76.4404 154.941 76.7363 155.252 76.9355C155.562 77.1348 156.122 77.3252 156.931 77.5068C157.745 77.6885 158.404 77.9053 158.908 78.1572C159.412 78.4092 159.784 78.7139 160.024 79.0713C160.271 79.4229 160.394 79.8535 160.394 80.3633C160.394 81.2129 160.054 81.8955 159.374 82.4111C158.694 82.9209 157.812 83.1758 156.729 83.1758C155.967 83.1758 155.293 83.041 154.707 82.7715C154.121 82.502 153.661 82.127 153.327 81.6465C152.999 81.1602 152.835 80.6357 152.835 80.0732H154.461C154.49 80.6182 154.707 81.0518 155.111 81.374C155.521 81.6904 156.061 81.8486 156.729 81.8486C157.344 81.8486 157.836 81.7256 158.205 81.4795C158.58 81.2275 158.768 80.8936 158.768 80.4775ZM167.483 82.0596C166.85 82.8037 165.921 83.1758 164.697 83.1758C163.683 83.1758 162.91 82.8828 162.376 82.2969C161.849 81.7051 161.582 80.832 161.577 79.6777V73.4902H163.203V79.6338C163.203 81.0752 163.788 81.7959 164.96 81.7959C166.203 81.7959 167.029 81.333 167.439 80.4072V73.4902H169.065V83H167.518L167.483 82.0596ZM178.677 78.3506C178.677 79.7979 178.346 80.9639 177.683 81.8486C177.021 82.7334 176.125 83.1758 174.994 83.1758C173.84 83.1758 172.931 82.8096 172.269 82.0771V86.6562H170.643V73.4902H172.129L172.208 74.5449C172.87 73.7246 173.79 73.3145 174.968 73.3145C176.11 73.3145 177.013 73.7451 177.675 74.6064C178.343 75.4678 178.677 76.666 178.677 78.2012V78.3506ZM177.051 78.166C177.051 77.0938 176.822 76.2471 176.365 75.626C175.908 75.0049 175.281 74.6943 174.484 74.6943C173.5 74.6943 172.762 75.1309 172.269 76.0039V80.5479C172.756 81.415 173.5 81.8486 174.502 81.8486C175.281 81.8486 175.899 81.541 176.356 80.9258C176.819 80.3047 177.051 79.3848 177.051 78.166ZM187.884 78.3506C187.884 79.7979 187.553 80.9639 186.891 81.8486C186.229 82.7334 185.332 83.1758 184.201 83.1758C183.047 83.1758 182.139 82.8096 181.477 82.0771V86.6562H179.851V73.4902H181.336L181.415 74.5449C182.077 73.7246 182.997 73.3145 184.175 73.3145C185.318 73.3145 186.22 73.7451 186.882 74.6064C187.55 75.4678 187.884 76.666 187.884 78.2012V78.3506ZM186.258 78.166C186.258 77.0938 186.029 76.2471 185.572 75.626C185.115 75.0049 184.488 74.6943 183.692 74.6943C182.707 74.6943 181.969 75.1309 181.477 76.0039V80.5479C181.963 81.415 182.707 81.8486 183.709 81.8486C184.488 81.8486 185.107 81.541 185.564 80.9258C186.027 80.3047 186.258 79.3848 186.258 78.166ZM190.825 83H189.199V69.5H190.825V83ZM196.481 83.1758C195.192 83.1758 194.144 82.7539 193.335 81.9102C192.526 81.0605 192.122 79.9268 192.122 78.5088V78.21C192.122 77.2666 192.301 76.4258 192.658 75.6875C193.021 74.9434 193.525 74.3633 194.17 73.9473C194.82 73.5254 195.523 73.3145 196.279 73.3145C197.516 73.3145 198.477 73.7217 199.162 74.5361C199.848 75.3506 200.19 76.5166 200.19 78.0342V78.7109H193.748C193.771 79.6484 194.044 80.4072 194.565 80.9873C195.093 81.5615 195.761 81.8486 196.569 81.8486C197.144 81.8486 197.63 81.7314 198.028 81.4971C198.427 81.2627 198.775 80.9521 199.074 80.5654L200.067 81.3389C199.271 82.5635 198.075 83.1758 196.481 83.1758ZM196.279 74.6504C195.623 74.6504 195.072 74.8906 194.627 75.3711C194.182 75.8457 193.906 76.5137 193.801 77.375H198.564V77.252C198.518 76.4258 198.295 75.7871 197.896 75.3359C197.498 74.8789 196.959 74.6504 196.279 74.6504ZM202.709 73.4902L202.753 74.5449C203.451 73.7246 204.391 73.3145 205.575 73.3145C206.905 73.3145 207.81 73.8242 208.29 74.8438C208.607 74.3867 209.017 74.0176 209.521 73.7363C210.031 73.4551 210.631 73.3145 211.323 73.3145C213.409 73.3145 214.469 74.4189 214.504 76.6279V83H212.878V76.7246C212.878 76.0449 212.723 75.5381 212.412 75.2041C212.102 74.8643 211.58 74.6943 210.848 74.6943C210.245 74.6943 209.744 74.876 209.345 75.2393C208.947 75.5967 208.715 76.0801 208.651 76.6895V83H207.016V76.7686C207.016 75.3857 206.339 74.6943 204.986 74.6943C203.919 74.6943 203.19 75.1484 202.797 76.0566V83H201.171V73.4902H202.709ZM220.012 83.1758C218.722 83.1758 217.674 82.7539 216.865 81.9102C216.056 81.0605 215.652 79.9268 215.652 78.5088V78.21C215.652 77.2666 215.831 76.4258 216.188 75.6875C216.552 74.9434 217.055 74.3633 217.7 73.9473C218.35 73.5254 219.054 73.3145 219.809 73.3145C221.046 73.3145 222.007 73.7217 222.692 74.5361C223.378 75.3506 223.721 76.5166 223.721 78.0342V78.7109H217.278C217.302 79.6484 217.574 80.4072 218.096 80.9873C218.623 81.5615 219.291 81.8486 220.099 81.8486C220.674 81.8486 221.16 81.7314 221.558 81.4971C221.957 81.2627 222.305 80.9521 222.604 80.5654L223.597 81.3389C222.801 82.5635 221.605 83.1758 220.012 83.1758ZM219.809 74.6504C219.153 74.6504 218.602 74.8906 218.157 75.3711C217.712 75.8457 217.436 76.5137 217.331 77.375H222.095V77.252C222.048 76.4258 221.825 75.7871 221.427 75.3359C221.028 74.8789 220.489 74.6504 219.809 74.6504ZM226.248 73.4902L226.301 74.6855C227.028 73.7715 227.977 73.3145 229.149 73.3145C231.158 73.3145 232.172 74.4482 232.19 76.7158V83H230.564V76.707C230.558 76.0215 230.4 75.5146 230.089 75.1865C229.784 74.8584 229.307 74.6943 228.656 74.6943C228.129 74.6943 227.666 74.835 227.268 75.1162C226.869 75.3975 226.559 75.7666 226.336 76.2236V83H224.71V73.4902H226.248ZM235.948 71.1875V73.4902H237.723V74.7471H235.948V80.6445C235.948 81.0254 236.027 81.3125 236.185 81.5059C236.343 81.6934 236.613 81.7871 236.994 81.7871C237.181 81.7871 237.439 81.752 237.767 81.6816V83C237.339 83.1172 236.923 83.1758 236.519 83.1758C235.793 83.1758 235.245 82.9561 234.876 82.5166C234.506 82.0771 234.322 81.4531 234.322 80.6445V74.7471H232.59V73.4902H234.322V71.1875H235.948ZM244.268 80.4775C244.268 80.0381 244.101 79.6982 243.767 79.458C243.438 79.2119 242.861 79.001 242.035 78.8252C241.215 78.6494 240.562 78.4385 240.075 78.1924C239.595 77.9463 239.237 77.6533 239.003 77.3135C238.774 76.9736 238.66 76.5693 238.66 76.1006C238.66 75.3213 238.988 74.6621 239.645 74.123C240.307 73.584 241.15 73.3145 242.176 73.3145C243.254 73.3145 244.127 73.5928 244.795 74.1494C245.469 74.7061 245.806 75.418 245.806 76.2852H244.171C244.171 75.8398 243.98 75.4561 243.6 75.1338C243.225 74.8115 242.75 74.6504 242.176 74.6504C241.584 74.6504 241.121 74.7793 240.787 75.0371C240.453 75.2949 240.286 75.6318 240.286 76.0479C240.286 76.4404 240.441 76.7363 240.752 76.9355C241.062 77.1348 241.622 77.3252 242.431 77.5068C243.245 77.6885 243.904 77.9053 244.408 78.1572C244.912 78.4092 245.284 78.7139 245.524 79.0713C245.771 79.4229 245.894 79.8535 245.894 80.3633C245.894 81.2129 245.554 81.8955 244.874 82.4111C244.194 82.9209 243.312 83.1758 242.229 83.1758C241.467 83.1758 240.793 83.041 240.207 82.7715C239.621 82.502 239.161 82.127 238.827 81.6465C238.499 81.1602 238.335 80.6357 238.335 80.0732H239.961C239.99 80.6182 240.207 81.0518 240.611 81.374C241.021 81.6904 241.561 81.8486 242.229 81.8486C242.844 81.8486 243.336 81.7256 243.705 81.4795C244.08 81.2275 244.268 80.8936 244.268 80.4775Z" fill="black"/>
<line x1="258.5" y1="51.9957" x2="259.5" y2="167.996" stroke="#C4C4C4"/>
<line x1="197.5" y1="95" x2="197.5" y2="184" stroke="#C4C4C4"/>
<circle cx="259" cy="176" r="6.165" stroke="#65C5B5" stroke-opacity="0.85" stroke-width="3.67"/>
<circle cx="197" cy="194" r="6.165" stroke="#65C5B5" stroke-opacity="0.85" stroke-width="3.67"/>
<path d="M251.719 8.08496H246.173V12.6201H252.615V14H244.485V1.20312H252.527V2.5918H246.173V6.70508H251.719V8.08496ZM259.432 14C259.338 13.8125 259.262 13.4785 259.204 12.998C258.448 13.7832 257.545 14.1758 256.496 14.1758C255.559 14.1758 254.788 13.9121 254.185 13.3848C253.587 12.8516 253.288 12.1777 253.288 11.3633C253.288 10.373 253.663 9.60547 254.413 9.06055C255.169 8.50977 256.23 8.23438 257.595 8.23438H259.177V7.4873C259.177 6.91895 259.007 6.46777 258.667 6.13379C258.328 5.79395 257.827 5.62402 257.164 5.62402C256.584 5.62402 256.098 5.77051 255.705 6.06348C255.313 6.35645 255.117 6.71094 255.117 7.12695H253.482C253.482 6.65234 253.649 6.19531 253.983 5.75586C254.323 5.31055 254.78 4.95898 255.354 4.70117C255.934 4.44336 256.57 4.31445 257.261 4.31445C258.357 4.31445 259.215 4.58984 259.836 5.14062C260.457 5.68555 260.78 6.43848 260.803 7.39941V11.7764C260.803 12.6494 260.914 13.3438 261.137 13.8594V14H259.432ZM256.734 12.7607C257.244 12.7607 257.727 12.6289 258.184 12.3652C258.641 12.1016 258.972 11.7588 259.177 11.3369V9.38574H257.903C255.911 9.38574 254.914 9.96875 254.914 11.1348C254.914 11.6445 255.084 12.043 255.424 12.3301C255.764 12.6172 256.201 12.7607 256.734 12.7607ZM264.658 2.1875V4.49023H266.433V5.74707H264.658V11.6445C264.658 12.0254 264.737 12.3125 264.895 12.5059C265.054 12.6934 265.323 12.7871 265.704 12.7871C265.891 12.7871 266.149 12.752 266.477 12.6816V14C266.05 14.1172 265.634 14.1758 265.229 14.1758C264.503 14.1758 263.955 13.9561 263.586 13.5166C263.217 13.0771 263.032 12.4531 263.032 11.6445V5.74707H261.301V4.49023H263.032V2.1875H264.658ZM272.772 14H271.146V0.5H272.772V14ZM278.429 14.1758C277.14 14.1758 276.091 13.7539 275.282 12.9102C274.474 12.0605 274.069 10.9268 274.069 9.50879V9.20996C274.069 8.2666 274.248 7.42578 274.605 6.6875C274.969 5.94336 275.473 5.36328 276.117 4.94727C276.768 4.52539 277.471 4.31445 278.227 4.31445C279.463 4.31445 280.424 4.72168 281.109 5.53613C281.795 6.35059 282.138 7.5166 282.138 9.03418V9.71094H275.695C275.719 10.6484 275.991 11.4072 276.513 11.9873C277.04 12.5615 277.708 12.8486 278.517 12.8486C279.091 12.8486 279.577 12.7314 279.976 12.4971C280.374 12.2627 280.723 11.9521 281.021 11.5654L282.015 12.3389C281.218 13.5635 280.022 14.1758 278.429 14.1758ZM278.227 5.65039C277.57 5.65039 277.02 5.89062 276.574 6.37109C276.129 6.8457 275.854 7.51367 275.748 8.375H280.512V8.25195C280.465 7.42578 280.242 6.78711 279.844 6.33594C279.445 5.87891 278.906 5.65039 278.227 5.65039ZM288.664 11.4775C288.664 11.0381 288.497 10.6982 288.163 10.458C287.835 10.2119 287.258 10.001 286.432 9.8252C285.612 9.64941 284.958 9.43848 284.472 9.19238C283.992 8.94629 283.634 8.65332 283.4 8.31348C283.171 7.97363 283.057 7.56934 283.057 7.10059C283.057 6.32129 283.385 5.66211 284.041 5.12305C284.704 4.58398 285.547 4.31445 286.573 4.31445C287.651 4.31445 288.524 4.59277 289.192 5.14941C289.866 5.70605 290.203 6.41797 290.203 7.28516H288.568C288.568 6.83984 288.377 6.45605 287.996 6.13379C287.621 5.81152 287.147 5.65039 286.573 5.65039C285.981 5.65039 285.518 5.7793 285.184 6.03711C284.85 6.29492 284.683 6.63184 284.683 7.04785C284.683 7.44043 284.838 7.73633 285.149 7.93555C285.459 8.13477 286.019 8.3252 286.828 8.50684C287.642 8.68848 288.301 8.90527 288.805 9.15723C289.309 9.40918 289.681 9.71387 289.921 10.0713C290.167 10.4229 290.29 10.8535 290.29 11.3633C290.29 12.2129 289.951 12.8955 289.271 13.4111C288.591 13.9209 287.709 14.1758 286.625 14.1758C285.864 14.1758 285.19 14.041 284.604 13.7715C284.018 13.502 283.558 13.127 283.224 12.6465C282.896 12.1602 282.732 11.6357 282.732 11.0732H284.358C284.387 11.6182 284.604 12.0518 285.008 12.374C285.418 12.6904 285.957 12.8486 286.625 12.8486C287.241 12.8486 287.733 12.7256 288.102 12.4795C288.477 12.2275 288.664 11.8936 288.664 11.4775ZM297.046 11.4775C297.046 11.0381 296.879 10.6982 296.545 10.458C296.217 10.2119 295.639 10.001 294.813 9.8252C293.993 9.64941 293.34 9.43848 292.853 9.19238C292.373 8.94629 292.015 8.65332 291.781 8.31348C291.553 7.97363 291.438 7.56934 291.438 7.10059C291.438 6.32129 291.766 5.66211 292.423 5.12305C293.085 4.58398 293.929 4.31445 294.954 4.31445C296.032 4.31445 296.905 4.59277 297.573 5.14941C298.247 5.70605 298.584 6.41797 298.584 7.28516H296.949C296.949 6.83984 296.759 6.45605 296.378 6.13379C296.003 5.81152 295.528 5.65039 294.954 5.65039C294.362 5.65039 293.899 5.7793 293.565 6.03711C293.231 6.29492 293.064 6.63184 293.064 7.04785C293.064 7.44043 293.22 7.73633 293.53 7.93555C293.841 8.13477 294.4 8.3252 295.209 8.50684C296.023 8.68848 296.682 8.90527 297.186 9.15723C297.69 9.40918 298.062 9.71387 298.303 10.0713C298.549 10.4229 298.672 10.8535 298.672 11.3633C298.672 12.2129 298.332 12.8955 297.652 13.4111C296.972 13.9209 296.091 14.1758 295.007 14.1758C294.245 14.1758 293.571 14.041 292.985 13.7715C292.399 13.502 291.939 13.127 291.605 12.6465C291.277 12.1602 291.113 11.6357 291.113 11.0732H292.739C292.768 11.6182 292.985 12.0518 293.389 12.374C293.8 12.6904 294.339 12.8486 295.007 12.8486C295.622 12.8486 296.114 12.7256 296.483 12.4795C296.858 12.2275 297.046 11.8936 297.046 11.4775ZM245.03 36V27.7471H243.527V26.4902H245.03V25.5146C245.03 24.4951 245.303 23.707 245.848 23.1504C246.393 22.5938 247.163 22.3154 248.159 22.3154C248.534 22.3154 248.906 22.3652 249.275 22.4648L249.188 23.7832C248.912 23.7305 248.619 23.7041 248.309 23.7041C247.781 23.7041 247.374 23.8594 247.087 24.1699C246.8 24.4746 246.656 24.9141 246.656 25.4883V26.4902H248.687V27.7471H246.656V36H245.03ZM254.185 27.9492C253.939 27.9082 253.672 27.8877 253.385 27.8877C252.319 27.8877 251.595 28.3418 251.214 29.25V36H249.588V26.4902H251.17L251.197 27.5889C251.73 26.7393 252.486 26.3145 253.464 26.3145C253.781 26.3145 254.021 26.3555 254.185 26.4375V27.9492ZM260.659 35.0596C260.026 35.8037 259.097 36.1758 257.873 36.1758C256.859 36.1758 256.086 35.8828 255.553 35.2969C255.025 34.7051 254.759 33.832 254.753 32.6777V26.4902H256.379V32.6338C256.379 34.0752 256.965 34.7959 258.137 34.7959C259.379 34.7959 260.205 34.333 260.615 33.4072V26.4902H262.241V36H260.694L260.659 35.0596ZM265.586 36H263.96V26.4902H265.586V36ZM263.828 23.9678C263.828 23.7041 263.907 23.4814 264.066 23.2998C264.23 23.1182 264.47 23.0273 264.786 23.0273C265.103 23.0273 265.343 23.1182 265.507 23.2998C265.671 23.4814 265.753 23.7041 265.753 23.9678C265.753 24.2314 265.671 24.4512 265.507 24.627C265.343 24.8027 265.103 24.8906 264.786 24.8906C264.47 24.8906 264.23 24.8027 264.066 24.627C263.907 24.4512 263.828 24.2314 263.828 23.9678ZM269.503 24.1875V26.4902H271.278V27.7471H269.503V33.6445C269.503 34.0254 269.582 34.3125 269.74 34.5059C269.898 34.6934 270.168 34.7871 270.548 34.7871C270.736 34.7871 270.994 34.752 271.322 34.6816V36C270.894 36.1172 270.478 36.1758 270.074 36.1758C269.347 36.1758 268.799 35.9561 268.43 35.5166C268.061 35.0771 267.877 34.4531 267.877 33.6445V27.7471H266.145V26.4902H267.877V24.1875H269.503Z" fill="black"/>
<line y1="-0.5" x2="487.282" y2="-0.5" transform="matrix(0.999977 -0.00682749 0.00345137 0.999994 54.2598 370.115)" stroke="#D1D1D1"/>
<path d="M2.64551 326.54C2.64551 328.198 3.02637 329.496 3.78809 330.434C4.55566 331.365 5.61621 331.831 6.96973 331.831C8.31738 331.831 9.36914 331.365 10.125 330.434C10.8867 329.496 11.2676 328.198 11.2676 326.54C11.2676 324.876 10.8867 323.578 10.125 322.646C9.36914 321.715 8.31738 321.249 6.96973 321.249C5.61621 321.249 4.55566 321.715 3.78809 322.646C3.02637 323.578 2.64551 324.876 2.64551 326.54ZM0.826172 326.54C0.826172 324.401 1.36816 322.731 2.45215 321.53C3.54199 320.323 5.04785 319.72 6.96973 319.72C8.88574 319.72 10.3828 320.32 11.4609 321.521C12.5449 322.723 13.0869 324.396 13.0869 326.54C13.0869 328.679 12.5449 330.352 11.4609 331.559C10.3828 332.76 8.88574 333.36 6.96973 333.36C5.04785 333.36 3.54199 332.76 2.45215 331.559C1.36816 330.352 0.826172 328.679 0.826172 326.54ZM16.2953 328.359C16.2953 329.531 16.5267 330.413 16.9896 331.005C17.4584 331.591 18.1586 331.884 19.0902 331.884C19.9808 331.884 20.6664 331.562 21.1468 330.917C21.6332 330.267 21.8763 329.347 21.8763 328.157C21.8763 327.085 21.6244 326.241 21.1205 325.626C20.6224 325.011 19.9398 324.703 19.0726 324.703C18.182 324.703 17.4964 325.02 17.016 325.652C16.5355 326.285 16.2953 327.188 16.2953 328.359ZM14.8011 336.762V323.587H16.348V324.914C16.7406 324.352 17.18 323.938 17.6664 323.675C18.1586 323.411 18.7416 323.279 19.4154 323.279C20.6693 323.279 21.6683 323.73 22.4125 324.633C23.1625 325.535 23.5375 326.745 23.5375 328.263C23.5375 329.798 23.1595 331.02 22.4037 331.928C21.6478 332.836 20.6459 333.29 19.3978 333.29C18.7357 333.29 18.1527 333.173 17.6488 332.938C17.1507 332.698 16.7171 332.335 16.348 331.849V336.762H14.8011ZM26.9655 330.627C26.9655 331.049 27.0241 331.33 27.1413 331.471C27.2644 331.611 27.487 331.682 27.8093 331.682C27.903 331.682 28.0144 331.679 28.1433 331.673C28.278 331.667 28.4509 331.655 28.6618 331.638V332.982C28.3982 333.029 28.1609 333.064 27.9499 333.088C27.7448 333.111 27.5603 333.123 27.3962 333.123C26.6521 333.123 26.1306 332.979 25.8318 332.692C25.5329 332.405 25.3835 331.896 25.3835 331.163V324.844H23.9773V323.587H25.3835V320.959H26.9655V323.587H28.6618V324.844H26.9655V330.627ZM29.8136 321.855V320.054H31.3956V321.855H29.8136ZM29.8136 333V323.587H31.3956V333H29.8136ZM44.9311 333V327.208C44.9311 326.259 44.8022 325.611 44.5444 325.266C44.2866 324.914 43.8383 324.738 43.1996 324.738C42.4379 324.738 41.8461 324.976 41.4243 325.45C41.0024 325.919 40.7914 326.581 40.7914 327.437V333H39.183V327.208C39.183 326.259 39.0541 325.611 38.7963 325.266C38.5385 324.914 38.0932 324.738 37.4604 324.738C36.7045 324.738 36.1127 324.979 35.685 325.459C35.2573 325.934 35.0434 326.593 35.0434 327.437V333H33.4614V323.587H34.9731V324.914C35.3246 324.387 35.7407 323.994 36.2211 323.736C36.7016 323.479 37.2641 323.35 37.9086 323.35C38.4946 323.35 38.9955 323.47 39.4116 323.71C39.8276 323.944 40.185 324.316 40.4838 324.826C40.894 324.316 41.3422 323.944 41.8286 323.71C42.3149 323.47 42.8745 323.35 43.5073 323.35C44.1166 323.35 44.6469 323.461 45.0981 323.684C45.5493 323.9 45.895 324.217 46.1352 324.633C46.27 324.873 46.3666 325.16 46.4252 325.494C46.4838 325.828 46.5131 326.355 46.5131 327.076V327.349V333H44.9311ZM54.3709 331.743C53.8787 332.259 53.3543 332.646 52.7977 332.903C52.2469 333.161 51.6609 333.29 51.0398 333.29C50.0789 333.29 49.3289 333.041 48.7898 332.543C48.2508 332.039 47.9813 331.345 47.9813 330.46C47.9813 329.604 48.2449 328.934 48.7723 328.447C49.3055 327.961 50.1141 327.647 51.198 327.507C51.4734 327.478 51.8455 327.437 52.3143 327.384C53.117 327.302 53.6092 327.223 53.7908 327.146C53.9725 327.076 54.0926 326.985 54.1512 326.874C54.2098 326.757 54.2391 326.508 54.2391 326.127C54.2391 325.646 54.0633 325.286 53.7117 325.046C53.3602 324.806 52.8299 324.686 52.1209 324.686C51.3885 324.686 50.8348 324.832 50.4598 325.125C50.0906 325.418 49.9061 325.852 49.9061 326.426H48.4119V326.355C48.4119 325.406 48.7459 324.656 49.4139 324.105C50.0818 323.555 51.0018 323.279 52.1736 323.279C53.4334 323.279 54.3592 323.517 54.951 323.991C55.5486 324.46 55.8475 325.195 55.8475 326.197V330.908C55.8475 331.312 55.8914 331.573 55.9793 331.69C56.0672 331.808 56.2254 331.866 56.4539 331.866C56.5008 331.866 56.5564 331.863 56.6209 331.857C56.6912 331.846 56.7732 331.831 56.867 331.813V333.035C56.6736 333.088 56.5037 333.123 56.3572 333.141C56.2166 333.164 56.0818 333.176 55.9529 333.176C55.4256 333.176 55.0301 333.062 54.7664 332.833C54.5027 332.604 54.3709 332.259 54.3709 331.796V331.743ZM54.2215 328.21C53.7996 328.438 53.076 328.617 52.0506 328.746C51.6873 328.793 51.4148 328.831 51.2332 328.86C50.659 328.954 50.2459 329.124 49.9939 329.37C49.742 329.616 49.616 329.974 49.616 330.442C49.616 330.911 49.7625 331.271 50.0555 331.523C50.3484 331.775 50.7674 331.901 51.3123 331.901C52.1619 331.901 52.8592 331.688 53.4041 331.26C53.949 330.832 54.2215 330.284 54.2215 329.616V328.21ZM57.9836 333V320.054H59.592V333H57.9836Z" fill="black"/>
<path d="M122.818 396.976C122.818 398.265 123.115 399.275 123.707 400.004C124.304 400.729 125.129 401.091 126.182 401.091C127.23 401.091 128.048 400.729 128.636 400.004C129.228 399.275 129.524 398.265 129.524 396.976C129.524 395.681 129.228 394.672 128.636 393.947C128.048 393.223 127.23 392.86 126.182 392.86C125.129 392.86 124.304 393.223 123.707 393.947C123.115 394.672 122.818 395.681 122.818 396.976ZM121.403 396.976C121.403 395.312 121.825 394.013 122.668 393.079C123.516 392.14 124.687 391.671 126.182 391.671C127.672 391.671 128.836 392.138 129.675 393.072C130.518 394.007 130.939 395.308 130.939 396.976C130.939 398.639 130.518 399.94 129.675 400.879C128.836 401.813 127.672 402.28 126.182 402.28C124.687 402.28 123.516 401.813 122.668 400.879C121.825 399.94 121.403 398.639 121.403 396.976ZM139.71 398.261H141.036C140.977 399.487 140.558 400.464 139.778 401.193C139.004 401.918 138.001 402.28 136.771 402.28C135.353 402.28 134.241 401.797 133.435 400.831C132.632 399.865 132.231 398.527 132.231 396.818C132.231 395.242 132.653 393.991 133.496 393.065C134.339 392.136 135.476 391.671 136.907 391.671C138.047 391.671 138.979 391.965 139.703 392.553C140.432 393.141 140.854 393.943 140.968 394.959H139.628C139.5 394.294 139.197 393.783 138.719 393.428C138.24 393.068 137.618 392.888 136.853 392.888C135.832 392.888 135.039 393.245 134.474 393.961C133.913 394.676 133.633 395.686 133.633 396.989C133.633 398.22 133.924 399.206 134.508 399.949C135.096 400.692 135.873 401.063 136.839 401.063C137.664 401.063 138.338 400.808 138.862 400.298C139.391 399.783 139.674 399.104 139.71 398.261ZM144.871 402V393.154H141.692V391.931H149.424V393.154H146.245V402H144.871ZM155.843 393.667V395.068H154.489V393.462C154.489 392.974 154.605 392.576 154.838 392.266C155.07 391.956 155.405 391.757 155.843 391.671V392.3C155.633 392.327 155.467 392.437 155.344 392.628C155.221 392.819 155.159 393.068 155.159 393.373V393.667H155.843ZM159.486 402V395.082H157.217V394.091C158.042 394.082 158.659 393.927 159.069 393.626C159.484 393.325 159.73 392.854 159.808 392.211H160.758V402H159.486ZM164.319 395.465C164.319 396.094 164.49 396.597 164.832 396.976C165.178 397.349 165.639 397.536 166.213 397.536C166.846 397.536 167.345 397.352 167.71 396.982C168.075 396.609 168.257 396.098 168.257 395.451C168.257 394.799 168.077 394.282 167.717 393.899C167.357 393.512 166.874 393.318 166.268 393.318C165.68 393.318 165.208 393.514 164.853 393.906C164.497 394.298 164.319 394.818 164.319 395.465ZM163.048 399.594H164.333C164.347 400.077 164.508 400.457 164.818 400.735C165.128 401.009 165.55 401.146 166.083 401.146C166.794 401.146 167.339 400.856 167.717 400.277C168.095 399.694 168.316 398.808 168.38 397.618C168.106 397.969 167.771 398.238 167.375 398.425C166.983 398.607 166.543 398.698 166.056 398.698C165.131 398.698 164.383 398.404 163.813 397.816C163.244 397.224 162.959 396.445 162.959 395.479C162.959 394.503 163.26 393.715 163.861 393.113C164.467 392.512 165.265 392.211 166.254 392.211C167.389 392.211 168.259 392.605 168.865 393.394C169.476 394.182 169.781 395.319 169.781 396.805C169.781 398.564 169.46 399.917 168.817 400.865C168.175 401.809 167.259 402.28 166.069 402.28C165.144 402.28 164.41 402.039 163.868 401.556C163.326 401.068 163.052 400.414 163.048 399.594Z" fill="black"/>
<path d="M237.485 402V391.931H238.982L243.686 399.245C243.79 399.405 243.882 399.555 243.959 399.696C244.036 399.838 244.098 399.97 244.144 400.093V391.931H245.449V402H243.966L239.16 394.583C239.087 394.469 239.019 394.351 238.955 394.228C238.896 394.104 238.839 393.975 238.784 393.838V402H237.485ZM248.58 396.976C248.58 398.265 248.876 399.275 249.469 400.004C250.066 400.729 250.891 401.091 251.943 401.091C252.992 401.091 253.81 400.729 254.397 400.004C254.99 399.275 255.286 398.265 255.286 396.976C255.286 395.681 254.99 394.672 254.397 393.947C253.81 393.223 252.992 392.86 251.943 392.86C250.891 392.86 250.066 393.223 249.469 393.947C248.876 394.672 248.58 395.681 248.58 396.976ZM247.165 396.976C247.165 395.312 247.587 394.013 248.43 393.079C249.277 392.14 250.449 391.671 251.943 391.671C253.434 391.671 254.598 392.138 255.437 393.072C256.28 394.007 256.701 395.308 256.701 396.976C256.701 398.639 256.28 399.94 255.437 400.879C254.598 401.813 253.434 402.28 251.943 402.28C250.449 402.28 249.277 401.813 248.43 400.879C247.587 399.94 247.165 398.639 247.165 396.976ZM260.933 402L257.351 391.931H258.766L261.664 400.359L264.474 391.931H265.902L262.361 402H260.933ZM272.185 393.667V395.068H270.831V393.462C270.831 392.974 270.947 392.576 271.18 392.266C271.412 391.956 271.747 391.757 272.185 391.671V392.3C271.975 392.327 271.809 392.437 271.686 392.628C271.562 392.819 271.501 393.068 271.501 393.373V393.667H272.185ZM275.828 402V395.082H273.559V394.091C274.383 394.082 275.001 393.927 275.411 393.626C275.826 393.325 276.072 392.854 276.149 392.211H277.1V402H275.828ZM280.661 395.465C280.661 396.094 280.832 396.597 281.174 396.976C281.52 397.349 281.98 397.536 282.555 397.536C283.188 397.536 283.687 397.352 284.052 396.982C284.416 396.609 284.599 396.098 284.599 395.451C284.599 394.799 284.419 394.282 284.059 393.899C283.699 393.512 283.215 393.318 282.609 393.318C282.021 393.318 281.55 393.514 281.194 393.906C280.839 394.298 280.661 394.818 280.661 395.465ZM279.39 399.594H280.675C280.688 400.077 280.85 400.457 281.16 400.735C281.47 401.009 281.892 401.146 282.425 401.146C283.136 401.146 283.68 400.856 284.059 400.277C284.437 399.694 284.658 398.808 284.722 397.618C284.448 397.969 284.113 398.238 283.717 398.425C283.325 398.607 282.885 398.698 282.397 398.698C281.472 398.698 280.725 398.404 280.155 397.816C279.586 397.224 279.301 396.445 279.301 395.479C279.301 394.503 279.602 393.715 280.203 393.113C280.809 392.512 281.607 392.211 282.596 392.211C283.73 392.211 284.601 392.605 285.207 393.394C285.818 394.182 286.123 395.319 286.123 396.805C286.123 398.564 285.802 399.917 285.159 400.865C284.517 401.809 283.601 402.28 282.411 402.28C281.486 402.28 280.752 402.039 280.21 401.556C279.668 401.068 279.394 400.414 279.39 399.594Z" fill="black"/>
<path d="M351.546 393.093H349.194V400.77H351.546C352.553 400.77 353.314 400.444 353.829 399.792C354.344 399.136 354.602 398.167 354.602 396.887C354.602 395.661 354.34 394.722 353.815 394.07C353.291 393.419 352.535 393.093 351.546 393.093ZM347.827 402V391.931H351.662C353.066 391.931 354.139 392.35 354.882 393.188C355.629 394.027 356.003 395.237 356.003 396.818C356.003 398.454 355.616 399.728 354.841 400.64C354.071 401.547 352.993 402 351.607 402H347.827ZM357.726 402V391.931H364.903V393.182H359.079V396.189H364.459V397.365H359.079V400.742H365.02V402H357.726ZM373.722 398.261H375.048C374.989 399.487 374.569 400.464 373.79 401.193C373.015 401.918 372.013 402.28 370.782 402.28C369.365 402.28 368.253 401.797 367.446 400.831C366.644 399.865 366.243 398.527 366.243 396.818C366.243 395.242 366.665 393.991 367.508 393.065C368.351 392.136 369.488 391.671 370.919 391.671C372.058 391.671 372.99 391.965 373.715 392.553C374.444 393.141 374.866 393.943 374.979 394.959H373.64C373.512 394.294 373.209 393.783 372.73 393.428C372.252 393.068 371.63 392.888 370.864 392.888C369.843 392.888 369.05 393.245 368.485 393.961C367.925 394.676 367.645 395.686 367.645 396.989C367.645 398.22 367.936 399.206 368.52 399.949C369.107 400.692 369.884 401.063 370.851 401.063C371.675 401.063 372.35 400.808 372.874 400.298C373.403 399.783 373.685 399.104 373.722 398.261ZM381.856 393.667V395.068H380.503V393.462C380.503 392.974 380.619 392.576 380.852 392.266C381.084 391.956 381.419 391.757 381.856 391.671V392.3C381.647 392.327 381.48 392.437 381.357 392.628C381.234 392.819 381.173 393.068 381.173 393.373V393.667H381.856ZM385.5 402V395.082H383.23V394.091C384.055 394.082 384.673 393.927 385.083 393.626C385.498 393.325 385.744 392.854 385.821 392.211H386.771V402H385.5ZM390.333 395.465C390.333 396.094 390.504 396.597 390.846 396.976C391.192 397.349 391.652 397.536 392.227 397.536C392.86 397.536 393.359 397.352 393.724 396.982C394.088 396.609 394.271 396.098 394.271 395.451C394.271 394.799 394.09 394.282 393.73 393.899C393.37 393.512 392.887 393.318 392.281 393.318C391.693 393.318 391.222 393.514 390.866 393.906C390.511 394.298 390.333 394.818 390.333 395.465ZM389.062 399.594H390.347C390.36 400.077 390.522 400.457 390.832 400.735C391.142 401.009 391.563 401.146 392.097 401.146C392.808 401.146 393.352 400.856 393.73 400.277C394.109 399.694 394.33 398.808 394.394 397.618C394.12 397.969 393.785 398.238 393.389 398.425C392.997 398.607 392.557 398.698 392.069 398.698C391.144 398.698 390.397 398.404 389.827 397.816C389.257 397.224 388.973 396.445 388.973 395.479C388.973 394.503 389.273 393.715 389.875 393.113C390.481 392.512 391.279 392.211 392.268 392.211C393.402 392.211 394.273 392.605 394.879 393.394C395.49 394.182 395.795 395.319 395.795 396.805C395.795 398.564 395.474 399.917 394.831 400.865C394.188 401.809 393.272 402.28 392.083 402.28C391.158 402.28 390.424 402.039 389.882 401.556C389.34 401.068 389.066 400.414 389.062 399.594Z" fill="black"/>
<path d="M457.355 398.739H458.668C458.663 398.789 458.659 398.844 458.654 398.903C458.654 398.958 458.654 399.042 458.654 399.156C458.654 399.822 458.78 400.305 459.03 400.605C459.281 400.902 459.684 401.05 460.24 401.05C460.587 401.05 460.874 400.988 461.102 400.865C461.329 400.742 461.509 400.551 461.642 400.291C461.701 400.168 461.742 399.997 461.765 399.778C461.792 399.555 461.806 399.181 461.806 398.657V391.931H463.18V399.211C463.18 400.25 462.943 401.02 462.469 401.521C461.995 402.018 461.261 402.267 460.268 402.267C459.292 402.267 458.561 402.009 458.073 401.494C457.586 400.979 457.342 400.204 457.342 399.17C457.342 399.056 457.342 398.969 457.342 398.91C457.346 398.846 457.351 398.789 457.355 398.739ZM467.028 397.816H470.166L468.607 393.373L467.028 397.816ZM464.116 402L467.855 391.931H469.366L473.119 402H471.636L470.569 398.992H466.604L465.531 402H464.116ZM474.151 402V391.931H475.648L480.352 399.245C480.456 399.405 480.548 399.555 480.625 399.696C480.702 399.838 480.764 399.97 480.81 400.093V391.931H482.115V402H480.632L475.826 394.583C475.753 394.469 475.685 394.351 475.621 394.228C475.562 394.104 475.505 393.975 475.45 393.838V402H474.151ZM489.464 393.667V395.068H488.11V393.462C488.11 392.974 488.227 392.576 488.459 392.266C488.691 391.956 489.026 391.757 489.464 391.671V392.3C489.254 392.327 489.088 392.437 488.965 392.628C488.842 392.819 488.78 393.068 488.78 393.373V393.667H489.464ZM490.975 402V401.918C490.975 400.975 491.202 400.182 491.658 399.539C492.118 398.892 492.918 398.256 494.058 397.632L494.885 397.181C495.377 396.912 495.737 396.609 495.965 396.271C496.197 395.934 496.313 395.542 496.313 395.096C496.313 394.576 496.138 394.159 495.787 393.845C495.436 393.53 494.967 393.373 494.379 393.373C493.782 393.373 493.312 393.574 492.971 393.975C492.633 394.376 492.465 394.927 492.465 395.629V395.745H491.187V395.574C491.187 394.535 491.478 393.715 492.062 393.113C492.645 392.512 493.436 392.211 494.434 392.211C495.4 392.211 496.174 392.478 496.758 393.011C497.346 393.544 497.64 394.243 497.64 395.109C497.64 395.784 497.469 396.372 497.127 396.873C496.785 397.37 496.257 397.805 495.541 398.179L494.714 398.596C493.966 398.988 493.417 399.352 493.066 399.689C492.72 400.022 492.49 400.391 492.376 400.797H497.64V402H490.975ZM500.046 397.256C500.046 398.605 500.208 399.589 500.531 400.209C500.855 400.824 501.365 401.132 502.062 401.132C502.764 401.132 503.275 400.826 503.594 400.216C503.917 399.601 504.079 398.614 504.079 397.256C504.079 395.893 503.917 394.904 503.594 394.289C503.275 393.669 502.764 393.359 502.062 393.359C501.365 393.359 500.855 393.672 500.531 394.296C500.208 394.916 500.046 395.902 500.046 397.256ZM498.706 397.256C498.706 395.606 498.991 394.353 499.561 393.496C500.13 392.639 500.964 392.211 502.062 392.211C503.165 392.211 504.004 392.639 504.578 393.496C505.152 394.348 505.439 395.602 505.439 397.256C505.439 398.901 505.152 400.15 504.578 401.002C504.008 401.854 503.17 402.28 502.062 402.28C500.964 402.28 500.13 401.854 499.561 401.002C498.991 400.15 498.706 398.901 498.706 397.256Z" fill="black"/>
<path d="M72 286V190" stroke="#E2F15B" stroke-width="2"/>
<path d="M72 190V94" stroke="#F67171" stroke-width="2"/>
<path d="M72 371V285" stroke="#84E7CA" stroke-width="2"/>
<path d="M546.703 296.211H548.211C548.227 297.044 548.503 297.708 549.039 298.203C549.581 298.698 550.302 298.945 551.203 298.945C552.094 298.945 552.794 298.758 553.305 298.383C553.82 298.008 554.078 297.497 554.078 296.852C554.078 295.971 553.115 295.302 551.188 294.844C551.073 294.818 550.984 294.797 550.922 294.781C549.359 294.411 548.326 294 547.82 293.547C547.32 293.089 547.07 292.44 547.07 291.602C547.07 290.576 547.445 289.753 548.195 289.133C548.945 288.508 549.943 288.195 551.188 288.195C552.458 288.195 553.458 288.523 554.188 289.18C554.917 289.831 555.286 290.727 555.297 291.867L553.805 291.875C553.753 291.104 553.49 290.513 553.016 290.102C552.547 289.69 551.904 289.484 551.086 289.484C550.32 289.484 549.708 289.654 549.25 289.992C548.792 290.326 548.562 290.771 548.562 291.328C548.562 292.219 549.51 292.883 551.406 293.32C551.688 293.388 551.904 293.44 552.055 293.477C552.086 293.482 552.141 293.495 552.219 293.516C553.458 293.812 554.281 294.133 554.688 294.477C554.995 294.737 555.229 295.055 555.391 295.43C555.552 295.799 555.633 296.214 555.633 296.672C555.633 297.781 555.234 298.664 554.438 299.32C553.646 299.977 552.573 300.305 551.219 300.305C549.823 300.305 548.734 299.953 547.953 299.25C547.177 298.542 546.76 297.529 546.703 296.211ZM556.716 295.633V288.492H558.278V295.648C558.278 296.727 558.515 297.523 558.989 298.039C559.468 298.555 560.208 298.812 561.208 298.812C562.197 298.812 562.934 298.552 563.419 298.031C563.908 297.505 564.153 296.711 564.153 295.648V288.492H565.723V295.633C565.723 297.174 565.325 298.341 564.528 299.133C563.736 299.924 562.57 300.32 561.028 300.32C559.591 300.32 558.512 299.93 557.794 299.148C557.075 298.367 556.716 297.195 556.716 295.633ZM575.931 298.461C575.462 299.081 574.905 299.547 574.259 299.859C573.614 300.167 572.879 300.32 572.056 300.32C570.499 300.32 569.236 299.766 568.267 298.656C567.304 297.542 566.822 296.081 566.822 294.273C566.822 292.393 567.322 290.911 568.322 289.828C569.322 288.74 570.679 288.195 572.392 288.195C573.705 288.195 574.775 288.529 575.603 289.195C576.431 289.857 576.929 290.781 577.095 291.969H575.572C575.431 291.193 575.082 290.594 574.525 290.172C573.973 289.75 573.262 289.539 572.392 289.539C571.137 289.539 570.163 289.948 569.47 290.766C568.783 291.578 568.439 292.727 568.439 294.211C568.439 295.68 568.78 296.828 569.462 297.656C570.145 298.484 571.085 298.898 572.283 298.898C573.366 298.898 574.231 298.568 574.877 297.906C575.522 297.245 575.845 296.354 575.845 295.234V295.086H572.244V293.789H577.291V300H576.267L575.931 298.461ZM580.803 295.219H584.389L582.608 290.141L580.803 295.219ZM577.475 300L581.748 288.492H583.475L587.764 300H586.069L584.85 296.562H580.319L579.092 300H577.475ZM589.691 289.844V293.742H592.362C593.326 293.742 594.006 293.586 594.402 293.273C594.803 292.961 595.003 292.44 595.003 291.711C595.003 291.029 594.816 290.547 594.441 290.266C594.066 289.984 593.373 289.844 592.362 289.844H589.691ZM588.159 288.492H592.62C593.344 288.492 593.876 288.523 594.214 288.586C594.558 288.648 594.865 288.753 595.136 288.898C595.62 289.164 595.987 289.534 596.237 290.008C596.493 290.482 596.62 291.039 596.62 291.68C596.62 292.299 596.487 292.831 596.222 293.273C595.956 293.711 595.56 294.055 595.034 294.305C595.482 294.43 595.8 294.641 595.987 294.938C596.18 295.234 596.3 295.737 596.347 296.445L596.48 298.344C596.506 298.75 596.558 299.055 596.636 299.258C596.719 299.456 596.842 299.596 597.003 299.68V300H595.198C595.053 299.76 594.951 299.247 594.894 298.461C594.894 298.44 594.894 298.424 594.894 298.414L594.8 296.914C594.748 296.143 594.584 295.643 594.308 295.414C594.032 295.185 593.342 295.07 592.237 295.07H589.706V300H588.159V288.492ZM555.281 312.727H556.797C556.729 314.128 556.25 315.245 555.359 316.078C554.474 316.906 553.328 317.32 551.922 317.32C550.302 317.32 549.031 316.768 548.109 315.664C547.193 314.56 546.734 313.031 546.734 311.078C546.734 309.276 547.216 307.846 548.18 306.789C549.143 305.727 550.443 305.195 552.078 305.195C553.38 305.195 554.445 305.531 555.273 306.203C556.107 306.875 556.589 307.792 556.719 308.953H555.188C555.042 308.193 554.695 307.609 554.148 307.203C553.602 306.792 552.891 306.586 552.016 306.586C550.849 306.586 549.943 306.995 549.297 307.812C548.656 308.63 548.336 309.784 548.336 311.273C548.336 312.68 548.669 313.807 549.336 314.656C550.008 315.505 550.896 315.93 552 315.93C552.943 315.93 553.714 315.638 554.312 315.055C554.917 314.466 555.24 313.69 555.281 312.727ZM559.372 306.844V310.742H562.044C563.007 310.742 563.687 310.586 564.083 310.273C564.484 309.961 564.684 309.44 564.684 308.711C564.684 308.029 564.497 307.547 564.122 307.266C563.747 306.984 563.054 306.844 562.044 306.844H559.372ZM557.841 305.492H562.302C563.026 305.492 563.557 305.523 563.895 305.586C564.239 305.648 564.546 305.753 564.817 305.898C565.302 306.164 565.669 306.534 565.919 307.008C566.174 307.482 566.302 308.039 566.302 308.68C566.302 309.299 566.169 309.831 565.903 310.273C565.637 310.711 565.242 311.055 564.716 311.305C565.164 311.43 565.481 311.641 565.669 311.938C565.861 312.234 565.981 312.737 566.028 313.445L566.161 315.344C566.187 315.75 566.239 316.055 566.317 316.258C566.401 316.456 566.523 316.596 566.684 316.68V317H564.88C564.734 316.76 564.632 316.247 564.575 315.461C564.575 315.44 564.575 315.424 564.575 315.414L564.481 313.914C564.429 313.143 564.265 312.643 563.989 312.414C563.713 312.185 563.023 312.07 561.919 312.07H559.387V317H557.841V305.492ZM569.712 312.219H573.298L571.517 307.141L569.712 312.219ZM566.384 317L570.658 305.492H572.384L576.673 317H574.978L573.759 313.562H569.228L568.002 317H566.384ZM579.928 317L575.834 305.492H577.452L580.764 315.125L583.975 305.492H585.608L581.561 317H579.928ZM586.081 317V305.492H587.644V317H586.081ZM589.344 317V305.492H591.055L596.43 313.852C596.549 314.034 596.654 314.206 596.742 314.367C596.831 314.529 596.901 314.68 596.953 314.82V305.492H598.445V317H596.75L591.258 308.523C591.174 308.393 591.096 308.258 591.023 308.117C590.956 307.977 590.891 307.828 590.828 307.672V317H589.344ZM608.716 315.461C608.247 316.081 607.69 316.547 607.044 316.859C606.398 317.167 605.664 317.32 604.841 317.32C603.283 317.32 602.02 316.766 601.052 315.656C600.088 314.542 599.606 313.081 599.606 311.273C599.606 309.393 600.106 307.911 601.106 306.828C602.106 305.74 603.463 305.195 605.177 305.195C606.489 305.195 607.559 305.529 608.388 306.195C609.216 306.857 609.713 307.781 609.88 308.969H608.356C608.216 308.193 607.867 307.594 607.309 307.172C606.757 306.75 606.046 306.539 605.177 306.539C603.921 306.539 602.947 306.948 602.255 307.766C601.567 308.578 601.223 309.727 601.223 311.211C601.223 312.68 601.565 313.828 602.247 314.656C602.929 315.484 603.869 315.898 605.067 315.898C606.151 315.898 607.015 315.568 607.661 314.906C608.307 314.245 608.63 313.354 608.63 312.234V312.086H605.028V310.789H610.075V317H609.052L608.716 315.461Z" fill="black"/>
<path d="M548.281 271.219H551.867L550.086 266.141L548.281 271.219ZM544.953 276L549.227 264.492H550.953L555.242 276H553.547L552.328 272.562H547.797L546.57 276H544.953ZM555.622 276V264.492H557.333L562.708 272.852C562.828 273.034 562.932 273.206 563.02 273.367C563.109 273.529 563.179 273.68 563.231 273.82V264.492H564.723V276H563.028L557.536 267.523C557.453 267.393 557.374 267.258 557.302 267.117C557.234 266.977 557.169 266.828 557.106 266.672V276H555.622ZM565.15 276L569.103 270.109L565.361 264.492H567.275L570.017 268.75L572.798 264.492H574.619L570.877 270.078L574.83 276H572.908L569.947 271.344L567.056 276H565.15ZM575.303 276V264.492H576.866V276H575.303ZM578.581 276V264.492H586.784V265.922H580.128V269.359H586.277V270.703H580.128V274.562H586.917V276H578.581ZM590.555 276V265.891H586.922V264.492H595.758V265.891H592.125V276H590.555ZM600.817 276H599.247V271.391L594.981 264.492H596.942L600.02 269.938L603.075 264.492H604.911L600.817 271.281V276Z" fill="black"/>
<path d="M547.234 348V336.492H554.961V337.938H548.797V341.391H554.18V342.797H548.797V348H547.234ZM557.809 343.219H561.395L559.614 338.141L557.809 343.219ZM554.481 348L558.755 336.492H560.481L564.77 348H563.075L561.856 344.562H557.325L556.098 348H554.481ZM567.705 348V337.891H564.072V336.492H572.908V337.891H569.275V348H567.705ZM573.538 348V336.492H575.1V348H573.538ZM585.425 346.461C584.956 347.081 584.399 347.547 583.753 347.859C583.107 348.167 582.373 348.32 581.55 348.32C579.993 348.32 578.73 347.766 577.761 346.656C576.797 345.542 576.316 344.081 576.316 342.273C576.316 340.393 576.816 338.911 577.816 337.828C578.816 336.74 580.172 336.195 581.886 336.195C583.198 336.195 584.269 336.529 585.097 337.195C585.925 337.857 586.422 338.781 586.589 339.969H585.066C584.925 339.193 584.576 338.594 584.019 338.172C583.467 337.75 582.756 337.539 581.886 337.539C580.631 337.539 579.657 337.948 578.964 338.766C578.277 339.578 577.933 340.727 577.933 342.211C577.933 343.68 578.274 344.828 578.956 345.656C579.639 346.484 580.579 346.898 581.777 346.898C582.86 346.898 583.724 346.568 584.37 345.906C585.016 345.245 585.339 344.354 585.339 343.234V343.086H581.737V341.789H586.784V348H585.761L585.425 346.461ZM588.188 343.633V336.492H589.75V343.648C589.75 344.727 589.987 345.523 590.461 346.039C590.94 346.555 591.68 346.812 592.68 346.812C593.669 346.812 594.406 346.552 594.891 346.031C595.38 345.505 595.625 344.711 595.625 343.648V336.492H597.195V343.633C597.195 345.174 596.797 346.341 596 347.133C595.208 347.924 594.042 348.32 592.5 348.32C591.062 348.32 589.984 347.93 589.266 347.148C588.547 346.367 588.188 345.195 588.188 343.633ZM598.794 348V336.492H606.997V337.922H600.341V341.359H606.489V342.703H600.341V346.562H607.13V348H598.794Z" fill="black"/>
<path d="M527 340L471.054 311.44H416.737L352.644 286.96L270.083 221.68H190.237L74 187" stroke="#2D2C2C"/>
<path d="M527 275L463.136 261.688H406.308L275.333 237.112L196.857 193.08L148.147 204.344L74 147" stroke="#373737"/>
<path d="M527 293L440.453 232.15L369.244 221.164L255.857 176.372H172.597L74 102" stroke="#C5C5C5" stroke-width="2"/>
</svg>
