<?xml version="1.0" encoding="UTF-8"?>
<svg width="70px" height="70px" viewBox="0 0 70 70" version="1.1" xmlns="http://www.w3.org/2000/svg" xmlns:xlink="http://www.w3.org/1999/xlink">
    <!-- Generator: Sketch 55.2 (78181) - https://sketchapp.com -->
    <title>HIW-icons_home</title>
    <desc>Created with Sketch.</desc>
    <defs>
        <polygon id="path-1" points="0.939 0.4434 16.836 0.4434 16.836 7 0.939 7"></polygon>
        <polygon id="path-3" points="0 70 70 70 70 0 0 0"></polygon>
    </defs>
    <g id="Page-1" stroke="none" stroke-width="1" fill="none" fill-rule="evenodd">
        <g id="Crystal_homepage_hovers" transform="translate(-685.000000, -3668.000000)">
            <g id="Try-it-out" transform="translate(152.000000, 3543.000000)">
                <g id="Text" transform="translate(390.000000, 125.000000)">
                    <g id="HIW-icons_home" transform="translate(143.000000, 0.000000)">
                        <path d="M59.2344,28.7183 L57.6824,27.1393 C55.9244,25.4853 55.2144,22.8023 55.9234,20.4943 C56.3144,19.2213 57.1054,17.9993 56.9574,16.6753 C56.8114,15.3883 55.8144,14.3833 54.8554,13.5113 C52.5024,11.3713 49.8984,9.1633 49.0894,6.0863 C48.8174,5.0503 48.7984,3.9663 48.9934,2.9173 C44.7074,1.0453 39.9764,0.0003 35.0004,0.0003 C15.6704,0.0003 0.0004,15.6703 0.0004,35.0003 C0.0004,51.9113 11.9944,66.0213 27.9394,69.2873 L35.0004,63.4433 L43.8364,63.4433 L35.9444,69.9763 C54.8364,69.4743 70.0004,54.0133 70.0004,35.0003 C70.0004,29.9893 68.9394,25.2273 67.0424,20.9173 C66.0504,21.1873 65.0194,21.3533 64.0584,21.7173 C61.2384,22.7843 59.2284,25.7033 59.2344,28.7183" id="Fill-1" fill-opacity="0.2" fill="#A4B2B1"></path>
                        <path d="M48.9932,2.9175 C48.7992,3.9665 48.8172,5.0505 49.0902,6.0855 C49.8982,9.1635 52.5022,11.3715 54.8552,13.5115 C55.8142,14.3835 56.8112,15.3885 56.9572,16.6755 C57.1052,17.9995 56.3142,19.2215 55.9242,20.4945 C55.2152,22.8025 55.9252,25.4845 57.6822,27.1395 L59.2342,28.7185 C59.2282,25.7035 61.2382,22.7845 64.0582,21.7175 C65.0192,21.3535 66.0512,21.1875 67.0422,20.9175 C63.5062,12.8825 57.0402,6.4325 48.9932,2.9175" id="Fill-4" fill="#FFFFFF"></path>
                        <g id="Group-8" transform="translate(27.000000, 63.000000)">
                            <mask id="mask-2" fill="white">
                                <use xlink:href="#path-1"></use>
                            </mask>
                            <g id="Clip-7"></g>
                            <path d="M8,0.4434 L0.939,6.2874 C3.221,6.7544 5.582,7.0004 8,7.0004 C8.316,7.0004 8.63,6.9844 8.944,6.9764 L16.836,0.4434 L8,0.4434 Z" id="Fill-6" fill="#FFFFFF" mask="url(#mask-2)"></path>
                        </g>
                        <polygon id="Fill-9" fill="#A4B2B1" points="61.5039 34.4282 44.5869 19.0952 27.6689 34.4282 27.6689 63.4432 34.9999 63.4432 34.9999 46.0242 43.8359 46.0242 43.8359 63.4432 61.5039 63.4432"></polygon>
                        <mask id="mask-4" fill="white">
                            <use xlink:href="#path-3"></use>
                        </mask>
                        <g id="Clip-12"></g>
                        <polygon id="Fill-11" fill="#FFFFFF" mask="url(#mask-4)" points="51.038 50.159 59.457 50.159 59.457 38.842 51.038 38.842"></polygon>
                        <polygon id="Fill-13" fill="#A4B2B1" mask="url(#mask-4)" points="55.247 34.755 61.504 34.755 61.504 25.394 55.247 25.394"></polygon>
                        <path d="M50.038,51.16 L60.457,51.16 L60.457,37.842 L50.038,37.842 L50.038,51.16 Z M49.038,52.159 L61.457,52.159 L61.457,36.842 L49.038,36.842 L49.038,52.159 Z" id="Fill-14" fill="#A4B2B1" mask="url(#mask-4)"></path>
                        <path d="M51.038,50.159 L59.457,50.159 L59.457,38.842 L51.038,38.842 L51.038,50.159 Z M50.038,51.16 L60.457,51.16 L60.457,37.842 L50.038,37.842 L50.038,51.16 Z" id="Fill-15" fill="#A4B2B1" mask="url(#mask-4)"></path>
                        <polygon id="Fill-16" fill="#FFFFFF" mask="url(#mask-4)" points="35 63.443 43.836 63.443 43.836 46.024 35 46.024"></polygon>
                        <polygon id="Fill-17" fill="#A4B2B1" mask="url(#mask-4)" points="22.937 63.443 24.937 63.443 24.937 38.168 22.937 38.168"></polygon>
                        <path d="M18.4346,44.124 C15.0696,44.124 12.2886,41.573 11.9246,38.303 C9.1566,37.5 7.2216,34.977 7.2216,32.023 C7.2216,28.43 10.1296,25.503 13.7156,25.473 C15.1356,21.81 18.7186,19.314 22.6946,19.314 C25.7796,19.314 28.6236,20.768 30.4386,23.235 C30.8476,23.161 31.2596,23.124 31.6676,23.124 C35.5686,23.124 38.7426,26.298 38.7426,30.198 L36.7426,30.198 C36.7426,27.4 34.4656,25.124 31.6676,25.124 C31.2066,25.124 30.7376,25.191 30.2726,25.324 L29.5496,25.531 L29.1506,24.895 C27.7416,22.653 25.3286,21.314 22.6946,21.314 C19.3316,21.314 16.3236,23.568 15.3776,26.795 L15.1396,27.607 L14.2986,27.507 C14.1256,27.486 13.9516,27.473 13.7726,27.473 C11.2626,27.473 9.2216,29.514 9.2216,32.023 C9.2216,34.268 10.8306,36.153 13.0466,36.509 L13.9206,36.648 L13.8876,37.533 C13.8846,40.083 15.9256,42.124 18.4346,42.124 C20.9446,42.124 22.9856,40.083 22.9856,37.573 L24.9856,37.573 C24.9856,41.186 22.0466,44.124 18.4346,44.124" id="Fill-18" fill="#A4B2B1" mask="url(#mask-4)"></path>
                        <polygon id="Fill-19" fill="#A4B2B1" mask="url(#mask-4)" points="33.486 63.443 45.029 63.443 45.029 61.443 33.486 61.443"></polygon>
                        <polygon id="Fill-20" fill="#A4B2B1" mask="url(#mask-4)" points="48.362 48.024 59.906 48.024 59.906 46.024 48.362 46.024"></polygon>
                    </g>
                </g>
            </g>
        </g>
    </g>
</svg>