<?xml version="1.0" encoding="UTF-8"?>
<svg width="87px" height="70px" viewBox="0 0 87 70" version="1.1" xmlns="http://www.w3.org/2000/svg" xmlns:xlink="http://www.w3.org/1999/xlink">
    <!-- Generator: Sketch 55.2 (78181) - https://sketchapp.com -->
    <title>HIW-icons_mobile</title>
    <desc>Created with Sketch.</desc>
    <defs>
        <polygon id="path-1" points="0 70 86.816 70 86.816 0 0 0"></polygon>
    </defs>
    <g id="Page-1" stroke="none" stroke-width="1" fill="none" fill-rule="evenodd">
        <g id="Crystal_homepage_hovers" transform="translate(-293.000000, -3667.000000)">
            <g id="Try-it-out" transform="translate(152.000000, 3543.000000)">
                <g id="Text" transform="translate(0.000000, 124.000000)">
                    <g id="HIW-icons_mobile" transform="translate(141.000000, 0.000000)">
                        <path d="M70.0003,34.9996 C70.0003,15.6706 54.3303,-0.0004 35.0003,-0.0004 C15.6703,-0.0004 0.0003,15.6706 0.0003,34.9996 C0.0003,54.3296 15.6703,69.9996 35.0003,69.9996 C54.3303,69.9996 70.0003,54.3296 70.0003,34.9996" id="Fill-1" fill-opacity="0.2" fill="#A5B3B2"></path>
                        <path d="M21.2083,38.6382 C22.4733,38.6322 26.5003,38.6232 27.9273,38.6162 L27.8553,23.9812 L16.5123,24.0262 C15.1023,24.0332 13.7933,24.7612 13.0453,25.9562 L6.8153,35.9012 L6.8653,46.0192 L13.9353,45.9842 C13.9143,41.9472 17.1713,38.6582 21.2083,38.6382" id="Fill-4" fill="#A5B3B2"></path>
                        <path d="M61.387,45.9654 C61.387,43.1004 59.065,40.7784 56.2,40.7784 C53.335,40.7784 51.013,43.1004 51.013,45.9654 C51.013,48.8294 53.335,51.1524 56.2,51.1524 C59.065,51.1524 61.387,48.8294 61.387,45.9654" id="Fill-6" fill="#A5B3B2"></path>
                        <path d="M26.635,45.9654 C26.635,43.1004 24.313,40.7784 21.448,40.7784 C18.583,40.7784 16.261,43.1004 16.261,45.9654 C16.261,48.8294 18.583,51.1524 21.448,51.1524 C24.313,51.1524 26.635,48.8294 26.635,45.9654" id="Fill-8" fill="#A5B3B2"></path>
                        <path d="M56.1165,14.5269 L30.0835,14.5269 L30.0835,45.9649 L48.8245,45.9649 C48.8245,41.8889 52.1285,38.5859 56.2045,38.5859 C60.2805,38.5859 63.5845,41.8889 63.5845,45.9649 L73.2885,45.9649 L73.2885,14.5269 L56.1165,14.5269 Z" id="Fill-10" fill="#A5B3B2"></path>
                        <mask id="mask-2" fill="white">
                            <use xlink:href="#path-1"></use>
                        </mask>
                        <g id="Clip-13"></g>
                        <polygon id="Fill-12" fill="#FFFFFF" mask="url(#mask-2)" points="33.372 35.183 70 35.183 70 17.815 33.372 17.815"></polygon>
                        <polygon id="Fill-14" fill="#A5B3B2" mask="url(#mask-2)" points="54.778 27.499 82.432 27.499 82.432 25.499 54.778 25.499"></polygon>
                        <polygon id="Fill-15" fill="#A5B3B2" mask="url(#mask-2)" points="61.355 23.128 86.816 23.128 86.816 21.128 61.355 21.128"></polygon>
                        <polygon id="Fill-16" fill="#A5B3B2" mask="url(#mask-2)" points="61.355 31.871 86.816 31.871 86.816 29.871 61.355 29.871"></polygon>
                    </g>
                </g>
            </g>
        </g>
    </g>
</svg>