<?xml version="1.0" encoding="UTF-8"?>
<svg width="72px" height="70px" viewBox="0 0 72 70" version="1.1" xmlns="http://www.w3.org/2000/svg" xmlns:xlink="http://www.w3.org/1999/xlink">
    <!-- Generator: Sketch 55.2 (78181) - https://sketchapp.com -->
    <title>HIW-icons_kit</title>
    <desc>Created with Sketch.</desc>
    <g id="Page-1" stroke="none" stroke-width="1" fill="none" fill-rule="evenodd">
        <g id="Crystal_homepage_hovers" transform="translate(-1078.000000, -3667.000000)">
            <g id="Try-it-out" transform="translate(152.000000, 3543.000000)">
                <g id="Text" transform="translate(780.000000, 124.000000)">
                    <g id="HIW-icons_kit" transform="translate(146.000000, 0.000000)">
                        <path d="M69.9999,35.0001 C69.9999,15.6701 54.3299,0.0001 34.9999,0.0001 C15.6699,0.0001 -0.0001,15.6701 -0.0001,35.0001 C-0.0001,54.3301 15.6699,70.0001 34.9999,70.0001 C54.3299,70.0001 69.9999,54.3301 69.9999,35.0001" id="Fill-1" fill-opacity="0.2" fill="#A4B2B1"></path>
                        <polygon id="Fill-4" fill="#A4B2B1" points="15.258 54.8 54.742 54.8 54.742 38.79 15.258 38.79"></polygon>
                        <path d="M16.259,53.799 L53.742,53.799 L53.742,39.789 L16.259,39.789 L16.259,53.799 Z M14.259,55.799 L55.742,55.799 L55.742,37.789 L14.259,37.789 L14.259,55.799 Z" id="Fill-5" fill="#A4B2B1"></path>
                        <polygon id="Fill-6" fill="#A4B2B1" points="49.1229 29.2096 20.8889 29.2096 15.2579 13.1996 54.7419 13.1996"></polygon>
                        <path d="M21.5966,28.2096 L48.4136,28.2096 L53.3306,14.1986 L16.6706,14.1986 L21.5966,28.2096 Z M49.8316,30.2096 L20.1806,30.2096 L13.8466,12.1986 L56.1536,12.1986 L49.8316,30.2096 Z" id="Fill-7" fill="#A4B2B1"></path>
                        <polygon id="Fill-8" fill="#A4B2B1" points="54.035 38.9166 48.57 30.2096 21.441 30.2096 15.976 38.9166 14.259 37.7896 20.336 28.2096 49.676 28.2096 55.742 37.7896"></polygon>
                        <polygon id="Fill-9" fill="#FFFFFF" points="27.6972 49.9303 14.2542 49.9303 14.2542 43.6593 27.6972 43.6593 26.4622 45.5553 27.5592 46.8263 26.4622 48.0343"></polygon>
                        <polygon id="Fill-10" fill="#FFFFFF" points="42.5975 43.6588 55.7425 43.6588 55.7425 49.9298 42.5975 49.9298 43.8325 48.0348 42.7355 46.7628 43.8325 45.5548"></polygon>
                        <polygon id="Fill-11" fill="#FFFFFF" points="15.9765 38.9166 21.4415 30.2096 48.5705 30.2096 54.0355 38.9166"></polygon>
                        <polygon id="Fill-12" fill="#A4B2B1" points="5.702 18.6886 7.113 21.2696 9.694 22.6816 7.113 24.0926 5.702 26.6736 4.29 24.0926 1.709 22.6816 4.29 21.2696"></polygon>
                        <polygon id="Fill-13" fill="#A4B2B1" points="66.2994 35.3284 63.7184 36.7394 66.2994 38.1514 67.7104 40.7324 69.1224 38.1514 71.7034 36.7394 69.1224 35.3284 67.7104 32.7474"></polygon>
                        <polygon id="Fill-14" fill="#A4B2B1" points="14.256 52.566 16.256 52.566 16.256 41.023 14.256 41.023"></polygon>
                        <polygon id="Fill-15" fill="#A4B2B1" points="53.742 52.566 55.742 52.566 55.742 41.023 53.742 41.023"></polygon>
                    </g>
                </g>
            </g>
        </g>
    </g>
</svg>