<svg width="28" height="23" viewBox="0 0 28 23" fill="none" xmlns="http://www.w3.org/2000/svg">
<path d="M27.5514 2.67536C26.9304 2.94492 26.2821 3.16056 25.6201 3.31556C26.3503 2.62819 26.8963 1.77234 27.2102 0.815412C27.2989 0.539115 26.9987 0.303252 26.7462 0.451509C25.8249 0.990624 24.8353 1.39496 23.798 1.65778C23.7366 1.67126 23.6751 1.678 23.6137 1.678C23.4226 1.678 23.2384 1.61061 23.0951 1.48257C21.9963 0.525637 20.5768 0 19.1027 0C18.4681 0 17.8197 0.101084 17.1919 0.289774C15.2401 0.88954 13.725 2.48667 13.2542 4.4477C13.0767 5.18224 13.029 5.92353 13.1108 6.64459C13.1177 6.72546 13.0835 6.78611 13.0562 6.81307C13.0153 6.86024 12.9539 6.8872 12.8925 6.8872C12.8856 6.8872 12.8788 6.8872 12.872 6.8872C8.58621 6.49634 4.72356 4.45444 1.99376 1.14562C1.85727 0.977146 1.58429 0.997363 1.4751 1.18605C0.942794 2.08907 0.656165 3.12687 0.656165 4.18488C0.656165 5.80223 1.31132 7.32523 2.45783 8.43041C1.98011 8.31585 1.51605 8.14064 1.07928 7.90478C0.867724 7.79021 0.615219 7.93847 0.608394 8.17433C0.581096 10.5734 2.00059 12.7096 4.12983 13.6733C4.08888 13.6733 4.04111 13.6733 4.00016 13.6733C3.65894 13.6733 3.31771 13.6396 2.98331 13.579C2.75128 13.5318 2.55337 13.7542 2.62162 13.9833C3.31089 16.1195 5.17397 17.6897 7.39875 18.0469C5.54932 19.2734 3.39961 19.9203 1.16118 19.9203H0.46508C0.246697 19.9203 0.06926 20.0618 0.0146642 20.264C-0.0399317 20.4662 0.0624355 20.6818 0.246697 20.7829C2.77175 22.2318 5.64486 23 8.57256 23C11.1317 23 13.5203 22.5013 15.6837 21.5107C17.6628 20.6077 19.4167 19.3071 20.8908 17.6628C22.2625 16.1263 23.3339 14.3539 24.0778 12.3929C24.7875 10.5262 25.1629 8.5315 25.1629 6.62438V6.53677C25.1629 6.23352 25.3062 5.94375 25.545 5.74832C26.4732 5.00703 27.2785 4.13097 27.9473 3.14708C28.1179 2.87079 27.8449 2.54732 27.5514 2.67536Z" fill="white"/>
</svg>
