<svg width="40" height="40" viewBox="0 0 40 40" fill="none" xmlns="http://www.w3.org/2000/svg">
<path d="M15.1836 28C15.168 27.9141 15.1562 27.8242 15.1484 27.7305C15.1484 27.6367 15.1484 27.4961 15.1484 27.3086C15.1484 26.1289 15.4062 25.0195 15.9219 23.9805C16.4375 22.9414 17.2305 21.9453 18.3008 20.9922C18.5039 20.8125 18.7969 20.5508 19.1797 20.207C20.3984 19.1289 21.207 18.3594 21.6055 17.8984C21.9336 17.5156 22.1719 17.0781 22.3203 16.5859C22.4688 16.0938 22.543 15.5078 22.543 14.8281C22.543 13.7891 22.3125 12.9922 21.8516 12.4375C21.3906 11.8828 20.7344 11.6055 19.8828 11.6055C19.0078 11.6055 18.3516 11.9141 17.9141 12.5312C17.4844 13.1484 17.2695 14.082 17.2695 15.332C17.2695 15.332 17.2734 15.3984 17.2812 15.5312C17.2891 15.6641 17.293 15.7969 17.293 15.9297H15.3477C15.3477 15.8594 15.3438 15.7539 15.3359 15.6133C15.3281 15.4648 15.3242 15.3555 15.3242 15.2852C15.3242 13.5352 15.7266 12.1875 16.5312 11.2422C17.3438 10.2891 18.4922 9.8125 19.9766 9.8125C21.4375 9.8125 22.5781 10.2461 23.3984 11.1133C24.2188 11.9727 24.6289 13.1758 24.6289 14.7227C24.6289 15.5117 24.5469 16.207 24.3828 16.8086C24.2266 17.4023 23.9727 17.957 23.6211 18.4727C23.2695 19.0195 22.4844 19.7852 21.2656 20.7695C20.9609 21.0117 20.7305 21.1992 20.5742 21.332C19.3477 22.3477 18.4805 23.2227 17.9727 23.957C17.4727 24.6914 17.2148 25.4219 17.1992 26.1484H24.7812V28H15.1836Z" fill="white"/>
<rect x="0.5" y="0.5" width="39" height="39" stroke="white"/>
</svg>
