<svg width="128" height="34" viewBox="0 0 128 34" fill="none" xmlns="http://www.w3.org/2000/svg">
<path fill-rule="evenodd" clip-rule="evenodd" d="M27.1187 1.98729V1.64746H21.0697V1.98729H23.8563L16.7878 24.8921L8.42787 1.98729H11.2145V1.64746H0V1.98729H2.92257L14.5449 33.6598L24.468 1.98729H27.1187Z" fill="white"/>
<path fill-rule="evenodd" clip-rule="evenodd" d="M69.4619 20.2705H72.3165V28.6984V28.7663C72.3165 29.3101 72.3165 29.8538 71.9767 30.3975C70.8213 32.3006 68.5104 33.3881 66.2675 33.3881C63.4809 33.3881 62.0536 32.0967 61.0341 29.446C59.5388 25.6399 59.2669 21.4939 59.2669 17.4839C59.2669 12.9981 59.8786 1.17186 66.4714 1.17186C69.326 1.17186 71.5689 3.68663 72.9282 5.92953C74.0837 7.8326 74.7633 9.93956 75.2391 12.1145H75.511V1.1039H75.2391C74.4915 1.64763 73.5399 2.3273 72.5884 2.3273C71.7728 2.3273 70.9572 2.05543 70.2096 1.78356L69.5299 1.5117C68.6463 1.17186 67.6948 0.832031 66.6753 0.832031C64.2285 0.832031 61.8497 1.9195 59.9466 3.41476C55.6647 6.74513 53.6257 12.3864 53.6257 17.6878C53.6257 24.8922 57.9756 33.6599 66.1316 33.6599C67.8987 33.6599 69.4619 33.1162 71.0931 32.4365L71.8408 32.0287C72.6564 31.6209 73.5399 31.2811 74.4235 31.2811C75.6469 31.2811 76.6664 31.9608 77.2781 32.9803H77.482V20.2705H79.9288V19.9307H69.394V20.2705H69.4619Z" fill="white"/>
<path fill-rule="evenodd" clip-rule="evenodd" d="M126.894 21.0859C126.826 22.2414 126.758 23.3968 126.554 24.5522C126.214 26.5912 125.195 28.4943 123.699 29.9216C122 31.6208 119.553 32.7082 117.107 32.7082H112.417V17.1439C112.961 17.0759 113.504 17.0759 114.116 17.0759C117.718 17.0759 119.078 20.3383 119.553 23.3968H119.825V10.6191H119.553C119.349 13.9494 118.33 16.6681 114.388 16.6681C113.708 16.6681 113.097 16.6001 112.417 16.5322V1.98729H115.543C118.466 1.98729 121.321 2.19119 123.36 4.57003C125.399 6.88089 126.01 10.0074 126.35 12.9979H126.554V1.64746H97.5322V1.98729H101.066V26.1834C101.066 29.9896 97.94 32.5723 94.2698 32.5723C90.8035 32.5723 86.8614 30.2614 86.8614 26.4553V1.98729H89.852V1.64746H78.6375V1.98729H81.696V25.2999C81.696 31.077 87.2692 33.5238 92.2988 33.5238C96.7846 33.5238 101.542 31.2809 101.542 26.2514V1.98729H107.115V32.7082H104.465V33.0481H127.166V21.0859H126.894Z" fill="white"/>
<path fill-rule="evenodd" clip-rule="evenodd" d="M37.5176 0.967773C33.5076 0.967773 29.9053 3.21067 27.5265 6.33714C25.0797 9.53157 23.9243 13.4736 23.9243 17.4837C23.9243 21.6296 25.2156 25.7756 27.7984 29.038C30.1092 31.8926 33.6435 33.9996 37.3817 33.9996C41.3237 33.9996 44.9259 31.7567 47.3048 28.6302C49.7516 25.4358 50.907 21.4937 50.907 17.4837C50.907 13.3377 49.6156 9.12377 46.9649 5.92934C44.722 3.07474 41.1878 0.967773 37.5176 0.967773ZM37.3817 33.4558C31.1967 33.4558 29.5655 22.0374 29.5655 17.4157C29.5655 12.8619 31.1967 1.44354 37.3817 1.44354C43.5666 1.44354 45.1978 12.8619 45.1978 17.4157C45.1978 22.0374 43.5666 33.4558 37.3817 33.4558Z" fill="white"/>
</svg>
