<?xml version="1.0" encoding="utf-8"?>
<!-- Generator: Adobe Illustrator 24.0.0, SVG Export Plug-In . SVG Version: 6.00 Build 0)  -->
<svg version="1.1" xmlns="http://www.w3.org/2000/svg" xmlns:xlink="http://www.w3.org/1999/xlink" x="0px" y="0px" width="150px"
	 height="150px" viewBox="0 0 150 150" style="enable-background:new 0 0 150 150;" xml:space="preserve">
<style type="text/css">
	.st0{fill:#BBA9A6;}
	.st1{fill:#A5B3B2;}
	.st2{fill:#A0A894;}
	.st3{fill:#8D7C79;}
	.st4{fill:#D3A787;}
	.st5{fill:none;}
	.st6{fill:#FFFFFF;}
	.st7{fill:#B5A3A0;}
	.st8{fill:#9D806A;}
	.st9{fill:#9AA28D;}
	.st10{fill:#51554B;}
	.st11{fill:#545B5A;}
	.st12{fill:#F2EEED;}
	.st13{fill:#5E5554;}
	.st14{opacity:0.4;}
</style>
<g id="Guides">
</g>
<g id="Icons">
	<g>
		<polygon class="st4" points="86.2,43.2 63.8,43.2 52.5,54.5 75,129.5 97.5,54.5 		"/>
		<g>
			<polygon class="st3" points="75,55.5 97.2,55.5 97.5,54.5 96.5,53.5 75,53.5 			"/>
			<polygon class="st3" points="75,95.6 85.2,95.6 85.8,93.6 75,93.6 			"/>
			<polygon class="st3" points="75,76.6 90.9,76.6 92.1,72.6 75,72.6 			"/>
			<polygon class="st3" points="75,116.6 78.9,116.6 80.1,112.6 75,112.6 			"/>
		</g>
		<polygon class="st2" points="75,39.1 87.3,26.5 100.8,30.3 87.3,13.2 78.8,19.7 		"/>
		<polygon class="st2" points="75,39.1 62.7,26.5 49.2,30.3 62.7,13.2 71.2,19.7 		"/>
	</g>
	<path class="st3" d="M34,76.5L29.4,46h-2c-1.1,0-2,0.9-2,2v68.6h4V81.1H30C32.5,81.1,34.3,78.9,34,76.5z"/>
	<path class="st3" d="M128.6,46v12.7c0,0.7-0.6,1.3-1.3,1.3s-1.3-0.6-1.3-1.3l0-12.7h-2l0,12.7c0,0.7-0.6,1.3-1.3,1.3h0
		c-0.7,0-1.3-0.6-1.3-1.3l0-12.7h-2l0,12.7c0,0.7-0.6,1.3-1.3,1.3h0c-0.7,0-1.3-0.6-1.3-1.3V46h-2v14v2v2c0,2.2,1.8,4,4,4h2v48.6h4
		V68h2c2.2,0,4-1.8,4-4v-2v-2V46H128.6z"/>
</g>
</svg>
